G04 #@! TF.GenerationSoftware,KiCad,Pcbnew,(5.1.10)-1*
G04 #@! TF.CreationDate,2021-08-26T23:08:17-05:00*
G04 #@! TF.ProjectId,OGPsim,4f475073-696d-42e6-9b69-6361645f7063,rev?*
G04 #@! TF.SameCoordinates,Original*
G04 #@! TF.FileFunction,Legend,Top*
G04 #@! TF.FilePolarity,Positive*
%FSLAX46Y46*%
G04 Gerber Fmt 4.6, Leading zero omitted, Abs format (unit mm)*
G04 Created by KiCad (PCBNEW (5.1.10)-1) date 2021-08-26 23:08:17*
%MOMM*%
%LPD*%
G01*
G04 APERTURE LIST*
%ADD10C,0.100000*%
%ADD11C,0.150000*%
%ADD12C,0.120000*%
G04 APERTURE END LIST*
D10*
X142957965Y-103725870D02*
X143357965Y-103725870D01*
X142977013Y-103725870D02*
X142957965Y-103687775D01*
X142957965Y-103611584D01*
X142977013Y-103573489D01*
X142996060Y-103554441D01*
X143034156Y-103535394D01*
X143148441Y-103535394D01*
X143186537Y-103554441D01*
X143205584Y-103573489D01*
X143224632Y-103611584D01*
X143224632Y-103687775D01*
X143205584Y-103725870D01*
X143224632Y-103363965D02*
X142957965Y-103363965D01*
X142824632Y-103363965D02*
X142843680Y-103383013D01*
X142862727Y-103363965D01*
X142843680Y-103344918D01*
X142824632Y-103363965D01*
X142862727Y-103363965D01*
X143205584Y-103002060D02*
X143224632Y-103040156D01*
X143224632Y-103116346D01*
X143205584Y-103154441D01*
X143186537Y-103173489D01*
X143148441Y-103192537D01*
X143034156Y-103192537D01*
X142996060Y-103173489D01*
X142977013Y-103154441D01*
X142957965Y-103116346D01*
X142957965Y-103040156D01*
X142977013Y-103002060D01*
X143224632Y-102830632D02*
X142824632Y-102830632D01*
X143072251Y-102792537D02*
X143224632Y-102678251D01*
X142957965Y-102678251D02*
X143110346Y-102830632D01*
X142957965Y-102335394D02*
X143224632Y-102335394D01*
X142957965Y-102506822D02*
X143167489Y-102506822D01*
X143205584Y-102487775D01*
X143224632Y-102449680D01*
X143224632Y-102392537D01*
X143205584Y-102354441D01*
X143186537Y-102335394D01*
X142957965Y-102144918D02*
X143357965Y-102144918D01*
X142977013Y-102144918D02*
X142957965Y-102106822D01*
X142957965Y-102030632D01*
X142977013Y-101992537D01*
X142996060Y-101973489D01*
X143034156Y-101954441D01*
X143148441Y-101954441D01*
X143186537Y-101973489D01*
X143205584Y-101992537D01*
X143224632Y-102030632D01*
X143224632Y-102106822D01*
X143205584Y-102144918D01*
X143524632Y-105183013D02*
X143810346Y-105183013D01*
X143867489Y-105202060D01*
X143905584Y-105240156D01*
X143924632Y-105297299D01*
X143924632Y-105335394D01*
X143924632Y-104821108D02*
X143715108Y-104821108D01*
X143677013Y-104840156D01*
X143657965Y-104878251D01*
X143657965Y-104954441D01*
X143677013Y-104992537D01*
X143905584Y-104821108D02*
X143924632Y-104859203D01*
X143924632Y-104954441D01*
X143905584Y-104992537D01*
X143867489Y-105011584D01*
X143829394Y-105011584D01*
X143791299Y-104992537D01*
X143772251Y-104954441D01*
X143772251Y-104859203D01*
X143753203Y-104821108D01*
X143924632Y-104630632D02*
X143657965Y-104630632D01*
X143734156Y-104630632D02*
X143696060Y-104611584D01*
X143677013Y-104592537D01*
X143657965Y-104554441D01*
X143657965Y-104516346D01*
X143924632Y-104383013D02*
X143657965Y-104383013D01*
X143734156Y-104383013D02*
X143696060Y-104363965D01*
X143677013Y-104344918D01*
X143657965Y-104306822D01*
X143657965Y-104268727D01*
X143905584Y-103983013D02*
X143924632Y-104021108D01*
X143924632Y-104097299D01*
X143905584Y-104135394D01*
X143867489Y-104154441D01*
X143715108Y-104154441D01*
X143677013Y-104135394D01*
X143657965Y-104097299D01*
X143657965Y-104021108D01*
X143677013Y-103983013D01*
X143715108Y-103963965D01*
X143753203Y-103963965D01*
X143791299Y-104154441D01*
X143657965Y-103849680D02*
X143657965Y-103697299D01*
X143524632Y-103792537D02*
X143867489Y-103792537D01*
X143905584Y-103773489D01*
X143924632Y-103735394D01*
X143924632Y-103697299D01*
X143657965Y-103621108D02*
X143657965Y-103468727D01*
X143524632Y-103563965D02*
X143867489Y-103563965D01*
X143905584Y-103544918D01*
X143924632Y-103506822D01*
X143924632Y-103468727D01*
X143886537Y-102802060D02*
X143905584Y-102821108D01*
X143924632Y-102878251D01*
X143924632Y-102916346D01*
X143905584Y-102973489D01*
X143867489Y-103011584D01*
X143829394Y-103030632D01*
X143753203Y-103049680D01*
X143696060Y-103049680D01*
X143619870Y-103030632D01*
X143581775Y-103011584D01*
X143543680Y-102973489D01*
X143524632Y-102916346D01*
X143524632Y-102878251D01*
X143543680Y-102821108D01*
X143562727Y-102802060D01*
X143924632Y-102630632D02*
X143657965Y-102630632D01*
X143524632Y-102630632D02*
X143543680Y-102649680D01*
X143562727Y-102630632D01*
X143543680Y-102611584D01*
X143524632Y-102630632D01*
X143562727Y-102630632D01*
X143657965Y-102268727D02*
X143981775Y-102268727D01*
X144019870Y-102287775D01*
X144038918Y-102306822D01*
X144057965Y-102344918D01*
X144057965Y-102402060D01*
X144038918Y-102440156D01*
X143905584Y-102268727D02*
X143924632Y-102306822D01*
X143924632Y-102383013D01*
X143905584Y-102421108D01*
X143886537Y-102440156D01*
X143848441Y-102459203D01*
X143734156Y-102459203D01*
X143696060Y-102440156D01*
X143677013Y-102421108D01*
X143657965Y-102383013D01*
X143657965Y-102306822D01*
X143677013Y-102268727D01*
X143924632Y-101906822D02*
X143715108Y-101906822D01*
X143677013Y-101925870D01*
X143657965Y-101963965D01*
X143657965Y-102040156D01*
X143677013Y-102078251D01*
X143905584Y-101906822D02*
X143924632Y-101944918D01*
X143924632Y-102040156D01*
X143905584Y-102078251D01*
X143867489Y-102097299D01*
X143829394Y-102097299D01*
X143791299Y-102078251D01*
X143772251Y-102040156D01*
X143772251Y-101944918D01*
X143753203Y-101906822D01*
X143924632Y-101716346D02*
X143657965Y-101716346D01*
X143524632Y-101716346D02*
X143543680Y-101735394D01*
X143562727Y-101716346D01*
X143543680Y-101697299D01*
X143524632Y-101716346D01*
X143562727Y-101716346D01*
X143657965Y-101525870D02*
X143924632Y-101525870D01*
X143696060Y-101525870D02*
X143677013Y-101506822D01*
X143657965Y-101468727D01*
X143657965Y-101411584D01*
X143677013Y-101373489D01*
X143715108Y-101354441D01*
X143924632Y-101354441D01*
X143905584Y-101011584D02*
X143924632Y-101049680D01*
X143924632Y-101125870D01*
X143905584Y-101163965D01*
X143867489Y-101183013D01*
X143715108Y-101183013D01*
X143677013Y-101163965D01*
X143657965Y-101125870D01*
X143657965Y-101049680D01*
X143677013Y-101011584D01*
X143715108Y-100992537D01*
X143753203Y-100992537D01*
X143791299Y-101183013D01*
X143924632Y-100821108D02*
X143657965Y-100821108D01*
X143734156Y-100821108D02*
X143696060Y-100802060D01*
X143677013Y-100783013D01*
X143657965Y-100744918D01*
X143657965Y-100706822D01*
X143924632Y-100516346D02*
X143905584Y-100554441D01*
X143886537Y-100573489D01*
X143848441Y-100592537D01*
X143734156Y-100592537D01*
X143696060Y-100573489D01*
X143677013Y-100554441D01*
X143657965Y-100516346D01*
X143657965Y-100459203D01*
X143677013Y-100421108D01*
X143696060Y-100402060D01*
X143734156Y-100383013D01*
X143848441Y-100383013D01*
X143886537Y-100402060D01*
X143905584Y-100421108D01*
X143924632Y-100459203D01*
X143924632Y-100516346D01*
X144510346Y-104849680D02*
X144510346Y-104659203D01*
X144624632Y-104887775D02*
X144224632Y-104754441D01*
X144624632Y-104621108D01*
X144357965Y-104316346D02*
X144624632Y-104316346D01*
X144357965Y-104487775D02*
X144567489Y-104487775D01*
X144605584Y-104468727D01*
X144624632Y-104430632D01*
X144624632Y-104373489D01*
X144605584Y-104335394D01*
X144586537Y-104316346D01*
X144357965Y-103954441D02*
X144681775Y-103954441D01*
X144719870Y-103973489D01*
X144738918Y-103992537D01*
X144757965Y-104030632D01*
X144757965Y-104087775D01*
X144738918Y-104125870D01*
X144605584Y-103954441D02*
X144624632Y-103992537D01*
X144624632Y-104068727D01*
X144605584Y-104106822D01*
X144586537Y-104125870D01*
X144548441Y-104144918D01*
X144434156Y-104144918D01*
X144396060Y-104125870D01*
X144377013Y-104106822D01*
X144357965Y-104068727D01*
X144357965Y-103992537D01*
X144377013Y-103954441D01*
X144262727Y-103478251D02*
X144243680Y-103459203D01*
X144224632Y-103421108D01*
X144224632Y-103325870D01*
X144243680Y-103287775D01*
X144262727Y-103268727D01*
X144300822Y-103249680D01*
X144338918Y-103249680D01*
X144396060Y-103268727D01*
X144624632Y-103497299D01*
X144624632Y-103249680D01*
X144224632Y-102906822D02*
X144224632Y-102983013D01*
X144243680Y-103021108D01*
X144262727Y-103040156D01*
X144319870Y-103078251D01*
X144396060Y-103097299D01*
X144548441Y-103097299D01*
X144586537Y-103078251D01*
X144605584Y-103059203D01*
X144624632Y-103021108D01*
X144624632Y-102944918D01*
X144605584Y-102906822D01*
X144586537Y-102887775D01*
X144548441Y-102868727D01*
X144453203Y-102868727D01*
X144415108Y-102887775D01*
X144396060Y-102906822D01*
X144377013Y-102944918D01*
X144377013Y-103021108D01*
X144396060Y-103059203D01*
X144415108Y-103078251D01*
X144453203Y-103097299D01*
X144605584Y-102678251D02*
X144624632Y-102678251D01*
X144662727Y-102697299D01*
X144681775Y-102716346D01*
X144262727Y-102221108D02*
X144243680Y-102202060D01*
X144224632Y-102163965D01*
X144224632Y-102068727D01*
X144243680Y-102030632D01*
X144262727Y-102011584D01*
X144300822Y-101992537D01*
X144338918Y-101992537D01*
X144396060Y-102011584D01*
X144624632Y-102240156D01*
X144624632Y-101992537D01*
X144224632Y-101744918D02*
X144224632Y-101706822D01*
X144243680Y-101668727D01*
X144262727Y-101649680D01*
X144300822Y-101630632D01*
X144377013Y-101611584D01*
X144472251Y-101611584D01*
X144548441Y-101630632D01*
X144586537Y-101649680D01*
X144605584Y-101668727D01*
X144624632Y-101706822D01*
X144624632Y-101744918D01*
X144605584Y-101783013D01*
X144586537Y-101802060D01*
X144548441Y-101821108D01*
X144472251Y-101840156D01*
X144377013Y-101840156D01*
X144300822Y-101821108D01*
X144262727Y-101802060D01*
X144243680Y-101783013D01*
X144224632Y-101744918D01*
X144262727Y-101459203D02*
X144243680Y-101440156D01*
X144224632Y-101402060D01*
X144224632Y-101306822D01*
X144243680Y-101268727D01*
X144262727Y-101249680D01*
X144300822Y-101230632D01*
X144338918Y-101230632D01*
X144396060Y-101249680D01*
X144624632Y-101478251D01*
X144624632Y-101230632D01*
X144624632Y-100849680D02*
X144624632Y-101078251D01*
X144624632Y-100963965D02*
X144224632Y-100963965D01*
X144281775Y-101002060D01*
X144319870Y-101040156D01*
X144338918Y-101078251D01*
D11*
X143201045Y-101275140D02*
X143201045Y-100751331D01*
X143153426Y-100656093D01*
X143058188Y-100608474D01*
X142867712Y-100608474D01*
X142772474Y-100656093D01*
X143201045Y-101227521D02*
X143105807Y-101275140D01*
X142867712Y-101275140D01*
X142772474Y-101227521D01*
X142724855Y-101132283D01*
X142724855Y-101037045D01*
X142772474Y-100941807D01*
X142867712Y-100894188D01*
X143105807Y-100894188D01*
X143201045Y-100846569D01*
X143224855Y-105144201D02*
X143129617Y-105191820D01*
X142939140Y-105191820D01*
X142843902Y-105144201D01*
X142796283Y-105096582D01*
X142748664Y-105001344D01*
X142748664Y-104715630D01*
X142796283Y-104620392D01*
X142843902Y-104572773D01*
X142939140Y-104525154D01*
X143129617Y-104525154D01*
X143224855Y-104572773D01*
D12*
X142143000Y-102779600D02*
X140043000Y-102779600D01*
X142143000Y-101639600D02*
X140043000Y-101639600D01*
X142143000Y-102779600D02*
X142143000Y-101639600D01*
X142143000Y-104303600D02*
X142143000Y-103163600D01*
X142143000Y-103163600D02*
X140043000Y-103163600D01*
X142143000Y-104303600D02*
X140043000Y-104303600D01*
X141443000Y-101311600D02*
X140243000Y-101311600D01*
X140243000Y-99551600D02*
X141443000Y-99551600D01*
X140243000Y-104504600D02*
X141443000Y-104504600D01*
X141443000Y-106264600D02*
X140243000Y-106264600D01*
X139568400Y-98204400D02*
X141668400Y-98204400D01*
X139568400Y-99204400D02*
X141668400Y-99204400D01*
X139568400Y-98204400D02*
X139568400Y-99204400D01*
X142168400Y-107586400D02*
X142168400Y-106586400D01*
X142168400Y-106586400D02*
X140068400Y-106586400D01*
X142168400Y-107586400D02*
X140068400Y-107586400D01*
X146639200Y-98322400D02*
X146639200Y-100102400D01*
X142819200Y-100102400D02*
X146639200Y-100102400D01*
X142819200Y-98322400D02*
X142819200Y-100102400D01*
X146639200Y-98322400D02*
X142819200Y-98322400D01*
X146588400Y-105688400D02*
X142768400Y-105688400D01*
X142768400Y-105688400D02*
X142768400Y-107468400D01*
X142768400Y-107468400D02*
X146588400Y-107468400D01*
X146588400Y-105688400D02*
X146588400Y-107468400D01*
X144855200Y-101650800D02*
X146635200Y-101650800D01*
X146635200Y-104190800D02*
X144855200Y-104190800D01*
X146635200Y-104190800D02*
X146635200Y-101650800D01*
X144855200Y-101650800D02*
X144855200Y-104190800D01*
M02*
