G04 #@! TF.GenerationSoftware,KiCad,Pcbnew,(5.1.10)-1*
G04 #@! TF.CreationDate,2021-08-26T20:57:21-05:00*
G04 #@! TF.ProjectId,OGPsim,4f475073-696d-42e6-9b69-6361645f7063,rev?*
G04 #@! TF.SameCoordinates,Original*
G04 #@! TF.FileFunction,Copper,L2,Bot*
G04 #@! TF.FilePolarity,Positive*
%FSLAX46Y46*%
G04 Gerber Fmt 4.6, Leading zero omitted, Abs format (unit mm)*
G04 Created by KiCad (PCBNEW (5.1.10)-1) date 2021-08-26 20:57:21*
%MOMM*%
%LPD*%
G01*
G04 APERTURE LIST*
G04 #@! TA.AperFunction,ViaPad*
%ADD10C,0.400000*%
G04 #@! TD*
G04 #@! TA.AperFunction,ViaPad*
%ADD11C,0.800000*%
G04 #@! TD*
G04 #@! TA.AperFunction,Conductor*
%ADD12C,0.250000*%
G04 #@! TD*
G04 #@! TA.AperFunction,Conductor*
%ADD13C,0.200000*%
G04 #@! TD*
G04 #@! TA.AperFunction,Conductor*
%ADD14C,0.100000*%
G04 #@! TD*
G04 APERTURE END LIST*
D10*
X139993000Y-102932600D03*
X144678400Y-107391200D03*
X144678400Y-98348800D03*
X139954000Y-101498400D03*
X139852400Y-104241600D03*
X140868400Y-106222800D03*
X144272000Y-102209600D03*
X144272000Y-103632000D03*
X142798800Y-100380800D03*
X142798800Y-101549200D03*
X142849600Y-105359200D03*
X142849600Y-104394000D03*
X144170400Y-100533200D03*
X144170400Y-105257600D03*
X140868400Y-99517200D03*
D11*
X145796000Y-100888800D03*
X145796000Y-104902000D03*
D10*
X140766800Y-102971600D03*
X146253200Y-103530400D03*
X142138400Y-103733600D03*
X146253200Y-102260400D03*
X142138400Y-102209600D03*
D12*
X145796000Y-101549200D02*
X145796000Y-100888800D01*
X144373600Y-102971600D02*
X145796000Y-101549200D01*
X145796000Y-104394000D02*
X144373600Y-102971600D01*
X145796000Y-104902000D02*
X145796000Y-104394000D01*
X140766800Y-102971600D02*
X144373600Y-102971600D01*
X146558000Y-103835200D02*
X146253200Y-103530400D01*
X146558000Y-105562400D02*
X146558000Y-103835200D01*
X144729200Y-104851200D02*
X144729200Y-105460800D01*
X144729200Y-105460800D02*
X145288000Y-106019600D01*
X146100800Y-106019600D02*
X146558000Y-105562400D01*
X145338800Y-106019600D02*
X146100800Y-106019600D01*
X143611600Y-103733600D02*
X144729200Y-104851200D01*
X143611600Y-103733600D02*
X142138400Y-103733600D01*
X142138400Y-102209600D02*
X143510000Y-102209600D01*
X143510000Y-102209600D02*
X144780000Y-100939600D01*
X144780000Y-100939600D02*
X144780000Y-100330000D01*
X144780000Y-100330000D02*
X145338800Y-99771200D01*
X145338800Y-99771200D02*
X146100800Y-99771200D01*
X146100800Y-99771200D02*
X146558000Y-100228400D01*
X146558000Y-101955600D02*
X146253200Y-102260400D01*
X146558000Y-100228400D02*
X146558000Y-101955600D01*
D13*
X146640200Y-99638850D02*
X146453184Y-99451834D01*
X146438301Y-99433699D01*
X146365973Y-99374341D01*
X146283454Y-99330234D01*
X146193916Y-99303073D01*
X146124132Y-99296200D01*
X146100800Y-99293902D01*
X146077468Y-99296200D01*
X145362132Y-99296200D01*
X145338800Y-99293902D01*
X145315468Y-99296200D01*
X145245684Y-99303073D01*
X145156146Y-99330234D01*
X145073627Y-99374341D01*
X145001299Y-99433699D01*
X144986425Y-99451823D01*
X144460629Y-99977621D01*
X144442500Y-99992499D01*
X144383142Y-100064827D01*
X144369378Y-100090578D01*
X144339035Y-100147346D01*
X144311873Y-100236884D01*
X144302702Y-100330000D01*
X144305001Y-100353342D01*
X144305000Y-100742849D01*
X143313250Y-101734600D01*
X142417485Y-101734600D01*
X142398923Y-101722197D01*
X142298829Y-101680736D01*
X142192570Y-101659600D01*
X142084230Y-101659600D01*
X141977971Y-101680736D01*
X141877877Y-101722197D01*
X141787796Y-101782387D01*
X141711187Y-101858996D01*
X141650997Y-101949077D01*
X141609536Y-102049171D01*
X141588400Y-102155430D01*
X141588400Y-102263770D01*
X141609536Y-102370029D01*
X141650997Y-102470123D01*
X141668688Y-102496600D01*
X141045885Y-102496600D01*
X141027323Y-102484197D01*
X140927229Y-102442736D01*
X140820970Y-102421600D01*
X140712630Y-102421600D01*
X140606371Y-102442736D01*
X140506277Y-102484197D01*
X140416196Y-102544387D01*
X140339587Y-102620996D01*
X140279397Y-102711077D01*
X140237936Y-102811171D01*
X140216800Y-102917430D01*
X140216800Y-103025770D01*
X140237936Y-103132029D01*
X140279397Y-103232123D01*
X140339587Y-103322204D01*
X140416196Y-103398813D01*
X140506277Y-103459003D01*
X140606371Y-103500464D01*
X140712630Y-103521600D01*
X140820970Y-103521600D01*
X140927229Y-103500464D01*
X141027323Y-103459003D01*
X141045885Y-103446600D01*
X141668688Y-103446600D01*
X141650997Y-103473077D01*
X141609536Y-103573171D01*
X141588400Y-103679430D01*
X141588400Y-103787770D01*
X141609536Y-103894029D01*
X141650997Y-103994123D01*
X141711187Y-104084204D01*
X141787796Y-104160813D01*
X141877877Y-104221003D01*
X141977971Y-104262464D01*
X142084230Y-104283600D01*
X142192570Y-104283600D01*
X142298829Y-104262464D01*
X142398923Y-104221003D01*
X142417485Y-104208600D01*
X143414850Y-104208600D01*
X144254200Y-105047951D01*
X144254201Y-105437458D01*
X144251902Y-105460800D01*
X144261073Y-105553916D01*
X144270725Y-105585732D01*
X144288235Y-105643454D01*
X144332342Y-105725973D01*
X144391700Y-105798301D01*
X144409829Y-105813179D01*
X144968622Y-106371974D01*
X145022827Y-106416459D01*
X145105346Y-106460566D01*
X145194884Y-106487727D01*
X145288000Y-106496898D01*
X145313400Y-106494396D01*
X145315468Y-106494600D01*
X146077468Y-106494600D01*
X146100800Y-106496898D01*
X146124132Y-106494600D01*
X146193916Y-106487727D01*
X146283454Y-106460566D01*
X146365973Y-106416459D01*
X146438301Y-106357101D01*
X146453184Y-106338966D01*
X146640201Y-106151950D01*
X146640201Y-107524200D01*
X139059000Y-107524200D01*
X139059000Y-98266600D01*
X146640200Y-98266600D01*
X146640200Y-99638850D01*
G04 #@! TA.AperFunction,Conductor*
D14*
G36*
X146640200Y-99638850D02*
G01*
X146453184Y-99451834D01*
X146438301Y-99433699D01*
X146365973Y-99374341D01*
X146283454Y-99330234D01*
X146193916Y-99303073D01*
X146124132Y-99296200D01*
X146100800Y-99293902D01*
X146077468Y-99296200D01*
X145362132Y-99296200D01*
X145338800Y-99293902D01*
X145315468Y-99296200D01*
X145245684Y-99303073D01*
X145156146Y-99330234D01*
X145073627Y-99374341D01*
X145001299Y-99433699D01*
X144986425Y-99451823D01*
X144460629Y-99977621D01*
X144442500Y-99992499D01*
X144383142Y-100064827D01*
X144369378Y-100090578D01*
X144339035Y-100147346D01*
X144311873Y-100236884D01*
X144302702Y-100330000D01*
X144305001Y-100353342D01*
X144305000Y-100742849D01*
X143313250Y-101734600D01*
X142417485Y-101734600D01*
X142398923Y-101722197D01*
X142298829Y-101680736D01*
X142192570Y-101659600D01*
X142084230Y-101659600D01*
X141977971Y-101680736D01*
X141877877Y-101722197D01*
X141787796Y-101782387D01*
X141711187Y-101858996D01*
X141650997Y-101949077D01*
X141609536Y-102049171D01*
X141588400Y-102155430D01*
X141588400Y-102263770D01*
X141609536Y-102370029D01*
X141650997Y-102470123D01*
X141668688Y-102496600D01*
X141045885Y-102496600D01*
X141027323Y-102484197D01*
X140927229Y-102442736D01*
X140820970Y-102421600D01*
X140712630Y-102421600D01*
X140606371Y-102442736D01*
X140506277Y-102484197D01*
X140416196Y-102544387D01*
X140339587Y-102620996D01*
X140279397Y-102711077D01*
X140237936Y-102811171D01*
X140216800Y-102917430D01*
X140216800Y-103025770D01*
X140237936Y-103132029D01*
X140279397Y-103232123D01*
X140339587Y-103322204D01*
X140416196Y-103398813D01*
X140506277Y-103459003D01*
X140606371Y-103500464D01*
X140712630Y-103521600D01*
X140820970Y-103521600D01*
X140927229Y-103500464D01*
X141027323Y-103459003D01*
X141045885Y-103446600D01*
X141668688Y-103446600D01*
X141650997Y-103473077D01*
X141609536Y-103573171D01*
X141588400Y-103679430D01*
X141588400Y-103787770D01*
X141609536Y-103894029D01*
X141650997Y-103994123D01*
X141711187Y-104084204D01*
X141787796Y-104160813D01*
X141877877Y-104221003D01*
X141977971Y-104262464D01*
X142084230Y-104283600D01*
X142192570Y-104283600D01*
X142298829Y-104262464D01*
X142398923Y-104221003D01*
X142417485Y-104208600D01*
X143414850Y-104208600D01*
X144254200Y-105047951D01*
X144254201Y-105437458D01*
X144251902Y-105460800D01*
X144261073Y-105553916D01*
X144270725Y-105585732D01*
X144288235Y-105643454D01*
X144332342Y-105725973D01*
X144391700Y-105798301D01*
X144409829Y-105813179D01*
X144968622Y-106371974D01*
X145022827Y-106416459D01*
X145105346Y-106460566D01*
X145194884Y-106487727D01*
X145288000Y-106496898D01*
X145313400Y-106494396D01*
X145315468Y-106494600D01*
X146077468Y-106494600D01*
X146100800Y-106496898D01*
X146124132Y-106494600D01*
X146193916Y-106487727D01*
X146283454Y-106460566D01*
X146365973Y-106416459D01*
X146438301Y-106357101D01*
X146453184Y-106338966D01*
X146640201Y-106151950D01*
X146640201Y-107524200D01*
X139059000Y-107524200D01*
X139059000Y-98266600D01*
X146640200Y-98266600D01*
X146640200Y-99638850D01*
G37*
G04 #@! TD.AperFunction*
D13*
X145189691Y-104459442D02*
X145131359Y-104546742D01*
X145118767Y-104577142D01*
X145066701Y-104513699D01*
X145048571Y-104498820D01*
X143996350Y-103446600D01*
X144176850Y-103446600D01*
X145189691Y-104459442D01*
G04 #@! TA.AperFunction,Conductor*
D14*
G36*
X145189691Y-104459442D02*
G01*
X145131359Y-104546742D01*
X145118767Y-104577142D01*
X145066701Y-104513699D01*
X145048571Y-104498820D01*
X143996350Y-103446600D01*
X144176850Y-103446600D01*
X145189691Y-104459442D01*
G37*
G04 #@! TD.AperFunction*
D13*
X145213437Y-101366897D02*
X145259995Y-101413455D01*
X144176850Y-102496600D01*
X143894750Y-102496600D01*
X145099371Y-101291980D01*
X145117501Y-101277101D01*
X145137310Y-101252964D01*
X145213437Y-101366897D01*
G04 #@! TA.AperFunction,Conductor*
D14*
G36*
X145213437Y-101366897D02*
G01*
X145259995Y-101413455D01*
X144176850Y-102496600D01*
X143894750Y-102496600D01*
X145099371Y-101291980D01*
X145117501Y-101277101D01*
X145137310Y-101252964D01*
X145213437Y-101366897D01*
G37*
G04 #@! TD.AperFunction*
M02*
