G04 #@! TF.GenerationSoftware,KiCad,Pcbnew,(5.1.10)-1*
G04 #@! TF.CreationDate,2021-08-26T20:57:21-05:00*
G04 #@! TF.ProjectId,OGPsim,4f475073-696d-42e6-9b69-6361645f7063,rev?*
G04 #@! TF.SameCoordinates,Original*
G04 #@! TF.FileFunction,Legend,Top*
G04 #@! TF.FilePolarity,Positive*
%FSLAX46Y46*%
G04 Gerber Fmt 4.6, Leading zero omitted, Abs format (unit mm)*
G04 Created by KiCad (PCBNEW (5.1.10)-1) date 2021-08-26 20:57:21*
%MOMM*%
%LPD*%
G01*
G04 APERTURE LIST*
%ADD10C,0.150000*%
%ADD11C,0.120000*%
G04 APERTURE END LIST*
D10*
X143622685Y-101188780D02*
X143622685Y-100664971D01*
X143575066Y-100569733D01*
X143479828Y-100522114D01*
X143289352Y-100522114D01*
X143194114Y-100569733D01*
X143622685Y-101141161D02*
X143527447Y-101188780D01*
X143289352Y-101188780D01*
X143194114Y-101141161D01*
X143146495Y-101045923D01*
X143146495Y-100950685D01*
X143194114Y-100855447D01*
X143289352Y-100807828D01*
X143527447Y-100807828D01*
X143622685Y-100760209D01*
X143646495Y-105255961D02*
X143551257Y-105303580D01*
X143360780Y-105303580D01*
X143265542Y-105255961D01*
X143217923Y-105208342D01*
X143170304Y-105113104D01*
X143170304Y-104827390D01*
X143217923Y-104732152D01*
X143265542Y-104684533D01*
X143360780Y-104636914D01*
X143551257Y-104636914D01*
X143646495Y-104684533D01*
D11*
X142143000Y-102779600D02*
X140043000Y-102779600D01*
X142143000Y-101639600D02*
X140043000Y-101639600D01*
X142143000Y-102779600D02*
X142143000Y-101639600D01*
X142143000Y-104303600D02*
X142143000Y-103163600D01*
X142143000Y-103163600D02*
X140043000Y-103163600D01*
X142143000Y-104303600D02*
X140043000Y-104303600D01*
X141443000Y-101311600D02*
X140243000Y-101311600D01*
X140243000Y-99551600D02*
X141443000Y-99551600D01*
X140243000Y-104504600D02*
X141443000Y-104504600D01*
X141443000Y-106264600D02*
X140243000Y-106264600D01*
X139568400Y-98204400D02*
X141668400Y-98204400D01*
X139568400Y-99204400D02*
X141668400Y-99204400D01*
X139568400Y-98204400D02*
X139568400Y-99204400D01*
X142168400Y-107586400D02*
X142168400Y-106586400D01*
X142168400Y-106586400D02*
X140068400Y-106586400D01*
X142168400Y-107586400D02*
X140068400Y-107586400D01*
X146639200Y-98322400D02*
X146639200Y-100102400D01*
X142819200Y-100102400D02*
X146639200Y-100102400D01*
X142819200Y-98322400D02*
X142819200Y-100102400D01*
X146639200Y-98322400D02*
X142819200Y-98322400D01*
X146588400Y-105688400D02*
X142768400Y-105688400D01*
X142768400Y-105688400D02*
X142768400Y-107468400D01*
X142768400Y-107468400D02*
X146588400Y-107468400D01*
X146588400Y-105688400D02*
X146588400Y-107468400D01*
X144855200Y-101650800D02*
X146635200Y-101650800D01*
X146635200Y-104190800D02*
X144855200Y-104190800D01*
X146635200Y-104190800D02*
X146635200Y-101650800D01*
X144855200Y-101650800D02*
X144855200Y-104190800D01*
M02*
