M48
; DRILL file {KiCad (5.1.10)-1} date 08/26/21 23:08:21
; FORMAT={-:-/ absolute / metric / decimal}
; #@! TF.CreationDate,2021-08-26T23:08:21-05:00
; #@! TF.GenerationSoftware,Kicad,Pcbnew,(5.1.10)-1
; #@! TF.FileFunction,Plated,1,2,PTH
FMAT,2
METRIC
T1C0.300
T2C0.400
%
G90
G05
T1
X139.852Y-104.242
X139.954Y-101.498
X139.993Y-102.933
X140.767Y-102.972
X140.868Y-99.517
X140.868Y-106.223
X142.138Y-102.21
X142.138Y-103.734
X142.799Y-100.381
X142.799Y-101.549
X142.85Y-104.394
X142.85Y-105.359
X144.17Y-100.533
X144.17Y-105.258
X144.272Y-102.21
X144.272Y-103.632
X144.678Y-98.349
X144.678Y-107.391
X146.253Y-102.26
X146.253Y-103.53
T2
X145.796Y-100.889
X145.796Y-104.902
T0
M30
