G04 #@! TF.GenerationSoftware,KiCad,Pcbnew,(5.1.10)-1*
G04 #@! TF.CreationDate,2021-08-26T23:08:17-05:00*
G04 #@! TF.ProjectId,OGPsim,4f475073-696d-42e6-9b69-6361645f7063,rev?*
G04 #@! TF.SameCoordinates,Original*
G04 #@! TF.FileFunction,Copper,L1,Top*
G04 #@! TF.FilePolarity,Positive*
%FSLAX46Y46*%
G04 Gerber Fmt 4.6, Leading zero omitted, Abs format (unit mm)*
G04 Created by KiCad (PCBNEW (5.1.10)-1) date 2021-08-26 23:08:17*
%MOMM*%
%LPD*%
G01*
G04 APERTURE LIST*
G04 #@! TA.AperFunction,SMDPad,CuDef*
%ADD10R,0.600000X0.800000*%
G04 #@! TD*
G04 #@! TA.AperFunction,SMDPad,CuDef*
%ADD11R,0.700000X1.300000*%
G04 #@! TD*
G04 #@! TA.AperFunction,SMDPad,CuDef*
%ADD12R,0.800000X0.800000*%
G04 #@! TD*
G04 #@! TA.AperFunction,SMDPad,CuDef*
%ADD13R,0.970000X1.270000*%
G04 #@! TD*
G04 #@! TA.AperFunction,SMDPad,CuDef*
%ADD14R,1.270000X0.970000*%
G04 #@! TD*
G04 #@! TA.AperFunction,ViaPad*
%ADD15C,0.400000*%
G04 #@! TD*
G04 #@! TA.AperFunction,ViaPad*
%ADD16C,0.800000*%
G04 #@! TD*
G04 #@! TA.AperFunction,Conductor*
%ADD17C,0.250000*%
G04 #@! TD*
G04 #@! TA.AperFunction,Conductor*
%ADD18C,0.254000*%
G04 #@! TD*
G04 #@! TA.AperFunction,Conductor*
%ADD19C,0.100000*%
G04 #@! TD*
G04 APERTURE END LIST*
D10*
X139993000Y-102209600D03*
X141693000Y-102209600D03*
X141693000Y-103733600D03*
X139993000Y-103733600D03*
D11*
X139893000Y-100431600D03*
X141793000Y-100431600D03*
X141793000Y-105384600D03*
X139893000Y-105384600D03*
D12*
X140068400Y-98704400D03*
X141668400Y-98704400D03*
X140068400Y-107086400D03*
X141668400Y-107086400D03*
D13*
X143459200Y-99212400D03*
X144729200Y-99212400D03*
X145999200Y-99212400D03*
X145948400Y-106578400D03*
X144678400Y-106578400D03*
X143408400Y-106578400D03*
D14*
X145745200Y-103560800D03*
X145745200Y-102280800D03*
D15*
X139993000Y-102932600D03*
X144678400Y-107391200D03*
X144678400Y-98348800D03*
X139954000Y-101498400D03*
X139852400Y-104241600D03*
X140868400Y-106222800D03*
X144272000Y-102209600D03*
X144272000Y-103632000D03*
X142798800Y-100380800D03*
X142798800Y-101549200D03*
X142849600Y-105359200D03*
X142849600Y-104394000D03*
X144170400Y-100533200D03*
X144170400Y-105257600D03*
X140868400Y-99517200D03*
D16*
X145796000Y-100888800D03*
X145796000Y-104902000D03*
D15*
X140766800Y-102971600D03*
X146253200Y-103530400D03*
X142138400Y-103733600D03*
X146253200Y-102260400D03*
X142138400Y-102209600D03*
D17*
X139993000Y-102909000D02*
X140055600Y-102971600D01*
X139993000Y-102209600D02*
X139993000Y-102909000D01*
X139993000Y-102909000D02*
X139993000Y-102932600D01*
X139993000Y-102932600D02*
X139993000Y-103733600D01*
X139893000Y-100431600D02*
X140411200Y-100431600D01*
X140411200Y-100431600D02*
X140766800Y-100787200D01*
X140766800Y-104952800D02*
X140335000Y-105384600D01*
X140766800Y-100787200D02*
X140766800Y-102971600D01*
X140766800Y-102971600D02*
X140766800Y-104952800D01*
X140335000Y-105384600D02*
X139893000Y-105384600D01*
X145999200Y-100685600D02*
X145796000Y-100888800D01*
X145999200Y-99212400D02*
X145999200Y-100685600D01*
X145796000Y-106375200D02*
X145948400Y-106527600D01*
X145796000Y-104851200D02*
X145796000Y-106375200D01*
X140068400Y-107086400D02*
X139598400Y-107086400D01*
X139598400Y-107086400D02*
X139192000Y-106680000D01*
X139192000Y-99580800D02*
X140068400Y-98704400D01*
X139192000Y-106680000D02*
X139192000Y-99580800D01*
X142849600Y-107086400D02*
X143408400Y-106527600D01*
X141668400Y-107086400D02*
X142849600Y-107086400D01*
X142951200Y-98704400D02*
X143459200Y-99212400D01*
X141668400Y-98704400D02*
X142951200Y-98704400D01*
X141693000Y-103733600D02*
X141693000Y-105284600D01*
X141693000Y-105284600D02*
X141793000Y-105384600D01*
X141793000Y-105384600D02*
X141808200Y-105384600D01*
X141693000Y-103733600D02*
X142138400Y-103733600D01*
X141693000Y-102209600D02*
X141693000Y-100531600D01*
X141693000Y-100531600D02*
X141793000Y-100431600D01*
X141713400Y-102230000D02*
X141693000Y-102209600D01*
X141693000Y-102209600D02*
X142138400Y-102209600D01*
D18*
X145117795Y-98413204D02*
X145093378Y-98493693D01*
X145085134Y-98577400D01*
X145085134Y-99847400D01*
X145093378Y-99931107D01*
X145117795Y-100011596D01*
X145157445Y-100085776D01*
X145210805Y-100150795D01*
X145275824Y-100204155D01*
X145307081Y-100220862D01*
X145268819Y-100246428D01*
X145153628Y-100361619D01*
X145063123Y-100497069D01*
X145000782Y-100647573D01*
X144969000Y-100807348D01*
X144969000Y-100970252D01*
X145000782Y-101130027D01*
X145063123Y-101280531D01*
X145120722Y-101366734D01*
X145110200Y-101366734D01*
X145026493Y-101374978D01*
X144946004Y-101399395D01*
X144871824Y-101439045D01*
X144806805Y-101492405D01*
X144753445Y-101557424D01*
X144713795Y-101631604D01*
X144689378Y-101712093D01*
X144681134Y-101795800D01*
X144681134Y-102765800D01*
X144689378Y-102849507D01*
X144711005Y-102920800D01*
X144689378Y-102992093D01*
X144681134Y-103075800D01*
X144681134Y-104045800D01*
X144689378Y-104129507D01*
X144713795Y-104209996D01*
X144753445Y-104284176D01*
X144806805Y-104349195D01*
X144871824Y-104402555D01*
X144946004Y-104442205D01*
X145026493Y-104466622D01*
X145088225Y-104472702D01*
X145063123Y-104510269D01*
X145000782Y-104660773D01*
X144969000Y-104820548D01*
X144969000Y-104983452D01*
X145000782Y-105143227D01*
X145063123Y-105293731D01*
X145153628Y-105429181D01*
X145244000Y-105519553D01*
X145244000Y-105576502D01*
X145225024Y-105586645D01*
X145160005Y-105640005D01*
X145106645Y-105705024D01*
X145066995Y-105779204D01*
X145042578Y-105859693D01*
X145034334Y-105943400D01*
X145034334Y-107213400D01*
X145042578Y-107297107D01*
X145066995Y-107377596D01*
X145104199Y-107447200D01*
X144252601Y-107447200D01*
X144289805Y-107377596D01*
X144314222Y-107297107D01*
X144322466Y-107213400D01*
X144322466Y-105943400D01*
X144314222Y-105859693D01*
X144289805Y-105779204D01*
X144250155Y-105705024D01*
X144196795Y-105640005D01*
X144131776Y-105586645D01*
X144057596Y-105546995D01*
X143977107Y-105522578D01*
X143893400Y-105514334D01*
X142923400Y-105514334D01*
X142839693Y-105522578D01*
X142759204Y-105546995D01*
X142685024Y-105586645D01*
X142620005Y-105640005D01*
X142572066Y-105698419D01*
X142572066Y-104734600D01*
X142563822Y-104650893D01*
X142539405Y-104570404D01*
X142499755Y-104496224D01*
X142446395Y-104431205D01*
X142381376Y-104377845D01*
X142354342Y-104363395D01*
X142382201Y-104311274D01*
X142435396Y-104289240D01*
X142538089Y-104220623D01*
X142625423Y-104133289D01*
X142694040Y-104030596D01*
X142741305Y-103916489D01*
X142765400Y-103795354D01*
X142765400Y-103671846D01*
X142741305Y-103550711D01*
X142694040Y-103436604D01*
X142625423Y-103333911D01*
X142538089Y-103246577D01*
X142435396Y-103177960D01*
X142382201Y-103155926D01*
X142349755Y-103095224D01*
X142296395Y-103030205D01*
X142231376Y-102976845D01*
X142221563Y-102971600D01*
X142231376Y-102966355D01*
X142296395Y-102912995D01*
X142349755Y-102847976D01*
X142382201Y-102787274D01*
X142435396Y-102765240D01*
X142538089Y-102696623D01*
X142625423Y-102609289D01*
X142694040Y-102506596D01*
X142741305Y-102392489D01*
X142765400Y-102271354D01*
X142765400Y-102147846D01*
X142741305Y-102026711D01*
X142694040Y-101912604D01*
X142625423Y-101809911D01*
X142538089Y-101722577D01*
X142435396Y-101653960D01*
X142382201Y-101631926D01*
X142349755Y-101571224D01*
X142296395Y-101506205D01*
X142274222Y-101488008D01*
X142307196Y-101478005D01*
X142381376Y-101438355D01*
X142446395Y-101384995D01*
X142499755Y-101319976D01*
X142539405Y-101245796D01*
X142563822Y-101165307D01*
X142572066Y-101081600D01*
X142572066Y-99992711D01*
X142577795Y-100011596D01*
X142617445Y-100085776D01*
X142670805Y-100150795D01*
X142735824Y-100204155D01*
X142810004Y-100243805D01*
X142890493Y-100268222D01*
X142974200Y-100276466D01*
X143944200Y-100276466D01*
X144027907Y-100268222D01*
X144108396Y-100243805D01*
X144182576Y-100204155D01*
X144247595Y-100150795D01*
X144300955Y-100085776D01*
X144340605Y-100011596D01*
X144365022Y-99931107D01*
X144373266Y-99847400D01*
X144373266Y-98577400D01*
X144365022Y-98493693D01*
X144340605Y-98413204D01*
X144303401Y-98343600D01*
X145154999Y-98343600D01*
X145117795Y-98413204D01*
G04 #@! TA.AperFunction,Conductor*
D19*
G36*
X145117795Y-98413204D02*
G01*
X145093378Y-98493693D01*
X145085134Y-98577400D01*
X145085134Y-99847400D01*
X145093378Y-99931107D01*
X145117795Y-100011596D01*
X145157445Y-100085776D01*
X145210805Y-100150795D01*
X145275824Y-100204155D01*
X145307081Y-100220862D01*
X145268819Y-100246428D01*
X145153628Y-100361619D01*
X145063123Y-100497069D01*
X145000782Y-100647573D01*
X144969000Y-100807348D01*
X144969000Y-100970252D01*
X145000782Y-101130027D01*
X145063123Y-101280531D01*
X145120722Y-101366734D01*
X145110200Y-101366734D01*
X145026493Y-101374978D01*
X144946004Y-101399395D01*
X144871824Y-101439045D01*
X144806805Y-101492405D01*
X144753445Y-101557424D01*
X144713795Y-101631604D01*
X144689378Y-101712093D01*
X144681134Y-101795800D01*
X144681134Y-102765800D01*
X144689378Y-102849507D01*
X144711005Y-102920800D01*
X144689378Y-102992093D01*
X144681134Y-103075800D01*
X144681134Y-104045800D01*
X144689378Y-104129507D01*
X144713795Y-104209996D01*
X144753445Y-104284176D01*
X144806805Y-104349195D01*
X144871824Y-104402555D01*
X144946004Y-104442205D01*
X145026493Y-104466622D01*
X145088225Y-104472702D01*
X145063123Y-104510269D01*
X145000782Y-104660773D01*
X144969000Y-104820548D01*
X144969000Y-104983452D01*
X145000782Y-105143227D01*
X145063123Y-105293731D01*
X145153628Y-105429181D01*
X145244000Y-105519553D01*
X145244000Y-105576502D01*
X145225024Y-105586645D01*
X145160005Y-105640005D01*
X145106645Y-105705024D01*
X145066995Y-105779204D01*
X145042578Y-105859693D01*
X145034334Y-105943400D01*
X145034334Y-107213400D01*
X145042578Y-107297107D01*
X145066995Y-107377596D01*
X145104199Y-107447200D01*
X144252601Y-107447200D01*
X144289805Y-107377596D01*
X144314222Y-107297107D01*
X144322466Y-107213400D01*
X144322466Y-105943400D01*
X144314222Y-105859693D01*
X144289805Y-105779204D01*
X144250155Y-105705024D01*
X144196795Y-105640005D01*
X144131776Y-105586645D01*
X144057596Y-105546995D01*
X143977107Y-105522578D01*
X143893400Y-105514334D01*
X142923400Y-105514334D01*
X142839693Y-105522578D01*
X142759204Y-105546995D01*
X142685024Y-105586645D01*
X142620005Y-105640005D01*
X142572066Y-105698419D01*
X142572066Y-104734600D01*
X142563822Y-104650893D01*
X142539405Y-104570404D01*
X142499755Y-104496224D01*
X142446395Y-104431205D01*
X142381376Y-104377845D01*
X142354342Y-104363395D01*
X142382201Y-104311274D01*
X142435396Y-104289240D01*
X142538089Y-104220623D01*
X142625423Y-104133289D01*
X142694040Y-104030596D01*
X142741305Y-103916489D01*
X142765400Y-103795354D01*
X142765400Y-103671846D01*
X142741305Y-103550711D01*
X142694040Y-103436604D01*
X142625423Y-103333911D01*
X142538089Y-103246577D01*
X142435396Y-103177960D01*
X142382201Y-103155926D01*
X142349755Y-103095224D01*
X142296395Y-103030205D01*
X142231376Y-102976845D01*
X142221563Y-102971600D01*
X142231376Y-102966355D01*
X142296395Y-102912995D01*
X142349755Y-102847976D01*
X142382201Y-102787274D01*
X142435396Y-102765240D01*
X142538089Y-102696623D01*
X142625423Y-102609289D01*
X142694040Y-102506596D01*
X142741305Y-102392489D01*
X142765400Y-102271354D01*
X142765400Y-102147846D01*
X142741305Y-102026711D01*
X142694040Y-101912604D01*
X142625423Y-101809911D01*
X142538089Y-101722577D01*
X142435396Y-101653960D01*
X142382201Y-101631926D01*
X142349755Y-101571224D01*
X142296395Y-101506205D01*
X142274222Y-101488008D01*
X142307196Y-101478005D01*
X142381376Y-101438355D01*
X142446395Y-101384995D01*
X142499755Y-101319976D01*
X142539405Y-101245796D01*
X142563822Y-101165307D01*
X142572066Y-101081600D01*
X142572066Y-99992711D01*
X142577795Y-100011596D01*
X142617445Y-100085776D01*
X142670805Y-100150795D01*
X142735824Y-100204155D01*
X142810004Y-100243805D01*
X142890493Y-100268222D01*
X142974200Y-100276466D01*
X143944200Y-100276466D01*
X144027907Y-100268222D01*
X144108396Y-100243805D01*
X144182576Y-100204155D01*
X144247595Y-100150795D01*
X144300955Y-100085776D01*
X144340605Y-100011596D01*
X144365022Y-99931107D01*
X144373266Y-99847400D01*
X144373266Y-98577400D01*
X144365022Y-98493693D01*
X144340605Y-98413204D01*
X144303401Y-98343600D01*
X145154999Y-98343600D01*
X145117795Y-98413204D01*
G37*
G04 #@! TD.AperFunction*
D18*
X141013934Y-106034600D02*
X141022178Y-106118307D01*
X141046595Y-106198796D01*
X141086245Y-106272976D01*
X141101429Y-106291478D01*
X141030024Y-106329645D01*
X140965005Y-106383005D01*
X140911645Y-106448024D01*
X140871995Y-106522204D01*
X140868400Y-106534055D01*
X140864805Y-106522204D01*
X140825155Y-106448024D01*
X140771795Y-106383005D01*
X140706776Y-106329645D01*
X140632596Y-106289995D01*
X140595118Y-106278626D01*
X140599755Y-106272976D01*
X140639405Y-106198796D01*
X140663822Y-106118307D01*
X140672066Y-106034600D01*
X140672066Y-105822067D01*
X140727211Y-105776811D01*
X140744500Y-105755744D01*
X141013934Y-105486311D01*
X141013934Y-106034600D01*
G04 #@! TA.AperFunction,Conductor*
D19*
G36*
X141013934Y-106034600D02*
G01*
X141022178Y-106118307D01*
X141046595Y-106198796D01*
X141086245Y-106272976D01*
X141101429Y-106291478D01*
X141030024Y-106329645D01*
X140965005Y-106383005D01*
X140911645Y-106448024D01*
X140871995Y-106522204D01*
X140868400Y-106534055D01*
X140864805Y-106522204D01*
X140825155Y-106448024D01*
X140771795Y-106383005D01*
X140706776Y-106329645D01*
X140632596Y-106289995D01*
X140595118Y-106278626D01*
X140599755Y-106272976D01*
X140639405Y-106198796D01*
X140663822Y-106118307D01*
X140672066Y-106034600D01*
X140672066Y-105822067D01*
X140727211Y-105776811D01*
X140744500Y-105755744D01*
X141013934Y-105486311D01*
X141013934Y-106034600D01*
G37*
G04 #@! TD.AperFunction*
D18*
X140214801Y-102669155D02*
X140211160Y-102674604D01*
X140163895Y-102788711D01*
X140139800Y-102909846D01*
X140139800Y-103033354D01*
X140163895Y-103154489D01*
X140211160Y-103268596D01*
X140214800Y-103274044D01*
X140214801Y-104305534D01*
X139744000Y-104305534D01*
X139744000Y-101510666D01*
X140214800Y-101510666D01*
X140214801Y-102669155D01*
G04 #@! TA.AperFunction,Conductor*
D19*
G36*
X140214801Y-102669155D02*
G01*
X140211160Y-102674604D01*
X140163895Y-102788711D01*
X140139800Y-102909846D01*
X140139800Y-103033354D01*
X140163895Y-103154489D01*
X140211160Y-103268596D01*
X140214800Y-103274044D01*
X140214801Y-104305534D01*
X139744000Y-104305534D01*
X139744000Y-101510666D01*
X140214800Y-101510666D01*
X140214801Y-102669155D01*
G37*
G04 #@! TD.AperFunction*
D18*
X140871995Y-99268596D02*
X140911645Y-99342776D01*
X140965005Y-99407795D01*
X141030024Y-99461155D01*
X141104204Y-99500805D01*
X141117698Y-99504899D01*
X141086245Y-99543224D01*
X141046595Y-99617404D01*
X141022178Y-99697893D01*
X141013934Y-99781600D01*
X141013934Y-100253689D01*
X140820700Y-100060456D01*
X140803411Y-100039389D01*
X140719358Y-99970409D01*
X140672066Y-99945131D01*
X140672066Y-99781600D01*
X140663822Y-99697893D01*
X140639405Y-99617404D01*
X140599755Y-99543224D01*
X140578428Y-99517237D01*
X140632596Y-99500805D01*
X140706776Y-99461155D01*
X140771795Y-99407795D01*
X140825155Y-99342776D01*
X140864805Y-99268596D01*
X140868400Y-99256745D01*
X140871995Y-99268596D01*
G04 #@! TA.AperFunction,Conductor*
D19*
G36*
X140871995Y-99268596D02*
G01*
X140911645Y-99342776D01*
X140965005Y-99407795D01*
X141030024Y-99461155D01*
X141104204Y-99500805D01*
X141117698Y-99504899D01*
X141086245Y-99543224D01*
X141046595Y-99617404D01*
X141022178Y-99697893D01*
X141013934Y-99781600D01*
X141013934Y-100253689D01*
X140820700Y-100060456D01*
X140803411Y-100039389D01*
X140719358Y-99970409D01*
X140672066Y-99945131D01*
X140672066Y-99781600D01*
X140663822Y-99697893D01*
X140639405Y-99617404D01*
X140599755Y-99543224D01*
X140578428Y-99517237D01*
X140632596Y-99500805D01*
X140706776Y-99461155D01*
X140771795Y-99407795D01*
X140825155Y-99342776D01*
X140864805Y-99268596D01*
X140868400Y-99256745D01*
X140871995Y-99268596D01*
G37*
G04 #@! TD.AperFunction*
M02*
