M48
; DRILL file {KiCad (5.1.10)-1} date 08/26/21 23:10:25
; FORMAT={-:-/ absolute / metric / decimal}
; #@! TF.CreationDate,2021-08-26T23:10:25-05:00
; #@! TF.GenerationSoftware,Kicad,Pcbnew,(5.1.10)-1
; #@! TF.FileFunction,Plated,1,2,PTH
FMAT,2
METRIC
T1C0.300
T2C0.400
%
G90
G05
T1
X132.893Y-91.745
X134.163Y-95.352
X135.433Y-93.167
X136.347Y-92.405
X136.347Y-94.183
X147.422Y-91.694
X147.422Y-93.167
X147.574Y-90.322
X148.438Y-92.507
X148.539Y-90.83
X148.539Y-91.491
X148.59Y-88.748
X148.59Y-89.357
X149.047Y-101.498
X149.25Y-94.386
X150.52Y-89.611
X151.13Y-89.611
X151.181Y-92.354
X151.943Y-94.336
X151.994Y-89.002
X153.873Y-87.122
X154.991Y-91.491
X157.836Y-93.37
X158.293Y-97.282
X158.547Y-101.448
X160.223Y-96.571
X160.274Y-88.138
X160.274Y-100.432
X161.595Y-88.189
X161.646Y-100.432
X161.849Y-90.729
X162.509Y-89.459
X162.56Y-91.897
X162.56Y-92.913
X162.763Y-95.199
X163.525Y-100.432
X163.576Y-88.138
X164.846Y-88.138
X164.846Y-100.482
X165.456Y-98.654
X165.506Y-89.154
X166.167Y-92.964
X166.167Y-94.386
X166.776Y-87.274
X166.827Y-101.244
T2
X137.414Y-87.884
X137.668Y-100.482
X143.002Y-97.18
X143.053Y-90.424
X147.117Y-94.132
X153.162Y-96.876
X153.162Y-98.857
X155.346Y-87.782
T0
M30
