G04 #@! TF.GenerationSoftware,KiCad,Pcbnew,(5.1.10)-1*
G04 #@! TF.CreationDate,2021-09-12T21:52:31-05:00*
G04 #@! TF.ProjectId,OGPsim,4f475073-696d-42e6-9b69-6361645f7063,rev?*
G04 #@! TF.SameCoordinates,Original*
G04 #@! TF.FileFunction,Legend,Top*
G04 #@! TF.FilePolarity,Positive*
%FSLAX46Y46*%
G04 Gerber Fmt 4.6, Leading zero omitted, Abs format (unit mm)*
G04 Created by KiCad (PCBNEW (5.1.10)-1) date 2021-09-12 21:52:31*
%MOMM*%
%LPD*%
G01*
G04 APERTURE LIST*
%ADD10C,0.125000*%
%ADD11C,0.120000*%
%ADD12C,0.150000*%
G04 APERTURE END LIST*
D10*
X134694769Y-91852893D02*
X135194769Y-91852893D01*
X135194769Y-92043369D01*
X135170960Y-92090988D01*
X135147150Y-92114798D01*
X135099531Y-92138607D01*
X135028102Y-92138607D01*
X134980483Y-92114798D01*
X134956674Y-92090988D01*
X134932864Y-92043369D01*
X134932864Y-91852893D01*
X134694769Y-92424321D02*
X134718579Y-92376702D01*
X134742388Y-92352893D01*
X134790007Y-92329083D01*
X134932864Y-92329083D01*
X134980483Y-92352893D01*
X135004293Y-92376702D01*
X135028102Y-92424321D01*
X135028102Y-92495750D01*
X135004293Y-92543369D01*
X134980483Y-92567179D01*
X134932864Y-92590988D01*
X134790007Y-92590988D01*
X134742388Y-92567179D01*
X134718579Y-92543369D01*
X134694769Y-92495750D01*
X134694769Y-92424321D01*
X135028102Y-92757655D02*
X134694769Y-92852893D01*
X134932864Y-92948131D01*
X134694769Y-93043369D01*
X135028102Y-93138607D01*
X134718579Y-93519560D02*
X134694769Y-93471940D01*
X134694769Y-93376702D01*
X134718579Y-93329083D01*
X134766198Y-93305274D01*
X134956674Y-93305274D01*
X135004293Y-93329083D01*
X135028102Y-93376702D01*
X135028102Y-93471940D01*
X135004293Y-93519560D01*
X134956674Y-93543369D01*
X134909055Y-93543369D01*
X134861436Y-93305274D01*
X134694769Y-93757655D02*
X135028102Y-93757655D01*
X134932864Y-93757655D02*
X134980483Y-93781464D01*
X135004293Y-93805274D01*
X135028102Y-93852893D01*
X135028102Y-93900512D01*
X134718579Y-94424321D02*
X134694769Y-94495750D01*
X134694769Y-94614798D01*
X134718579Y-94662417D01*
X134742388Y-94686226D01*
X134790007Y-94710036D01*
X134837626Y-94710036D01*
X134885245Y-94686226D01*
X134909055Y-94662417D01*
X134932864Y-94614798D01*
X134956674Y-94519560D01*
X134980483Y-94471940D01*
X135004293Y-94448131D01*
X135051912Y-94424321D01*
X135099531Y-94424321D01*
X135147150Y-94448131D01*
X135170960Y-94471940D01*
X135194769Y-94519560D01*
X135194769Y-94638607D01*
X135170960Y-94710036D01*
X135028102Y-95138607D02*
X134694769Y-95138607D01*
X135028102Y-94924321D02*
X134766198Y-94924321D01*
X134718579Y-94948131D01*
X134694769Y-94995750D01*
X134694769Y-95067179D01*
X134718579Y-95114798D01*
X134742388Y-95138607D01*
X135028102Y-95376702D02*
X134528102Y-95376702D01*
X135004293Y-95376702D02*
X135028102Y-95424321D01*
X135028102Y-95519560D01*
X135004293Y-95567179D01*
X134980483Y-95590988D01*
X134932864Y-95614798D01*
X134790007Y-95614798D01*
X134742388Y-95590988D01*
X134718579Y-95567179D01*
X134694769Y-95519560D01*
X134694769Y-95424321D01*
X134718579Y-95376702D01*
X135028102Y-95829083D02*
X134528102Y-95829083D01*
X135004293Y-95829083D02*
X135028102Y-95876702D01*
X135028102Y-95971940D01*
X135004293Y-96019560D01*
X134980483Y-96043369D01*
X134932864Y-96067179D01*
X134790007Y-96067179D01*
X134742388Y-96043369D01*
X134718579Y-96019560D01*
X134694769Y-95971940D01*
X134694769Y-95876702D01*
X134718579Y-95829083D01*
X134694769Y-96352893D02*
X134718579Y-96305274D01*
X134766198Y-96281464D01*
X135194769Y-96281464D01*
X135028102Y-96495750D02*
X134694769Y-96614798D01*
X135028102Y-96733845D02*
X134694769Y-96614798D01*
X134575721Y-96567179D01*
X134551912Y-96543369D01*
X134528102Y-96495750D01*
X134319769Y-91352893D02*
X133962626Y-91352893D01*
X133891198Y-91329083D01*
X133843579Y-91281464D01*
X133819769Y-91210036D01*
X133819769Y-91162417D01*
X133819769Y-91805274D02*
X134081674Y-91805274D01*
X134129293Y-91781464D01*
X134153102Y-91733845D01*
X134153102Y-91638607D01*
X134129293Y-91590988D01*
X133843579Y-91805274D02*
X133819769Y-91757655D01*
X133819769Y-91638607D01*
X133843579Y-91590988D01*
X133891198Y-91567179D01*
X133938817Y-91567179D01*
X133986436Y-91590988D01*
X134010245Y-91638607D01*
X134010245Y-91757655D01*
X134034055Y-91805274D01*
X133819769Y-92043369D02*
X134153102Y-92043369D01*
X134057864Y-92043369D02*
X134105483Y-92067179D01*
X134129293Y-92090988D01*
X134153102Y-92138607D01*
X134153102Y-92186226D01*
X133819769Y-92352893D02*
X134153102Y-92352893D01*
X134057864Y-92352893D02*
X134105483Y-92376702D01*
X134129293Y-92400512D01*
X134153102Y-92448131D01*
X134153102Y-92495750D01*
X133843579Y-92852893D02*
X133819769Y-92805274D01*
X133819769Y-92710036D01*
X133843579Y-92662417D01*
X133891198Y-92638607D01*
X134081674Y-92638607D01*
X134129293Y-92662417D01*
X134153102Y-92710036D01*
X134153102Y-92805274D01*
X134129293Y-92852893D01*
X134081674Y-92876702D01*
X134034055Y-92876702D01*
X133986436Y-92638607D01*
X134153102Y-93019560D02*
X134153102Y-93210036D01*
X134319769Y-93090988D02*
X133891198Y-93090988D01*
X133843579Y-93114798D01*
X133819769Y-93162417D01*
X133819769Y-93210036D01*
X134153102Y-93305274D02*
X134153102Y-93495750D01*
X134319769Y-93376702D02*
X133891198Y-93376702D01*
X133843579Y-93400512D01*
X133819769Y-93448131D01*
X133819769Y-93495750D01*
X133867388Y-94329083D02*
X133843579Y-94305274D01*
X133819769Y-94233845D01*
X133819769Y-94186226D01*
X133843579Y-94114798D01*
X133891198Y-94067179D01*
X133938817Y-94043369D01*
X134034055Y-94019560D01*
X134105483Y-94019560D01*
X134200721Y-94043369D01*
X134248340Y-94067179D01*
X134295960Y-94114798D01*
X134319769Y-94186226D01*
X134319769Y-94233845D01*
X134295960Y-94305274D01*
X134272150Y-94329083D01*
X133819769Y-94543369D02*
X134153102Y-94543369D01*
X134319769Y-94543369D02*
X134295960Y-94519560D01*
X134272150Y-94543369D01*
X134295960Y-94567179D01*
X134319769Y-94543369D01*
X134272150Y-94543369D01*
X134153102Y-94995750D02*
X133748340Y-94995750D01*
X133700721Y-94971940D01*
X133676912Y-94948131D01*
X133653102Y-94900512D01*
X133653102Y-94829083D01*
X133676912Y-94781464D01*
X133843579Y-94995750D02*
X133819769Y-94948131D01*
X133819769Y-94852893D01*
X133843579Y-94805274D01*
X133867388Y-94781464D01*
X133915007Y-94757655D01*
X134057864Y-94757655D01*
X134105483Y-94781464D01*
X134129293Y-94805274D01*
X134153102Y-94852893D01*
X134153102Y-94948131D01*
X134129293Y-94995750D01*
X133819769Y-95448131D02*
X134081674Y-95448131D01*
X134129293Y-95424321D01*
X134153102Y-95376702D01*
X134153102Y-95281464D01*
X134129293Y-95233845D01*
X133843579Y-95448131D02*
X133819769Y-95400512D01*
X133819769Y-95281464D01*
X133843579Y-95233845D01*
X133891198Y-95210036D01*
X133938817Y-95210036D01*
X133986436Y-95233845D01*
X134010245Y-95281464D01*
X134010245Y-95400512D01*
X134034055Y-95448131D01*
X133819769Y-95686226D02*
X134153102Y-95686226D01*
X134319769Y-95686226D02*
X134295960Y-95662417D01*
X134272150Y-95686226D01*
X134295960Y-95710036D01*
X134319769Y-95686226D01*
X134272150Y-95686226D01*
X134153102Y-95924321D02*
X133819769Y-95924321D01*
X134105483Y-95924321D02*
X134129293Y-95948131D01*
X134153102Y-95995750D01*
X134153102Y-96067179D01*
X134129293Y-96114798D01*
X134081674Y-96138607D01*
X133819769Y-96138607D01*
X133843579Y-96567179D02*
X133819769Y-96519560D01*
X133819769Y-96424321D01*
X133843579Y-96376702D01*
X133891198Y-96352893D01*
X134081674Y-96352893D01*
X134129293Y-96376702D01*
X134153102Y-96424321D01*
X134153102Y-96519560D01*
X134129293Y-96567179D01*
X134081674Y-96590988D01*
X134034055Y-96590988D01*
X133986436Y-96352893D01*
X133819769Y-96805274D02*
X134153102Y-96805274D01*
X134057864Y-96805274D02*
X134105483Y-96829083D01*
X134129293Y-96852893D01*
X134153102Y-96900512D01*
X134153102Y-96948131D01*
X133819769Y-97186226D02*
X133843579Y-97138607D01*
X133867388Y-97114798D01*
X133915007Y-97090988D01*
X134057864Y-97090988D01*
X134105483Y-97114798D01*
X134129293Y-97138607D01*
X134153102Y-97186226D01*
X134153102Y-97257655D01*
X134129293Y-97305274D01*
X134105483Y-97329083D01*
X134057864Y-97352893D01*
X133915007Y-97352893D01*
X133867388Y-97329083D01*
X133843579Y-97305274D01*
X133819769Y-97257655D01*
X133819769Y-97186226D01*
X133087626Y-91769560D02*
X133087626Y-92007655D01*
X132944769Y-91721940D02*
X133444769Y-91888607D01*
X132944769Y-92055274D01*
X133278102Y-92436226D02*
X132944769Y-92436226D01*
X133278102Y-92221940D02*
X133016198Y-92221940D01*
X132968579Y-92245750D01*
X132944769Y-92293369D01*
X132944769Y-92364798D01*
X132968579Y-92412417D01*
X132992388Y-92436226D01*
X133278102Y-92888607D02*
X132873340Y-92888607D01*
X132825721Y-92864798D01*
X132801912Y-92840988D01*
X132778102Y-92793369D01*
X132778102Y-92721940D01*
X132801912Y-92674321D01*
X132968579Y-92888607D02*
X132944769Y-92840988D01*
X132944769Y-92745750D01*
X132968579Y-92698131D01*
X132992388Y-92674321D01*
X133040007Y-92650512D01*
X133182864Y-92650512D01*
X133230483Y-92674321D01*
X133254293Y-92698131D01*
X133278102Y-92745750D01*
X133278102Y-92840988D01*
X133254293Y-92888607D01*
X133397150Y-93483845D02*
X133420960Y-93507655D01*
X133444769Y-93555274D01*
X133444769Y-93674321D01*
X133420960Y-93721940D01*
X133397150Y-93745750D01*
X133349531Y-93769560D01*
X133301912Y-93769560D01*
X133230483Y-93745750D01*
X132944769Y-93460036D01*
X132944769Y-93769560D01*
X133444769Y-94198131D02*
X133444769Y-94102893D01*
X133420960Y-94055274D01*
X133397150Y-94031464D01*
X133325721Y-93983845D01*
X133230483Y-93960036D01*
X133040007Y-93960036D01*
X132992388Y-93983845D01*
X132968579Y-94007655D01*
X132944769Y-94055274D01*
X132944769Y-94150512D01*
X132968579Y-94198131D01*
X132992388Y-94221940D01*
X133040007Y-94245750D01*
X133159055Y-94245750D01*
X133206674Y-94221940D01*
X133230483Y-94198131D01*
X133254293Y-94150512D01*
X133254293Y-94055274D01*
X133230483Y-94007655D01*
X133206674Y-93983845D01*
X133159055Y-93960036D01*
X132968579Y-94483845D02*
X132944769Y-94483845D01*
X132897150Y-94460036D01*
X132873340Y-94436226D01*
X133397150Y-95055274D02*
X133420960Y-95079083D01*
X133444769Y-95126702D01*
X133444769Y-95245750D01*
X133420960Y-95293369D01*
X133397150Y-95317179D01*
X133349531Y-95340988D01*
X133301912Y-95340988D01*
X133230483Y-95317179D01*
X132944769Y-95031464D01*
X132944769Y-95340988D01*
X133444769Y-95650512D02*
X133444769Y-95698131D01*
X133420960Y-95745750D01*
X133397150Y-95769560D01*
X133349531Y-95793369D01*
X133254293Y-95817179D01*
X133135245Y-95817179D01*
X133040007Y-95793369D01*
X132992388Y-95769560D01*
X132968579Y-95745750D01*
X132944769Y-95698131D01*
X132944769Y-95650512D01*
X132968579Y-95602893D01*
X132992388Y-95579083D01*
X133040007Y-95555274D01*
X133135245Y-95531464D01*
X133254293Y-95531464D01*
X133349531Y-95555274D01*
X133397150Y-95579083D01*
X133420960Y-95602893D01*
X133444769Y-95650512D01*
X133397150Y-96007655D02*
X133420960Y-96031464D01*
X133444769Y-96079083D01*
X133444769Y-96198131D01*
X133420960Y-96245750D01*
X133397150Y-96269560D01*
X133349531Y-96293369D01*
X133301912Y-96293369D01*
X133230483Y-96269560D01*
X132944769Y-95983845D01*
X132944769Y-96293369D01*
X132944769Y-96769560D02*
X132944769Y-96483845D01*
X132944769Y-96626702D02*
X133444769Y-96626702D01*
X133373340Y-96579083D01*
X133325721Y-96531464D01*
X133301912Y-96483845D01*
D11*
X150507600Y-88497600D02*
X150507600Y-88997600D01*
X151447600Y-88997600D02*
X151447600Y-88497600D01*
X154182000Y-91046400D02*
X154682000Y-91046400D01*
X154682000Y-90106400D02*
X154182000Y-90106400D01*
X154682000Y-91681200D02*
X154182000Y-91681200D01*
X154182000Y-92621200D02*
X154682000Y-92621200D01*
X163382400Y-95295200D02*
X163382400Y-94595200D01*
X164582400Y-94595200D02*
X164582400Y-95295200D01*
X165874800Y-95195200D02*
X165874800Y-94695200D01*
X164934800Y-94695200D02*
X164934800Y-95195200D01*
X148348800Y-88896000D02*
X148348800Y-88396000D01*
X147408800Y-88396000D02*
X147408800Y-88896000D01*
X161940800Y-97897200D02*
X161940800Y-98597200D01*
X160740800Y-98597200D02*
X160740800Y-97897200D01*
X159042000Y-98098800D02*
X159042000Y-98598800D01*
X159982000Y-98598800D02*
X159982000Y-98098800D01*
X157416400Y-98098800D02*
X157416400Y-98598800D01*
X158356400Y-98598800D02*
X158356400Y-98098800D01*
X162804400Y-94595200D02*
X162804400Y-95295200D01*
X161604400Y-95295200D02*
X161604400Y-94595200D01*
X160159600Y-94847600D02*
X160159600Y-95347600D01*
X161099600Y-95347600D02*
X161099600Y-94847600D01*
X159677200Y-95347600D02*
X159677200Y-94847600D01*
X158737200Y-94847600D02*
X158737200Y-95347600D01*
X151800000Y-91688400D02*
X151800000Y-90988400D01*
X153000000Y-90988400D02*
X153000000Y-91688400D01*
X148955200Y-89148400D02*
X148955200Y-88448400D01*
X150155200Y-88448400D02*
X150155200Y-89148400D01*
X164246000Y-91586800D02*
X164246000Y-90886800D01*
X165446000Y-90886800D02*
X165446000Y-91586800D01*
X145754800Y-89148400D02*
X145754800Y-88448400D01*
X146954800Y-88448400D02*
X146954800Y-89148400D01*
X163734000Y-96834400D02*
X164434000Y-96834400D01*
X164434000Y-98034400D02*
X163734000Y-98034400D01*
X147975200Y-92962000D02*
X147975200Y-91502000D01*
X151135200Y-92962000D02*
X151135200Y-90802000D01*
X151135200Y-92962000D02*
X150205200Y-92962000D01*
X147975200Y-92962000D02*
X148905200Y-92962000D01*
X159415600Y-90121200D02*
X159415600Y-91581200D01*
X156255600Y-90121200D02*
X156255600Y-92281200D01*
X156255600Y-90121200D02*
X157185600Y-90121200D01*
X159415600Y-90121200D02*
X158485600Y-90121200D01*
X162558000Y-92359600D02*
X162558000Y-91429600D01*
X162558000Y-89199600D02*
X162558000Y-90129600D01*
X162558000Y-89199600D02*
X160398000Y-89199600D01*
X162558000Y-92359600D02*
X161098000Y-92359600D01*
X166849200Y-91639200D02*
X166849200Y-91139200D01*
X165789200Y-91139200D02*
X165789200Y-91639200D01*
X152782080Y-88664640D02*
X152282080Y-88664640D01*
X152282080Y-89724640D02*
X152782080Y-89724640D01*
X152251600Y-94052800D02*
X152751600Y-94052800D01*
X152751600Y-92992800D02*
X152251600Y-92992800D01*
X154885200Y-93043600D02*
X154385200Y-93043600D01*
X154385200Y-94103600D02*
X154885200Y-94103600D01*
X146416840Y-91250360D02*
X145916840Y-91250360D01*
X145916840Y-92310360D02*
X146416840Y-92310360D01*
X163732400Y-99691600D02*
X164232400Y-99691600D01*
X164232400Y-98631600D02*
X163732400Y-98631600D01*
X157254800Y-94949200D02*
X157254800Y-95449200D01*
X158314800Y-95449200D02*
X158314800Y-94949200D01*
X154182000Y-89734800D02*
X154682000Y-89734800D01*
X154682000Y-88674800D02*
X154182000Y-88674800D01*
X141076800Y-92797200D02*
G75*
G03*
X141076800Y-92797200I-950000J0D01*
G01*
X140846800Y-93407200D02*
X139526800Y-92077200D01*
X140736800Y-93517200D02*
X139406800Y-92197200D01*
X141606800Y-93857200D02*
X138546800Y-93857200D01*
X141606800Y-87397200D02*
X138546800Y-87397200D01*
X138546800Y-91407200D02*
X138546800Y-93857200D01*
X138546800Y-87397200D02*
X138546800Y-89847200D01*
X142986800Y-88867200D02*
X142986800Y-92387200D01*
X142986800Y-96182400D02*
X142986800Y-99702400D01*
X138546800Y-94712400D02*
X138546800Y-97162400D01*
X138546800Y-98722400D02*
X138546800Y-101172400D01*
X141606800Y-94712400D02*
X138546800Y-94712400D01*
X141606800Y-101172400D02*
X138546800Y-101172400D01*
X140736800Y-100832400D02*
X139406800Y-99512400D01*
X140846800Y-100722400D02*
X139526800Y-99392400D01*
X141076800Y-100112400D02*
G75*
G03*
X141076800Y-100112400I-950000J0D01*
G01*
X146401600Y-92586400D02*
X145901600Y-92586400D01*
X145901600Y-93646400D02*
X146401600Y-93646400D01*
X132252800Y-88774000D02*
X132252800Y-86994000D01*
X136072800Y-86994000D02*
X132252800Y-86994000D01*
X136072800Y-88774000D02*
X136072800Y-86994000D01*
X132252800Y-88774000D02*
X136072800Y-88774000D01*
X132252800Y-101626400D02*
X136072800Y-101626400D01*
X136072800Y-101626400D02*
X136072800Y-99846400D01*
X136072800Y-99846400D02*
X132252800Y-99846400D01*
X132252800Y-101626400D02*
X132252800Y-99846400D01*
X159664400Y-88672400D02*
X159664400Y-86892400D01*
X162204400Y-86892400D02*
X162204400Y-88672400D01*
X162204400Y-86892400D02*
X159664400Y-86892400D01*
X159664400Y-88672400D02*
X162204400Y-88672400D01*
X159613600Y-101716601D02*
X162153600Y-101716601D01*
X162153600Y-99936601D02*
X159613600Y-99936601D01*
X162153600Y-99936601D02*
X162153600Y-101716601D01*
X159613600Y-101716601D02*
X159613600Y-99936601D01*
X162915600Y-88672400D02*
X162915600Y-86892400D01*
X165455600Y-86892400D02*
X165455600Y-88672400D01*
X165455600Y-86892400D02*
X162915600Y-86892400D01*
X162915600Y-88672400D02*
X165455600Y-88672400D01*
X162864800Y-101716601D02*
X165404800Y-101716601D01*
X165404800Y-99936601D02*
X162864800Y-99936601D01*
X165404800Y-99936601D02*
X165404800Y-101716601D01*
X162864800Y-101716601D02*
X162864800Y-99936601D01*
X158242000Y-86943200D02*
X155702000Y-86943200D01*
X155702000Y-88723200D02*
X158242000Y-88723200D01*
X155702000Y-88723200D02*
X155702000Y-86943200D01*
X158242000Y-86943200D02*
X158242000Y-88723200D01*
X152247320Y-101387320D02*
X153747320Y-101387320D01*
X153747320Y-101387320D02*
X153747320Y-101117320D01*
X153747320Y-101117320D02*
X156577320Y-101117320D01*
X152247320Y-94487320D02*
X153747320Y-94487320D01*
X153747320Y-94487320D02*
X153747320Y-94757320D01*
X153747320Y-94757320D02*
X154847320Y-94757320D01*
D12*
X138120380Y-93356038D02*
X137644190Y-93689371D01*
X138120380Y-93927466D02*
X137120380Y-93927466D01*
X137120380Y-93546514D01*
X137168000Y-93451276D01*
X137215619Y-93403657D01*
X137310857Y-93356038D01*
X137453714Y-93356038D01*
X137548952Y-93403657D01*
X137596571Y-93451276D01*
X137644190Y-93546514D01*
X137644190Y-93927466D01*
X137120380Y-93070323D02*
X138120380Y-92736990D01*
X137120380Y-92403657D01*
X138120380Y-91546514D02*
X138120380Y-92117942D01*
X138120380Y-91832228D02*
X137120380Y-91832228D01*
X137263238Y-91927466D01*
X137358476Y-92022704D01*
X137406095Y-92117942D01*
X138115300Y-96302438D02*
X137639110Y-96635771D01*
X138115300Y-96873866D02*
X137115300Y-96873866D01*
X137115300Y-96492914D01*
X137162920Y-96397676D01*
X137210539Y-96350057D01*
X137305777Y-96302438D01*
X137448634Y-96302438D01*
X137543872Y-96350057D01*
X137591491Y-96397676D01*
X137639110Y-96492914D01*
X137639110Y-96873866D01*
X137115300Y-96016723D02*
X138115300Y-95683390D01*
X137115300Y-95350057D01*
X137210539Y-95064342D02*
X137162920Y-95016723D01*
X137115300Y-94921485D01*
X137115300Y-94683390D01*
X137162920Y-94588152D01*
X137210539Y-94540533D01*
X137305777Y-94492914D01*
X137401015Y-94492914D01*
X137543872Y-94540533D01*
X138115300Y-95111961D01*
X138115300Y-94492914D01*
X150515415Y-101889700D02*
X150515415Y-102699224D01*
X150563034Y-102794462D01*
X150610653Y-102842081D01*
X150705891Y-102889700D01*
X150896367Y-102889700D01*
X150991605Y-102842081D01*
X151039224Y-102794462D01*
X151086843Y-102699224D01*
X151086843Y-101889700D01*
X152086843Y-102889700D02*
X151515415Y-102889700D01*
X151801129Y-102889700D02*
X151801129Y-101889700D01*
X151705891Y-102032558D01*
X151610653Y-102127796D01*
X151515415Y-102175415D01*
M02*
