G04 #@! TF.GenerationSoftware,KiCad,Pcbnew,(5.1.10)-1*
G04 #@! TF.CreationDate,2021-08-26T20:53:31-05:00*
G04 #@! TF.ProjectId,OGPsim,4f475073-696d-42e6-9b69-6361645f7063,rev?*
G04 #@! TF.SameCoordinates,Original*
G04 #@! TF.FileFunction,Copper,L1,Top*
G04 #@! TF.FilePolarity,Positive*
%FSLAX46Y46*%
G04 Gerber Fmt 4.6, Leading zero omitted, Abs format (unit mm)*
G04 Created by KiCad (PCBNEW (5.1.10)-1) date 2021-08-26 20:53:31*
%MOMM*%
%LPD*%
G01*
G04 APERTURE LIST*
G04 #@! TA.AperFunction,SMDPad,CuDef*
%ADD10R,0.500000X0.600000*%
G04 #@! TD*
G04 #@! TA.AperFunction,SMDPad,CuDef*
%ADD11R,0.600000X0.500000*%
G04 #@! TD*
G04 #@! TA.AperFunction,SMDPad,CuDef*
%ADD12R,0.750000X0.800000*%
G04 #@! TD*
G04 #@! TA.AperFunction,SMDPad,CuDef*
%ADD13R,0.800000X0.750000*%
G04 #@! TD*
G04 #@! TA.AperFunction,SMDPad,CuDef*
%ADD14R,0.800000X0.900000*%
G04 #@! TD*
G04 #@! TA.AperFunction,SMDPad,CuDef*
%ADD15R,0.900000X0.800000*%
G04 #@! TD*
G04 #@! TA.AperFunction,SMDPad,CuDef*
%ADD16R,0.600000X0.400000*%
G04 #@! TD*
G04 #@! TA.AperFunction,SMDPad,CuDef*
%ADD17R,0.400000X0.600000*%
G04 #@! TD*
G04 #@! TA.AperFunction,SMDPad,CuDef*
%ADD18R,2.790000X1.190000*%
G04 #@! TD*
G04 #@! TA.AperFunction,SMDPad,CuDef*
%ADD19R,3.050000X2.750000*%
G04 #@! TD*
G04 #@! TA.AperFunction,SMDPad,CuDef*
%ADD20R,6.400000X5.800000*%
G04 #@! TD*
G04 #@! TA.AperFunction,SMDPad,CuDef*
%ADD21R,2.200000X1.200000*%
G04 #@! TD*
G04 #@! TA.AperFunction,SMDPad,CuDef*
%ADD22R,0.970000X1.270000*%
G04 #@! TD*
G04 #@! TA.AperFunction,ViaPad*
%ADD23C,0.600000*%
G04 #@! TD*
G04 #@! TA.AperFunction,ViaPad*
%ADD24C,0.400000*%
G04 #@! TD*
G04 #@! TA.AperFunction,ViaPad*
%ADD25C,0.800000*%
G04 #@! TD*
G04 #@! TA.AperFunction,Conductor*
%ADD26C,0.250000*%
G04 #@! TD*
G04 #@! TA.AperFunction,Conductor*
%ADD27C,0.350000*%
G04 #@! TD*
G04 #@! TA.AperFunction,Conductor*
%ADD28C,0.175000*%
G04 #@! TD*
G04 #@! TA.AperFunction,Conductor*
%ADD29C,0.100000*%
G04 #@! TD*
G04 #@! TA.AperFunction,Conductor*
%ADD30C,0.254000*%
G04 #@! TD*
G04 APERTURE END LIST*
D10*
X150977600Y-89297600D03*
X150977600Y-88197600D03*
D11*
X154982000Y-90576400D03*
X153882000Y-90576400D03*
X153882000Y-92151200D03*
X154982000Y-92151200D03*
D12*
X163982400Y-95695200D03*
X163982400Y-94195200D03*
D10*
X165404800Y-94395200D03*
X165404800Y-95495200D03*
X147878800Y-88096000D03*
X147878800Y-89196000D03*
D12*
X161340800Y-97497200D03*
X161340800Y-98997200D03*
D10*
X159512000Y-98898800D03*
X159512000Y-97798800D03*
X157886400Y-98898800D03*
X157886400Y-97798800D03*
D12*
X162204400Y-94195200D03*
X162204400Y-95695200D03*
D10*
X160629600Y-95647600D03*
X160629600Y-94547600D03*
X159207200Y-94547600D03*
X159207200Y-95647600D03*
D12*
X152400000Y-92088400D03*
X152400000Y-90588400D03*
X149555200Y-89548400D03*
X149555200Y-88048400D03*
X164846000Y-91986800D03*
X164846000Y-90486800D03*
X146354800Y-89548400D03*
X146354800Y-88048400D03*
D13*
X163334000Y-97434400D03*
X164834000Y-97434400D03*
D14*
X149555200Y-93202000D03*
X148605200Y-91202000D03*
X150505200Y-91202000D03*
X157835600Y-89881200D03*
X158785600Y-91881200D03*
X156885600Y-91881200D03*
D15*
X160798000Y-89829600D03*
X160798000Y-91729600D03*
X162798000Y-90779600D03*
D16*
X166319200Y-90939200D03*
X166319200Y-91839200D03*
D17*
X152082080Y-89194640D03*
X152982080Y-89194640D03*
X152951600Y-93522800D03*
X152051600Y-93522800D03*
X154185200Y-93573600D03*
X155085200Y-93573600D03*
X145716840Y-91780360D03*
X146616840Y-91780360D03*
X164432400Y-99161600D03*
X163532400Y-99161600D03*
D16*
X157784800Y-95649200D03*
X157784800Y-94749200D03*
D17*
X154882000Y-89204800D03*
X153982000Y-89204800D03*
D18*
X143186800Y-88087200D03*
X138346800Y-90627200D03*
X143186800Y-93167200D03*
X143186800Y-100482400D03*
X138346800Y-97942400D03*
X143186800Y-95402400D03*
D19*
X150717999Y-96346799D03*
X147367999Y-99396799D03*
X150717999Y-99396799D03*
X147367999Y-96346799D03*
D20*
X149042999Y-97871799D03*
D21*
X155342999Y-95591799D03*
X155342999Y-100151799D03*
D17*
X146601600Y-93116400D03*
X145701600Y-93116400D03*
D22*
X135432800Y-87884000D03*
X134162800Y-87884000D03*
X132892800Y-87884000D03*
X132892800Y-100736400D03*
X134162800Y-100736400D03*
X135432800Y-100736400D03*
X161574400Y-87782400D03*
X160294400Y-87782400D03*
X160243600Y-100826601D03*
X161523600Y-100826601D03*
X164825600Y-87782400D03*
X163545600Y-87782400D03*
X163494800Y-100826601D03*
X164774800Y-100826601D03*
X156332000Y-87833200D03*
X157612000Y-87833200D03*
D23*
X161594800Y-88188800D03*
X161645600Y-100431600D03*
D24*
X148539200Y-91490800D03*
X148539200Y-90830400D03*
X148590000Y-89357200D03*
X148590000Y-88747600D03*
X150520400Y-89611200D03*
X151130000Y-89611200D03*
D25*
X153162000Y-96875600D03*
X153162000Y-98856800D03*
X143052800Y-90424000D03*
X143002000Y-97180400D03*
X147116800Y-94132400D03*
X137668000Y-100482400D03*
X137414000Y-87884000D03*
D23*
X166776400Y-87274400D03*
X166827200Y-101244400D03*
D24*
X165455600Y-98653600D03*
X165506400Y-89154000D03*
D23*
X162560000Y-91897200D03*
X162763200Y-95199200D03*
X157835600Y-93370400D03*
X158292800Y-97282000D03*
X160223200Y-96570800D03*
X158546800Y-101447600D03*
X136347200Y-94183200D03*
X136347200Y-92405200D03*
X148437600Y-92506800D03*
X149250400Y-94386400D03*
X151180800Y-92354400D03*
X153873200Y-87122000D03*
X149047200Y-101498400D03*
X154990800Y-91490800D03*
X160274000Y-100431600D03*
X160274000Y-88138000D03*
X166166800Y-92964000D03*
X166166800Y-94386400D03*
X163525200Y-100431600D03*
X163576000Y-88138000D03*
X162560000Y-92913200D03*
D24*
X147574000Y-90322400D03*
D23*
X162509200Y-89458800D03*
D25*
X155346400Y-87782400D03*
D24*
X151993600Y-89001600D03*
X151942800Y-94335600D03*
D23*
X147421600Y-93167200D03*
X135432800Y-93167200D03*
X161848800Y-90728800D03*
X134162800Y-95351600D03*
X147421600Y-91694000D03*
X132892800Y-91744800D03*
X164846000Y-100482400D03*
X164846000Y-88138000D03*
D26*
X150828400Y-88048400D02*
X150977600Y-88197600D01*
X149555200Y-88048400D02*
X150828400Y-88048400D01*
X152951600Y-89204800D02*
X153982000Y-89204800D01*
X150977600Y-88197600D02*
X152561200Y-88197600D01*
X152951600Y-88588000D02*
X152951600Y-89204800D01*
X152561200Y-88197600D02*
X152951600Y-88588000D01*
D27*
X138684000Y-101498400D02*
X137668000Y-100482400D01*
X149047200Y-101498400D02*
X138684000Y-101498400D01*
X149047200Y-101498400D02*
X147777200Y-101498400D01*
X147777200Y-101498400D02*
X147523200Y-101244400D01*
X147523200Y-101244400D02*
X145846800Y-101244400D01*
D26*
X149047200Y-101498400D02*
X148900390Y-101498400D01*
X148900390Y-101498400D02*
X148697190Y-101701600D01*
X148697190Y-101701600D02*
X145745200Y-101701600D01*
X165455600Y-98653600D02*
X165455600Y-99415600D01*
X165455600Y-98653600D02*
X165455600Y-99364800D01*
X165455600Y-99364800D02*
X165013801Y-99806599D01*
X165013801Y-99806599D02*
X162321401Y-99806599D01*
X150505200Y-91202000D02*
X150961600Y-91202000D01*
X151575200Y-90588400D02*
X152400000Y-90588400D01*
X150961600Y-91202000D02*
X151575200Y-90588400D01*
X153870000Y-90588400D02*
X153882000Y-90576400D01*
X152400000Y-90588400D02*
X153870000Y-90588400D01*
X153819200Y-92088400D02*
X153882000Y-92151200D01*
X152400000Y-92088400D02*
X153819200Y-92088400D01*
X152051600Y-92436800D02*
X152400000Y-92088400D01*
X152051600Y-93522800D02*
X152051600Y-92436800D01*
X165204800Y-94195200D02*
X165404800Y-94395200D01*
X163982400Y-94195200D02*
X165204800Y-94195200D01*
X163982400Y-92850400D02*
X164846000Y-91986800D01*
X163982400Y-94195200D02*
X163982400Y-92850400D01*
D27*
X166166800Y-91991600D02*
X166319200Y-91839200D01*
X166166800Y-92964000D02*
X166166800Y-91991600D01*
X165413600Y-94386400D02*
X165404800Y-94395200D01*
X166166800Y-94386400D02*
X165413600Y-94386400D01*
X164993600Y-91839200D02*
X164846000Y-91986800D01*
X166319200Y-91839200D02*
X164993600Y-91839200D01*
D26*
X140886800Y-88087200D02*
X138346800Y-90627200D01*
X143186800Y-88087200D02*
X140886800Y-88087200D01*
X146316000Y-88087200D02*
X146354800Y-88048400D01*
X143186800Y-88087200D02*
X146316000Y-88087200D01*
X147831200Y-88048400D02*
X147878800Y-88096000D01*
X146354800Y-88048400D02*
X147831200Y-88048400D01*
X156633401Y-100151799D02*
X157886400Y-98898800D01*
X155342999Y-100151799D02*
X156633401Y-100151799D01*
X157886400Y-98898800D02*
X159512000Y-98898800D01*
X159712000Y-99098800D02*
X159512000Y-98898800D01*
X161340800Y-99098800D02*
X159712000Y-99098800D01*
X161403600Y-99161600D02*
X161340800Y-99098800D01*
X163532400Y-99161600D02*
X161403600Y-99161600D01*
X163532400Y-97632800D02*
X163334000Y-97434400D01*
X163532400Y-99161600D02*
X163532400Y-97632800D01*
X156185598Y-94749200D02*
X155342999Y-95591799D01*
X157784800Y-94749200D02*
X156185598Y-94749200D01*
X157986400Y-94547600D02*
X157784800Y-94749200D01*
X159207200Y-94547600D02*
X157986400Y-94547600D01*
X160629600Y-94547600D02*
X159207200Y-94547600D01*
X160982000Y-94195200D02*
X160629600Y-94547600D01*
X162204400Y-94195200D02*
X160982000Y-94195200D01*
D27*
X162204400Y-93268800D02*
X162560000Y-92913200D01*
X162204400Y-94195200D02*
X162204400Y-93268800D01*
D26*
X146354800Y-89548400D02*
X146698400Y-89548400D01*
X146698400Y-89548400D02*
X147269200Y-90119200D01*
X148984400Y-90119200D02*
X149555200Y-89548400D01*
X164834000Y-98760000D02*
X164432400Y-99161600D01*
X164834000Y-97434400D02*
X164834000Y-98760000D01*
X165866800Y-90486800D02*
X166319200Y-90939200D01*
X164846000Y-90486800D02*
X165866800Y-90486800D01*
X147574000Y-90119200D02*
X147574000Y-90373200D01*
X147269200Y-90119200D02*
X147574000Y-90119200D01*
X147574000Y-90119200D02*
X148984400Y-90119200D01*
X166319200Y-90939200D02*
X166682000Y-90939200D01*
X166682000Y-90939200D02*
X166979600Y-91236800D01*
X166979600Y-91236800D02*
X166979600Y-96774000D01*
X166319200Y-97434400D02*
X164834000Y-97434400D01*
X166979600Y-96774000D02*
X166319200Y-97434400D01*
X164846000Y-90170000D02*
X164134800Y-89458800D01*
X164846000Y-90486800D02*
X164846000Y-90170000D01*
X164134800Y-89458800D02*
X162509200Y-89458800D01*
X155397200Y-87833200D02*
X155346400Y-87782400D01*
X156332000Y-87833200D02*
X155397200Y-87833200D01*
X156885600Y-91881200D02*
X156885600Y-92999600D01*
X156311600Y-93573600D02*
X155085200Y-93573600D01*
X156885600Y-92999600D02*
X156311600Y-93573600D01*
X145650800Y-93167200D02*
X145701600Y-93116400D01*
X143186800Y-93167200D02*
X145650800Y-93167200D01*
X145701600Y-91795600D02*
X145701600Y-93116400D01*
X146432398Y-100482400D02*
X149042999Y-97871799D01*
X143186800Y-100482400D02*
X146432398Y-100482400D01*
X157784800Y-95649200D02*
X157784800Y-96266000D01*
X156179001Y-97871799D02*
X149042999Y-97871799D01*
X157784800Y-96266000D02*
X156179001Y-97871799D01*
X154134400Y-93522800D02*
X154185200Y-93573600D01*
X152951600Y-93522800D02*
X154134400Y-93522800D01*
X150841200Y-94488000D02*
X149555200Y-93202000D01*
X151942800Y-94488000D02*
X151942800Y-94335600D01*
X151942800Y-94488000D02*
X150841200Y-94488000D01*
X152704800Y-94488000D02*
X151942800Y-94488000D01*
X152951600Y-94241200D02*
X152704800Y-94488000D01*
X152951600Y-93522800D02*
X152951600Y-94241200D01*
X157887200Y-89829600D02*
X157835600Y-89881200D01*
X160798000Y-89829600D02*
X157887200Y-89829600D01*
X157159200Y-89204800D02*
X157835600Y-89881200D01*
X154882000Y-89204800D02*
X157159200Y-89204800D01*
X146601600Y-93116400D02*
X147421600Y-93116400D01*
X135432800Y-93167200D02*
X135432800Y-100736400D01*
X135432800Y-87884000D02*
X135432800Y-93167200D01*
X161899600Y-90779600D02*
X161848800Y-90728800D01*
X162798000Y-90779600D02*
X161899600Y-90779600D01*
X134162800Y-100736400D02*
X134162800Y-95351600D01*
X134162800Y-95351600D02*
X134162800Y-87884000D01*
X132892800Y-87884000D02*
X132892800Y-100736400D01*
X147370800Y-91795600D02*
X147421600Y-91744800D01*
X146601600Y-91795600D02*
X147370800Y-91795600D01*
D28*
X167125100Y-90728227D02*
X167025103Y-90628230D01*
X167010619Y-90610581D01*
X166940194Y-90552785D01*
X166873610Y-90517195D01*
X166859003Y-90499397D01*
X166807612Y-90457221D01*
X166748981Y-90425882D01*
X166685362Y-90406583D01*
X166619200Y-90400067D01*
X166434141Y-90400067D01*
X166209903Y-90175830D01*
X166195419Y-90158181D01*
X166124994Y-90100385D01*
X166044647Y-90057439D01*
X165957466Y-90030993D01*
X165889512Y-90024300D01*
X165866800Y-90022063D01*
X165844088Y-90024300D01*
X165553978Y-90024300D01*
X165553617Y-90020638D01*
X165534318Y-89957019D01*
X165502979Y-89898388D01*
X165460803Y-89846997D01*
X165409412Y-89804821D01*
X165350781Y-89773482D01*
X165287162Y-89754183D01*
X165221000Y-89747667D01*
X165077740Y-89747667D01*
X164477903Y-89147830D01*
X164463419Y-89130181D01*
X164392994Y-89072385D01*
X164312647Y-89029439D01*
X164225466Y-89002993D01*
X164157512Y-88996300D01*
X164134800Y-88994063D01*
X164112088Y-88996300D01*
X162948262Y-88996300D01*
X162915583Y-88963621D01*
X162811170Y-88893854D01*
X162695152Y-88845798D01*
X162571988Y-88821300D01*
X162446412Y-88821300D01*
X162323248Y-88845798D01*
X162207230Y-88893854D01*
X162102817Y-88963621D01*
X162014021Y-89052417D01*
X161944254Y-89156830D01*
X161896198Y-89272848D01*
X161871700Y-89396012D01*
X161871700Y-89521588D01*
X161896198Y-89644752D01*
X161944254Y-89760770D01*
X162014021Y-89865183D01*
X162102817Y-89953979D01*
X162207230Y-90023746D01*
X162271154Y-90050224D01*
X162218219Y-90066282D01*
X162159588Y-90097621D01*
X162108197Y-90139797D01*
X162104263Y-90144590D01*
X162034752Y-90115798D01*
X161911588Y-90091300D01*
X161786012Y-90091300D01*
X161662848Y-90115798D01*
X161587133Y-90147160D01*
X161587133Y-89429600D01*
X161580617Y-89363438D01*
X161561318Y-89299819D01*
X161529979Y-89241188D01*
X161487803Y-89189797D01*
X161436412Y-89147621D01*
X161377781Y-89116282D01*
X161314162Y-89096983D01*
X161248000Y-89090467D01*
X160348000Y-89090467D01*
X160281838Y-89096983D01*
X160218219Y-89116282D01*
X160159588Y-89147621D01*
X160108197Y-89189797D01*
X160066021Y-89241188D01*
X160034682Y-89299819D01*
X160015383Y-89363438D01*
X160015022Y-89367100D01*
X158568420Y-89367100D01*
X158568217Y-89365038D01*
X158548918Y-89301419D01*
X158517579Y-89242788D01*
X158475403Y-89191397D01*
X158424012Y-89149221D01*
X158365381Y-89117882D01*
X158301762Y-89098583D01*
X158235600Y-89092067D01*
X157700540Y-89092067D01*
X157502303Y-88893830D01*
X157487819Y-88876181D01*
X157417394Y-88818385D01*
X157337047Y-88775439D01*
X157249866Y-88748993D01*
X157181912Y-88742300D01*
X157159200Y-88740063D01*
X157136488Y-88742300D01*
X157015012Y-88742300D01*
X157056803Y-88708003D01*
X157098979Y-88656612D01*
X157130318Y-88597981D01*
X157149617Y-88534362D01*
X157156133Y-88468200D01*
X157156133Y-87198200D01*
X157151130Y-87147400D01*
X159470267Y-87147400D01*
X159470267Y-88417400D01*
X159476783Y-88483562D01*
X159496082Y-88547181D01*
X159527421Y-88605812D01*
X159569597Y-88657203D01*
X159620988Y-88699379D01*
X159679619Y-88730718D01*
X159743238Y-88750017D01*
X159809400Y-88756533D01*
X160115855Y-88756533D01*
X160211212Y-88775500D01*
X160336788Y-88775500D01*
X160432145Y-88756533D01*
X160779400Y-88756533D01*
X160845562Y-88750017D01*
X160909181Y-88730718D01*
X160967812Y-88699379D01*
X161019203Y-88657203D01*
X161061379Y-88605812D01*
X161092718Y-88547181D01*
X161112017Y-88483562D01*
X161118533Y-88417400D01*
X161118533Y-87147400D01*
X162721467Y-87147400D01*
X162721467Y-88417400D01*
X162727983Y-88483562D01*
X162747282Y-88547181D01*
X162778621Y-88605812D01*
X162820797Y-88657203D01*
X162872188Y-88699379D01*
X162930819Y-88730718D01*
X162994438Y-88750017D01*
X163060600Y-88756533D01*
X163417855Y-88756533D01*
X163513212Y-88775500D01*
X163638788Y-88775500D01*
X163734145Y-88756533D01*
X164030600Y-88756533D01*
X164096762Y-88750017D01*
X164160381Y-88730718D01*
X164185600Y-88717238D01*
X164210819Y-88730718D01*
X164274438Y-88750017D01*
X164340600Y-88756533D01*
X164687855Y-88756533D01*
X164783212Y-88775500D01*
X164908788Y-88775500D01*
X165004145Y-88756533D01*
X165310600Y-88756533D01*
X165376762Y-88750017D01*
X165440381Y-88730718D01*
X165499012Y-88699379D01*
X165550403Y-88657203D01*
X165592579Y-88605812D01*
X165623918Y-88547181D01*
X165643217Y-88483562D01*
X165649733Y-88417400D01*
X165649733Y-87147400D01*
X165643217Y-87081238D01*
X165623918Y-87017619D01*
X165592579Y-86958988D01*
X165550403Y-86907597D01*
X165499012Y-86865421D01*
X165440381Y-86834082D01*
X165376762Y-86814783D01*
X165310600Y-86808267D01*
X164340600Y-86808267D01*
X164274438Y-86814783D01*
X164210819Y-86834082D01*
X164185600Y-86847562D01*
X164160381Y-86834082D01*
X164096762Y-86814783D01*
X164030600Y-86808267D01*
X163060600Y-86808267D01*
X162994438Y-86814783D01*
X162930819Y-86834082D01*
X162872188Y-86865421D01*
X162820797Y-86907597D01*
X162778621Y-86958988D01*
X162747282Y-87017619D01*
X162727983Y-87081238D01*
X162721467Y-87147400D01*
X161118533Y-87147400D01*
X161112017Y-87081238D01*
X161092718Y-87017619D01*
X161061379Y-86958988D01*
X161019203Y-86907597D01*
X160967812Y-86865421D01*
X160909181Y-86834082D01*
X160845562Y-86814783D01*
X160779400Y-86808267D01*
X159809400Y-86808267D01*
X159743238Y-86814783D01*
X159679619Y-86834082D01*
X159620988Y-86865421D01*
X159569597Y-86907597D01*
X159527421Y-86958988D01*
X159496082Y-87017619D01*
X159476783Y-87081238D01*
X159470267Y-87147400D01*
X157151130Y-87147400D01*
X157149617Y-87132038D01*
X157130318Y-87068419D01*
X157098979Y-87009788D01*
X157056803Y-86958397D01*
X157005412Y-86916221D01*
X156946781Y-86884882D01*
X156883162Y-86865583D01*
X156817000Y-86859067D01*
X155847000Y-86859067D01*
X155780838Y-86865583D01*
X155717219Y-86884882D01*
X155658588Y-86916221D01*
X155607197Y-86958397D01*
X155565021Y-87009788D01*
X155534027Y-87067773D01*
X155419037Y-87044900D01*
X155273763Y-87044900D01*
X155131279Y-87073242D01*
X154997063Y-87128836D01*
X154876271Y-87209547D01*
X154773547Y-87312271D01*
X154692836Y-87433063D01*
X154637242Y-87567279D01*
X154608900Y-87709763D01*
X154608900Y-87855037D01*
X154637242Y-87997521D01*
X154692836Y-88131737D01*
X154773547Y-88252529D01*
X154876271Y-88355253D01*
X154997063Y-88435964D01*
X155131279Y-88491558D01*
X155273763Y-88519900D01*
X155419037Y-88519900D01*
X155511154Y-88501577D01*
X155514383Y-88534362D01*
X155533682Y-88597981D01*
X155565021Y-88656612D01*
X155607197Y-88708003D01*
X155648988Y-88742300D01*
X155377829Y-88742300D01*
X155363979Y-88716388D01*
X155321803Y-88664997D01*
X155270412Y-88622821D01*
X155211781Y-88591482D01*
X155148162Y-88572183D01*
X155082000Y-88565667D01*
X154682000Y-88565667D01*
X154615838Y-88572183D01*
X154552219Y-88591482D01*
X154493588Y-88622821D01*
X154442197Y-88664997D01*
X154432000Y-88677422D01*
X154421803Y-88664997D01*
X154370412Y-88622821D01*
X154311781Y-88591482D01*
X154248162Y-88572183D01*
X154182000Y-88565667D01*
X153782000Y-88565667D01*
X153715838Y-88572183D01*
X153652219Y-88591482D01*
X153593588Y-88622821D01*
X153542197Y-88664997D01*
X153500021Y-88716388D01*
X153486171Y-88742300D01*
X153483340Y-88742300D01*
X153464059Y-88706228D01*
X153421883Y-88654837D01*
X153414100Y-88648450D01*
X153414100Y-88610712D01*
X153416337Y-88588000D01*
X153407407Y-88497334D01*
X153405655Y-88491558D01*
X153380961Y-88410153D01*
X153338015Y-88329806D01*
X153280219Y-88259381D01*
X153262576Y-88244902D01*
X152904303Y-87886630D01*
X152889819Y-87868981D01*
X152819394Y-87811185D01*
X152739047Y-87768239D01*
X152651866Y-87741793D01*
X152583912Y-87735100D01*
X152561200Y-87732863D01*
X152538488Y-87735100D01*
X151523429Y-87735100D01*
X151509579Y-87709188D01*
X151467403Y-87657797D01*
X151416012Y-87615621D01*
X151357381Y-87584282D01*
X151293762Y-87564983D01*
X151227600Y-87558467D01*
X150727600Y-87558467D01*
X150661438Y-87564983D01*
X150597819Y-87584282D01*
X150594792Y-87585900D01*
X150263178Y-87585900D01*
X150262817Y-87582238D01*
X150243518Y-87518619D01*
X150212179Y-87459988D01*
X150170003Y-87408597D01*
X150118612Y-87366421D01*
X150059981Y-87335082D01*
X149996362Y-87315783D01*
X149930200Y-87309267D01*
X149180200Y-87309267D01*
X149114038Y-87315783D01*
X149050419Y-87335082D01*
X148991788Y-87366421D01*
X148940397Y-87408597D01*
X148898221Y-87459988D01*
X148866882Y-87518619D01*
X148847583Y-87582238D01*
X148841067Y-87648400D01*
X148841067Y-88448400D01*
X148847583Y-88514562D01*
X148866882Y-88578181D01*
X148898221Y-88636812D01*
X148940397Y-88688203D01*
X148991788Y-88730379D01*
X149050419Y-88761718D01*
X149114038Y-88781017D01*
X149180200Y-88787533D01*
X149930200Y-88787533D01*
X149996362Y-88781017D01*
X150059981Y-88761718D01*
X150118612Y-88730379D01*
X150170003Y-88688203D01*
X150212179Y-88636812D01*
X150243518Y-88578181D01*
X150262817Y-88514562D01*
X150263178Y-88510900D01*
X150389777Y-88510900D01*
X150394983Y-88563762D01*
X150414282Y-88627381D01*
X150445621Y-88686012D01*
X150487797Y-88737403D01*
X150539188Y-88779579D01*
X150597819Y-88810918D01*
X150661438Y-88830217D01*
X150727600Y-88836733D01*
X151227600Y-88836733D01*
X151293762Y-88830217D01*
X151357381Y-88810918D01*
X151416012Y-88779579D01*
X151467403Y-88737403D01*
X151509579Y-88686012D01*
X151523429Y-88660100D01*
X151575337Y-88660100D01*
X151517273Y-88746998D01*
X151476756Y-88844817D01*
X151456100Y-88948661D01*
X151456100Y-89054539D01*
X151476756Y-89158383D01*
X151517273Y-89256202D01*
X151542947Y-89294625D01*
X151542947Y-89494640D01*
X151549463Y-89560802D01*
X151568762Y-89624421D01*
X151600101Y-89683052D01*
X151642277Y-89734443D01*
X151693668Y-89776619D01*
X151752299Y-89807958D01*
X151815918Y-89827257D01*
X151882080Y-89833773D01*
X152282080Y-89833773D01*
X152348242Y-89827257D01*
X152411861Y-89807958D01*
X152470492Y-89776619D01*
X152521883Y-89734443D01*
X152532080Y-89722018D01*
X152542277Y-89734443D01*
X152593668Y-89776619D01*
X152652299Y-89807958D01*
X152715918Y-89827257D01*
X152782080Y-89833773D01*
X153182080Y-89833773D01*
X153248242Y-89827257D01*
X153311861Y-89807958D01*
X153370492Y-89776619D01*
X153421883Y-89734443D01*
X153464059Y-89683052D01*
X153472479Y-89667300D01*
X153486171Y-89667300D01*
X153500021Y-89693212D01*
X153542197Y-89744603D01*
X153593588Y-89786779D01*
X153652219Y-89818118D01*
X153715838Y-89837417D01*
X153782000Y-89843933D01*
X154182000Y-89843933D01*
X154248162Y-89837417D01*
X154311781Y-89818118D01*
X154370412Y-89786779D01*
X154421803Y-89744603D01*
X154432000Y-89732178D01*
X154442197Y-89744603D01*
X154493588Y-89786779D01*
X154552219Y-89818118D01*
X154615838Y-89837417D01*
X154682000Y-89843933D01*
X155082000Y-89843933D01*
X155148162Y-89837417D01*
X155211781Y-89818118D01*
X155270412Y-89786779D01*
X155321803Y-89744603D01*
X155363979Y-89693212D01*
X155377829Y-89667300D01*
X156967627Y-89667300D01*
X157096467Y-89796140D01*
X157096467Y-90331200D01*
X157102983Y-90397362D01*
X157122282Y-90460981D01*
X157153621Y-90519612D01*
X157195797Y-90571003D01*
X157247188Y-90613179D01*
X157305819Y-90644518D01*
X157369438Y-90663817D01*
X157435600Y-90670333D01*
X158235600Y-90670333D01*
X158301762Y-90663817D01*
X158365381Y-90644518D01*
X158424012Y-90613179D01*
X158475403Y-90571003D01*
X158517579Y-90519612D01*
X158548918Y-90460981D01*
X158568217Y-90397362D01*
X158574733Y-90331200D01*
X158574733Y-90292100D01*
X160015022Y-90292100D01*
X160015383Y-90295762D01*
X160034682Y-90359381D01*
X160066021Y-90418012D01*
X160108197Y-90469403D01*
X160159588Y-90511579D01*
X160218219Y-90542918D01*
X160281838Y-90562217D01*
X160348000Y-90568733D01*
X161230649Y-90568733D01*
X161211300Y-90666012D01*
X161211300Y-90791588D01*
X161235798Y-90914752D01*
X161283854Y-91030770D01*
X161353621Y-91135183D01*
X161442417Y-91223979D01*
X161546830Y-91293746D01*
X161662848Y-91341802D01*
X161786012Y-91366300D01*
X161911588Y-91366300D01*
X162034752Y-91341802D01*
X162048883Y-91335949D01*
X162066021Y-91368012D01*
X162108197Y-91419403D01*
X162159588Y-91461579D01*
X162218219Y-91492918D01*
X162281838Y-91512217D01*
X162348000Y-91518733D01*
X163248000Y-91518733D01*
X163314162Y-91512217D01*
X163377781Y-91492918D01*
X163436412Y-91461579D01*
X163487803Y-91419403D01*
X163529979Y-91368012D01*
X163561318Y-91309381D01*
X163580617Y-91245762D01*
X163587133Y-91179600D01*
X163587133Y-90379600D01*
X163580617Y-90313438D01*
X163561318Y-90249819D01*
X163529979Y-90191188D01*
X163487803Y-90139797D01*
X163436412Y-90097621D01*
X163377781Y-90066282D01*
X163314162Y-90046983D01*
X163248000Y-90040467D01*
X162770802Y-90040467D01*
X162811170Y-90023746D01*
X162915583Y-89953979D01*
X162948262Y-89921300D01*
X163943227Y-89921300D01*
X164131867Y-90109940D01*
X164131867Y-90886800D01*
X164138383Y-90952962D01*
X164157682Y-91016581D01*
X164189021Y-91075212D01*
X164231197Y-91126603D01*
X164282588Y-91168779D01*
X164341219Y-91200118D01*
X164404838Y-91219417D01*
X164471000Y-91225933D01*
X165221000Y-91225933D01*
X165287162Y-91219417D01*
X165350781Y-91200118D01*
X165409412Y-91168779D01*
X165460803Y-91126603D01*
X165502979Y-91075212D01*
X165534318Y-91016581D01*
X165553617Y-90952962D01*
X165553978Y-90949300D01*
X165675227Y-90949300D01*
X165680067Y-90954140D01*
X165680067Y-91139200D01*
X165686583Y-91205362D01*
X165705882Y-91268981D01*
X165736734Y-91326700D01*
X165436071Y-91326700D01*
X165409412Y-91304821D01*
X165350781Y-91273482D01*
X165287162Y-91254183D01*
X165221000Y-91247667D01*
X164471000Y-91247667D01*
X164404838Y-91254183D01*
X164341219Y-91273482D01*
X164282588Y-91304821D01*
X164231197Y-91346997D01*
X164189021Y-91398388D01*
X164157682Y-91457019D01*
X164138383Y-91520638D01*
X164131867Y-91586800D01*
X164131867Y-92046860D01*
X163671426Y-92507301D01*
X163653782Y-92521781D01*
X163595986Y-92592206D01*
X163555057Y-92668779D01*
X163553040Y-92672553D01*
X163526593Y-92759735D01*
X163517663Y-92850400D01*
X163519901Y-92873122D01*
X163519901Y-93469056D01*
X163477619Y-93481882D01*
X163418988Y-93513221D01*
X163367597Y-93555397D01*
X163325421Y-93606788D01*
X163294082Y-93665419D01*
X163274783Y-93729038D01*
X163268267Y-93795200D01*
X163268267Y-94595200D01*
X163274783Y-94661362D01*
X163294082Y-94724981D01*
X163325421Y-94783612D01*
X163367597Y-94835003D01*
X163418988Y-94877179D01*
X163477619Y-94908518D01*
X163541238Y-94927817D01*
X163607400Y-94934333D01*
X164357400Y-94934333D01*
X164423562Y-94927817D01*
X164487181Y-94908518D01*
X164545812Y-94877179D01*
X164597203Y-94835003D01*
X164639379Y-94783612D01*
X164670718Y-94724981D01*
X164690017Y-94661362D01*
X164690378Y-94657700D01*
X164815667Y-94657700D01*
X164815667Y-94695200D01*
X164822183Y-94761362D01*
X164841482Y-94824981D01*
X164872821Y-94883612D01*
X164914997Y-94935003D01*
X164966388Y-94977179D01*
X165025019Y-95008518D01*
X165088638Y-95027817D01*
X165154800Y-95034333D01*
X165654800Y-95034333D01*
X165720962Y-95027817D01*
X165784581Y-95008518D01*
X165843212Y-94977179D01*
X165871382Y-94954060D01*
X165980848Y-94999402D01*
X166104012Y-95023900D01*
X166229588Y-95023900D01*
X166352752Y-94999402D01*
X166468770Y-94951346D01*
X166517101Y-94919052D01*
X166517101Y-96582426D01*
X166127627Y-96971900D01*
X165560144Y-96971900D01*
X165547318Y-96929619D01*
X165515979Y-96870988D01*
X165473803Y-96819597D01*
X165422412Y-96777421D01*
X165363781Y-96746082D01*
X165300162Y-96726783D01*
X165234000Y-96720267D01*
X164434000Y-96720267D01*
X164367838Y-96726783D01*
X164304219Y-96746082D01*
X164245588Y-96777421D01*
X164194197Y-96819597D01*
X164152021Y-96870988D01*
X164120682Y-96929619D01*
X164101383Y-96993238D01*
X164094867Y-97059400D01*
X164094867Y-97809400D01*
X164101383Y-97875562D01*
X164120682Y-97939181D01*
X164152021Y-97997812D01*
X164194197Y-98049203D01*
X164245588Y-98091379D01*
X164304219Y-98122718D01*
X164367838Y-98142017D01*
X164371501Y-98142378D01*
X164371501Y-98522467D01*
X164232400Y-98522467D01*
X164166238Y-98528983D01*
X164102619Y-98548282D01*
X164043988Y-98579621D01*
X163994900Y-98619907D01*
X163994900Y-98023497D01*
X164015979Y-97997812D01*
X164047318Y-97939181D01*
X164066617Y-97875562D01*
X164073133Y-97809400D01*
X164073133Y-97059400D01*
X164066617Y-96993238D01*
X164047318Y-96929619D01*
X164015979Y-96870988D01*
X163973803Y-96819597D01*
X163922412Y-96777421D01*
X163863781Y-96746082D01*
X163800162Y-96726783D01*
X163734000Y-96720267D01*
X162934000Y-96720267D01*
X162867838Y-96726783D01*
X162804219Y-96746082D01*
X162745588Y-96777421D01*
X162694197Y-96819597D01*
X162652021Y-96870988D01*
X162620682Y-96929619D01*
X162601383Y-96993238D01*
X162594867Y-97059400D01*
X162594867Y-97809400D01*
X162601383Y-97875562D01*
X162620682Y-97939181D01*
X162652021Y-97997812D01*
X162694197Y-98049203D01*
X162745588Y-98091379D01*
X162804219Y-98122718D01*
X162867838Y-98142017D01*
X162934000Y-98148533D01*
X163069901Y-98148533D01*
X163069900Y-98649453D01*
X163050421Y-98673188D01*
X163036571Y-98699100D01*
X162054933Y-98699100D01*
X162054933Y-98597200D01*
X162048417Y-98531038D01*
X162029118Y-98467419D01*
X161997779Y-98408788D01*
X161955603Y-98357397D01*
X161904212Y-98315221D01*
X161845581Y-98283882D01*
X161781962Y-98264583D01*
X161715800Y-98258067D01*
X160965800Y-98258067D01*
X160899638Y-98264583D01*
X160836019Y-98283882D01*
X160777388Y-98315221D01*
X160725997Y-98357397D01*
X160683821Y-98408788D01*
X160652482Y-98467419D01*
X160633183Y-98531038D01*
X160626667Y-98597200D01*
X160626667Y-98636300D01*
X160101133Y-98636300D01*
X160101133Y-98598800D01*
X160094617Y-98532638D01*
X160075318Y-98469019D01*
X160043979Y-98410388D01*
X160001803Y-98358997D01*
X159950412Y-98316821D01*
X159891781Y-98285482D01*
X159828162Y-98266183D01*
X159762000Y-98259667D01*
X159262000Y-98259667D01*
X159195838Y-98266183D01*
X159132219Y-98285482D01*
X159073588Y-98316821D01*
X159022197Y-98358997D01*
X158980021Y-98410388D01*
X158966171Y-98436300D01*
X158432229Y-98436300D01*
X158418379Y-98410388D01*
X158376203Y-98358997D01*
X158324812Y-98316821D01*
X158266181Y-98285482D01*
X158202562Y-98266183D01*
X158136400Y-98259667D01*
X157636400Y-98259667D01*
X157570238Y-98266183D01*
X157506619Y-98285482D01*
X157447988Y-98316821D01*
X157396597Y-98358997D01*
X157354421Y-98410388D01*
X157323082Y-98469019D01*
X157303783Y-98532638D01*
X157297267Y-98598800D01*
X157297267Y-98833859D01*
X156739873Y-99391254D01*
X156724978Y-99363387D01*
X156682802Y-99311996D01*
X156631411Y-99269820D01*
X156572780Y-99238481D01*
X156509161Y-99219182D01*
X156442999Y-99212666D01*
X154242999Y-99212666D01*
X154176837Y-99219182D01*
X154113218Y-99238481D01*
X154054587Y-99269820D01*
X154003196Y-99311996D01*
X153961020Y-99363387D01*
X153929681Y-99422018D01*
X153910382Y-99485637D01*
X153903866Y-99551799D01*
X153903866Y-100751799D01*
X153910382Y-100817961D01*
X153929681Y-100881580D01*
X153961020Y-100940211D01*
X154003196Y-100991602D01*
X154054587Y-101033778D01*
X154113218Y-101065117D01*
X154176837Y-101084416D01*
X154242999Y-101090932D01*
X156442999Y-101090932D01*
X156509161Y-101084416D01*
X156572780Y-101065117D01*
X156631411Y-101033778D01*
X156682802Y-100991602D01*
X156724978Y-100940211D01*
X156756317Y-100881580D01*
X156775616Y-100817961D01*
X156782132Y-100751799D01*
X156782132Y-100589992D01*
X156811248Y-100581160D01*
X156891595Y-100538214D01*
X156962020Y-100480418D01*
X156976504Y-100462769D01*
X157901341Y-99537933D01*
X158136400Y-99537933D01*
X158202562Y-99531417D01*
X158266181Y-99512118D01*
X158324812Y-99480779D01*
X158376203Y-99438603D01*
X158418379Y-99387212D01*
X158432229Y-99361300D01*
X158966171Y-99361300D01*
X158980021Y-99387212D01*
X159022197Y-99438603D01*
X159073588Y-99480779D01*
X159132219Y-99512118D01*
X159195838Y-99531417D01*
X159262000Y-99537933D01*
X159566366Y-99537933D01*
X159621334Y-99554607D01*
X159712000Y-99563537D01*
X159734712Y-99561300D01*
X160670826Y-99561300D01*
X160683821Y-99585612D01*
X160725997Y-99637003D01*
X160777388Y-99679179D01*
X160836019Y-99710518D01*
X160899638Y-99729817D01*
X160965800Y-99736333D01*
X161715800Y-99736333D01*
X161781962Y-99729817D01*
X161845581Y-99710518D01*
X161904212Y-99679179D01*
X161955603Y-99637003D01*
X161966192Y-99624100D01*
X163036571Y-99624100D01*
X163050421Y-99650012D01*
X163092597Y-99701403D01*
X163143988Y-99743579D01*
X163202619Y-99774918D01*
X163266238Y-99794217D01*
X163332400Y-99800733D01*
X163429065Y-99800733D01*
X163339248Y-99818598D01*
X163257478Y-99852468D01*
X163009800Y-99852468D01*
X162943638Y-99858984D01*
X162880019Y-99878283D01*
X162821388Y-99909622D01*
X162769997Y-99951798D01*
X162727821Y-100003189D01*
X162696482Y-100061820D01*
X162677183Y-100125439D01*
X162670667Y-100191601D01*
X162670667Y-101461601D01*
X162677183Y-101527763D01*
X162696482Y-101591382D01*
X162727821Y-101650013D01*
X162769997Y-101701404D01*
X162821388Y-101743580D01*
X162824980Y-101745500D01*
X160913420Y-101745500D01*
X160917012Y-101743580D01*
X160968403Y-101701404D01*
X161010579Y-101650013D01*
X161041918Y-101591382D01*
X161061217Y-101527763D01*
X161067733Y-101461601D01*
X161067733Y-100191601D01*
X161061217Y-100125439D01*
X161041918Y-100061820D01*
X161010579Y-100003189D01*
X160968403Y-99951798D01*
X160917012Y-99909622D01*
X160858381Y-99878283D01*
X160794762Y-99858984D01*
X160728600Y-99852468D01*
X160541722Y-99852468D01*
X160459952Y-99818598D01*
X160336788Y-99794100D01*
X160211212Y-99794100D01*
X160088048Y-99818598D01*
X160006278Y-99852468D01*
X159758600Y-99852468D01*
X159692438Y-99858984D01*
X159628819Y-99878283D01*
X159570188Y-99909622D01*
X159518797Y-99951798D01*
X159476621Y-100003189D01*
X159445282Y-100061820D01*
X159425983Y-100125439D01*
X159419467Y-100191601D01*
X159419467Y-101461601D01*
X159425983Y-101527763D01*
X159445282Y-101591382D01*
X159476621Y-101650013D01*
X159518797Y-101701404D01*
X159570188Y-101743580D01*
X159573780Y-101745500D01*
X146491956Y-101745500D01*
X146489173Y-101110932D01*
X152242999Y-101110932D01*
X152309161Y-101104416D01*
X152372780Y-101085117D01*
X152431411Y-101053778D01*
X152482802Y-101011602D01*
X152524978Y-100960211D01*
X152556317Y-100901580D01*
X152575616Y-100837961D01*
X152582132Y-100771799D01*
X152582132Y-98334299D01*
X156156289Y-98334299D01*
X156179001Y-98336536D01*
X156201713Y-98334299D01*
X156269667Y-98327606D01*
X156356848Y-98301160D01*
X156437195Y-98258214D01*
X156507620Y-98200418D01*
X156522104Y-98182769D01*
X158095770Y-96609103D01*
X158113419Y-96594619D01*
X158171215Y-96524194D01*
X158213341Y-96445382D01*
X158214161Y-96443848D01*
X158240607Y-96356666D01*
X158249537Y-96266000D01*
X158247300Y-96243288D01*
X158247300Y-96145029D01*
X158273212Y-96131179D01*
X158324603Y-96089003D01*
X158366779Y-96037612D01*
X158398118Y-95978981D01*
X158417417Y-95915362D01*
X158423933Y-95849200D01*
X158423933Y-95449200D01*
X158417417Y-95383038D01*
X158398118Y-95319419D01*
X158366779Y-95260788D01*
X158324603Y-95209397D01*
X158312178Y-95199200D01*
X158324603Y-95189003D01*
X158366779Y-95137612D01*
X158398118Y-95078981D01*
X158417417Y-95015362D01*
X158417935Y-95010100D01*
X158661371Y-95010100D01*
X158675221Y-95036012D01*
X158717397Y-95087403D01*
X158768788Y-95129579D01*
X158827419Y-95160918D01*
X158891038Y-95180217D01*
X158957200Y-95186733D01*
X159457200Y-95186733D01*
X159523362Y-95180217D01*
X159586981Y-95160918D01*
X159645612Y-95129579D01*
X159697003Y-95087403D01*
X159739179Y-95036012D01*
X159753029Y-95010100D01*
X160083771Y-95010100D01*
X160097621Y-95036012D01*
X160139797Y-95087403D01*
X160191188Y-95129579D01*
X160249819Y-95160918D01*
X160313438Y-95180217D01*
X160379600Y-95186733D01*
X160879600Y-95186733D01*
X160945762Y-95180217D01*
X161009381Y-95160918D01*
X161068012Y-95129579D01*
X161119403Y-95087403D01*
X161161579Y-95036012D01*
X161192918Y-94977381D01*
X161212217Y-94913762D01*
X161218733Y-94847600D01*
X161218733Y-94657700D01*
X161496422Y-94657700D01*
X161496783Y-94661362D01*
X161516082Y-94724981D01*
X161547421Y-94783612D01*
X161589597Y-94835003D01*
X161640988Y-94877179D01*
X161699619Y-94908518D01*
X161763238Y-94927817D01*
X161829400Y-94934333D01*
X162579400Y-94934333D01*
X162645562Y-94927817D01*
X162709181Y-94908518D01*
X162767812Y-94877179D01*
X162819203Y-94835003D01*
X162861379Y-94783612D01*
X162892718Y-94724981D01*
X162912017Y-94661362D01*
X162918533Y-94595200D01*
X162918533Y-93795200D01*
X162912017Y-93729038D01*
X162892718Y-93665419D01*
X162861379Y-93606788D01*
X162819203Y-93555397D01*
X162770991Y-93515830D01*
X162861970Y-93478146D01*
X162966383Y-93408379D01*
X163055179Y-93319583D01*
X163124946Y-93215170D01*
X163173002Y-93099152D01*
X163197500Y-92975988D01*
X163197500Y-92850412D01*
X163173002Y-92727248D01*
X163124946Y-92611230D01*
X163055179Y-92506817D01*
X162966383Y-92418021D01*
X162861970Y-92348254D01*
X162745952Y-92300198D01*
X162622788Y-92275700D01*
X162497212Y-92275700D01*
X162374048Y-92300198D01*
X162258030Y-92348254D01*
X162153617Y-92418021D01*
X162064821Y-92506817D01*
X161995054Y-92611230D01*
X161946998Y-92727248D01*
X161928582Y-92819834D01*
X161859802Y-92888614D01*
X161840256Y-92904655D01*
X161824215Y-92924201D01*
X161824210Y-92924206D01*
X161776211Y-92982693D01*
X161728622Y-93071726D01*
X161699317Y-93168333D01*
X161689422Y-93268800D01*
X161691901Y-93293970D01*
X161691901Y-93486007D01*
X161640988Y-93513221D01*
X161589597Y-93555397D01*
X161547421Y-93606788D01*
X161516082Y-93665419D01*
X161496783Y-93729038D01*
X161496422Y-93732700D01*
X161004712Y-93732700D01*
X160982000Y-93730463D01*
X160959288Y-93732700D01*
X160891334Y-93739393D01*
X160804153Y-93765839D01*
X160723806Y-93808785D01*
X160653381Y-93866581D01*
X160638897Y-93884230D01*
X160614660Y-93908467D01*
X160379600Y-93908467D01*
X160313438Y-93914983D01*
X160249819Y-93934282D01*
X160191188Y-93965621D01*
X160139797Y-94007797D01*
X160097621Y-94059188D01*
X160083771Y-94085100D01*
X159753029Y-94085100D01*
X159739179Y-94059188D01*
X159697003Y-94007797D01*
X159645612Y-93965621D01*
X159586981Y-93934282D01*
X159523362Y-93914983D01*
X159457200Y-93908467D01*
X158957200Y-93908467D01*
X158891038Y-93914983D01*
X158827419Y-93934282D01*
X158768788Y-93965621D01*
X158717397Y-94007797D01*
X158675221Y-94059188D01*
X158661371Y-94085100D01*
X158009111Y-94085100D01*
X157986399Y-94082863D01*
X157895733Y-94091793D01*
X157869287Y-94099816D01*
X157808553Y-94118239D01*
X157728206Y-94161185D01*
X157668643Y-94210067D01*
X157484800Y-94210067D01*
X157418638Y-94216583D01*
X157355019Y-94235882D01*
X157296388Y-94267221D01*
X157272653Y-94286700D01*
X156208310Y-94286700D01*
X156185598Y-94284463D01*
X156162886Y-94286700D01*
X156094932Y-94293393D01*
X156007751Y-94319839D01*
X155927404Y-94362785D01*
X155856979Y-94420581D01*
X155842501Y-94438223D01*
X155628058Y-94652666D01*
X154242999Y-94652666D01*
X154176837Y-94659182D01*
X154113218Y-94678481D01*
X154054587Y-94709820D01*
X154003196Y-94751996D01*
X153961020Y-94803387D01*
X153929681Y-94862018D01*
X153910382Y-94925637D01*
X153903866Y-94991799D01*
X153903866Y-96191799D01*
X153910382Y-96257961D01*
X153929681Y-96321580D01*
X153961020Y-96380211D01*
X154003196Y-96431602D01*
X154054587Y-96473778D01*
X154113218Y-96505117D01*
X154176837Y-96524416D01*
X154242999Y-96530932D01*
X156442999Y-96530932D01*
X156509161Y-96524416D01*
X156572780Y-96505117D01*
X156631411Y-96473778D01*
X156682802Y-96431602D01*
X156724978Y-96380211D01*
X156756317Y-96321580D01*
X156775616Y-96257961D01*
X156782132Y-96191799D01*
X156782132Y-95211700D01*
X157243107Y-95211700D01*
X157202821Y-95260788D01*
X157171482Y-95319419D01*
X157152183Y-95383038D01*
X157145667Y-95449200D01*
X157145667Y-95849200D01*
X157152183Y-95915362D01*
X157171482Y-95978981D01*
X157202821Y-96037612D01*
X157244997Y-96089003D01*
X157279449Y-96117278D01*
X155987428Y-97409299D01*
X152582132Y-97409299D01*
X152582132Y-94971799D01*
X152580034Y-94950500D01*
X152682088Y-94950500D01*
X152704800Y-94952737D01*
X152727512Y-94950500D01*
X152795466Y-94943807D01*
X152882647Y-94917361D01*
X152962994Y-94874415D01*
X153033419Y-94816619D01*
X153047903Y-94798970D01*
X153262570Y-94584303D01*
X153280219Y-94569819D01*
X153338015Y-94499394D01*
X153380961Y-94419047D01*
X153407407Y-94331866D01*
X153414100Y-94263912D01*
X153416337Y-94241200D01*
X153414100Y-94218488D01*
X153414100Y-94034947D01*
X153433579Y-94011212D01*
X153447429Y-93985300D01*
X153666397Y-93985300D01*
X153671882Y-94003381D01*
X153703221Y-94062012D01*
X153745397Y-94113403D01*
X153796788Y-94155579D01*
X153855419Y-94186918D01*
X153919038Y-94206217D01*
X153985200Y-94212733D01*
X154385200Y-94212733D01*
X154451362Y-94206217D01*
X154514981Y-94186918D01*
X154573612Y-94155579D01*
X154625003Y-94113403D01*
X154635200Y-94100978D01*
X154645397Y-94113403D01*
X154696788Y-94155579D01*
X154755419Y-94186918D01*
X154819038Y-94206217D01*
X154885200Y-94212733D01*
X155285200Y-94212733D01*
X155351362Y-94206217D01*
X155414981Y-94186918D01*
X155473612Y-94155579D01*
X155525003Y-94113403D01*
X155567179Y-94062012D01*
X155581029Y-94036100D01*
X156288888Y-94036100D01*
X156311600Y-94038337D01*
X156334312Y-94036100D01*
X156402266Y-94029407D01*
X156489447Y-94002961D01*
X156569794Y-93960015D01*
X156640219Y-93902219D01*
X156654703Y-93884570D01*
X157196570Y-93342703D01*
X157214219Y-93328219D01*
X157272015Y-93257794D01*
X157314961Y-93177447D01*
X157341407Y-93090266D01*
X157348100Y-93022312D01*
X157350337Y-92999600D01*
X157348100Y-92976888D01*
X157348100Y-92664178D01*
X157351762Y-92663817D01*
X157415381Y-92644518D01*
X157474012Y-92613179D01*
X157525403Y-92571003D01*
X157567579Y-92519612D01*
X157598918Y-92460981D01*
X157618217Y-92397362D01*
X157624733Y-92331200D01*
X157624733Y-91431200D01*
X157618217Y-91365038D01*
X157598918Y-91301419D01*
X157567579Y-91242788D01*
X157525403Y-91191397D01*
X157474012Y-91149221D01*
X157415381Y-91117882D01*
X157351762Y-91098583D01*
X157285600Y-91092067D01*
X156485600Y-91092067D01*
X156419438Y-91098583D01*
X156355819Y-91117882D01*
X156297188Y-91149221D01*
X156245797Y-91191397D01*
X156203621Y-91242788D01*
X156172282Y-91301419D01*
X156152983Y-91365038D01*
X156146467Y-91431200D01*
X156146467Y-92331200D01*
X156152983Y-92397362D01*
X156172282Y-92460981D01*
X156203621Y-92519612D01*
X156245797Y-92571003D01*
X156297188Y-92613179D01*
X156355819Y-92644518D01*
X156419438Y-92663817D01*
X156423101Y-92664178D01*
X156423101Y-92808026D01*
X156120027Y-93111100D01*
X155581029Y-93111100D01*
X155567179Y-93085188D01*
X155525003Y-93033797D01*
X155473612Y-92991621D01*
X155414981Y-92960282D01*
X155351362Y-92940983D01*
X155285200Y-92934467D01*
X154885200Y-92934467D01*
X154819038Y-92940983D01*
X154755419Y-92960282D01*
X154696788Y-92991621D01*
X154645397Y-93033797D01*
X154635200Y-93046222D01*
X154625003Y-93033797D01*
X154573612Y-92991621D01*
X154514981Y-92960282D01*
X154451362Y-92940983D01*
X154385200Y-92934467D01*
X153985200Y-92934467D01*
X153919038Y-92940983D01*
X153855419Y-92960282D01*
X153796788Y-92991621D01*
X153745397Y-93033797D01*
X153723646Y-93060300D01*
X153447429Y-93060300D01*
X153433579Y-93034388D01*
X153391403Y-92982997D01*
X153340012Y-92940821D01*
X153281381Y-92909482D01*
X153217762Y-92890183D01*
X153151600Y-92883667D01*
X152751600Y-92883667D01*
X152685438Y-92890183D01*
X152621819Y-92909482D01*
X152563188Y-92940821D01*
X152514100Y-92981107D01*
X152514100Y-92827533D01*
X152775000Y-92827533D01*
X152841162Y-92821017D01*
X152904781Y-92801718D01*
X152963412Y-92770379D01*
X153014803Y-92728203D01*
X153056979Y-92676812D01*
X153088318Y-92618181D01*
X153107617Y-92554562D01*
X153107978Y-92550900D01*
X153279329Y-92550900D01*
X153300021Y-92589612D01*
X153342197Y-92641003D01*
X153393588Y-92683179D01*
X153452219Y-92714518D01*
X153515838Y-92733817D01*
X153582000Y-92740333D01*
X154182000Y-92740333D01*
X154248162Y-92733817D01*
X154311781Y-92714518D01*
X154370412Y-92683179D01*
X154421803Y-92641003D01*
X154463979Y-92589612D01*
X154495318Y-92530981D01*
X154514617Y-92467362D01*
X154521133Y-92401200D01*
X154521133Y-91901200D01*
X154514617Y-91835038D01*
X154495318Y-91771419D01*
X154463979Y-91712788D01*
X154421803Y-91661397D01*
X154370412Y-91619221D01*
X154311781Y-91587882D01*
X154248162Y-91568583D01*
X154182000Y-91562067D01*
X153582000Y-91562067D01*
X153515838Y-91568583D01*
X153452219Y-91587882D01*
X153393588Y-91619221D01*
X153385450Y-91625900D01*
X153107978Y-91625900D01*
X153107617Y-91622238D01*
X153088318Y-91558619D01*
X153056979Y-91499988D01*
X153014803Y-91448597D01*
X152963412Y-91406421D01*
X152904781Y-91375082D01*
X152841162Y-91355783D01*
X152775000Y-91349267D01*
X152025000Y-91349267D01*
X151958838Y-91355783D01*
X151895219Y-91375082D01*
X151836588Y-91406421D01*
X151785197Y-91448597D01*
X151743021Y-91499988D01*
X151711682Y-91558619D01*
X151692383Y-91622238D01*
X151685867Y-91688400D01*
X151685867Y-92153406D01*
X151665186Y-92178606D01*
X151632382Y-92239979D01*
X151622240Y-92258953D01*
X151595793Y-92346135D01*
X151586863Y-92436800D01*
X151589101Y-92459522D01*
X151589100Y-93010652D01*
X151569621Y-93034388D01*
X151538282Y-93093019D01*
X151518983Y-93156638D01*
X151512467Y-93222800D01*
X151512467Y-93822800D01*
X151518983Y-93888962D01*
X151538282Y-93952581D01*
X151547825Y-93970435D01*
X151525296Y-93992964D01*
X151503556Y-94025500D01*
X151032773Y-94025500D01*
X150294333Y-93287060D01*
X150294333Y-92752000D01*
X150287817Y-92685838D01*
X150268518Y-92622219D01*
X150237179Y-92563588D01*
X150195003Y-92512197D01*
X150143612Y-92470021D01*
X150084981Y-92438682D01*
X150021362Y-92419383D01*
X149955200Y-92412867D01*
X149155200Y-92412867D01*
X149089038Y-92419383D01*
X149025419Y-92438682D01*
X148966788Y-92470021D01*
X148915397Y-92512197D01*
X148873221Y-92563588D01*
X148841882Y-92622219D01*
X148822583Y-92685838D01*
X148816067Y-92752000D01*
X148816067Y-93652000D01*
X148822583Y-93718162D01*
X148841882Y-93781781D01*
X148873221Y-93840412D01*
X148915397Y-93891803D01*
X148966788Y-93933979D01*
X149025419Y-93965318D01*
X149089038Y-93984617D01*
X149155200Y-93991133D01*
X149690260Y-93991133D01*
X150331793Y-94632666D01*
X146460760Y-94632666D01*
X146456913Y-93755533D01*
X146801600Y-93755533D01*
X146867762Y-93749017D01*
X146931381Y-93729718D01*
X146990012Y-93698379D01*
X147025503Y-93669252D01*
X147119630Y-93732146D01*
X147235648Y-93780202D01*
X147358812Y-93804700D01*
X147484388Y-93804700D01*
X147607552Y-93780202D01*
X147723570Y-93732146D01*
X147827983Y-93662379D01*
X147916779Y-93573583D01*
X147986546Y-93469170D01*
X148034602Y-93353152D01*
X148059100Y-93229988D01*
X148059100Y-93104412D01*
X148034602Y-92981248D01*
X147986546Y-92865230D01*
X147916779Y-92760817D01*
X147827983Y-92672021D01*
X147723570Y-92602254D01*
X147607552Y-92554198D01*
X147484388Y-92529700D01*
X147358812Y-92529700D01*
X147235648Y-92554198D01*
X147119630Y-92602254D01*
X147082707Y-92626925D01*
X147041403Y-92576597D01*
X146990012Y-92534421D01*
X146931381Y-92503082D01*
X146867762Y-92483783D01*
X146801600Y-92477267D01*
X146451306Y-92477267D01*
X146451053Y-92419493D01*
X146816840Y-92419493D01*
X146883002Y-92412977D01*
X146946621Y-92393678D01*
X147005252Y-92362339D01*
X147056643Y-92320163D01*
X147098819Y-92268772D01*
X147104523Y-92258100D01*
X147118364Y-92258100D01*
X147119630Y-92258946D01*
X147235648Y-92307002D01*
X147358812Y-92331500D01*
X147484388Y-92331500D01*
X147607552Y-92307002D01*
X147723570Y-92258946D01*
X147827983Y-92189179D01*
X147916779Y-92100383D01*
X147986546Y-91995970D01*
X148034602Y-91879952D01*
X148059100Y-91756788D01*
X148059100Y-91631212D01*
X148034602Y-91508048D01*
X147986546Y-91392030D01*
X147916779Y-91287617D01*
X147827983Y-91198821D01*
X147723570Y-91129054D01*
X147607552Y-91080998D01*
X147484388Y-91056500D01*
X147358812Y-91056500D01*
X147235648Y-91080998D01*
X147119630Y-91129054D01*
X147015217Y-91198821D01*
X147010967Y-91203071D01*
X147005252Y-91198381D01*
X146946621Y-91167042D01*
X146883002Y-91147743D01*
X146816840Y-91141227D01*
X146445446Y-91141227D01*
X146442299Y-90423616D01*
X146440543Y-90406553D01*
X146435492Y-90390161D01*
X146427340Y-90375069D01*
X146416400Y-90361857D01*
X146403093Y-90351034D01*
X146387930Y-90343014D01*
X146371494Y-90338107D01*
X146354279Y-90336502D01*
X140080933Y-90373843D01*
X140080933Y-90032200D01*
X140074417Y-89966038D01*
X140055118Y-89902419D01*
X140023779Y-89843788D01*
X139981603Y-89792397D01*
X139930212Y-89750221D01*
X139896091Y-89731983D01*
X140479674Y-89148400D01*
X145640667Y-89148400D01*
X145640667Y-89948400D01*
X145647183Y-90014562D01*
X145666482Y-90078181D01*
X145697821Y-90136812D01*
X145739997Y-90188203D01*
X145791388Y-90230379D01*
X145850019Y-90261718D01*
X145913638Y-90281017D01*
X145979800Y-90287533D01*
X146729800Y-90287533D01*
X146778648Y-90282722D01*
X146926101Y-90430175D01*
X146940581Y-90447819D01*
X147011006Y-90505615D01*
X147084340Y-90544812D01*
X147097673Y-90577002D01*
X147156496Y-90665036D01*
X147231364Y-90739904D01*
X147319398Y-90798727D01*
X147417217Y-90839244D01*
X147521061Y-90859900D01*
X147626939Y-90859900D01*
X147730783Y-90839244D01*
X147828602Y-90798727D01*
X147898533Y-90752000D01*
X149766067Y-90752000D01*
X149766067Y-91652000D01*
X149772583Y-91718162D01*
X149791882Y-91781781D01*
X149823221Y-91840412D01*
X149865397Y-91891803D01*
X149916788Y-91933979D01*
X149975419Y-91965318D01*
X150039038Y-91984617D01*
X150105200Y-91991133D01*
X150905200Y-91991133D01*
X150971362Y-91984617D01*
X151034981Y-91965318D01*
X151093612Y-91933979D01*
X151145003Y-91891803D01*
X151187179Y-91840412D01*
X151218518Y-91781781D01*
X151237817Y-91718162D01*
X151244333Y-91652000D01*
X151244333Y-91568276D01*
X151290219Y-91530619D01*
X151304703Y-91512970D01*
X151708845Y-91108829D01*
X151711682Y-91118181D01*
X151743021Y-91176812D01*
X151785197Y-91228203D01*
X151836588Y-91270379D01*
X151895219Y-91301718D01*
X151958838Y-91321017D01*
X152025000Y-91327533D01*
X152775000Y-91327533D01*
X152841162Y-91321017D01*
X152904781Y-91301718D01*
X152963412Y-91270379D01*
X153014803Y-91228203D01*
X153056979Y-91176812D01*
X153088318Y-91118181D01*
X153107617Y-91054562D01*
X153107978Y-91050900D01*
X153329638Y-91050900D01*
X153342197Y-91066203D01*
X153393588Y-91108379D01*
X153452219Y-91139718D01*
X153515838Y-91159017D01*
X153582000Y-91165533D01*
X154182000Y-91165533D01*
X154248162Y-91159017D01*
X154311781Y-91139718D01*
X154370412Y-91108379D01*
X154421803Y-91066203D01*
X154463979Y-91014812D01*
X154495318Y-90956181D01*
X154514617Y-90892562D01*
X154521133Y-90826400D01*
X154521133Y-90326400D01*
X154514617Y-90260238D01*
X154495318Y-90196619D01*
X154463979Y-90137988D01*
X154421803Y-90086597D01*
X154370412Y-90044421D01*
X154311781Y-90013082D01*
X154248162Y-89993783D01*
X154182000Y-89987267D01*
X153582000Y-89987267D01*
X153515838Y-89993783D01*
X153452219Y-90013082D01*
X153393588Y-90044421D01*
X153342197Y-90086597D01*
X153309941Y-90125900D01*
X153107978Y-90125900D01*
X153107617Y-90122238D01*
X153088318Y-90058619D01*
X153056979Y-89999988D01*
X153014803Y-89948597D01*
X152963412Y-89906421D01*
X152904781Y-89875082D01*
X152841162Y-89855783D01*
X152775000Y-89849267D01*
X152025000Y-89849267D01*
X151958838Y-89855783D01*
X151895219Y-89875082D01*
X151836588Y-89906421D01*
X151785197Y-89948597D01*
X151743021Y-89999988D01*
X151711682Y-90058619D01*
X151692383Y-90122238D01*
X151692022Y-90125900D01*
X151597911Y-90125900D01*
X151575199Y-90123663D01*
X151484533Y-90132593D01*
X151458214Y-90140577D01*
X151397353Y-90159039D01*
X151317006Y-90201985D01*
X151246581Y-90259781D01*
X151232103Y-90277423D01*
X151058352Y-90451174D01*
X151034981Y-90438682D01*
X150971362Y-90419383D01*
X150905200Y-90412867D01*
X150105200Y-90412867D01*
X150039038Y-90419383D01*
X149975419Y-90438682D01*
X149916788Y-90470021D01*
X149865397Y-90512197D01*
X149823221Y-90563588D01*
X149791882Y-90622219D01*
X149772583Y-90685838D01*
X149766067Y-90752000D01*
X147898533Y-90752000D01*
X147916636Y-90739904D01*
X147991504Y-90665036D01*
X148047188Y-90581700D01*
X148961688Y-90581700D01*
X148984400Y-90583937D01*
X149007112Y-90581700D01*
X149075066Y-90575007D01*
X149162247Y-90548561D01*
X149242594Y-90505615D01*
X149313019Y-90447819D01*
X149327503Y-90430170D01*
X149470140Y-90287533D01*
X149930200Y-90287533D01*
X149996362Y-90281017D01*
X150059981Y-90261718D01*
X150118612Y-90230379D01*
X150170003Y-90188203D01*
X150212179Y-90136812D01*
X150243518Y-90078181D01*
X150262817Y-90014562D01*
X150269333Y-89948400D01*
X150269333Y-89148400D01*
X150262817Y-89082238D01*
X150243518Y-89018619D01*
X150212179Y-88959988D01*
X150170003Y-88908597D01*
X150118612Y-88866421D01*
X150059981Y-88835082D01*
X149996362Y-88815783D01*
X149930200Y-88809267D01*
X149180200Y-88809267D01*
X149114038Y-88815783D01*
X149050419Y-88835082D01*
X148991788Y-88866421D01*
X148940397Y-88908597D01*
X148898221Y-88959988D01*
X148866882Y-89018619D01*
X148847583Y-89082238D01*
X148841067Y-89148400D01*
X148841067Y-89608460D01*
X148792827Y-89656700D01*
X147596712Y-89656700D01*
X147574000Y-89654463D01*
X147551288Y-89656700D01*
X147460774Y-89656700D01*
X147068933Y-89264860D01*
X147068933Y-89148400D01*
X147062417Y-89082238D01*
X147043118Y-89018619D01*
X147011779Y-88959988D01*
X146969603Y-88908597D01*
X146918212Y-88866421D01*
X146859581Y-88835082D01*
X146795962Y-88815783D01*
X146729800Y-88809267D01*
X145979800Y-88809267D01*
X145913638Y-88815783D01*
X145850019Y-88835082D01*
X145791388Y-88866421D01*
X145739997Y-88908597D01*
X145697821Y-88959988D01*
X145666482Y-89018619D01*
X145647183Y-89082238D01*
X145640667Y-89148400D01*
X140479674Y-89148400D01*
X141078374Y-88549700D01*
X141452667Y-88549700D01*
X141452667Y-88682200D01*
X141459183Y-88748362D01*
X141478482Y-88811981D01*
X141509821Y-88870612D01*
X141551997Y-88922003D01*
X141603388Y-88964179D01*
X141662019Y-88995518D01*
X141725638Y-89014817D01*
X141791800Y-89021333D01*
X144581800Y-89021333D01*
X144647962Y-89014817D01*
X144711581Y-88995518D01*
X144770212Y-88964179D01*
X144821603Y-88922003D01*
X144863779Y-88870612D01*
X144895118Y-88811981D01*
X144914417Y-88748362D01*
X144920933Y-88682200D01*
X144920933Y-88549700D01*
X145657842Y-88549700D01*
X145666482Y-88578181D01*
X145697821Y-88636812D01*
X145739997Y-88688203D01*
X145791388Y-88730379D01*
X145850019Y-88761718D01*
X145913638Y-88781017D01*
X145979800Y-88787533D01*
X146729800Y-88787533D01*
X146795962Y-88781017D01*
X146859581Y-88761718D01*
X146918212Y-88730379D01*
X146969603Y-88688203D01*
X147011779Y-88636812D01*
X147043118Y-88578181D01*
X147062417Y-88514562D01*
X147062778Y-88510900D01*
X147310968Y-88510900D01*
X147315482Y-88525781D01*
X147346821Y-88584412D01*
X147388997Y-88635803D01*
X147440388Y-88677979D01*
X147499019Y-88709318D01*
X147562638Y-88728617D01*
X147628800Y-88735133D01*
X148128800Y-88735133D01*
X148194962Y-88728617D01*
X148258581Y-88709318D01*
X148317212Y-88677979D01*
X148368603Y-88635803D01*
X148410779Y-88584412D01*
X148442118Y-88525781D01*
X148461417Y-88462162D01*
X148467933Y-88396000D01*
X148467933Y-87796000D01*
X148461417Y-87729838D01*
X148442118Y-87666219D01*
X148410779Y-87607588D01*
X148368603Y-87556197D01*
X148317212Y-87514021D01*
X148258581Y-87482682D01*
X148194962Y-87463383D01*
X148128800Y-87456867D01*
X147628800Y-87456867D01*
X147562638Y-87463383D01*
X147499019Y-87482682D01*
X147440388Y-87514021D01*
X147388997Y-87556197D01*
X147364620Y-87585900D01*
X147062778Y-87585900D01*
X147062417Y-87582238D01*
X147043118Y-87518619D01*
X147011779Y-87459988D01*
X146969603Y-87408597D01*
X146918212Y-87366421D01*
X146859581Y-87335082D01*
X146795962Y-87315783D01*
X146729800Y-87309267D01*
X145979800Y-87309267D01*
X145913638Y-87315783D01*
X145850019Y-87335082D01*
X145791388Y-87366421D01*
X145739997Y-87408597D01*
X145697821Y-87459988D01*
X145666482Y-87518619D01*
X145647183Y-87582238D01*
X145643001Y-87624700D01*
X144920933Y-87624700D01*
X144920933Y-87492200D01*
X144914417Y-87426038D01*
X144895118Y-87362419D01*
X144863779Y-87303788D01*
X144821603Y-87252397D01*
X144770212Y-87210221D01*
X144711581Y-87178882D01*
X144647962Y-87159583D01*
X144581800Y-87153067D01*
X141791800Y-87153067D01*
X141725638Y-87159583D01*
X141662019Y-87178882D01*
X141603388Y-87210221D01*
X141551997Y-87252397D01*
X141509821Y-87303788D01*
X141478482Y-87362419D01*
X141459183Y-87426038D01*
X141452667Y-87492200D01*
X141452667Y-87624700D01*
X140909511Y-87624700D01*
X140886799Y-87622463D01*
X140796133Y-87631393D01*
X140769687Y-87639416D01*
X140708953Y-87657839D01*
X140628606Y-87700785D01*
X140558181Y-87758581D01*
X140543703Y-87776223D01*
X138626860Y-89693067D01*
X136951800Y-89693067D01*
X136885638Y-89699583D01*
X136822019Y-89718882D01*
X136763388Y-89750221D01*
X136711997Y-89792397D01*
X136669821Y-89843788D01*
X136638482Y-89902419D01*
X136619183Y-89966038D01*
X136612667Y-90032200D01*
X136612667Y-91222200D01*
X136619183Y-91288362D01*
X136638482Y-91351981D01*
X136669821Y-91410612D01*
X136711997Y-91462003D01*
X136763388Y-91504179D01*
X136822019Y-91535518D01*
X136885638Y-91554817D01*
X136951800Y-91561333D01*
X139741800Y-91561333D01*
X139807962Y-91554817D01*
X139866500Y-91537059D01*
X139866500Y-94945200D01*
X139868181Y-94962270D01*
X139873161Y-94978685D01*
X139881246Y-94993812D01*
X139892128Y-95007072D01*
X139905388Y-95017954D01*
X139920515Y-95026039D01*
X139936930Y-95031019D01*
X139953306Y-95032697D01*
X145503866Y-95076749D01*
X145503866Y-100019900D01*
X144920933Y-100019900D01*
X144920933Y-99887400D01*
X144914417Y-99821238D01*
X144895118Y-99757619D01*
X144863779Y-99698988D01*
X144821603Y-99647597D01*
X144770212Y-99605421D01*
X144711581Y-99574082D01*
X144647962Y-99554783D01*
X144581800Y-99548267D01*
X141791800Y-99548267D01*
X141725638Y-99554783D01*
X141662019Y-99574082D01*
X141603388Y-99605421D01*
X141551997Y-99647597D01*
X141509821Y-99698988D01*
X141478482Y-99757619D01*
X141459183Y-99821238D01*
X141452667Y-99887400D01*
X141452667Y-101077400D01*
X141459183Y-101143562D01*
X141478482Y-101207181D01*
X141509821Y-101265812D01*
X141551997Y-101317203D01*
X141603388Y-101359379D01*
X141662019Y-101390718D01*
X141725638Y-101410017D01*
X141791800Y-101416533D01*
X144581800Y-101416533D01*
X144647962Y-101410017D01*
X144711581Y-101390718D01*
X144770212Y-101359379D01*
X144821603Y-101317203D01*
X144863779Y-101265812D01*
X144895118Y-101207181D01*
X144914417Y-101143562D01*
X144920933Y-101077400D01*
X144920933Y-100944900D01*
X145552836Y-100944900D01*
X145561020Y-100960211D01*
X145603196Y-101011602D01*
X145654587Y-101053778D01*
X145713218Y-101085117D01*
X145776837Y-101104416D01*
X145842999Y-101110932D01*
X146267300Y-101110932D01*
X146267300Y-101745500D01*
X132036100Y-101745500D01*
X132036100Y-87249000D01*
X132068667Y-87249000D01*
X132068667Y-88519000D01*
X132075183Y-88585162D01*
X132094482Y-88648781D01*
X132125821Y-88707412D01*
X132167997Y-88758803D01*
X132219388Y-88800979D01*
X132278019Y-88832318D01*
X132341638Y-88851617D01*
X132407800Y-88858133D01*
X132430300Y-88858133D01*
X132430300Y-91305738D01*
X132397621Y-91338417D01*
X132327854Y-91442830D01*
X132279798Y-91558848D01*
X132255300Y-91682012D01*
X132255300Y-91807588D01*
X132279798Y-91930752D01*
X132327854Y-92046770D01*
X132397621Y-92151183D01*
X132430300Y-92183862D01*
X132430301Y-99762267D01*
X132407800Y-99762267D01*
X132341638Y-99768783D01*
X132278019Y-99788082D01*
X132219388Y-99819421D01*
X132167997Y-99861597D01*
X132125821Y-99912988D01*
X132094482Y-99971619D01*
X132075183Y-100035238D01*
X132068667Y-100101400D01*
X132068667Y-101371400D01*
X132075183Y-101437562D01*
X132094482Y-101501181D01*
X132125821Y-101559812D01*
X132167997Y-101611203D01*
X132219388Y-101653379D01*
X132278019Y-101684718D01*
X132341638Y-101704017D01*
X132407800Y-101710533D01*
X133377800Y-101710533D01*
X133443962Y-101704017D01*
X133507581Y-101684718D01*
X133527800Y-101673911D01*
X133548019Y-101684718D01*
X133611638Y-101704017D01*
X133677800Y-101710533D01*
X134647800Y-101710533D01*
X134713962Y-101704017D01*
X134777581Y-101684718D01*
X134797800Y-101673911D01*
X134818019Y-101684718D01*
X134881638Y-101704017D01*
X134947800Y-101710533D01*
X135917800Y-101710533D01*
X135983962Y-101704017D01*
X136047581Y-101684718D01*
X136106212Y-101653379D01*
X136157603Y-101611203D01*
X136199779Y-101559812D01*
X136231118Y-101501181D01*
X136250417Y-101437562D01*
X136256933Y-101371400D01*
X136256933Y-100101400D01*
X136250417Y-100035238D01*
X136231118Y-99971619D01*
X136199779Y-99912988D01*
X136157603Y-99861597D01*
X136106212Y-99819421D01*
X136047581Y-99788082D01*
X135983962Y-99768783D01*
X135917800Y-99762267D01*
X135895300Y-99762267D01*
X135895300Y-93606262D01*
X135927979Y-93573583D01*
X135997746Y-93469170D01*
X136045802Y-93353152D01*
X136070300Y-93229988D01*
X136070300Y-93104412D01*
X136045802Y-92981248D01*
X135997746Y-92865230D01*
X135927979Y-92760817D01*
X135895300Y-92728138D01*
X135895300Y-88858133D01*
X135917800Y-88858133D01*
X135983962Y-88851617D01*
X136047581Y-88832318D01*
X136106212Y-88800979D01*
X136157603Y-88758803D01*
X136199779Y-88707412D01*
X136231118Y-88648781D01*
X136250417Y-88585162D01*
X136256933Y-88519000D01*
X136256933Y-87249000D01*
X136250417Y-87182838D01*
X136231118Y-87119219D01*
X136199779Y-87060588D01*
X136157603Y-87009197D01*
X136106212Y-86967021D01*
X136047581Y-86935682D01*
X135983962Y-86916383D01*
X135917800Y-86909867D01*
X134947800Y-86909867D01*
X134881638Y-86916383D01*
X134818019Y-86935682D01*
X134797800Y-86946489D01*
X134777581Y-86935682D01*
X134713962Y-86916383D01*
X134647800Y-86909867D01*
X133677800Y-86909867D01*
X133611638Y-86916383D01*
X133548019Y-86935682D01*
X133527800Y-86946489D01*
X133507581Y-86935682D01*
X133443962Y-86916383D01*
X133377800Y-86909867D01*
X132407800Y-86909867D01*
X132341638Y-86916383D01*
X132278019Y-86935682D01*
X132219388Y-86967021D01*
X132167997Y-87009197D01*
X132125821Y-87060588D01*
X132094482Y-87119219D01*
X132075183Y-87182838D01*
X132068667Y-87249000D01*
X132036100Y-87249000D01*
X132036100Y-86777442D01*
X167125100Y-86752450D01*
X167125100Y-90728227D01*
G04 #@! TA.AperFunction,Conductor*
D29*
G36*
X167125100Y-90728227D02*
G01*
X167025103Y-90628230D01*
X167010619Y-90610581D01*
X166940194Y-90552785D01*
X166873610Y-90517195D01*
X166859003Y-90499397D01*
X166807612Y-90457221D01*
X166748981Y-90425882D01*
X166685362Y-90406583D01*
X166619200Y-90400067D01*
X166434141Y-90400067D01*
X166209903Y-90175830D01*
X166195419Y-90158181D01*
X166124994Y-90100385D01*
X166044647Y-90057439D01*
X165957466Y-90030993D01*
X165889512Y-90024300D01*
X165866800Y-90022063D01*
X165844088Y-90024300D01*
X165553978Y-90024300D01*
X165553617Y-90020638D01*
X165534318Y-89957019D01*
X165502979Y-89898388D01*
X165460803Y-89846997D01*
X165409412Y-89804821D01*
X165350781Y-89773482D01*
X165287162Y-89754183D01*
X165221000Y-89747667D01*
X165077740Y-89747667D01*
X164477903Y-89147830D01*
X164463419Y-89130181D01*
X164392994Y-89072385D01*
X164312647Y-89029439D01*
X164225466Y-89002993D01*
X164157512Y-88996300D01*
X164134800Y-88994063D01*
X164112088Y-88996300D01*
X162948262Y-88996300D01*
X162915583Y-88963621D01*
X162811170Y-88893854D01*
X162695152Y-88845798D01*
X162571988Y-88821300D01*
X162446412Y-88821300D01*
X162323248Y-88845798D01*
X162207230Y-88893854D01*
X162102817Y-88963621D01*
X162014021Y-89052417D01*
X161944254Y-89156830D01*
X161896198Y-89272848D01*
X161871700Y-89396012D01*
X161871700Y-89521588D01*
X161896198Y-89644752D01*
X161944254Y-89760770D01*
X162014021Y-89865183D01*
X162102817Y-89953979D01*
X162207230Y-90023746D01*
X162271154Y-90050224D01*
X162218219Y-90066282D01*
X162159588Y-90097621D01*
X162108197Y-90139797D01*
X162104263Y-90144590D01*
X162034752Y-90115798D01*
X161911588Y-90091300D01*
X161786012Y-90091300D01*
X161662848Y-90115798D01*
X161587133Y-90147160D01*
X161587133Y-89429600D01*
X161580617Y-89363438D01*
X161561318Y-89299819D01*
X161529979Y-89241188D01*
X161487803Y-89189797D01*
X161436412Y-89147621D01*
X161377781Y-89116282D01*
X161314162Y-89096983D01*
X161248000Y-89090467D01*
X160348000Y-89090467D01*
X160281838Y-89096983D01*
X160218219Y-89116282D01*
X160159588Y-89147621D01*
X160108197Y-89189797D01*
X160066021Y-89241188D01*
X160034682Y-89299819D01*
X160015383Y-89363438D01*
X160015022Y-89367100D01*
X158568420Y-89367100D01*
X158568217Y-89365038D01*
X158548918Y-89301419D01*
X158517579Y-89242788D01*
X158475403Y-89191397D01*
X158424012Y-89149221D01*
X158365381Y-89117882D01*
X158301762Y-89098583D01*
X158235600Y-89092067D01*
X157700540Y-89092067D01*
X157502303Y-88893830D01*
X157487819Y-88876181D01*
X157417394Y-88818385D01*
X157337047Y-88775439D01*
X157249866Y-88748993D01*
X157181912Y-88742300D01*
X157159200Y-88740063D01*
X157136488Y-88742300D01*
X157015012Y-88742300D01*
X157056803Y-88708003D01*
X157098979Y-88656612D01*
X157130318Y-88597981D01*
X157149617Y-88534362D01*
X157156133Y-88468200D01*
X157156133Y-87198200D01*
X157151130Y-87147400D01*
X159470267Y-87147400D01*
X159470267Y-88417400D01*
X159476783Y-88483562D01*
X159496082Y-88547181D01*
X159527421Y-88605812D01*
X159569597Y-88657203D01*
X159620988Y-88699379D01*
X159679619Y-88730718D01*
X159743238Y-88750017D01*
X159809400Y-88756533D01*
X160115855Y-88756533D01*
X160211212Y-88775500D01*
X160336788Y-88775500D01*
X160432145Y-88756533D01*
X160779400Y-88756533D01*
X160845562Y-88750017D01*
X160909181Y-88730718D01*
X160967812Y-88699379D01*
X161019203Y-88657203D01*
X161061379Y-88605812D01*
X161092718Y-88547181D01*
X161112017Y-88483562D01*
X161118533Y-88417400D01*
X161118533Y-87147400D01*
X162721467Y-87147400D01*
X162721467Y-88417400D01*
X162727983Y-88483562D01*
X162747282Y-88547181D01*
X162778621Y-88605812D01*
X162820797Y-88657203D01*
X162872188Y-88699379D01*
X162930819Y-88730718D01*
X162994438Y-88750017D01*
X163060600Y-88756533D01*
X163417855Y-88756533D01*
X163513212Y-88775500D01*
X163638788Y-88775500D01*
X163734145Y-88756533D01*
X164030600Y-88756533D01*
X164096762Y-88750017D01*
X164160381Y-88730718D01*
X164185600Y-88717238D01*
X164210819Y-88730718D01*
X164274438Y-88750017D01*
X164340600Y-88756533D01*
X164687855Y-88756533D01*
X164783212Y-88775500D01*
X164908788Y-88775500D01*
X165004145Y-88756533D01*
X165310600Y-88756533D01*
X165376762Y-88750017D01*
X165440381Y-88730718D01*
X165499012Y-88699379D01*
X165550403Y-88657203D01*
X165592579Y-88605812D01*
X165623918Y-88547181D01*
X165643217Y-88483562D01*
X165649733Y-88417400D01*
X165649733Y-87147400D01*
X165643217Y-87081238D01*
X165623918Y-87017619D01*
X165592579Y-86958988D01*
X165550403Y-86907597D01*
X165499012Y-86865421D01*
X165440381Y-86834082D01*
X165376762Y-86814783D01*
X165310600Y-86808267D01*
X164340600Y-86808267D01*
X164274438Y-86814783D01*
X164210819Y-86834082D01*
X164185600Y-86847562D01*
X164160381Y-86834082D01*
X164096762Y-86814783D01*
X164030600Y-86808267D01*
X163060600Y-86808267D01*
X162994438Y-86814783D01*
X162930819Y-86834082D01*
X162872188Y-86865421D01*
X162820797Y-86907597D01*
X162778621Y-86958988D01*
X162747282Y-87017619D01*
X162727983Y-87081238D01*
X162721467Y-87147400D01*
X161118533Y-87147400D01*
X161112017Y-87081238D01*
X161092718Y-87017619D01*
X161061379Y-86958988D01*
X161019203Y-86907597D01*
X160967812Y-86865421D01*
X160909181Y-86834082D01*
X160845562Y-86814783D01*
X160779400Y-86808267D01*
X159809400Y-86808267D01*
X159743238Y-86814783D01*
X159679619Y-86834082D01*
X159620988Y-86865421D01*
X159569597Y-86907597D01*
X159527421Y-86958988D01*
X159496082Y-87017619D01*
X159476783Y-87081238D01*
X159470267Y-87147400D01*
X157151130Y-87147400D01*
X157149617Y-87132038D01*
X157130318Y-87068419D01*
X157098979Y-87009788D01*
X157056803Y-86958397D01*
X157005412Y-86916221D01*
X156946781Y-86884882D01*
X156883162Y-86865583D01*
X156817000Y-86859067D01*
X155847000Y-86859067D01*
X155780838Y-86865583D01*
X155717219Y-86884882D01*
X155658588Y-86916221D01*
X155607197Y-86958397D01*
X155565021Y-87009788D01*
X155534027Y-87067773D01*
X155419037Y-87044900D01*
X155273763Y-87044900D01*
X155131279Y-87073242D01*
X154997063Y-87128836D01*
X154876271Y-87209547D01*
X154773547Y-87312271D01*
X154692836Y-87433063D01*
X154637242Y-87567279D01*
X154608900Y-87709763D01*
X154608900Y-87855037D01*
X154637242Y-87997521D01*
X154692836Y-88131737D01*
X154773547Y-88252529D01*
X154876271Y-88355253D01*
X154997063Y-88435964D01*
X155131279Y-88491558D01*
X155273763Y-88519900D01*
X155419037Y-88519900D01*
X155511154Y-88501577D01*
X155514383Y-88534362D01*
X155533682Y-88597981D01*
X155565021Y-88656612D01*
X155607197Y-88708003D01*
X155648988Y-88742300D01*
X155377829Y-88742300D01*
X155363979Y-88716388D01*
X155321803Y-88664997D01*
X155270412Y-88622821D01*
X155211781Y-88591482D01*
X155148162Y-88572183D01*
X155082000Y-88565667D01*
X154682000Y-88565667D01*
X154615838Y-88572183D01*
X154552219Y-88591482D01*
X154493588Y-88622821D01*
X154442197Y-88664997D01*
X154432000Y-88677422D01*
X154421803Y-88664997D01*
X154370412Y-88622821D01*
X154311781Y-88591482D01*
X154248162Y-88572183D01*
X154182000Y-88565667D01*
X153782000Y-88565667D01*
X153715838Y-88572183D01*
X153652219Y-88591482D01*
X153593588Y-88622821D01*
X153542197Y-88664997D01*
X153500021Y-88716388D01*
X153486171Y-88742300D01*
X153483340Y-88742300D01*
X153464059Y-88706228D01*
X153421883Y-88654837D01*
X153414100Y-88648450D01*
X153414100Y-88610712D01*
X153416337Y-88588000D01*
X153407407Y-88497334D01*
X153405655Y-88491558D01*
X153380961Y-88410153D01*
X153338015Y-88329806D01*
X153280219Y-88259381D01*
X153262576Y-88244902D01*
X152904303Y-87886630D01*
X152889819Y-87868981D01*
X152819394Y-87811185D01*
X152739047Y-87768239D01*
X152651866Y-87741793D01*
X152583912Y-87735100D01*
X152561200Y-87732863D01*
X152538488Y-87735100D01*
X151523429Y-87735100D01*
X151509579Y-87709188D01*
X151467403Y-87657797D01*
X151416012Y-87615621D01*
X151357381Y-87584282D01*
X151293762Y-87564983D01*
X151227600Y-87558467D01*
X150727600Y-87558467D01*
X150661438Y-87564983D01*
X150597819Y-87584282D01*
X150594792Y-87585900D01*
X150263178Y-87585900D01*
X150262817Y-87582238D01*
X150243518Y-87518619D01*
X150212179Y-87459988D01*
X150170003Y-87408597D01*
X150118612Y-87366421D01*
X150059981Y-87335082D01*
X149996362Y-87315783D01*
X149930200Y-87309267D01*
X149180200Y-87309267D01*
X149114038Y-87315783D01*
X149050419Y-87335082D01*
X148991788Y-87366421D01*
X148940397Y-87408597D01*
X148898221Y-87459988D01*
X148866882Y-87518619D01*
X148847583Y-87582238D01*
X148841067Y-87648400D01*
X148841067Y-88448400D01*
X148847583Y-88514562D01*
X148866882Y-88578181D01*
X148898221Y-88636812D01*
X148940397Y-88688203D01*
X148991788Y-88730379D01*
X149050419Y-88761718D01*
X149114038Y-88781017D01*
X149180200Y-88787533D01*
X149930200Y-88787533D01*
X149996362Y-88781017D01*
X150059981Y-88761718D01*
X150118612Y-88730379D01*
X150170003Y-88688203D01*
X150212179Y-88636812D01*
X150243518Y-88578181D01*
X150262817Y-88514562D01*
X150263178Y-88510900D01*
X150389777Y-88510900D01*
X150394983Y-88563762D01*
X150414282Y-88627381D01*
X150445621Y-88686012D01*
X150487797Y-88737403D01*
X150539188Y-88779579D01*
X150597819Y-88810918D01*
X150661438Y-88830217D01*
X150727600Y-88836733D01*
X151227600Y-88836733D01*
X151293762Y-88830217D01*
X151357381Y-88810918D01*
X151416012Y-88779579D01*
X151467403Y-88737403D01*
X151509579Y-88686012D01*
X151523429Y-88660100D01*
X151575337Y-88660100D01*
X151517273Y-88746998D01*
X151476756Y-88844817D01*
X151456100Y-88948661D01*
X151456100Y-89054539D01*
X151476756Y-89158383D01*
X151517273Y-89256202D01*
X151542947Y-89294625D01*
X151542947Y-89494640D01*
X151549463Y-89560802D01*
X151568762Y-89624421D01*
X151600101Y-89683052D01*
X151642277Y-89734443D01*
X151693668Y-89776619D01*
X151752299Y-89807958D01*
X151815918Y-89827257D01*
X151882080Y-89833773D01*
X152282080Y-89833773D01*
X152348242Y-89827257D01*
X152411861Y-89807958D01*
X152470492Y-89776619D01*
X152521883Y-89734443D01*
X152532080Y-89722018D01*
X152542277Y-89734443D01*
X152593668Y-89776619D01*
X152652299Y-89807958D01*
X152715918Y-89827257D01*
X152782080Y-89833773D01*
X153182080Y-89833773D01*
X153248242Y-89827257D01*
X153311861Y-89807958D01*
X153370492Y-89776619D01*
X153421883Y-89734443D01*
X153464059Y-89683052D01*
X153472479Y-89667300D01*
X153486171Y-89667300D01*
X153500021Y-89693212D01*
X153542197Y-89744603D01*
X153593588Y-89786779D01*
X153652219Y-89818118D01*
X153715838Y-89837417D01*
X153782000Y-89843933D01*
X154182000Y-89843933D01*
X154248162Y-89837417D01*
X154311781Y-89818118D01*
X154370412Y-89786779D01*
X154421803Y-89744603D01*
X154432000Y-89732178D01*
X154442197Y-89744603D01*
X154493588Y-89786779D01*
X154552219Y-89818118D01*
X154615838Y-89837417D01*
X154682000Y-89843933D01*
X155082000Y-89843933D01*
X155148162Y-89837417D01*
X155211781Y-89818118D01*
X155270412Y-89786779D01*
X155321803Y-89744603D01*
X155363979Y-89693212D01*
X155377829Y-89667300D01*
X156967627Y-89667300D01*
X157096467Y-89796140D01*
X157096467Y-90331200D01*
X157102983Y-90397362D01*
X157122282Y-90460981D01*
X157153621Y-90519612D01*
X157195797Y-90571003D01*
X157247188Y-90613179D01*
X157305819Y-90644518D01*
X157369438Y-90663817D01*
X157435600Y-90670333D01*
X158235600Y-90670333D01*
X158301762Y-90663817D01*
X158365381Y-90644518D01*
X158424012Y-90613179D01*
X158475403Y-90571003D01*
X158517579Y-90519612D01*
X158548918Y-90460981D01*
X158568217Y-90397362D01*
X158574733Y-90331200D01*
X158574733Y-90292100D01*
X160015022Y-90292100D01*
X160015383Y-90295762D01*
X160034682Y-90359381D01*
X160066021Y-90418012D01*
X160108197Y-90469403D01*
X160159588Y-90511579D01*
X160218219Y-90542918D01*
X160281838Y-90562217D01*
X160348000Y-90568733D01*
X161230649Y-90568733D01*
X161211300Y-90666012D01*
X161211300Y-90791588D01*
X161235798Y-90914752D01*
X161283854Y-91030770D01*
X161353621Y-91135183D01*
X161442417Y-91223979D01*
X161546830Y-91293746D01*
X161662848Y-91341802D01*
X161786012Y-91366300D01*
X161911588Y-91366300D01*
X162034752Y-91341802D01*
X162048883Y-91335949D01*
X162066021Y-91368012D01*
X162108197Y-91419403D01*
X162159588Y-91461579D01*
X162218219Y-91492918D01*
X162281838Y-91512217D01*
X162348000Y-91518733D01*
X163248000Y-91518733D01*
X163314162Y-91512217D01*
X163377781Y-91492918D01*
X163436412Y-91461579D01*
X163487803Y-91419403D01*
X163529979Y-91368012D01*
X163561318Y-91309381D01*
X163580617Y-91245762D01*
X163587133Y-91179600D01*
X163587133Y-90379600D01*
X163580617Y-90313438D01*
X163561318Y-90249819D01*
X163529979Y-90191188D01*
X163487803Y-90139797D01*
X163436412Y-90097621D01*
X163377781Y-90066282D01*
X163314162Y-90046983D01*
X163248000Y-90040467D01*
X162770802Y-90040467D01*
X162811170Y-90023746D01*
X162915583Y-89953979D01*
X162948262Y-89921300D01*
X163943227Y-89921300D01*
X164131867Y-90109940D01*
X164131867Y-90886800D01*
X164138383Y-90952962D01*
X164157682Y-91016581D01*
X164189021Y-91075212D01*
X164231197Y-91126603D01*
X164282588Y-91168779D01*
X164341219Y-91200118D01*
X164404838Y-91219417D01*
X164471000Y-91225933D01*
X165221000Y-91225933D01*
X165287162Y-91219417D01*
X165350781Y-91200118D01*
X165409412Y-91168779D01*
X165460803Y-91126603D01*
X165502979Y-91075212D01*
X165534318Y-91016581D01*
X165553617Y-90952962D01*
X165553978Y-90949300D01*
X165675227Y-90949300D01*
X165680067Y-90954140D01*
X165680067Y-91139200D01*
X165686583Y-91205362D01*
X165705882Y-91268981D01*
X165736734Y-91326700D01*
X165436071Y-91326700D01*
X165409412Y-91304821D01*
X165350781Y-91273482D01*
X165287162Y-91254183D01*
X165221000Y-91247667D01*
X164471000Y-91247667D01*
X164404838Y-91254183D01*
X164341219Y-91273482D01*
X164282588Y-91304821D01*
X164231197Y-91346997D01*
X164189021Y-91398388D01*
X164157682Y-91457019D01*
X164138383Y-91520638D01*
X164131867Y-91586800D01*
X164131867Y-92046860D01*
X163671426Y-92507301D01*
X163653782Y-92521781D01*
X163595986Y-92592206D01*
X163555057Y-92668779D01*
X163553040Y-92672553D01*
X163526593Y-92759735D01*
X163517663Y-92850400D01*
X163519901Y-92873122D01*
X163519901Y-93469056D01*
X163477619Y-93481882D01*
X163418988Y-93513221D01*
X163367597Y-93555397D01*
X163325421Y-93606788D01*
X163294082Y-93665419D01*
X163274783Y-93729038D01*
X163268267Y-93795200D01*
X163268267Y-94595200D01*
X163274783Y-94661362D01*
X163294082Y-94724981D01*
X163325421Y-94783612D01*
X163367597Y-94835003D01*
X163418988Y-94877179D01*
X163477619Y-94908518D01*
X163541238Y-94927817D01*
X163607400Y-94934333D01*
X164357400Y-94934333D01*
X164423562Y-94927817D01*
X164487181Y-94908518D01*
X164545812Y-94877179D01*
X164597203Y-94835003D01*
X164639379Y-94783612D01*
X164670718Y-94724981D01*
X164690017Y-94661362D01*
X164690378Y-94657700D01*
X164815667Y-94657700D01*
X164815667Y-94695200D01*
X164822183Y-94761362D01*
X164841482Y-94824981D01*
X164872821Y-94883612D01*
X164914997Y-94935003D01*
X164966388Y-94977179D01*
X165025019Y-95008518D01*
X165088638Y-95027817D01*
X165154800Y-95034333D01*
X165654800Y-95034333D01*
X165720962Y-95027817D01*
X165784581Y-95008518D01*
X165843212Y-94977179D01*
X165871382Y-94954060D01*
X165980848Y-94999402D01*
X166104012Y-95023900D01*
X166229588Y-95023900D01*
X166352752Y-94999402D01*
X166468770Y-94951346D01*
X166517101Y-94919052D01*
X166517101Y-96582426D01*
X166127627Y-96971900D01*
X165560144Y-96971900D01*
X165547318Y-96929619D01*
X165515979Y-96870988D01*
X165473803Y-96819597D01*
X165422412Y-96777421D01*
X165363781Y-96746082D01*
X165300162Y-96726783D01*
X165234000Y-96720267D01*
X164434000Y-96720267D01*
X164367838Y-96726783D01*
X164304219Y-96746082D01*
X164245588Y-96777421D01*
X164194197Y-96819597D01*
X164152021Y-96870988D01*
X164120682Y-96929619D01*
X164101383Y-96993238D01*
X164094867Y-97059400D01*
X164094867Y-97809400D01*
X164101383Y-97875562D01*
X164120682Y-97939181D01*
X164152021Y-97997812D01*
X164194197Y-98049203D01*
X164245588Y-98091379D01*
X164304219Y-98122718D01*
X164367838Y-98142017D01*
X164371501Y-98142378D01*
X164371501Y-98522467D01*
X164232400Y-98522467D01*
X164166238Y-98528983D01*
X164102619Y-98548282D01*
X164043988Y-98579621D01*
X163994900Y-98619907D01*
X163994900Y-98023497D01*
X164015979Y-97997812D01*
X164047318Y-97939181D01*
X164066617Y-97875562D01*
X164073133Y-97809400D01*
X164073133Y-97059400D01*
X164066617Y-96993238D01*
X164047318Y-96929619D01*
X164015979Y-96870988D01*
X163973803Y-96819597D01*
X163922412Y-96777421D01*
X163863781Y-96746082D01*
X163800162Y-96726783D01*
X163734000Y-96720267D01*
X162934000Y-96720267D01*
X162867838Y-96726783D01*
X162804219Y-96746082D01*
X162745588Y-96777421D01*
X162694197Y-96819597D01*
X162652021Y-96870988D01*
X162620682Y-96929619D01*
X162601383Y-96993238D01*
X162594867Y-97059400D01*
X162594867Y-97809400D01*
X162601383Y-97875562D01*
X162620682Y-97939181D01*
X162652021Y-97997812D01*
X162694197Y-98049203D01*
X162745588Y-98091379D01*
X162804219Y-98122718D01*
X162867838Y-98142017D01*
X162934000Y-98148533D01*
X163069901Y-98148533D01*
X163069900Y-98649453D01*
X163050421Y-98673188D01*
X163036571Y-98699100D01*
X162054933Y-98699100D01*
X162054933Y-98597200D01*
X162048417Y-98531038D01*
X162029118Y-98467419D01*
X161997779Y-98408788D01*
X161955603Y-98357397D01*
X161904212Y-98315221D01*
X161845581Y-98283882D01*
X161781962Y-98264583D01*
X161715800Y-98258067D01*
X160965800Y-98258067D01*
X160899638Y-98264583D01*
X160836019Y-98283882D01*
X160777388Y-98315221D01*
X160725997Y-98357397D01*
X160683821Y-98408788D01*
X160652482Y-98467419D01*
X160633183Y-98531038D01*
X160626667Y-98597200D01*
X160626667Y-98636300D01*
X160101133Y-98636300D01*
X160101133Y-98598800D01*
X160094617Y-98532638D01*
X160075318Y-98469019D01*
X160043979Y-98410388D01*
X160001803Y-98358997D01*
X159950412Y-98316821D01*
X159891781Y-98285482D01*
X159828162Y-98266183D01*
X159762000Y-98259667D01*
X159262000Y-98259667D01*
X159195838Y-98266183D01*
X159132219Y-98285482D01*
X159073588Y-98316821D01*
X159022197Y-98358997D01*
X158980021Y-98410388D01*
X158966171Y-98436300D01*
X158432229Y-98436300D01*
X158418379Y-98410388D01*
X158376203Y-98358997D01*
X158324812Y-98316821D01*
X158266181Y-98285482D01*
X158202562Y-98266183D01*
X158136400Y-98259667D01*
X157636400Y-98259667D01*
X157570238Y-98266183D01*
X157506619Y-98285482D01*
X157447988Y-98316821D01*
X157396597Y-98358997D01*
X157354421Y-98410388D01*
X157323082Y-98469019D01*
X157303783Y-98532638D01*
X157297267Y-98598800D01*
X157297267Y-98833859D01*
X156739873Y-99391254D01*
X156724978Y-99363387D01*
X156682802Y-99311996D01*
X156631411Y-99269820D01*
X156572780Y-99238481D01*
X156509161Y-99219182D01*
X156442999Y-99212666D01*
X154242999Y-99212666D01*
X154176837Y-99219182D01*
X154113218Y-99238481D01*
X154054587Y-99269820D01*
X154003196Y-99311996D01*
X153961020Y-99363387D01*
X153929681Y-99422018D01*
X153910382Y-99485637D01*
X153903866Y-99551799D01*
X153903866Y-100751799D01*
X153910382Y-100817961D01*
X153929681Y-100881580D01*
X153961020Y-100940211D01*
X154003196Y-100991602D01*
X154054587Y-101033778D01*
X154113218Y-101065117D01*
X154176837Y-101084416D01*
X154242999Y-101090932D01*
X156442999Y-101090932D01*
X156509161Y-101084416D01*
X156572780Y-101065117D01*
X156631411Y-101033778D01*
X156682802Y-100991602D01*
X156724978Y-100940211D01*
X156756317Y-100881580D01*
X156775616Y-100817961D01*
X156782132Y-100751799D01*
X156782132Y-100589992D01*
X156811248Y-100581160D01*
X156891595Y-100538214D01*
X156962020Y-100480418D01*
X156976504Y-100462769D01*
X157901341Y-99537933D01*
X158136400Y-99537933D01*
X158202562Y-99531417D01*
X158266181Y-99512118D01*
X158324812Y-99480779D01*
X158376203Y-99438603D01*
X158418379Y-99387212D01*
X158432229Y-99361300D01*
X158966171Y-99361300D01*
X158980021Y-99387212D01*
X159022197Y-99438603D01*
X159073588Y-99480779D01*
X159132219Y-99512118D01*
X159195838Y-99531417D01*
X159262000Y-99537933D01*
X159566366Y-99537933D01*
X159621334Y-99554607D01*
X159712000Y-99563537D01*
X159734712Y-99561300D01*
X160670826Y-99561300D01*
X160683821Y-99585612D01*
X160725997Y-99637003D01*
X160777388Y-99679179D01*
X160836019Y-99710518D01*
X160899638Y-99729817D01*
X160965800Y-99736333D01*
X161715800Y-99736333D01*
X161781962Y-99729817D01*
X161845581Y-99710518D01*
X161904212Y-99679179D01*
X161955603Y-99637003D01*
X161966192Y-99624100D01*
X163036571Y-99624100D01*
X163050421Y-99650012D01*
X163092597Y-99701403D01*
X163143988Y-99743579D01*
X163202619Y-99774918D01*
X163266238Y-99794217D01*
X163332400Y-99800733D01*
X163429065Y-99800733D01*
X163339248Y-99818598D01*
X163257478Y-99852468D01*
X163009800Y-99852468D01*
X162943638Y-99858984D01*
X162880019Y-99878283D01*
X162821388Y-99909622D01*
X162769997Y-99951798D01*
X162727821Y-100003189D01*
X162696482Y-100061820D01*
X162677183Y-100125439D01*
X162670667Y-100191601D01*
X162670667Y-101461601D01*
X162677183Y-101527763D01*
X162696482Y-101591382D01*
X162727821Y-101650013D01*
X162769997Y-101701404D01*
X162821388Y-101743580D01*
X162824980Y-101745500D01*
X160913420Y-101745500D01*
X160917012Y-101743580D01*
X160968403Y-101701404D01*
X161010579Y-101650013D01*
X161041918Y-101591382D01*
X161061217Y-101527763D01*
X161067733Y-101461601D01*
X161067733Y-100191601D01*
X161061217Y-100125439D01*
X161041918Y-100061820D01*
X161010579Y-100003189D01*
X160968403Y-99951798D01*
X160917012Y-99909622D01*
X160858381Y-99878283D01*
X160794762Y-99858984D01*
X160728600Y-99852468D01*
X160541722Y-99852468D01*
X160459952Y-99818598D01*
X160336788Y-99794100D01*
X160211212Y-99794100D01*
X160088048Y-99818598D01*
X160006278Y-99852468D01*
X159758600Y-99852468D01*
X159692438Y-99858984D01*
X159628819Y-99878283D01*
X159570188Y-99909622D01*
X159518797Y-99951798D01*
X159476621Y-100003189D01*
X159445282Y-100061820D01*
X159425983Y-100125439D01*
X159419467Y-100191601D01*
X159419467Y-101461601D01*
X159425983Y-101527763D01*
X159445282Y-101591382D01*
X159476621Y-101650013D01*
X159518797Y-101701404D01*
X159570188Y-101743580D01*
X159573780Y-101745500D01*
X146491956Y-101745500D01*
X146489173Y-101110932D01*
X152242999Y-101110932D01*
X152309161Y-101104416D01*
X152372780Y-101085117D01*
X152431411Y-101053778D01*
X152482802Y-101011602D01*
X152524978Y-100960211D01*
X152556317Y-100901580D01*
X152575616Y-100837961D01*
X152582132Y-100771799D01*
X152582132Y-98334299D01*
X156156289Y-98334299D01*
X156179001Y-98336536D01*
X156201713Y-98334299D01*
X156269667Y-98327606D01*
X156356848Y-98301160D01*
X156437195Y-98258214D01*
X156507620Y-98200418D01*
X156522104Y-98182769D01*
X158095770Y-96609103D01*
X158113419Y-96594619D01*
X158171215Y-96524194D01*
X158213341Y-96445382D01*
X158214161Y-96443848D01*
X158240607Y-96356666D01*
X158249537Y-96266000D01*
X158247300Y-96243288D01*
X158247300Y-96145029D01*
X158273212Y-96131179D01*
X158324603Y-96089003D01*
X158366779Y-96037612D01*
X158398118Y-95978981D01*
X158417417Y-95915362D01*
X158423933Y-95849200D01*
X158423933Y-95449200D01*
X158417417Y-95383038D01*
X158398118Y-95319419D01*
X158366779Y-95260788D01*
X158324603Y-95209397D01*
X158312178Y-95199200D01*
X158324603Y-95189003D01*
X158366779Y-95137612D01*
X158398118Y-95078981D01*
X158417417Y-95015362D01*
X158417935Y-95010100D01*
X158661371Y-95010100D01*
X158675221Y-95036012D01*
X158717397Y-95087403D01*
X158768788Y-95129579D01*
X158827419Y-95160918D01*
X158891038Y-95180217D01*
X158957200Y-95186733D01*
X159457200Y-95186733D01*
X159523362Y-95180217D01*
X159586981Y-95160918D01*
X159645612Y-95129579D01*
X159697003Y-95087403D01*
X159739179Y-95036012D01*
X159753029Y-95010100D01*
X160083771Y-95010100D01*
X160097621Y-95036012D01*
X160139797Y-95087403D01*
X160191188Y-95129579D01*
X160249819Y-95160918D01*
X160313438Y-95180217D01*
X160379600Y-95186733D01*
X160879600Y-95186733D01*
X160945762Y-95180217D01*
X161009381Y-95160918D01*
X161068012Y-95129579D01*
X161119403Y-95087403D01*
X161161579Y-95036012D01*
X161192918Y-94977381D01*
X161212217Y-94913762D01*
X161218733Y-94847600D01*
X161218733Y-94657700D01*
X161496422Y-94657700D01*
X161496783Y-94661362D01*
X161516082Y-94724981D01*
X161547421Y-94783612D01*
X161589597Y-94835003D01*
X161640988Y-94877179D01*
X161699619Y-94908518D01*
X161763238Y-94927817D01*
X161829400Y-94934333D01*
X162579400Y-94934333D01*
X162645562Y-94927817D01*
X162709181Y-94908518D01*
X162767812Y-94877179D01*
X162819203Y-94835003D01*
X162861379Y-94783612D01*
X162892718Y-94724981D01*
X162912017Y-94661362D01*
X162918533Y-94595200D01*
X162918533Y-93795200D01*
X162912017Y-93729038D01*
X162892718Y-93665419D01*
X162861379Y-93606788D01*
X162819203Y-93555397D01*
X162770991Y-93515830D01*
X162861970Y-93478146D01*
X162966383Y-93408379D01*
X163055179Y-93319583D01*
X163124946Y-93215170D01*
X163173002Y-93099152D01*
X163197500Y-92975988D01*
X163197500Y-92850412D01*
X163173002Y-92727248D01*
X163124946Y-92611230D01*
X163055179Y-92506817D01*
X162966383Y-92418021D01*
X162861970Y-92348254D01*
X162745952Y-92300198D01*
X162622788Y-92275700D01*
X162497212Y-92275700D01*
X162374048Y-92300198D01*
X162258030Y-92348254D01*
X162153617Y-92418021D01*
X162064821Y-92506817D01*
X161995054Y-92611230D01*
X161946998Y-92727248D01*
X161928582Y-92819834D01*
X161859802Y-92888614D01*
X161840256Y-92904655D01*
X161824215Y-92924201D01*
X161824210Y-92924206D01*
X161776211Y-92982693D01*
X161728622Y-93071726D01*
X161699317Y-93168333D01*
X161689422Y-93268800D01*
X161691901Y-93293970D01*
X161691901Y-93486007D01*
X161640988Y-93513221D01*
X161589597Y-93555397D01*
X161547421Y-93606788D01*
X161516082Y-93665419D01*
X161496783Y-93729038D01*
X161496422Y-93732700D01*
X161004712Y-93732700D01*
X160982000Y-93730463D01*
X160959288Y-93732700D01*
X160891334Y-93739393D01*
X160804153Y-93765839D01*
X160723806Y-93808785D01*
X160653381Y-93866581D01*
X160638897Y-93884230D01*
X160614660Y-93908467D01*
X160379600Y-93908467D01*
X160313438Y-93914983D01*
X160249819Y-93934282D01*
X160191188Y-93965621D01*
X160139797Y-94007797D01*
X160097621Y-94059188D01*
X160083771Y-94085100D01*
X159753029Y-94085100D01*
X159739179Y-94059188D01*
X159697003Y-94007797D01*
X159645612Y-93965621D01*
X159586981Y-93934282D01*
X159523362Y-93914983D01*
X159457200Y-93908467D01*
X158957200Y-93908467D01*
X158891038Y-93914983D01*
X158827419Y-93934282D01*
X158768788Y-93965621D01*
X158717397Y-94007797D01*
X158675221Y-94059188D01*
X158661371Y-94085100D01*
X158009111Y-94085100D01*
X157986399Y-94082863D01*
X157895733Y-94091793D01*
X157869287Y-94099816D01*
X157808553Y-94118239D01*
X157728206Y-94161185D01*
X157668643Y-94210067D01*
X157484800Y-94210067D01*
X157418638Y-94216583D01*
X157355019Y-94235882D01*
X157296388Y-94267221D01*
X157272653Y-94286700D01*
X156208310Y-94286700D01*
X156185598Y-94284463D01*
X156162886Y-94286700D01*
X156094932Y-94293393D01*
X156007751Y-94319839D01*
X155927404Y-94362785D01*
X155856979Y-94420581D01*
X155842501Y-94438223D01*
X155628058Y-94652666D01*
X154242999Y-94652666D01*
X154176837Y-94659182D01*
X154113218Y-94678481D01*
X154054587Y-94709820D01*
X154003196Y-94751996D01*
X153961020Y-94803387D01*
X153929681Y-94862018D01*
X153910382Y-94925637D01*
X153903866Y-94991799D01*
X153903866Y-96191799D01*
X153910382Y-96257961D01*
X153929681Y-96321580D01*
X153961020Y-96380211D01*
X154003196Y-96431602D01*
X154054587Y-96473778D01*
X154113218Y-96505117D01*
X154176837Y-96524416D01*
X154242999Y-96530932D01*
X156442999Y-96530932D01*
X156509161Y-96524416D01*
X156572780Y-96505117D01*
X156631411Y-96473778D01*
X156682802Y-96431602D01*
X156724978Y-96380211D01*
X156756317Y-96321580D01*
X156775616Y-96257961D01*
X156782132Y-96191799D01*
X156782132Y-95211700D01*
X157243107Y-95211700D01*
X157202821Y-95260788D01*
X157171482Y-95319419D01*
X157152183Y-95383038D01*
X157145667Y-95449200D01*
X157145667Y-95849200D01*
X157152183Y-95915362D01*
X157171482Y-95978981D01*
X157202821Y-96037612D01*
X157244997Y-96089003D01*
X157279449Y-96117278D01*
X155987428Y-97409299D01*
X152582132Y-97409299D01*
X152582132Y-94971799D01*
X152580034Y-94950500D01*
X152682088Y-94950500D01*
X152704800Y-94952737D01*
X152727512Y-94950500D01*
X152795466Y-94943807D01*
X152882647Y-94917361D01*
X152962994Y-94874415D01*
X153033419Y-94816619D01*
X153047903Y-94798970D01*
X153262570Y-94584303D01*
X153280219Y-94569819D01*
X153338015Y-94499394D01*
X153380961Y-94419047D01*
X153407407Y-94331866D01*
X153414100Y-94263912D01*
X153416337Y-94241200D01*
X153414100Y-94218488D01*
X153414100Y-94034947D01*
X153433579Y-94011212D01*
X153447429Y-93985300D01*
X153666397Y-93985300D01*
X153671882Y-94003381D01*
X153703221Y-94062012D01*
X153745397Y-94113403D01*
X153796788Y-94155579D01*
X153855419Y-94186918D01*
X153919038Y-94206217D01*
X153985200Y-94212733D01*
X154385200Y-94212733D01*
X154451362Y-94206217D01*
X154514981Y-94186918D01*
X154573612Y-94155579D01*
X154625003Y-94113403D01*
X154635200Y-94100978D01*
X154645397Y-94113403D01*
X154696788Y-94155579D01*
X154755419Y-94186918D01*
X154819038Y-94206217D01*
X154885200Y-94212733D01*
X155285200Y-94212733D01*
X155351362Y-94206217D01*
X155414981Y-94186918D01*
X155473612Y-94155579D01*
X155525003Y-94113403D01*
X155567179Y-94062012D01*
X155581029Y-94036100D01*
X156288888Y-94036100D01*
X156311600Y-94038337D01*
X156334312Y-94036100D01*
X156402266Y-94029407D01*
X156489447Y-94002961D01*
X156569794Y-93960015D01*
X156640219Y-93902219D01*
X156654703Y-93884570D01*
X157196570Y-93342703D01*
X157214219Y-93328219D01*
X157272015Y-93257794D01*
X157314961Y-93177447D01*
X157341407Y-93090266D01*
X157348100Y-93022312D01*
X157350337Y-92999600D01*
X157348100Y-92976888D01*
X157348100Y-92664178D01*
X157351762Y-92663817D01*
X157415381Y-92644518D01*
X157474012Y-92613179D01*
X157525403Y-92571003D01*
X157567579Y-92519612D01*
X157598918Y-92460981D01*
X157618217Y-92397362D01*
X157624733Y-92331200D01*
X157624733Y-91431200D01*
X157618217Y-91365038D01*
X157598918Y-91301419D01*
X157567579Y-91242788D01*
X157525403Y-91191397D01*
X157474012Y-91149221D01*
X157415381Y-91117882D01*
X157351762Y-91098583D01*
X157285600Y-91092067D01*
X156485600Y-91092067D01*
X156419438Y-91098583D01*
X156355819Y-91117882D01*
X156297188Y-91149221D01*
X156245797Y-91191397D01*
X156203621Y-91242788D01*
X156172282Y-91301419D01*
X156152983Y-91365038D01*
X156146467Y-91431200D01*
X156146467Y-92331200D01*
X156152983Y-92397362D01*
X156172282Y-92460981D01*
X156203621Y-92519612D01*
X156245797Y-92571003D01*
X156297188Y-92613179D01*
X156355819Y-92644518D01*
X156419438Y-92663817D01*
X156423101Y-92664178D01*
X156423101Y-92808026D01*
X156120027Y-93111100D01*
X155581029Y-93111100D01*
X155567179Y-93085188D01*
X155525003Y-93033797D01*
X155473612Y-92991621D01*
X155414981Y-92960282D01*
X155351362Y-92940983D01*
X155285200Y-92934467D01*
X154885200Y-92934467D01*
X154819038Y-92940983D01*
X154755419Y-92960282D01*
X154696788Y-92991621D01*
X154645397Y-93033797D01*
X154635200Y-93046222D01*
X154625003Y-93033797D01*
X154573612Y-92991621D01*
X154514981Y-92960282D01*
X154451362Y-92940983D01*
X154385200Y-92934467D01*
X153985200Y-92934467D01*
X153919038Y-92940983D01*
X153855419Y-92960282D01*
X153796788Y-92991621D01*
X153745397Y-93033797D01*
X153723646Y-93060300D01*
X153447429Y-93060300D01*
X153433579Y-93034388D01*
X153391403Y-92982997D01*
X153340012Y-92940821D01*
X153281381Y-92909482D01*
X153217762Y-92890183D01*
X153151600Y-92883667D01*
X152751600Y-92883667D01*
X152685438Y-92890183D01*
X152621819Y-92909482D01*
X152563188Y-92940821D01*
X152514100Y-92981107D01*
X152514100Y-92827533D01*
X152775000Y-92827533D01*
X152841162Y-92821017D01*
X152904781Y-92801718D01*
X152963412Y-92770379D01*
X153014803Y-92728203D01*
X153056979Y-92676812D01*
X153088318Y-92618181D01*
X153107617Y-92554562D01*
X153107978Y-92550900D01*
X153279329Y-92550900D01*
X153300021Y-92589612D01*
X153342197Y-92641003D01*
X153393588Y-92683179D01*
X153452219Y-92714518D01*
X153515838Y-92733817D01*
X153582000Y-92740333D01*
X154182000Y-92740333D01*
X154248162Y-92733817D01*
X154311781Y-92714518D01*
X154370412Y-92683179D01*
X154421803Y-92641003D01*
X154463979Y-92589612D01*
X154495318Y-92530981D01*
X154514617Y-92467362D01*
X154521133Y-92401200D01*
X154521133Y-91901200D01*
X154514617Y-91835038D01*
X154495318Y-91771419D01*
X154463979Y-91712788D01*
X154421803Y-91661397D01*
X154370412Y-91619221D01*
X154311781Y-91587882D01*
X154248162Y-91568583D01*
X154182000Y-91562067D01*
X153582000Y-91562067D01*
X153515838Y-91568583D01*
X153452219Y-91587882D01*
X153393588Y-91619221D01*
X153385450Y-91625900D01*
X153107978Y-91625900D01*
X153107617Y-91622238D01*
X153088318Y-91558619D01*
X153056979Y-91499988D01*
X153014803Y-91448597D01*
X152963412Y-91406421D01*
X152904781Y-91375082D01*
X152841162Y-91355783D01*
X152775000Y-91349267D01*
X152025000Y-91349267D01*
X151958838Y-91355783D01*
X151895219Y-91375082D01*
X151836588Y-91406421D01*
X151785197Y-91448597D01*
X151743021Y-91499988D01*
X151711682Y-91558619D01*
X151692383Y-91622238D01*
X151685867Y-91688400D01*
X151685867Y-92153406D01*
X151665186Y-92178606D01*
X151632382Y-92239979D01*
X151622240Y-92258953D01*
X151595793Y-92346135D01*
X151586863Y-92436800D01*
X151589101Y-92459522D01*
X151589100Y-93010652D01*
X151569621Y-93034388D01*
X151538282Y-93093019D01*
X151518983Y-93156638D01*
X151512467Y-93222800D01*
X151512467Y-93822800D01*
X151518983Y-93888962D01*
X151538282Y-93952581D01*
X151547825Y-93970435D01*
X151525296Y-93992964D01*
X151503556Y-94025500D01*
X151032773Y-94025500D01*
X150294333Y-93287060D01*
X150294333Y-92752000D01*
X150287817Y-92685838D01*
X150268518Y-92622219D01*
X150237179Y-92563588D01*
X150195003Y-92512197D01*
X150143612Y-92470021D01*
X150084981Y-92438682D01*
X150021362Y-92419383D01*
X149955200Y-92412867D01*
X149155200Y-92412867D01*
X149089038Y-92419383D01*
X149025419Y-92438682D01*
X148966788Y-92470021D01*
X148915397Y-92512197D01*
X148873221Y-92563588D01*
X148841882Y-92622219D01*
X148822583Y-92685838D01*
X148816067Y-92752000D01*
X148816067Y-93652000D01*
X148822583Y-93718162D01*
X148841882Y-93781781D01*
X148873221Y-93840412D01*
X148915397Y-93891803D01*
X148966788Y-93933979D01*
X149025419Y-93965318D01*
X149089038Y-93984617D01*
X149155200Y-93991133D01*
X149690260Y-93991133D01*
X150331793Y-94632666D01*
X146460760Y-94632666D01*
X146456913Y-93755533D01*
X146801600Y-93755533D01*
X146867762Y-93749017D01*
X146931381Y-93729718D01*
X146990012Y-93698379D01*
X147025503Y-93669252D01*
X147119630Y-93732146D01*
X147235648Y-93780202D01*
X147358812Y-93804700D01*
X147484388Y-93804700D01*
X147607552Y-93780202D01*
X147723570Y-93732146D01*
X147827983Y-93662379D01*
X147916779Y-93573583D01*
X147986546Y-93469170D01*
X148034602Y-93353152D01*
X148059100Y-93229988D01*
X148059100Y-93104412D01*
X148034602Y-92981248D01*
X147986546Y-92865230D01*
X147916779Y-92760817D01*
X147827983Y-92672021D01*
X147723570Y-92602254D01*
X147607552Y-92554198D01*
X147484388Y-92529700D01*
X147358812Y-92529700D01*
X147235648Y-92554198D01*
X147119630Y-92602254D01*
X147082707Y-92626925D01*
X147041403Y-92576597D01*
X146990012Y-92534421D01*
X146931381Y-92503082D01*
X146867762Y-92483783D01*
X146801600Y-92477267D01*
X146451306Y-92477267D01*
X146451053Y-92419493D01*
X146816840Y-92419493D01*
X146883002Y-92412977D01*
X146946621Y-92393678D01*
X147005252Y-92362339D01*
X147056643Y-92320163D01*
X147098819Y-92268772D01*
X147104523Y-92258100D01*
X147118364Y-92258100D01*
X147119630Y-92258946D01*
X147235648Y-92307002D01*
X147358812Y-92331500D01*
X147484388Y-92331500D01*
X147607552Y-92307002D01*
X147723570Y-92258946D01*
X147827983Y-92189179D01*
X147916779Y-92100383D01*
X147986546Y-91995970D01*
X148034602Y-91879952D01*
X148059100Y-91756788D01*
X148059100Y-91631212D01*
X148034602Y-91508048D01*
X147986546Y-91392030D01*
X147916779Y-91287617D01*
X147827983Y-91198821D01*
X147723570Y-91129054D01*
X147607552Y-91080998D01*
X147484388Y-91056500D01*
X147358812Y-91056500D01*
X147235648Y-91080998D01*
X147119630Y-91129054D01*
X147015217Y-91198821D01*
X147010967Y-91203071D01*
X147005252Y-91198381D01*
X146946621Y-91167042D01*
X146883002Y-91147743D01*
X146816840Y-91141227D01*
X146445446Y-91141227D01*
X146442299Y-90423616D01*
X146440543Y-90406553D01*
X146435492Y-90390161D01*
X146427340Y-90375069D01*
X146416400Y-90361857D01*
X146403093Y-90351034D01*
X146387930Y-90343014D01*
X146371494Y-90338107D01*
X146354279Y-90336502D01*
X140080933Y-90373843D01*
X140080933Y-90032200D01*
X140074417Y-89966038D01*
X140055118Y-89902419D01*
X140023779Y-89843788D01*
X139981603Y-89792397D01*
X139930212Y-89750221D01*
X139896091Y-89731983D01*
X140479674Y-89148400D01*
X145640667Y-89148400D01*
X145640667Y-89948400D01*
X145647183Y-90014562D01*
X145666482Y-90078181D01*
X145697821Y-90136812D01*
X145739997Y-90188203D01*
X145791388Y-90230379D01*
X145850019Y-90261718D01*
X145913638Y-90281017D01*
X145979800Y-90287533D01*
X146729800Y-90287533D01*
X146778648Y-90282722D01*
X146926101Y-90430175D01*
X146940581Y-90447819D01*
X147011006Y-90505615D01*
X147084340Y-90544812D01*
X147097673Y-90577002D01*
X147156496Y-90665036D01*
X147231364Y-90739904D01*
X147319398Y-90798727D01*
X147417217Y-90839244D01*
X147521061Y-90859900D01*
X147626939Y-90859900D01*
X147730783Y-90839244D01*
X147828602Y-90798727D01*
X147898533Y-90752000D01*
X149766067Y-90752000D01*
X149766067Y-91652000D01*
X149772583Y-91718162D01*
X149791882Y-91781781D01*
X149823221Y-91840412D01*
X149865397Y-91891803D01*
X149916788Y-91933979D01*
X149975419Y-91965318D01*
X150039038Y-91984617D01*
X150105200Y-91991133D01*
X150905200Y-91991133D01*
X150971362Y-91984617D01*
X151034981Y-91965318D01*
X151093612Y-91933979D01*
X151145003Y-91891803D01*
X151187179Y-91840412D01*
X151218518Y-91781781D01*
X151237817Y-91718162D01*
X151244333Y-91652000D01*
X151244333Y-91568276D01*
X151290219Y-91530619D01*
X151304703Y-91512970D01*
X151708845Y-91108829D01*
X151711682Y-91118181D01*
X151743021Y-91176812D01*
X151785197Y-91228203D01*
X151836588Y-91270379D01*
X151895219Y-91301718D01*
X151958838Y-91321017D01*
X152025000Y-91327533D01*
X152775000Y-91327533D01*
X152841162Y-91321017D01*
X152904781Y-91301718D01*
X152963412Y-91270379D01*
X153014803Y-91228203D01*
X153056979Y-91176812D01*
X153088318Y-91118181D01*
X153107617Y-91054562D01*
X153107978Y-91050900D01*
X153329638Y-91050900D01*
X153342197Y-91066203D01*
X153393588Y-91108379D01*
X153452219Y-91139718D01*
X153515838Y-91159017D01*
X153582000Y-91165533D01*
X154182000Y-91165533D01*
X154248162Y-91159017D01*
X154311781Y-91139718D01*
X154370412Y-91108379D01*
X154421803Y-91066203D01*
X154463979Y-91014812D01*
X154495318Y-90956181D01*
X154514617Y-90892562D01*
X154521133Y-90826400D01*
X154521133Y-90326400D01*
X154514617Y-90260238D01*
X154495318Y-90196619D01*
X154463979Y-90137988D01*
X154421803Y-90086597D01*
X154370412Y-90044421D01*
X154311781Y-90013082D01*
X154248162Y-89993783D01*
X154182000Y-89987267D01*
X153582000Y-89987267D01*
X153515838Y-89993783D01*
X153452219Y-90013082D01*
X153393588Y-90044421D01*
X153342197Y-90086597D01*
X153309941Y-90125900D01*
X153107978Y-90125900D01*
X153107617Y-90122238D01*
X153088318Y-90058619D01*
X153056979Y-89999988D01*
X153014803Y-89948597D01*
X152963412Y-89906421D01*
X152904781Y-89875082D01*
X152841162Y-89855783D01*
X152775000Y-89849267D01*
X152025000Y-89849267D01*
X151958838Y-89855783D01*
X151895219Y-89875082D01*
X151836588Y-89906421D01*
X151785197Y-89948597D01*
X151743021Y-89999988D01*
X151711682Y-90058619D01*
X151692383Y-90122238D01*
X151692022Y-90125900D01*
X151597911Y-90125900D01*
X151575199Y-90123663D01*
X151484533Y-90132593D01*
X151458214Y-90140577D01*
X151397353Y-90159039D01*
X151317006Y-90201985D01*
X151246581Y-90259781D01*
X151232103Y-90277423D01*
X151058352Y-90451174D01*
X151034981Y-90438682D01*
X150971362Y-90419383D01*
X150905200Y-90412867D01*
X150105200Y-90412867D01*
X150039038Y-90419383D01*
X149975419Y-90438682D01*
X149916788Y-90470021D01*
X149865397Y-90512197D01*
X149823221Y-90563588D01*
X149791882Y-90622219D01*
X149772583Y-90685838D01*
X149766067Y-90752000D01*
X147898533Y-90752000D01*
X147916636Y-90739904D01*
X147991504Y-90665036D01*
X148047188Y-90581700D01*
X148961688Y-90581700D01*
X148984400Y-90583937D01*
X149007112Y-90581700D01*
X149075066Y-90575007D01*
X149162247Y-90548561D01*
X149242594Y-90505615D01*
X149313019Y-90447819D01*
X149327503Y-90430170D01*
X149470140Y-90287533D01*
X149930200Y-90287533D01*
X149996362Y-90281017D01*
X150059981Y-90261718D01*
X150118612Y-90230379D01*
X150170003Y-90188203D01*
X150212179Y-90136812D01*
X150243518Y-90078181D01*
X150262817Y-90014562D01*
X150269333Y-89948400D01*
X150269333Y-89148400D01*
X150262817Y-89082238D01*
X150243518Y-89018619D01*
X150212179Y-88959988D01*
X150170003Y-88908597D01*
X150118612Y-88866421D01*
X150059981Y-88835082D01*
X149996362Y-88815783D01*
X149930200Y-88809267D01*
X149180200Y-88809267D01*
X149114038Y-88815783D01*
X149050419Y-88835082D01*
X148991788Y-88866421D01*
X148940397Y-88908597D01*
X148898221Y-88959988D01*
X148866882Y-89018619D01*
X148847583Y-89082238D01*
X148841067Y-89148400D01*
X148841067Y-89608460D01*
X148792827Y-89656700D01*
X147596712Y-89656700D01*
X147574000Y-89654463D01*
X147551288Y-89656700D01*
X147460774Y-89656700D01*
X147068933Y-89264860D01*
X147068933Y-89148400D01*
X147062417Y-89082238D01*
X147043118Y-89018619D01*
X147011779Y-88959988D01*
X146969603Y-88908597D01*
X146918212Y-88866421D01*
X146859581Y-88835082D01*
X146795962Y-88815783D01*
X146729800Y-88809267D01*
X145979800Y-88809267D01*
X145913638Y-88815783D01*
X145850019Y-88835082D01*
X145791388Y-88866421D01*
X145739997Y-88908597D01*
X145697821Y-88959988D01*
X145666482Y-89018619D01*
X145647183Y-89082238D01*
X145640667Y-89148400D01*
X140479674Y-89148400D01*
X141078374Y-88549700D01*
X141452667Y-88549700D01*
X141452667Y-88682200D01*
X141459183Y-88748362D01*
X141478482Y-88811981D01*
X141509821Y-88870612D01*
X141551997Y-88922003D01*
X141603388Y-88964179D01*
X141662019Y-88995518D01*
X141725638Y-89014817D01*
X141791800Y-89021333D01*
X144581800Y-89021333D01*
X144647962Y-89014817D01*
X144711581Y-88995518D01*
X144770212Y-88964179D01*
X144821603Y-88922003D01*
X144863779Y-88870612D01*
X144895118Y-88811981D01*
X144914417Y-88748362D01*
X144920933Y-88682200D01*
X144920933Y-88549700D01*
X145657842Y-88549700D01*
X145666482Y-88578181D01*
X145697821Y-88636812D01*
X145739997Y-88688203D01*
X145791388Y-88730379D01*
X145850019Y-88761718D01*
X145913638Y-88781017D01*
X145979800Y-88787533D01*
X146729800Y-88787533D01*
X146795962Y-88781017D01*
X146859581Y-88761718D01*
X146918212Y-88730379D01*
X146969603Y-88688203D01*
X147011779Y-88636812D01*
X147043118Y-88578181D01*
X147062417Y-88514562D01*
X147062778Y-88510900D01*
X147310968Y-88510900D01*
X147315482Y-88525781D01*
X147346821Y-88584412D01*
X147388997Y-88635803D01*
X147440388Y-88677979D01*
X147499019Y-88709318D01*
X147562638Y-88728617D01*
X147628800Y-88735133D01*
X148128800Y-88735133D01*
X148194962Y-88728617D01*
X148258581Y-88709318D01*
X148317212Y-88677979D01*
X148368603Y-88635803D01*
X148410779Y-88584412D01*
X148442118Y-88525781D01*
X148461417Y-88462162D01*
X148467933Y-88396000D01*
X148467933Y-87796000D01*
X148461417Y-87729838D01*
X148442118Y-87666219D01*
X148410779Y-87607588D01*
X148368603Y-87556197D01*
X148317212Y-87514021D01*
X148258581Y-87482682D01*
X148194962Y-87463383D01*
X148128800Y-87456867D01*
X147628800Y-87456867D01*
X147562638Y-87463383D01*
X147499019Y-87482682D01*
X147440388Y-87514021D01*
X147388997Y-87556197D01*
X147364620Y-87585900D01*
X147062778Y-87585900D01*
X147062417Y-87582238D01*
X147043118Y-87518619D01*
X147011779Y-87459988D01*
X146969603Y-87408597D01*
X146918212Y-87366421D01*
X146859581Y-87335082D01*
X146795962Y-87315783D01*
X146729800Y-87309267D01*
X145979800Y-87309267D01*
X145913638Y-87315783D01*
X145850019Y-87335082D01*
X145791388Y-87366421D01*
X145739997Y-87408597D01*
X145697821Y-87459988D01*
X145666482Y-87518619D01*
X145647183Y-87582238D01*
X145643001Y-87624700D01*
X144920933Y-87624700D01*
X144920933Y-87492200D01*
X144914417Y-87426038D01*
X144895118Y-87362419D01*
X144863779Y-87303788D01*
X144821603Y-87252397D01*
X144770212Y-87210221D01*
X144711581Y-87178882D01*
X144647962Y-87159583D01*
X144581800Y-87153067D01*
X141791800Y-87153067D01*
X141725638Y-87159583D01*
X141662019Y-87178882D01*
X141603388Y-87210221D01*
X141551997Y-87252397D01*
X141509821Y-87303788D01*
X141478482Y-87362419D01*
X141459183Y-87426038D01*
X141452667Y-87492200D01*
X141452667Y-87624700D01*
X140909511Y-87624700D01*
X140886799Y-87622463D01*
X140796133Y-87631393D01*
X140769687Y-87639416D01*
X140708953Y-87657839D01*
X140628606Y-87700785D01*
X140558181Y-87758581D01*
X140543703Y-87776223D01*
X138626860Y-89693067D01*
X136951800Y-89693067D01*
X136885638Y-89699583D01*
X136822019Y-89718882D01*
X136763388Y-89750221D01*
X136711997Y-89792397D01*
X136669821Y-89843788D01*
X136638482Y-89902419D01*
X136619183Y-89966038D01*
X136612667Y-90032200D01*
X136612667Y-91222200D01*
X136619183Y-91288362D01*
X136638482Y-91351981D01*
X136669821Y-91410612D01*
X136711997Y-91462003D01*
X136763388Y-91504179D01*
X136822019Y-91535518D01*
X136885638Y-91554817D01*
X136951800Y-91561333D01*
X139741800Y-91561333D01*
X139807962Y-91554817D01*
X139866500Y-91537059D01*
X139866500Y-94945200D01*
X139868181Y-94962270D01*
X139873161Y-94978685D01*
X139881246Y-94993812D01*
X139892128Y-95007072D01*
X139905388Y-95017954D01*
X139920515Y-95026039D01*
X139936930Y-95031019D01*
X139953306Y-95032697D01*
X145503866Y-95076749D01*
X145503866Y-100019900D01*
X144920933Y-100019900D01*
X144920933Y-99887400D01*
X144914417Y-99821238D01*
X144895118Y-99757619D01*
X144863779Y-99698988D01*
X144821603Y-99647597D01*
X144770212Y-99605421D01*
X144711581Y-99574082D01*
X144647962Y-99554783D01*
X144581800Y-99548267D01*
X141791800Y-99548267D01*
X141725638Y-99554783D01*
X141662019Y-99574082D01*
X141603388Y-99605421D01*
X141551997Y-99647597D01*
X141509821Y-99698988D01*
X141478482Y-99757619D01*
X141459183Y-99821238D01*
X141452667Y-99887400D01*
X141452667Y-101077400D01*
X141459183Y-101143562D01*
X141478482Y-101207181D01*
X141509821Y-101265812D01*
X141551997Y-101317203D01*
X141603388Y-101359379D01*
X141662019Y-101390718D01*
X141725638Y-101410017D01*
X141791800Y-101416533D01*
X144581800Y-101416533D01*
X144647962Y-101410017D01*
X144711581Y-101390718D01*
X144770212Y-101359379D01*
X144821603Y-101317203D01*
X144863779Y-101265812D01*
X144895118Y-101207181D01*
X144914417Y-101143562D01*
X144920933Y-101077400D01*
X144920933Y-100944900D01*
X145552836Y-100944900D01*
X145561020Y-100960211D01*
X145603196Y-101011602D01*
X145654587Y-101053778D01*
X145713218Y-101085117D01*
X145776837Y-101104416D01*
X145842999Y-101110932D01*
X146267300Y-101110932D01*
X146267300Y-101745500D01*
X132036100Y-101745500D01*
X132036100Y-87249000D01*
X132068667Y-87249000D01*
X132068667Y-88519000D01*
X132075183Y-88585162D01*
X132094482Y-88648781D01*
X132125821Y-88707412D01*
X132167997Y-88758803D01*
X132219388Y-88800979D01*
X132278019Y-88832318D01*
X132341638Y-88851617D01*
X132407800Y-88858133D01*
X132430300Y-88858133D01*
X132430300Y-91305738D01*
X132397621Y-91338417D01*
X132327854Y-91442830D01*
X132279798Y-91558848D01*
X132255300Y-91682012D01*
X132255300Y-91807588D01*
X132279798Y-91930752D01*
X132327854Y-92046770D01*
X132397621Y-92151183D01*
X132430300Y-92183862D01*
X132430301Y-99762267D01*
X132407800Y-99762267D01*
X132341638Y-99768783D01*
X132278019Y-99788082D01*
X132219388Y-99819421D01*
X132167997Y-99861597D01*
X132125821Y-99912988D01*
X132094482Y-99971619D01*
X132075183Y-100035238D01*
X132068667Y-100101400D01*
X132068667Y-101371400D01*
X132075183Y-101437562D01*
X132094482Y-101501181D01*
X132125821Y-101559812D01*
X132167997Y-101611203D01*
X132219388Y-101653379D01*
X132278019Y-101684718D01*
X132341638Y-101704017D01*
X132407800Y-101710533D01*
X133377800Y-101710533D01*
X133443962Y-101704017D01*
X133507581Y-101684718D01*
X133527800Y-101673911D01*
X133548019Y-101684718D01*
X133611638Y-101704017D01*
X133677800Y-101710533D01*
X134647800Y-101710533D01*
X134713962Y-101704017D01*
X134777581Y-101684718D01*
X134797800Y-101673911D01*
X134818019Y-101684718D01*
X134881638Y-101704017D01*
X134947800Y-101710533D01*
X135917800Y-101710533D01*
X135983962Y-101704017D01*
X136047581Y-101684718D01*
X136106212Y-101653379D01*
X136157603Y-101611203D01*
X136199779Y-101559812D01*
X136231118Y-101501181D01*
X136250417Y-101437562D01*
X136256933Y-101371400D01*
X136256933Y-100101400D01*
X136250417Y-100035238D01*
X136231118Y-99971619D01*
X136199779Y-99912988D01*
X136157603Y-99861597D01*
X136106212Y-99819421D01*
X136047581Y-99788082D01*
X135983962Y-99768783D01*
X135917800Y-99762267D01*
X135895300Y-99762267D01*
X135895300Y-93606262D01*
X135927979Y-93573583D01*
X135997746Y-93469170D01*
X136045802Y-93353152D01*
X136070300Y-93229988D01*
X136070300Y-93104412D01*
X136045802Y-92981248D01*
X135997746Y-92865230D01*
X135927979Y-92760817D01*
X135895300Y-92728138D01*
X135895300Y-88858133D01*
X135917800Y-88858133D01*
X135983962Y-88851617D01*
X136047581Y-88832318D01*
X136106212Y-88800979D01*
X136157603Y-88758803D01*
X136199779Y-88707412D01*
X136231118Y-88648781D01*
X136250417Y-88585162D01*
X136256933Y-88519000D01*
X136256933Y-87249000D01*
X136250417Y-87182838D01*
X136231118Y-87119219D01*
X136199779Y-87060588D01*
X136157603Y-87009197D01*
X136106212Y-86967021D01*
X136047581Y-86935682D01*
X135983962Y-86916383D01*
X135917800Y-86909867D01*
X134947800Y-86909867D01*
X134881638Y-86916383D01*
X134818019Y-86935682D01*
X134797800Y-86946489D01*
X134777581Y-86935682D01*
X134713962Y-86916383D01*
X134647800Y-86909867D01*
X133677800Y-86909867D01*
X133611638Y-86916383D01*
X133548019Y-86935682D01*
X133527800Y-86946489D01*
X133507581Y-86935682D01*
X133443962Y-86916383D01*
X133377800Y-86909867D01*
X132407800Y-86909867D01*
X132341638Y-86916383D01*
X132278019Y-86935682D01*
X132219388Y-86967021D01*
X132167997Y-87009197D01*
X132125821Y-87060588D01*
X132094482Y-87119219D01*
X132075183Y-87182838D01*
X132068667Y-87249000D01*
X132036100Y-87249000D01*
X132036100Y-86777442D01*
X167125100Y-86752450D01*
X167125100Y-90728227D01*
G37*
G04 #@! TD.AperFunction*
D28*
X167125101Y-101745500D02*
X165444620Y-101745500D01*
X165448212Y-101743580D01*
X165499603Y-101701404D01*
X165541779Y-101650013D01*
X165573118Y-101591382D01*
X165592417Y-101527763D01*
X165598933Y-101461601D01*
X165598933Y-100191601D01*
X165592417Y-100125439D01*
X165573118Y-100061820D01*
X165541779Y-100003189D01*
X165499603Y-99951798D01*
X165448212Y-99909622D01*
X165389581Y-99878283D01*
X165325962Y-99858984D01*
X165259800Y-99852468D01*
X164946836Y-99852468D01*
X164908788Y-99844900D01*
X164783212Y-99844900D01*
X164745164Y-99852468D01*
X164289800Y-99852468D01*
X164223638Y-99858984D01*
X164160019Y-99878283D01*
X164134800Y-99891763D01*
X164109581Y-99878283D01*
X164045962Y-99858984D01*
X163979800Y-99852468D01*
X163792922Y-99852468D01*
X163711152Y-99818598D01*
X163621335Y-99800733D01*
X163732400Y-99800733D01*
X163798562Y-99794217D01*
X163862181Y-99774918D01*
X163920812Y-99743579D01*
X163972203Y-99701403D01*
X163982400Y-99688978D01*
X163992597Y-99701403D01*
X164043988Y-99743579D01*
X164102619Y-99774918D01*
X164166238Y-99794217D01*
X164232400Y-99800733D01*
X164632400Y-99800733D01*
X164698562Y-99794217D01*
X164762181Y-99774918D01*
X164820812Y-99743579D01*
X164872203Y-99701403D01*
X164914379Y-99650012D01*
X164945718Y-99591381D01*
X164965017Y-99527762D01*
X164971533Y-99461600D01*
X164971533Y-99276541D01*
X165144975Y-99103099D01*
X165162619Y-99088619D01*
X165220415Y-99018194D01*
X165263361Y-98937847D01*
X165289807Y-98850666D01*
X165296500Y-98782712D01*
X165298737Y-98760001D01*
X165296500Y-98737289D01*
X165296500Y-98142378D01*
X165300162Y-98142017D01*
X165363781Y-98122718D01*
X165422412Y-98091379D01*
X165473803Y-98049203D01*
X165515979Y-97997812D01*
X165547318Y-97939181D01*
X165560144Y-97896900D01*
X166296488Y-97896900D01*
X166319200Y-97899137D01*
X166341912Y-97896900D01*
X166409866Y-97890207D01*
X166497047Y-97863761D01*
X166577394Y-97820815D01*
X166647819Y-97763019D01*
X166662303Y-97745370D01*
X167125101Y-97282572D01*
X167125101Y-101745500D01*
G04 #@! TA.AperFunction,Conductor*
D29*
G36*
X167125101Y-101745500D02*
G01*
X165444620Y-101745500D01*
X165448212Y-101743580D01*
X165499603Y-101701404D01*
X165541779Y-101650013D01*
X165573118Y-101591382D01*
X165592417Y-101527763D01*
X165598933Y-101461601D01*
X165598933Y-100191601D01*
X165592417Y-100125439D01*
X165573118Y-100061820D01*
X165541779Y-100003189D01*
X165499603Y-99951798D01*
X165448212Y-99909622D01*
X165389581Y-99878283D01*
X165325962Y-99858984D01*
X165259800Y-99852468D01*
X164946836Y-99852468D01*
X164908788Y-99844900D01*
X164783212Y-99844900D01*
X164745164Y-99852468D01*
X164289800Y-99852468D01*
X164223638Y-99858984D01*
X164160019Y-99878283D01*
X164134800Y-99891763D01*
X164109581Y-99878283D01*
X164045962Y-99858984D01*
X163979800Y-99852468D01*
X163792922Y-99852468D01*
X163711152Y-99818598D01*
X163621335Y-99800733D01*
X163732400Y-99800733D01*
X163798562Y-99794217D01*
X163862181Y-99774918D01*
X163920812Y-99743579D01*
X163972203Y-99701403D01*
X163982400Y-99688978D01*
X163992597Y-99701403D01*
X164043988Y-99743579D01*
X164102619Y-99774918D01*
X164166238Y-99794217D01*
X164232400Y-99800733D01*
X164632400Y-99800733D01*
X164698562Y-99794217D01*
X164762181Y-99774918D01*
X164820812Y-99743579D01*
X164872203Y-99701403D01*
X164914379Y-99650012D01*
X164945718Y-99591381D01*
X164965017Y-99527762D01*
X164971533Y-99461600D01*
X164971533Y-99276541D01*
X165144975Y-99103099D01*
X165162619Y-99088619D01*
X165220415Y-99018194D01*
X165263361Y-98937847D01*
X165289807Y-98850666D01*
X165296500Y-98782712D01*
X165298737Y-98760001D01*
X165296500Y-98737289D01*
X165296500Y-98142378D01*
X165300162Y-98142017D01*
X165363781Y-98122718D01*
X165422412Y-98091379D01*
X165473803Y-98049203D01*
X165515979Y-97997812D01*
X165547318Y-97939181D01*
X165560144Y-97896900D01*
X166296488Y-97896900D01*
X166319200Y-97899137D01*
X166341912Y-97896900D01*
X166409866Y-97890207D01*
X166497047Y-97863761D01*
X166577394Y-97820815D01*
X166647819Y-97763019D01*
X166662303Y-97745370D01*
X167125101Y-97282572D01*
X167125101Y-101745500D01*
G37*
G04 #@! TD.AperFunction*
D30*
X145770600Y-93965622D02*
X144774244Y-94056200D01*
X141483756Y-94056200D01*
X140487400Y-93965622D01*
X140487400Y-91313000D01*
X145770600Y-91313000D01*
X145770600Y-93965622D01*
G04 #@! TA.AperFunction,Conductor*
D29*
G36*
X145770600Y-93965622D02*
G01*
X144774244Y-94056200D01*
X141483756Y-94056200D01*
X140487400Y-93965622D01*
X140487400Y-91313000D01*
X145770600Y-91313000D01*
X145770600Y-93965622D01*
G37*
G04 #@! TD.AperFunction*
M02*
