M48
; DRILL file {KiCad (5.1.2)-2} date 6/17/2019 9:10:17 PM
; FORMAT={-:-/ absolute / metric / decimal}
; #@! TF.CreationDate,2019-06-17T21:10:17-05:00
; #@! TF.GenerationSoftware,Kicad,Pcbnew,(5.1.2)-2
; #@! TF.FileFunction,Plated,1,2,PTH
FMAT,2
METRIC
T1C0.300
T2C0.400
T3C0.635
%
G90
G05
T1
X107.664Y-81.25
X107.664Y-82.25
X110.72Y-85.28
X110.744Y-81.026
X113.792Y-81.28
X113.89Y-76.87
X115.78Y-83.93
X116.26Y-78.71
X116.39Y-76.85
X117.348Y-80.518
X117.5Y-78.73
X118.08Y-77.3
X118.11Y-84.582
X119.38Y-79.502
X119.47Y-82.0
X120.205Y-83.925
X123.444Y-79.756
X124.714Y-84.582
X125.222Y-81.534
X125.39Y-83.27
X125.476Y-77.724
X125.73Y-84.582
X126.238Y-81.28
X126.45Y-80.2
X129.275Y-84.45
X129.286Y-80.264
X129.286Y-82.042
X129.54Y-78.486
X130.048Y-81.28
X130.11Y-83.45
X132.08Y-77.47
X132.334Y-78.74
X132.4Y-84.125
X133.35Y-83.058
X133.604Y-79.756
X133.604Y-81.534
X133.604Y-84.836
X134.62Y-79.215
X134.62Y-84.615
X134.874Y-77.47
X135.636Y-80.772
X135.89Y-84.328
X136.886Y-81.58
X137.16Y-79.215
X138.1Y-82.4
X139.192Y-80.772
X139.446Y-82.804
X140.25Y-77.5
X140.462Y-80.772
X140.96Y-84.99
X143.34Y-85.0
X144.875Y-80.75
X146.0Y-77.5
X146.051Y-85.091
X146.812Y-76.962
X146.87Y-77.978
X148.59Y-78.105
X149.41Y-77.285
X150.114Y-79.756
X151.0Y-81.915
X151.0Y-83.75
X151.13Y-77.47
X151.765Y-78.74
X152.451Y-80.188
X153.035Y-78.74
X153.67Y-77.47
X154.178Y-82.55
X154.225Y-83.8
X155.575Y-79.563
X156.21Y-77.47
X157.48Y-81.28
X157.48Y-83.82
X157.48Y-85.725
X158.686Y-78.095
X160.531Y-79.499
X160.654Y-83.819
X161.29Y-84.455
X161.926Y-85.091
X162.56Y-78.105
X162.56Y-81.915
X163.195Y-76.835
X163.629Y-83.195
X166.35Y-78.85
X166.35Y-83.1
X167.005Y-80.645
X167.005Y-81.915
X167.35Y-78.1
X167.64Y-83.82
X167.64Y-85.09
X169.85Y-81.15
X170.815Y-80.645
X170.815Y-84.455
X171.8Y-78.3
X172.085Y-81.28
X172.72Y-77.47
X173.356Y-78.106
X175.26Y-78.105
X175.26Y-85.09
X175.895Y-83.82
X177.165Y-81.915
X178.435Y-76.835
X178.435Y-80.645
X178.435Y-82.55
X180.975Y-80.645
X182.245Y-80.645
X182.245Y-83.185
X182.975Y-81.925
X183.515Y-83.185
X184.05Y-81.65
X184.785Y-83.185
X186.055Y-78.475
X186.055Y-79.375
X186.055Y-85.09
X186.691Y-84.454
X186.75Y-81.9
X188.595Y-83.82
X188.6Y-81.8
X190.5Y-78.74
X190.5Y-80.01
T2
X115.7Y-82.07
T3
X100.838Y-77.724
X100.838Y-84.836
X193.294Y-84.836
X193.294Y-77.724
T0
M30
