G04 #@! TF.GenerationSoftware,KiCad,Pcbnew,(5.1.2)-2*
G04 #@! TF.CreationDate,2019-06-17T21:10:21-05:00*
G04 #@! TF.ProjectId,OGP,4f47502e-6b69-4636-9164-5f7063625858,rev?*
G04 #@! TF.SameCoordinates,Original*
G04 #@! TF.FileFunction,Legend,Top*
G04 #@! TF.FilePolarity,Positive*
%FSLAX46Y46*%
G04 Gerber Fmt 4.6, Leading zero omitted, Abs format (unit mm)*
G04 Created by KiCad (PCBNEW (5.1.2)-2) date 2019-06-17 21:10:21*
%MOMM*%
%LPD*%
G04 APERTURE LIST*
%ADD10C,0.200000*%
%ADD11C,0.120000*%
%ADD12C,0.150000*%
%ADD13C,0.125000*%
G04 APERTURE END LIST*
D10*
X189430000Y-85750000D02*
X188120000Y-85680000D01*
X188430000Y-81800000D02*
X187930000Y-80720000D01*
X189730000Y-81750000D02*
X188430000Y-81800000D01*
X190340000Y-81470000D02*
X189730000Y-81750000D01*
X189000000Y-83410000D02*
X187880000Y-83070000D01*
X190340000Y-83490000D02*
X189000000Y-83410000D01*
X190950000Y-83210000D02*
X190340000Y-83490000D01*
X162560000Y-83312000D02*
X166370000Y-83312000D01*
X166370000Y-78994000D02*
X162560000Y-78994000D01*
X166370000Y-76962000D02*
X166370000Y-77470000D01*
X162560000Y-76962000D02*
X162560000Y-77724000D01*
X162560000Y-85090000D02*
X162560000Y-85598000D01*
X166370000Y-85090000D02*
X166370000Y-85598000D01*
X166370000Y-77470000D02*
X166370000Y-81280000D01*
X162560000Y-76962000D02*
X166370000Y-76962000D01*
X162560000Y-81280000D02*
X162560000Y-77470000D01*
X162560000Y-85090000D02*
X162560000Y-81280000D01*
X166370000Y-85598000D02*
X162560000Y-85598000D01*
X166370000Y-81280000D02*
X166370000Y-85090000D01*
X162560000Y-81280000D02*
X166370000Y-81280000D01*
D11*
X101641219Y-84836000D02*
G75*
G03X101641219Y-84836000I-803219J0D01*
G01*
X101641219Y-77724000D02*
G75*
G03X101641219Y-77724000I-803219J0D01*
G01*
X194097219Y-84836000D02*
G75*
G03X194097219Y-84836000I-803219J0D01*
G01*
X136275000Y-77940000D02*
X136775000Y-77940000D01*
X136775000Y-77000000D02*
X136275000Y-77000000D01*
X186855000Y-77855000D02*
X186855000Y-78355000D01*
X187795000Y-78355000D02*
X187795000Y-77855000D01*
X189700000Y-78440000D02*
X189700000Y-77940000D01*
X188760000Y-77940000D02*
X188760000Y-78440000D01*
X147070000Y-81750000D02*
X147570000Y-81750000D01*
X147570000Y-80810000D02*
X147070000Y-80810000D01*
X152150000Y-83655000D02*
X152650000Y-83655000D01*
X152650000Y-82715000D02*
X152150000Y-82715000D01*
X127750000Y-78970000D02*
X128250000Y-78970000D01*
X128250000Y-78030000D02*
X127750000Y-78030000D01*
X173520000Y-81750000D02*
X173520000Y-82250000D01*
X174460000Y-82250000D02*
X174460000Y-81750000D01*
X132030000Y-82250000D02*
X132030000Y-82750000D01*
X132970000Y-82750000D02*
X132970000Y-82250000D01*
X131470000Y-78800000D02*
X131470000Y-78300000D01*
X130530000Y-78300000D02*
X130530000Y-78800000D01*
X128155000Y-79794000D02*
X127655000Y-79794000D01*
X127655000Y-80734000D02*
X128155000Y-80734000D01*
X131470000Y-84250000D02*
X131470000Y-83750000D01*
X130530000Y-83750000D02*
X130530000Y-84250000D01*
X127655000Y-82470000D02*
X128155000Y-82470000D01*
X128155000Y-81530000D02*
X127655000Y-81530000D01*
X165765000Y-78500000D02*
X163665000Y-78500000D01*
X165765000Y-77500000D02*
X163665000Y-77500000D01*
X165765000Y-78500000D02*
X165765000Y-77500000D01*
X165765000Y-85000000D02*
X165765000Y-84000000D01*
X165765000Y-84000000D02*
X163665000Y-84000000D01*
X165765000Y-85000000D02*
X163665000Y-85000000D01*
X165765000Y-82820000D02*
X163665000Y-82820000D01*
X165765000Y-81680000D02*
X163665000Y-81680000D01*
X165765000Y-82820000D02*
X165765000Y-81680000D01*
X165765000Y-80820000D02*
X165765000Y-79680000D01*
X165765000Y-79680000D02*
X163665000Y-79680000D01*
X165765000Y-80820000D02*
X163665000Y-80820000D01*
X139315000Y-76940000D02*
X138815000Y-76940000D01*
X138815000Y-78000000D02*
X139315000Y-78000000D01*
X144750000Y-76940000D02*
X144250000Y-76940000D01*
X144250000Y-78000000D02*
X144750000Y-78000000D01*
X141355000Y-78000000D02*
X141855000Y-78000000D01*
X141855000Y-76940000D02*
X141355000Y-76940000D01*
X168406000Y-77492000D02*
X168906000Y-77492000D01*
X168906000Y-76432000D02*
X168406000Y-76432000D01*
X169317766Y-83358536D02*
X168817766Y-83358536D01*
X168817766Y-84418536D02*
X169317766Y-84418536D01*
X168817766Y-85688536D02*
X169317766Y-85688536D01*
X169317766Y-84628536D02*
X168817766Y-84628536D01*
X172470000Y-85620000D02*
X172970000Y-85620000D01*
X172970000Y-84560000D02*
X172470000Y-84560000D01*
X172470000Y-84350000D02*
X172970000Y-84350000D01*
X172970000Y-83290000D02*
X172470000Y-83290000D01*
X188210000Y-84560000D02*
X187710000Y-84560000D01*
X187710000Y-85620000D02*
X188210000Y-85620000D01*
X189615000Y-83080000D02*
X190115000Y-83080000D01*
X190115000Y-82020000D02*
X189615000Y-82020000D01*
X186795000Y-80395000D02*
X186795000Y-80895000D01*
X187855000Y-80895000D02*
X187855000Y-80395000D01*
X189615000Y-84985000D02*
X190115000Y-84985000D01*
X190115000Y-83925000D02*
X189615000Y-83925000D01*
X189760000Y-80895000D02*
X189760000Y-80395000D01*
X188700000Y-80395000D02*
X188700000Y-80895000D01*
X179270000Y-78000000D02*
X179770000Y-78000000D01*
X179770000Y-76940000D02*
X179270000Y-76940000D01*
X186795000Y-82750000D02*
X186795000Y-83250000D01*
X187855000Y-83250000D02*
X187855000Y-82750000D01*
X177415000Y-76940000D02*
X176915000Y-76940000D01*
X176915000Y-78000000D02*
X177415000Y-78000000D01*
X185670000Y-76940000D02*
X185170000Y-76940000D01*
X185170000Y-78000000D02*
X185670000Y-78000000D01*
X173460000Y-79125000D02*
X173460000Y-79625000D01*
X174520000Y-79625000D02*
X174520000Y-79125000D01*
X152650000Y-78845000D02*
X152150000Y-78845000D01*
X152150000Y-79905000D02*
X152650000Y-79905000D01*
X147070000Y-85620000D02*
X147570000Y-85620000D01*
X147570000Y-84560000D02*
X147070000Y-84560000D01*
X152650000Y-80750000D02*
X152150000Y-80750000D01*
X152150000Y-81810000D02*
X152650000Y-81810000D01*
X147570000Y-82655000D02*
X147070000Y-82655000D01*
X147070000Y-83715000D02*
X147570000Y-83715000D01*
X150110000Y-80750000D02*
X149610000Y-80750000D01*
X149610000Y-81810000D02*
X150110000Y-81810000D01*
X149610000Y-83715000D02*
X150110000Y-83715000D01*
X150110000Y-82655000D02*
X149610000Y-82655000D01*
X152150000Y-78000000D02*
X152650000Y-78000000D01*
X152650000Y-76940000D02*
X152150000Y-76940000D01*
X150110000Y-84560000D02*
X149610000Y-84560000D01*
X149610000Y-85620000D02*
X150110000Y-85620000D01*
X147070000Y-79905000D02*
X147570000Y-79905000D01*
X147570000Y-78845000D02*
X147070000Y-78845000D01*
X116650000Y-81920000D02*
X117150000Y-81920000D01*
X117150000Y-80860000D02*
X116650000Y-80860000D01*
X152650000Y-84560000D02*
X152150000Y-84560000D01*
X152150000Y-85620000D02*
X152650000Y-85620000D01*
X128250000Y-82970000D02*
X127750000Y-82970000D01*
X127750000Y-84030000D02*
X128250000Y-84030000D01*
X131970000Y-79750000D02*
X131970000Y-80250000D01*
X133030000Y-80250000D02*
X133030000Y-79750000D01*
X133250000Y-78030000D02*
X133750000Y-78030000D01*
X133750000Y-76970000D02*
X133250000Y-76970000D01*
X149610000Y-79270000D02*
X150110000Y-79270000D01*
X150110000Y-78210000D02*
X149610000Y-78210000D01*
X127700000Y-85620000D02*
X128200000Y-85620000D01*
X128200000Y-84560000D02*
X127700000Y-84560000D01*
X124946000Y-79448000D02*
X124946000Y-79948000D01*
X126006000Y-79948000D02*
X126006000Y-79448000D01*
X128225000Y-76470000D02*
X127725000Y-76470000D01*
X127725000Y-77530000D02*
X128225000Y-77530000D01*
D12*
X176550000Y-83990000D02*
X176550000Y-85365000D01*
X185425000Y-83990000D02*
X185425000Y-79840000D01*
X176525000Y-83990000D02*
X176525000Y-79840000D01*
X185425000Y-83990000D02*
X185310000Y-83990000D01*
X185425000Y-79840000D02*
X185310000Y-79840000D01*
X176525000Y-79840000D02*
X176640000Y-79840000D01*
X176525000Y-83990000D02*
X176550000Y-83990000D01*
X133980000Y-83990000D02*
X134005000Y-83990000D01*
X133980000Y-79840000D02*
X134095000Y-79840000D01*
X142880000Y-79840000D02*
X142765000Y-79840000D01*
X142880000Y-83990000D02*
X142765000Y-83990000D01*
X133980000Y-83990000D02*
X133980000Y-79840000D01*
X142880000Y-83990000D02*
X142880000Y-79840000D01*
X134005000Y-83990000D02*
X134005000Y-85365000D01*
D11*
X156275000Y-79340000D02*
X154425000Y-79340000D01*
X156275000Y-78140000D02*
X154425000Y-78140000D01*
X154425000Y-78140000D02*
X154425000Y-79340000D01*
X159900000Y-79340000D02*
X159900000Y-78140000D01*
X158050000Y-79340000D02*
X159900000Y-79340000D01*
X158050000Y-78140000D02*
X159900000Y-78140000D01*
X120715000Y-81245000D02*
X118865000Y-81245000D01*
X120715000Y-80045000D02*
X118865000Y-80045000D01*
X118865000Y-80045000D02*
X118865000Y-81245000D01*
X119150000Y-77570000D02*
X119150000Y-78770000D01*
X121000000Y-77570000D02*
X119150000Y-77570000D01*
X121000000Y-78770000D02*
X119150000Y-78770000D01*
X123890000Y-78705000D02*
X122040000Y-78705000D01*
X123890000Y-77505000D02*
X122040000Y-77505000D01*
X122040000Y-77505000D02*
X122040000Y-78705000D01*
X122040000Y-80045000D02*
X122040000Y-81245000D01*
X123890000Y-80045000D02*
X122040000Y-80045000D01*
X123890000Y-81245000D02*
X122040000Y-81245000D01*
X170305000Y-80955000D02*
X168845000Y-80955000D01*
X170305000Y-77795000D02*
X168145000Y-77795000D01*
X170305000Y-77795000D02*
X170305000Y-78725000D01*
X170305000Y-80955000D02*
X170305000Y-80025000D01*
X158010000Y-84330000D02*
X155730000Y-84330000D01*
X155730000Y-84330000D02*
X155730000Y-83820000D01*
X155730000Y-81280000D02*
X155730000Y-80770000D01*
X155730000Y-80770000D02*
X158010000Y-80770000D01*
X120075001Y-82145001D02*
X122355001Y-82145001D01*
X120075001Y-82655001D02*
X120075001Y-82145001D01*
X120075001Y-85705001D02*
X120075001Y-85195001D01*
X122355001Y-85705001D02*
X120075001Y-85705001D01*
X194097219Y-77724000D02*
G75*
G03X194097219Y-77724000I-803219J0D01*
G01*
X118000000Y-79440000D02*
X118000000Y-78040000D01*
X115680000Y-78040000D02*
X115680000Y-79940000D01*
D12*
D13*
X134916666Y-77178571D02*
X134892857Y-77202380D01*
X134821428Y-77226190D01*
X134773809Y-77226190D01*
X134702380Y-77202380D01*
X134654761Y-77154761D01*
X134630952Y-77107142D01*
X134607142Y-77011904D01*
X134607142Y-76940476D01*
X134630952Y-76845238D01*
X134654761Y-76797619D01*
X134702380Y-76750000D01*
X134773809Y-76726190D01*
X134821428Y-76726190D01*
X134892857Y-76750000D01*
X134916666Y-76773809D01*
X135392857Y-77226190D02*
X135107142Y-77226190D01*
X135250000Y-77226190D02*
X135250000Y-76726190D01*
X135202380Y-76797619D01*
X135154761Y-76845238D01*
X135107142Y-76869047D01*
X188130666Y-76886571D02*
X188106857Y-76910380D01*
X188035428Y-76934190D01*
X187987809Y-76934190D01*
X187916380Y-76910380D01*
X187868761Y-76862761D01*
X187844952Y-76815142D01*
X187821142Y-76719904D01*
X187821142Y-76648476D01*
X187844952Y-76553238D01*
X187868761Y-76505619D01*
X187916380Y-76458000D01*
X187987809Y-76434190D01*
X188035428Y-76434190D01*
X188106857Y-76458000D01*
X188130666Y-76481809D01*
X188321142Y-76481809D02*
X188344952Y-76458000D01*
X188392571Y-76434190D01*
X188511619Y-76434190D01*
X188559238Y-76458000D01*
X188583047Y-76481809D01*
X188606857Y-76529428D01*
X188606857Y-76577047D01*
X188583047Y-76648476D01*
X188297333Y-76934190D01*
X188606857Y-76934190D01*
X190416666Y-77648571D02*
X190392857Y-77672380D01*
X190321428Y-77696190D01*
X190273809Y-77696190D01*
X190202380Y-77672380D01*
X190154761Y-77624761D01*
X190130952Y-77577142D01*
X190107142Y-77481904D01*
X190107142Y-77410476D01*
X190130952Y-77315238D01*
X190154761Y-77267619D01*
X190202380Y-77220000D01*
X190273809Y-77196190D01*
X190321428Y-77196190D01*
X190392857Y-77220000D01*
X190416666Y-77243809D01*
X190583333Y-77196190D02*
X190892857Y-77196190D01*
X190726190Y-77386666D01*
X190797619Y-77386666D01*
X190845238Y-77410476D01*
X190869047Y-77434285D01*
X190892857Y-77481904D01*
X190892857Y-77600952D01*
X190869047Y-77648571D01*
X190845238Y-77672380D01*
X190797619Y-77696190D01*
X190654761Y-77696190D01*
X190607142Y-77672380D01*
X190583333Y-77648571D01*
X146166666Y-80678571D02*
X146142857Y-80702380D01*
X146071428Y-80726190D01*
X146023809Y-80726190D01*
X145952380Y-80702380D01*
X145904761Y-80654761D01*
X145880952Y-80607142D01*
X145857142Y-80511904D01*
X145857142Y-80440476D01*
X145880952Y-80345238D01*
X145904761Y-80297619D01*
X145952380Y-80250000D01*
X146023809Y-80226190D01*
X146071428Y-80226190D01*
X146142857Y-80250000D01*
X146166666Y-80273809D01*
X146595238Y-80392857D02*
X146595238Y-80726190D01*
X146476190Y-80202380D02*
X146357142Y-80559523D01*
X146666666Y-80559523D01*
X153916666Y-82678571D02*
X153892857Y-82702380D01*
X153821428Y-82726190D01*
X153773809Y-82726190D01*
X153702380Y-82702380D01*
X153654761Y-82654761D01*
X153630952Y-82607142D01*
X153607142Y-82511904D01*
X153607142Y-82440476D01*
X153630952Y-82345238D01*
X153654761Y-82297619D01*
X153702380Y-82250000D01*
X153773809Y-82226190D01*
X153821428Y-82226190D01*
X153892857Y-82250000D01*
X153916666Y-82273809D01*
X154369047Y-82226190D02*
X154130952Y-82226190D01*
X154107142Y-82464285D01*
X154130952Y-82440476D01*
X154178571Y-82416666D01*
X154297619Y-82416666D01*
X154345238Y-82440476D01*
X154369047Y-82464285D01*
X154392857Y-82511904D01*
X154392857Y-82630952D01*
X154369047Y-82678571D01*
X154345238Y-82702380D01*
X154297619Y-82726190D01*
X154178571Y-82726190D01*
X154130952Y-82702380D01*
X154107142Y-82678571D01*
X126154666Y-78410571D02*
X126130857Y-78434380D01*
X126059428Y-78458190D01*
X126011809Y-78458190D01*
X125940380Y-78434380D01*
X125892761Y-78386761D01*
X125868952Y-78339142D01*
X125845142Y-78243904D01*
X125845142Y-78172476D01*
X125868952Y-78077238D01*
X125892761Y-78029619D01*
X125940380Y-77982000D01*
X126011809Y-77958190D01*
X126059428Y-77958190D01*
X126130857Y-77982000D01*
X126154666Y-78005809D01*
X126583238Y-77958190D02*
X126488000Y-77958190D01*
X126440380Y-77982000D01*
X126416571Y-78005809D01*
X126368952Y-78077238D01*
X126345142Y-78172476D01*
X126345142Y-78362952D01*
X126368952Y-78410571D01*
X126392761Y-78434380D01*
X126440380Y-78458190D01*
X126535619Y-78458190D01*
X126583238Y-78434380D01*
X126607047Y-78410571D01*
X126630857Y-78362952D01*
X126630857Y-78243904D01*
X126607047Y-78196285D01*
X126583238Y-78172476D01*
X126535619Y-78148666D01*
X126440380Y-78148666D01*
X126392761Y-78172476D01*
X126368952Y-78196285D01*
X126345142Y-78243904D01*
X172636666Y-82220571D02*
X172612857Y-82244380D01*
X172541428Y-82268190D01*
X172493809Y-82268190D01*
X172422380Y-82244380D01*
X172374761Y-82196761D01*
X172350952Y-82149142D01*
X172327142Y-82053904D01*
X172327142Y-81982476D01*
X172350952Y-81887238D01*
X172374761Y-81839619D01*
X172422380Y-81792000D01*
X172493809Y-81768190D01*
X172541428Y-81768190D01*
X172612857Y-81792000D01*
X172636666Y-81815809D01*
X172803333Y-81768190D02*
X173136666Y-81768190D01*
X172922380Y-82268190D01*
X131146666Y-82678571D02*
X131122857Y-82702380D01*
X131051428Y-82726190D01*
X131003809Y-82726190D01*
X130932380Y-82702380D01*
X130884761Y-82654761D01*
X130860952Y-82607142D01*
X130837142Y-82511904D01*
X130837142Y-82440476D01*
X130860952Y-82345238D01*
X130884761Y-82297619D01*
X130932380Y-82250000D01*
X131003809Y-82226190D01*
X131051428Y-82226190D01*
X131122857Y-82250000D01*
X131146666Y-82273809D01*
X131432380Y-82440476D02*
X131384761Y-82416666D01*
X131360952Y-82392857D01*
X131337142Y-82345238D01*
X131337142Y-82321428D01*
X131360952Y-82273809D01*
X131384761Y-82250000D01*
X131432380Y-82226190D01*
X131527619Y-82226190D01*
X131575238Y-82250000D01*
X131599047Y-82273809D01*
X131622857Y-82321428D01*
X131622857Y-82345238D01*
X131599047Y-82392857D01*
X131575238Y-82416666D01*
X131527619Y-82440476D01*
X131432380Y-82440476D01*
X131384761Y-82464285D01*
X131360952Y-82488095D01*
X131337142Y-82535714D01*
X131337142Y-82630952D01*
X131360952Y-82678571D01*
X131384761Y-82702380D01*
X131432380Y-82726190D01*
X131527619Y-82726190D01*
X131575238Y-82702380D01*
X131599047Y-82678571D01*
X131622857Y-82630952D01*
X131622857Y-82535714D01*
X131599047Y-82488095D01*
X131575238Y-82464285D01*
X131527619Y-82440476D01*
X129666666Y-77928571D02*
X129642857Y-77952380D01*
X129571428Y-77976190D01*
X129523809Y-77976190D01*
X129452380Y-77952380D01*
X129404761Y-77904761D01*
X129380952Y-77857142D01*
X129357142Y-77761904D01*
X129357142Y-77690476D01*
X129380952Y-77595238D01*
X129404761Y-77547619D01*
X129452380Y-77500000D01*
X129523809Y-77476190D01*
X129571428Y-77476190D01*
X129642857Y-77500000D01*
X129666666Y-77523809D01*
X129904761Y-77976190D02*
X130000000Y-77976190D01*
X130047619Y-77952380D01*
X130071428Y-77928571D01*
X130119047Y-77857142D01*
X130142857Y-77761904D01*
X130142857Y-77571428D01*
X130119047Y-77523809D01*
X130095238Y-77500000D01*
X130047619Y-77476190D01*
X129952380Y-77476190D01*
X129904761Y-77500000D01*
X129880952Y-77523809D01*
X129857142Y-77571428D01*
X129857142Y-77690476D01*
X129880952Y-77738095D01*
X129904761Y-77761904D01*
X129952380Y-77785714D01*
X130047619Y-77785714D01*
X130095238Y-77761904D01*
X130119047Y-77738095D01*
X130142857Y-77690476D01*
X126678571Y-79426571D02*
X126654761Y-79450380D01*
X126583333Y-79474190D01*
X126535714Y-79474190D01*
X126464285Y-79450380D01*
X126416666Y-79402761D01*
X126392857Y-79355142D01*
X126369047Y-79259904D01*
X126369047Y-79188476D01*
X126392857Y-79093238D01*
X126416666Y-79045619D01*
X126464285Y-78998000D01*
X126535714Y-78974190D01*
X126583333Y-78974190D01*
X126654761Y-78998000D01*
X126678571Y-79021809D01*
X127154761Y-79474190D02*
X126869047Y-79474190D01*
X127011904Y-79474190D02*
X127011904Y-78974190D01*
X126964285Y-79045619D01*
X126916666Y-79093238D01*
X126869047Y-79117047D01*
X127464285Y-78974190D02*
X127511904Y-78974190D01*
X127559523Y-78998000D01*
X127583333Y-79021809D01*
X127607142Y-79069428D01*
X127630952Y-79164666D01*
X127630952Y-79283714D01*
X127607142Y-79378952D01*
X127583333Y-79426571D01*
X127559523Y-79450380D01*
X127511904Y-79474190D01*
X127464285Y-79474190D01*
X127416666Y-79450380D01*
X127392857Y-79426571D01*
X127369047Y-79378952D01*
X127345238Y-79283714D01*
X127345238Y-79164666D01*
X127369047Y-79069428D01*
X127392857Y-79021809D01*
X127416666Y-78998000D01*
X127464285Y-78974190D01*
X129908571Y-84321428D02*
X129932380Y-84345238D01*
X129956190Y-84416666D01*
X129956190Y-84464285D01*
X129932380Y-84535714D01*
X129884761Y-84583333D01*
X129837142Y-84607142D01*
X129741904Y-84630952D01*
X129670476Y-84630952D01*
X129575238Y-84607142D01*
X129527619Y-84583333D01*
X129480000Y-84535714D01*
X129456190Y-84464285D01*
X129456190Y-84416666D01*
X129480000Y-84345238D01*
X129503809Y-84321428D01*
X129956190Y-83845238D02*
X129956190Y-84130952D01*
X129956190Y-83988095D02*
X129456190Y-83988095D01*
X129527619Y-84035714D01*
X129575238Y-84083333D01*
X129599047Y-84130952D01*
X129956190Y-83369047D02*
X129956190Y-83654761D01*
X129956190Y-83511904D02*
X129456190Y-83511904D01*
X129527619Y-83559523D01*
X129575238Y-83607142D01*
X129599047Y-83654761D01*
X125678571Y-82178571D02*
X125654761Y-82202380D01*
X125583333Y-82226190D01*
X125535714Y-82226190D01*
X125464285Y-82202380D01*
X125416666Y-82154761D01*
X125392857Y-82107142D01*
X125369047Y-82011904D01*
X125369047Y-81940476D01*
X125392857Y-81845238D01*
X125416666Y-81797619D01*
X125464285Y-81750000D01*
X125535714Y-81726190D01*
X125583333Y-81726190D01*
X125654761Y-81750000D01*
X125678571Y-81773809D01*
X126154761Y-82226190D02*
X125869047Y-82226190D01*
X126011904Y-82226190D02*
X126011904Y-81726190D01*
X125964285Y-81797619D01*
X125916666Y-81845238D01*
X125869047Y-81869047D01*
X126345238Y-81773809D02*
X126369047Y-81750000D01*
X126416666Y-81726190D01*
X126535714Y-81726190D01*
X126583333Y-81750000D01*
X126607142Y-81773809D01*
X126630952Y-81821428D01*
X126630952Y-81869047D01*
X126607142Y-81940476D01*
X126321428Y-82226190D01*
X126630952Y-82226190D01*
X161555952Y-78226190D02*
X161555952Y-77726190D01*
X161675000Y-77726190D01*
X161746428Y-77750000D01*
X161794047Y-77797619D01*
X161817857Y-77845238D01*
X161841666Y-77940476D01*
X161841666Y-78011904D01*
X161817857Y-78107142D01*
X161794047Y-78154761D01*
X161746428Y-78202380D01*
X161675000Y-78226190D01*
X161555952Y-78226190D01*
X162317857Y-78226190D02*
X162032142Y-78226190D01*
X162175000Y-78226190D02*
X162175000Y-77726190D01*
X162127380Y-77797619D01*
X162079761Y-77845238D01*
X162032142Y-77869047D01*
X161555952Y-84726190D02*
X161555952Y-84226190D01*
X161675000Y-84226190D01*
X161746428Y-84250000D01*
X161794047Y-84297619D01*
X161817857Y-84345238D01*
X161841666Y-84440476D01*
X161841666Y-84511904D01*
X161817857Y-84607142D01*
X161794047Y-84654761D01*
X161746428Y-84702380D01*
X161675000Y-84726190D01*
X161555952Y-84726190D01*
X162032142Y-84273809D02*
X162055952Y-84250000D01*
X162103571Y-84226190D01*
X162222619Y-84226190D01*
X162270238Y-84250000D01*
X162294047Y-84273809D01*
X162317857Y-84321428D01*
X162317857Y-84369047D01*
X162294047Y-84440476D01*
X162008333Y-84726190D01*
X162317857Y-84726190D01*
X161877380Y-82523809D02*
X161829761Y-82500000D01*
X161782142Y-82452380D01*
X161710714Y-82380952D01*
X161663095Y-82357142D01*
X161615476Y-82357142D01*
X161639285Y-82476190D02*
X161591666Y-82452380D01*
X161544047Y-82404761D01*
X161520238Y-82309523D01*
X161520238Y-82142857D01*
X161544047Y-82047619D01*
X161591666Y-82000000D01*
X161639285Y-81976190D01*
X161734523Y-81976190D01*
X161782142Y-82000000D01*
X161829761Y-82047619D01*
X161853571Y-82142857D01*
X161853571Y-82309523D01*
X161829761Y-82404761D01*
X161782142Y-82452380D01*
X161734523Y-82476190D01*
X161639285Y-82476190D01*
X162044047Y-82023809D02*
X162067857Y-82000000D01*
X162115476Y-81976190D01*
X162234523Y-81976190D01*
X162282142Y-82000000D01*
X162305952Y-82023809D01*
X162329761Y-82071428D01*
X162329761Y-82119047D01*
X162305952Y-82190476D01*
X162020238Y-82476190D01*
X162329761Y-82476190D01*
X161877380Y-80523809D02*
X161829761Y-80500000D01*
X161782142Y-80452380D01*
X161710714Y-80380952D01*
X161663095Y-80357142D01*
X161615476Y-80357142D01*
X161639285Y-80476190D02*
X161591666Y-80452380D01*
X161544047Y-80404761D01*
X161520238Y-80309523D01*
X161520238Y-80142857D01*
X161544047Y-80047619D01*
X161591666Y-80000000D01*
X161639285Y-79976190D01*
X161734523Y-79976190D01*
X161782142Y-80000000D01*
X161829761Y-80047619D01*
X161853571Y-80142857D01*
X161853571Y-80309523D01*
X161829761Y-80404761D01*
X161782142Y-80452380D01*
X161734523Y-80476190D01*
X161639285Y-80476190D01*
X162020238Y-79976190D02*
X162329761Y-79976190D01*
X162163095Y-80166666D01*
X162234523Y-80166666D01*
X162282142Y-80190476D01*
X162305952Y-80214285D01*
X162329761Y-80261904D01*
X162329761Y-80380952D01*
X162305952Y-80428571D01*
X162282142Y-80452380D01*
X162234523Y-80476190D01*
X162091666Y-80476190D01*
X162044047Y-80452380D01*
X162020238Y-80428571D01*
X140416666Y-77226190D02*
X140250000Y-76988095D01*
X140130952Y-77226190D02*
X140130952Y-76726190D01*
X140321428Y-76726190D01*
X140369047Y-76750000D01*
X140392857Y-76773809D01*
X140416666Y-76821428D01*
X140416666Y-76892857D01*
X140392857Y-76940476D01*
X140369047Y-76964285D01*
X140321428Y-76988095D01*
X140130952Y-76988095D01*
X140892857Y-77226190D02*
X140607142Y-77226190D01*
X140750000Y-77226190D02*
X140750000Y-76726190D01*
X140702380Y-76797619D01*
X140654761Y-76845238D01*
X140607142Y-76869047D01*
X146416666Y-77726190D02*
X146250000Y-77488095D01*
X146130952Y-77726190D02*
X146130952Y-77226190D01*
X146321428Y-77226190D01*
X146369047Y-77250000D01*
X146392857Y-77273809D01*
X146416666Y-77321428D01*
X146416666Y-77392857D01*
X146392857Y-77440476D01*
X146369047Y-77464285D01*
X146321428Y-77488095D01*
X146130952Y-77488095D01*
X146607142Y-77273809D02*
X146630952Y-77250000D01*
X146678571Y-77226190D01*
X146797619Y-77226190D01*
X146845238Y-77250000D01*
X146869047Y-77273809D01*
X146892857Y-77321428D01*
X146892857Y-77369047D01*
X146869047Y-77440476D01*
X146583333Y-77726190D01*
X146892857Y-77726190D01*
X142916666Y-77226190D02*
X142750000Y-76988095D01*
X142630952Y-77226190D02*
X142630952Y-76726190D01*
X142821428Y-76726190D01*
X142869047Y-76750000D01*
X142892857Y-76773809D01*
X142916666Y-76821428D01*
X142916666Y-76892857D01*
X142892857Y-76940476D01*
X142869047Y-76964285D01*
X142821428Y-76988095D01*
X142630952Y-76988095D01*
X143083333Y-76726190D02*
X143392857Y-76726190D01*
X143226190Y-76916666D01*
X143297619Y-76916666D01*
X143345238Y-76940476D01*
X143369047Y-76964285D01*
X143392857Y-77011904D01*
X143392857Y-77130952D01*
X143369047Y-77178571D01*
X143345238Y-77202380D01*
X143297619Y-77226190D01*
X143154761Y-77226190D01*
X143107142Y-77202380D01*
X143083333Y-77178571D01*
X170350666Y-77188190D02*
X170184000Y-76950095D01*
X170064952Y-77188190D02*
X170064952Y-76688190D01*
X170255428Y-76688190D01*
X170303047Y-76712000D01*
X170326857Y-76735809D01*
X170350666Y-76783428D01*
X170350666Y-76854857D01*
X170326857Y-76902476D01*
X170303047Y-76926285D01*
X170255428Y-76950095D01*
X170064952Y-76950095D01*
X170779238Y-76854857D02*
X170779238Y-77188190D01*
X170660190Y-76664380D02*
X170541142Y-77021523D01*
X170850666Y-77021523D01*
X170889432Y-84114726D02*
X170722766Y-83876631D01*
X170603718Y-84114726D02*
X170603718Y-83614726D01*
X170794194Y-83614726D01*
X170841813Y-83638536D01*
X170865623Y-83662345D01*
X170889432Y-83709964D01*
X170889432Y-83781393D01*
X170865623Y-83829012D01*
X170841813Y-83852821D01*
X170794194Y-83876631D01*
X170603718Y-83876631D01*
X171341813Y-83614726D02*
X171103718Y-83614726D01*
X171079908Y-83852821D01*
X171103718Y-83829012D01*
X171151337Y-83805202D01*
X171270385Y-83805202D01*
X171318004Y-83829012D01*
X171341813Y-83852821D01*
X171365623Y-83900440D01*
X171365623Y-84019488D01*
X171341813Y-84067107D01*
X171318004Y-84090916D01*
X171270385Y-84114726D01*
X171151337Y-84114726D01*
X171103718Y-84090916D01*
X171079908Y-84067107D01*
X170889432Y-85384726D02*
X170722766Y-85146631D01*
X170603718Y-85384726D02*
X170603718Y-84884726D01*
X170794194Y-84884726D01*
X170841813Y-84908536D01*
X170865623Y-84932345D01*
X170889432Y-84979964D01*
X170889432Y-85051393D01*
X170865623Y-85099012D01*
X170841813Y-85122821D01*
X170794194Y-85146631D01*
X170603718Y-85146631D01*
X171318004Y-84884726D02*
X171222766Y-84884726D01*
X171175146Y-84908536D01*
X171151337Y-84932345D01*
X171103718Y-85003774D01*
X171079908Y-85099012D01*
X171079908Y-85289488D01*
X171103718Y-85337107D01*
X171127527Y-85360916D01*
X171175146Y-85384726D01*
X171270385Y-85384726D01*
X171318004Y-85360916D01*
X171341813Y-85337107D01*
X171365623Y-85289488D01*
X171365623Y-85170440D01*
X171341813Y-85122821D01*
X171318004Y-85099012D01*
X171270385Y-85075202D01*
X171175146Y-85075202D01*
X171127527Y-85099012D01*
X171103718Y-85122821D01*
X171079908Y-85170440D01*
X174541666Y-85316190D02*
X174375000Y-85078095D01*
X174255952Y-85316190D02*
X174255952Y-84816190D01*
X174446428Y-84816190D01*
X174494047Y-84840000D01*
X174517857Y-84863809D01*
X174541666Y-84911428D01*
X174541666Y-84982857D01*
X174517857Y-85030476D01*
X174494047Y-85054285D01*
X174446428Y-85078095D01*
X174255952Y-85078095D01*
X174708333Y-84816190D02*
X175041666Y-84816190D01*
X174827380Y-85316190D01*
X174541666Y-84046190D02*
X174375000Y-83808095D01*
X174255952Y-84046190D02*
X174255952Y-83546190D01*
X174446428Y-83546190D01*
X174494047Y-83570000D01*
X174517857Y-83593809D01*
X174541666Y-83641428D01*
X174541666Y-83712857D01*
X174517857Y-83760476D01*
X174494047Y-83784285D01*
X174446428Y-83808095D01*
X174255952Y-83808095D01*
X174827380Y-83760476D02*
X174779761Y-83736666D01*
X174755952Y-83712857D01*
X174732142Y-83665238D01*
X174732142Y-83641428D01*
X174755952Y-83593809D01*
X174779761Y-83570000D01*
X174827380Y-83546190D01*
X174922619Y-83546190D01*
X174970238Y-83570000D01*
X174994047Y-83593809D01*
X175017857Y-83641428D01*
X175017857Y-83665238D01*
X174994047Y-83712857D01*
X174970238Y-83736666D01*
X174922619Y-83760476D01*
X174827380Y-83760476D01*
X174779761Y-83784285D01*
X174755952Y-83808095D01*
X174732142Y-83855714D01*
X174732142Y-83950952D01*
X174755952Y-83998571D01*
X174779761Y-84022380D01*
X174827380Y-84046190D01*
X174922619Y-84046190D01*
X174970238Y-84022380D01*
X174994047Y-83998571D01*
X175017857Y-83950952D01*
X175017857Y-83855714D01*
X174994047Y-83808095D01*
X174970238Y-83784285D01*
X174922619Y-83760476D01*
X189908666Y-85951190D02*
X189742000Y-85713095D01*
X189622952Y-85951190D02*
X189622952Y-85451190D01*
X189813428Y-85451190D01*
X189861047Y-85475000D01*
X189884857Y-85498809D01*
X189908666Y-85546428D01*
X189908666Y-85617857D01*
X189884857Y-85665476D01*
X189861047Y-85689285D01*
X189813428Y-85713095D01*
X189622952Y-85713095D01*
X190146761Y-85951190D02*
X190242000Y-85951190D01*
X190289619Y-85927380D01*
X190313428Y-85903571D01*
X190361047Y-85832142D01*
X190384857Y-85736904D01*
X190384857Y-85546428D01*
X190361047Y-85498809D01*
X190337238Y-85475000D01*
X190289619Y-85451190D01*
X190194380Y-85451190D01*
X190146761Y-85475000D01*
X190122952Y-85498809D01*
X190099142Y-85546428D01*
X190099142Y-85665476D01*
X190122952Y-85713095D01*
X190146761Y-85736904D01*
X190194380Y-85760714D01*
X190289619Y-85760714D01*
X190337238Y-85736904D01*
X190361047Y-85713095D01*
X190384857Y-85665476D01*
X192210571Y-82522190D02*
X192043904Y-82284095D01*
X191924857Y-82522190D02*
X191924857Y-82022190D01*
X192115333Y-82022190D01*
X192162952Y-82046000D01*
X192186761Y-82069809D01*
X192210571Y-82117428D01*
X192210571Y-82188857D01*
X192186761Y-82236476D01*
X192162952Y-82260285D01*
X192115333Y-82284095D01*
X191924857Y-82284095D01*
X192686761Y-82522190D02*
X192401047Y-82522190D01*
X192543904Y-82522190D02*
X192543904Y-82022190D01*
X192496285Y-82093619D01*
X192448666Y-82141238D01*
X192401047Y-82165047D01*
X192996285Y-82022190D02*
X193043904Y-82022190D01*
X193091523Y-82046000D01*
X193115333Y-82069809D01*
X193139142Y-82117428D01*
X193162952Y-82212666D01*
X193162952Y-82331714D01*
X193139142Y-82426952D01*
X193115333Y-82474571D01*
X193091523Y-82498380D01*
X193043904Y-82522190D01*
X192996285Y-82522190D01*
X192948666Y-82498380D01*
X192924857Y-82474571D01*
X192901047Y-82426952D01*
X192877238Y-82331714D01*
X192877238Y-82212666D01*
X192901047Y-82117428D01*
X192924857Y-82069809D01*
X192948666Y-82046000D01*
X192996285Y-82022190D01*
X190813571Y-81506190D02*
X190646904Y-81268095D01*
X190527857Y-81506190D02*
X190527857Y-81006190D01*
X190718333Y-81006190D01*
X190765952Y-81030000D01*
X190789761Y-81053809D01*
X190813571Y-81101428D01*
X190813571Y-81172857D01*
X190789761Y-81220476D01*
X190765952Y-81244285D01*
X190718333Y-81268095D01*
X190527857Y-81268095D01*
X191289761Y-81506190D02*
X191004047Y-81506190D01*
X191146904Y-81506190D02*
X191146904Y-81006190D01*
X191099285Y-81077619D01*
X191051666Y-81125238D01*
X191004047Y-81149047D01*
X191765952Y-81506190D02*
X191480238Y-81506190D01*
X191623095Y-81506190D02*
X191623095Y-81006190D01*
X191575476Y-81077619D01*
X191527857Y-81125238D01*
X191480238Y-81149047D01*
X191194571Y-84300190D02*
X191027904Y-84062095D01*
X190908857Y-84300190D02*
X190908857Y-83800190D01*
X191099333Y-83800190D01*
X191146952Y-83824000D01*
X191170761Y-83847809D01*
X191194571Y-83895428D01*
X191194571Y-83966857D01*
X191170761Y-84014476D01*
X191146952Y-84038285D01*
X191099333Y-84062095D01*
X190908857Y-84062095D01*
X191670761Y-84300190D02*
X191385047Y-84300190D01*
X191527904Y-84300190D02*
X191527904Y-83800190D01*
X191480285Y-83871619D01*
X191432666Y-83919238D01*
X191385047Y-83943047D01*
X191861238Y-83847809D02*
X191885047Y-83824000D01*
X191932666Y-83800190D01*
X192051714Y-83800190D01*
X192099333Y-83824000D01*
X192123142Y-83847809D01*
X192146952Y-83895428D01*
X192146952Y-83943047D01*
X192123142Y-84014476D01*
X191837428Y-84300190D01*
X192146952Y-84300190D01*
X191448571Y-80236190D02*
X191281904Y-79998095D01*
X191162857Y-80236190D02*
X191162857Y-79736190D01*
X191353333Y-79736190D01*
X191400952Y-79760000D01*
X191424761Y-79783809D01*
X191448571Y-79831428D01*
X191448571Y-79902857D01*
X191424761Y-79950476D01*
X191400952Y-79974285D01*
X191353333Y-79998095D01*
X191162857Y-79998095D01*
X191924761Y-80236190D02*
X191639047Y-80236190D01*
X191781904Y-80236190D02*
X191781904Y-79736190D01*
X191734285Y-79807619D01*
X191686666Y-79855238D01*
X191639047Y-79879047D01*
X192091428Y-79736190D02*
X192400952Y-79736190D01*
X192234285Y-79926666D01*
X192305714Y-79926666D01*
X192353333Y-79950476D01*
X192377142Y-79974285D01*
X192400952Y-80021904D01*
X192400952Y-80140952D01*
X192377142Y-80188571D01*
X192353333Y-80212380D01*
X192305714Y-80236190D01*
X192162857Y-80236190D01*
X192115238Y-80212380D01*
X192091428Y-80188571D01*
X181288571Y-77696190D02*
X181121904Y-77458095D01*
X181002857Y-77696190D02*
X181002857Y-77196190D01*
X181193333Y-77196190D01*
X181240952Y-77220000D01*
X181264761Y-77243809D01*
X181288571Y-77291428D01*
X181288571Y-77362857D01*
X181264761Y-77410476D01*
X181240952Y-77434285D01*
X181193333Y-77458095D01*
X181002857Y-77458095D01*
X181764761Y-77696190D02*
X181479047Y-77696190D01*
X181621904Y-77696190D02*
X181621904Y-77196190D01*
X181574285Y-77267619D01*
X181526666Y-77315238D01*
X181479047Y-77339047D01*
X182193333Y-77362857D02*
X182193333Y-77696190D01*
X182074285Y-77172380D02*
X181955238Y-77529523D01*
X182264761Y-77529523D01*
X191448571Y-83411190D02*
X191281904Y-83173095D01*
X191162857Y-83411190D02*
X191162857Y-82911190D01*
X191353333Y-82911190D01*
X191400952Y-82935000D01*
X191424761Y-82958809D01*
X191448571Y-83006428D01*
X191448571Y-83077857D01*
X191424761Y-83125476D01*
X191400952Y-83149285D01*
X191353333Y-83173095D01*
X191162857Y-83173095D01*
X191924761Y-83411190D02*
X191639047Y-83411190D01*
X191781904Y-83411190D02*
X191781904Y-82911190D01*
X191734285Y-82982619D01*
X191686666Y-83030238D01*
X191639047Y-83054047D01*
X192377142Y-82911190D02*
X192139047Y-82911190D01*
X192115238Y-83149285D01*
X192139047Y-83125476D01*
X192186666Y-83101666D01*
X192305714Y-83101666D01*
X192353333Y-83125476D01*
X192377142Y-83149285D01*
X192400952Y-83196904D01*
X192400952Y-83315952D01*
X192377142Y-83363571D01*
X192353333Y-83387380D01*
X192305714Y-83411190D01*
X192186666Y-83411190D01*
X192139047Y-83387380D01*
X192115238Y-83363571D01*
X174938571Y-77442190D02*
X174771904Y-77204095D01*
X174652857Y-77442190D02*
X174652857Y-76942190D01*
X174843333Y-76942190D01*
X174890952Y-76966000D01*
X174914761Y-76989809D01*
X174938571Y-77037428D01*
X174938571Y-77108857D01*
X174914761Y-77156476D01*
X174890952Y-77180285D01*
X174843333Y-77204095D01*
X174652857Y-77204095D01*
X175414761Y-77442190D02*
X175129047Y-77442190D01*
X175271904Y-77442190D02*
X175271904Y-76942190D01*
X175224285Y-77013619D01*
X175176666Y-77061238D01*
X175129047Y-77085047D01*
X175843333Y-76942190D02*
X175748095Y-76942190D01*
X175700476Y-76966000D01*
X175676666Y-76989809D01*
X175629047Y-77061238D01*
X175605238Y-77156476D01*
X175605238Y-77346952D01*
X175629047Y-77394571D01*
X175652857Y-77418380D01*
X175700476Y-77442190D01*
X175795714Y-77442190D01*
X175843333Y-77418380D01*
X175867142Y-77394571D01*
X175890952Y-77346952D01*
X175890952Y-77227904D01*
X175867142Y-77180285D01*
X175843333Y-77156476D01*
X175795714Y-77132666D01*
X175700476Y-77132666D01*
X175652857Y-77156476D01*
X175629047Y-77180285D01*
X175605238Y-77227904D01*
X183193571Y-77696190D02*
X183026904Y-77458095D01*
X182907857Y-77696190D02*
X182907857Y-77196190D01*
X183098333Y-77196190D01*
X183145952Y-77220000D01*
X183169761Y-77243809D01*
X183193571Y-77291428D01*
X183193571Y-77362857D01*
X183169761Y-77410476D01*
X183145952Y-77434285D01*
X183098333Y-77458095D01*
X182907857Y-77458095D01*
X183669761Y-77696190D02*
X183384047Y-77696190D01*
X183526904Y-77696190D02*
X183526904Y-77196190D01*
X183479285Y-77267619D01*
X183431666Y-77315238D01*
X183384047Y-77339047D01*
X183836428Y-77196190D02*
X184169761Y-77196190D01*
X183955476Y-77696190D01*
X172144571Y-79601190D02*
X171977904Y-79363095D01*
X171858857Y-79601190D02*
X171858857Y-79101190D01*
X172049333Y-79101190D01*
X172096952Y-79125000D01*
X172120761Y-79148809D01*
X172144571Y-79196428D01*
X172144571Y-79267857D01*
X172120761Y-79315476D01*
X172096952Y-79339285D01*
X172049333Y-79363095D01*
X171858857Y-79363095D01*
X172620761Y-79601190D02*
X172335047Y-79601190D01*
X172477904Y-79601190D02*
X172477904Y-79101190D01*
X172430285Y-79172619D01*
X172382666Y-79220238D01*
X172335047Y-79244047D01*
X172906476Y-79315476D02*
X172858857Y-79291666D01*
X172835047Y-79267857D01*
X172811238Y-79220238D01*
X172811238Y-79196428D01*
X172835047Y-79148809D01*
X172858857Y-79125000D01*
X172906476Y-79101190D01*
X173001714Y-79101190D01*
X173049333Y-79125000D01*
X173073142Y-79148809D01*
X173096952Y-79196428D01*
X173096952Y-79220238D01*
X173073142Y-79267857D01*
X173049333Y-79291666D01*
X173001714Y-79315476D01*
X172906476Y-79315476D01*
X172858857Y-79339285D01*
X172835047Y-79363095D01*
X172811238Y-79410714D01*
X172811238Y-79505952D01*
X172835047Y-79553571D01*
X172858857Y-79577380D01*
X172906476Y-79601190D01*
X173001714Y-79601190D01*
X173049333Y-79577380D01*
X173073142Y-79553571D01*
X173096952Y-79505952D01*
X173096952Y-79410714D01*
X173073142Y-79363095D01*
X173049333Y-79339285D01*
X173001714Y-79315476D01*
X151178571Y-78726190D02*
X151011904Y-78488095D01*
X150892857Y-78726190D02*
X150892857Y-78226190D01*
X151083333Y-78226190D01*
X151130952Y-78250000D01*
X151154761Y-78273809D01*
X151178571Y-78321428D01*
X151178571Y-78392857D01*
X151154761Y-78440476D01*
X151130952Y-78464285D01*
X151083333Y-78488095D01*
X150892857Y-78488095D01*
X151654761Y-78726190D02*
X151369047Y-78726190D01*
X151511904Y-78726190D02*
X151511904Y-78226190D01*
X151464285Y-78297619D01*
X151416666Y-78345238D01*
X151369047Y-78369047D01*
X151892857Y-78726190D02*
X151988095Y-78726190D01*
X152035714Y-78702380D01*
X152059523Y-78678571D01*
X152107142Y-78607142D01*
X152130952Y-78511904D01*
X152130952Y-78321428D01*
X152107142Y-78273809D01*
X152083333Y-78250000D01*
X152035714Y-78226190D01*
X151940476Y-78226190D01*
X151892857Y-78250000D01*
X151869047Y-78273809D01*
X151845238Y-78321428D01*
X151845238Y-78440476D01*
X151869047Y-78488095D01*
X151892857Y-78511904D01*
X151940476Y-78535714D01*
X152035714Y-78535714D01*
X152083333Y-78511904D01*
X152107142Y-78488095D01*
X152130952Y-78440476D01*
X145928571Y-84476190D02*
X145761904Y-84238095D01*
X145642857Y-84476190D02*
X145642857Y-83976190D01*
X145833333Y-83976190D01*
X145880952Y-84000000D01*
X145904761Y-84023809D01*
X145928571Y-84071428D01*
X145928571Y-84142857D01*
X145904761Y-84190476D01*
X145880952Y-84214285D01*
X145833333Y-84238095D01*
X145642857Y-84238095D01*
X146119047Y-84023809D02*
X146142857Y-84000000D01*
X146190476Y-83976190D01*
X146309523Y-83976190D01*
X146357142Y-84000000D01*
X146380952Y-84023809D01*
X146404761Y-84071428D01*
X146404761Y-84119047D01*
X146380952Y-84190476D01*
X146095238Y-84476190D01*
X146404761Y-84476190D01*
X146714285Y-83976190D02*
X146761904Y-83976190D01*
X146809523Y-84000000D01*
X146833333Y-84023809D01*
X146857142Y-84071428D01*
X146880952Y-84166666D01*
X146880952Y-84285714D01*
X146857142Y-84380952D01*
X146833333Y-84428571D01*
X146809523Y-84452380D01*
X146761904Y-84476190D01*
X146714285Y-84476190D01*
X146666666Y-84452380D01*
X146642857Y-84428571D01*
X146619047Y-84380952D01*
X146595238Y-84285714D01*
X146595238Y-84166666D01*
X146619047Y-84071428D01*
X146642857Y-84023809D01*
X146666666Y-84000000D01*
X146714285Y-83976190D01*
X153678571Y-80726190D02*
X153511904Y-80488095D01*
X153392857Y-80726190D02*
X153392857Y-80226190D01*
X153583333Y-80226190D01*
X153630952Y-80250000D01*
X153654761Y-80273809D01*
X153678571Y-80321428D01*
X153678571Y-80392857D01*
X153654761Y-80440476D01*
X153630952Y-80464285D01*
X153583333Y-80488095D01*
X153392857Y-80488095D01*
X153869047Y-80273809D02*
X153892857Y-80250000D01*
X153940476Y-80226190D01*
X154059523Y-80226190D01*
X154107142Y-80250000D01*
X154130952Y-80273809D01*
X154154761Y-80321428D01*
X154154761Y-80369047D01*
X154130952Y-80440476D01*
X153845238Y-80726190D01*
X154154761Y-80726190D01*
X154630952Y-80726190D02*
X154345238Y-80726190D01*
X154488095Y-80726190D02*
X154488095Y-80226190D01*
X154440476Y-80297619D01*
X154392857Y-80345238D01*
X154345238Y-80369047D01*
X146178571Y-82476190D02*
X146011904Y-82238095D01*
X145892857Y-82476190D02*
X145892857Y-81976190D01*
X146083333Y-81976190D01*
X146130952Y-82000000D01*
X146154761Y-82023809D01*
X146178571Y-82071428D01*
X146178571Y-82142857D01*
X146154761Y-82190476D01*
X146130952Y-82214285D01*
X146083333Y-82238095D01*
X145892857Y-82238095D01*
X146369047Y-82023809D02*
X146392857Y-82000000D01*
X146440476Y-81976190D01*
X146559523Y-81976190D01*
X146607142Y-82000000D01*
X146630952Y-82023809D01*
X146654761Y-82071428D01*
X146654761Y-82119047D01*
X146630952Y-82190476D01*
X146345238Y-82476190D01*
X146654761Y-82476190D01*
X146845238Y-82023809D02*
X146869047Y-82000000D01*
X146916666Y-81976190D01*
X147035714Y-81976190D01*
X147083333Y-82000000D01*
X147107142Y-82023809D01*
X147130952Y-82071428D01*
X147130952Y-82119047D01*
X147107142Y-82190476D01*
X146821428Y-82476190D01*
X147130952Y-82476190D01*
X148678571Y-80476190D02*
X148511904Y-80238095D01*
X148392857Y-80476190D02*
X148392857Y-79976190D01*
X148583333Y-79976190D01*
X148630952Y-80000000D01*
X148654761Y-80023809D01*
X148678571Y-80071428D01*
X148678571Y-80142857D01*
X148654761Y-80190476D01*
X148630952Y-80214285D01*
X148583333Y-80238095D01*
X148392857Y-80238095D01*
X148869047Y-80023809D02*
X148892857Y-80000000D01*
X148940476Y-79976190D01*
X149059523Y-79976190D01*
X149107142Y-80000000D01*
X149130952Y-80023809D01*
X149154761Y-80071428D01*
X149154761Y-80119047D01*
X149130952Y-80190476D01*
X148845238Y-80476190D01*
X149154761Y-80476190D01*
X149321428Y-79976190D02*
X149630952Y-79976190D01*
X149464285Y-80166666D01*
X149535714Y-80166666D01*
X149583333Y-80190476D01*
X149607142Y-80214285D01*
X149630952Y-80261904D01*
X149630952Y-80380952D01*
X149607142Y-80428571D01*
X149583333Y-80452380D01*
X149535714Y-80476190D01*
X149392857Y-80476190D01*
X149345238Y-80452380D01*
X149321428Y-80428571D01*
X148428571Y-82476190D02*
X148261904Y-82238095D01*
X148142857Y-82476190D02*
X148142857Y-81976190D01*
X148333333Y-81976190D01*
X148380952Y-82000000D01*
X148404761Y-82023809D01*
X148428571Y-82071428D01*
X148428571Y-82142857D01*
X148404761Y-82190476D01*
X148380952Y-82214285D01*
X148333333Y-82238095D01*
X148142857Y-82238095D01*
X148619047Y-82023809D02*
X148642857Y-82000000D01*
X148690476Y-81976190D01*
X148809523Y-81976190D01*
X148857142Y-82000000D01*
X148880952Y-82023809D01*
X148904761Y-82071428D01*
X148904761Y-82119047D01*
X148880952Y-82190476D01*
X148595238Y-82476190D01*
X148904761Y-82476190D01*
X149333333Y-82142857D02*
X149333333Y-82476190D01*
X149214285Y-81952380D02*
X149095238Y-82309523D01*
X149404761Y-82309523D01*
X150928571Y-76976190D02*
X150761904Y-76738095D01*
X150642857Y-76976190D02*
X150642857Y-76476190D01*
X150833333Y-76476190D01*
X150880952Y-76500000D01*
X150904761Y-76523809D01*
X150928571Y-76571428D01*
X150928571Y-76642857D01*
X150904761Y-76690476D01*
X150880952Y-76714285D01*
X150833333Y-76738095D01*
X150642857Y-76738095D01*
X151119047Y-76523809D02*
X151142857Y-76500000D01*
X151190476Y-76476190D01*
X151309523Y-76476190D01*
X151357142Y-76500000D01*
X151380952Y-76523809D01*
X151404761Y-76571428D01*
X151404761Y-76619047D01*
X151380952Y-76690476D01*
X151095238Y-76976190D01*
X151404761Y-76976190D01*
X151857142Y-76476190D02*
X151619047Y-76476190D01*
X151595238Y-76714285D01*
X151619047Y-76690476D01*
X151666666Y-76666666D01*
X151785714Y-76666666D01*
X151833333Y-76690476D01*
X151857142Y-76714285D01*
X151880952Y-76761904D01*
X151880952Y-76880952D01*
X151857142Y-76928571D01*
X151833333Y-76952380D01*
X151785714Y-76976190D01*
X151666666Y-76976190D01*
X151619047Y-76952380D01*
X151595238Y-76928571D01*
X148678571Y-84476190D02*
X148511904Y-84238095D01*
X148392857Y-84476190D02*
X148392857Y-83976190D01*
X148583333Y-83976190D01*
X148630952Y-84000000D01*
X148654761Y-84023809D01*
X148678571Y-84071428D01*
X148678571Y-84142857D01*
X148654761Y-84190476D01*
X148630952Y-84214285D01*
X148583333Y-84238095D01*
X148392857Y-84238095D01*
X148869047Y-84023809D02*
X148892857Y-84000000D01*
X148940476Y-83976190D01*
X149059523Y-83976190D01*
X149107142Y-84000000D01*
X149130952Y-84023809D01*
X149154761Y-84071428D01*
X149154761Y-84119047D01*
X149130952Y-84190476D01*
X148845238Y-84476190D01*
X149154761Y-84476190D01*
X149583333Y-83976190D02*
X149488095Y-83976190D01*
X149440476Y-84000000D01*
X149416666Y-84023809D01*
X149369047Y-84095238D01*
X149345238Y-84190476D01*
X149345238Y-84380952D01*
X149369047Y-84428571D01*
X149392857Y-84452380D01*
X149440476Y-84476190D01*
X149535714Y-84476190D01*
X149583333Y-84452380D01*
X149607142Y-84428571D01*
X149630952Y-84380952D01*
X149630952Y-84261904D01*
X149607142Y-84214285D01*
X149583333Y-84190476D01*
X149535714Y-84166666D01*
X149440476Y-84166666D01*
X149392857Y-84190476D01*
X149369047Y-84214285D01*
X149345238Y-84261904D01*
X147178571Y-78726190D02*
X147011904Y-78488095D01*
X146892857Y-78726190D02*
X146892857Y-78226190D01*
X147083333Y-78226190D01*
X147130952Y-78250000D01*
X147154761Y-78273809D01*
X147178571Y-78321428D01*
X147178571Y-78392857D01*
X147154761Y-78440476D01*
X147130952Y-78464285D01*
X147083333Y-78488095D01*
X146892857Y-78488095D01*
X147369047Y-78273809D02*
X147392857Y-78250000D01*
X147440476Y-78226190D01*
X147559523Y-78226190D01*
X147607142Y-78250000D01*
X147630952Y-78273809D01*
X147654761Y-78321428D01*
X147654761Y-78369047D01*
X147630952Y-78440476D01*
X147345238Y-78726190D01*
X147654761Y-78726190D01*
X147821428Y-78226190D02*
X148154761Y-78226190D01*
X147940476Y-78726190D01*
X115786190Y-81541428D02*
X115548095Y-81708095D01*
X115786190Y-81827142D02*
X115286190Y-81827142D01*
X115286190Y-81636666D01*
X115310000Y-81589047D01*
X115333809Y-81565238D01*
X115381428Y-81541428D01*
X115452857Y-81541428D01*
X115500476Y-81565238D01*
X115524285Y-81589047D01*
X115548095Y-81636666D01*
X115548095Y-81827142D01*
X115333809Y-81350952D02*
X115310000Y-81327142D01*
X115286190Y-81279523D01*
X115286190Y-81160476D01*
X115310000Y-81112857D01*
X115333809Y-81089047D01*
X115381428Y-81065238D01*
X115429047Y-81065238D01*
X115500476Y-81089047D01*
X115786190Y-81374761D01*
X115786190Y-81065238D01*
X115500476Y-80779523D02*
X115476666Y-80827142D01*
X115452857Y-80850952D01*
X115405238Y-80874761D01*
X115381428Y-80874761D01*
X115333809Y-80850952D01*
X115310000Y-80827142D01*
X115286190Y-80779523D01*
X115286190Y-80684285D01*
X115310000Y-80636666D01*
X115333809Y-80612857D01*
X115381428Y-80589047D01*
X115405238Y-80589047D01*
X115452857Y-80612857D01*
X115476666Y-80636666D01*
X115500476Y-80684285D01*
X115500476Y-80779523D01*
X115524285Y-80827142D01*
X115548095Y-80850952D01*
X115595714Y-80874761D01*
X115690952Y-80874761D01*
X115738571Y-80850952D01*
X115762380Y-80827142D01*
X115786190Y-80779523D01*
X115786190Y-80684285D01*
X115762380Y-80636666D01*
X115738571Y-80612857D01*
X115690952Y-80589047D01*
X115595714Y-80589047D01*
X115548095Y-80612857D01*
X115524285Y-80636666D01*
X115500476Y-80684285D01*
X153678571Y-84476190D02*
X153511904Y-84238095D01*
X153392857Y-84476190D02*
X153392857Y-83976190D01*
X153583333Y-83976190D01*
X153630952Y-84000000D01*
X153654761Y-84023809D01*
X153678571Y-84071428D01*
X153678571Y-84142857D01*
X153654761Y-84190476D01*
X153630952Y-84214285D01*
X153583333Y-84238095D01*
X153392857Y-84238095D01*
X153869047Y-84023809D02*
X153892857Y-84000000D01*
X153940476Y-83976190D01*
X154059523Y-83976190D01*
X154107142Y-84000000D01*
X154130952Y-84023809D01*
X154154761Y-84071428D01*
X154154761Y-84119047D01*
X154130952Y-84190476D01*
X153845238Y-84476190D01*
X154154761Y-84476190D01*
X154392857Y-84476190D02*
X154488095Y-84476190D01*
X154535714Y-84452380D01*
X154559523Y-84428571D01*
X154607142Y-84357142D01*
X154630952Y-84261904D01*
X154630952Y-84071428D01*
X154607142Y-84023809D01*
X154583333Y-84000000D01*
X154535714Y-83976190D01*
X154440476Y-83976190D01*
X154392857Y-84000000D01*
X154369047Y-84023809D01*
X154345238Y-84071428D01*
X154345238Y-84190476D01*
X154369047Y-84238095D01*
X154392857Y-84261904D01*
X154440476Y-84285714D01*
X154535714Y-84285714D01*
X154583333Y-84261904D01*
X154607142Y-84238095D01*
X154630952Y-84190476D01*
X125678571Y-83726190D02*
X125511904Y-83488095D01*
X125392857Y-83726190D02*
X125392857Y-83226190D01*
X125583333Y-83226190D01*
X125630952Y-83250000D01*
X125654761Y-83273809D01*
X125678571Y-83321428D01*
X125678571Y-83392857D01*
X125654761Y-83440476D01*
X125630952Y-83464285D01*
X125583333Y-83488095D01*
X125392857Y-83488095D01*
X125845238Y-83226190D02*
X126154761Y-83226190D01*
X125988095Y-83416666D01*
X126059523Y-83416666D01*
X126107142Y-83440476D01*
X126130952Y-83464285D01*
X126154761Y-83511904D01*
X126154761Y-83630952D01*
X126130952Y-83678571D01*
X126107142Y-83702380D01*
X126059523Y-83726190D01*
X125916666Y-83726190D01*
X125869047Y-83702380D01*
X125845238Y-83678571D01*
X126464285Y-83226190D02*
X126511904Y-83226190D01*
X126559523Y-83250000D01*
X126583333Y-83273809D01*
X126607142Y-83321428D01*
X126630952Y-83416666D01*
X126630952Y-83535714D01*
X126607142Y-83630952D01*
X126583333Y-83678571D01*
X126559523Y-83702380D01*
X126511904Y-83726190D01*
X126464285Y-83726190D01*
X126416666Y-83702380D01*
X126392857Y-83678571D01*
X126369047Y-83630952D01*
X126345238Y-83535714D01*
X126345238Y-83416666D01*
X126369047Y-83321428D01*
X126392857Y-83273809D01*
X126416666Y-83250000D01*
X126464285Y-83226190D01*
X130678571Y-80476190D02*
X130511904Y-80238095D01*
X130392857Y-80476190D02*
X130392857Y-79976190D01*
X130583333Y-79976190D01*
X130630952Y-80000000D01*
X130654761Y-80023809D01*
X130678571Y-80071428D01*
X130678571Y-80142857D01*
X130654761Y-80190476D01*
X130630952Y-80214285D01*
X130583333Y-80238095D01*
X130392857Y-80238095D01*
X130845238Y-79976190D02*
X131154761Y-79976190D01*
X130988095Y-80166666D01*
X131059523Y-80166666D01*
X131107142Y-80190476D01*
X131130952Y-80214285D01*
X131154761Y-80261904D01*
X131154761Y-80380952D01*
X131130952Y-80428571D01*
X131107142Y-80452380D01*
X131059523Y-80476190D01*
X130916666Y-80476190D01*
X130869047Y-80452380D01*
X130845238Y-80428571D01*
X131630952Y-80476190D02*
X131345238Y-80476190D01*
X131488095Y-80476190D02*
X131488095Y-79976190D01*
X131440476Y-80047619D01*
X131392857Y-80095238D01*
X131345238Y-80119047D01*
X131178571Y-77226190D02*
X131011904Y-76988095D01*
X130892857Y-77226190D02*
X130892857Y-76726190D01*
X131083333Y-76726190D01*
X131130952Y-76750000D01*
X131154761Y-76773809D01*
X131178571Y-76821428D01*
X131178571Y-76892857D01*
X131154761Y-76940476D01*
X131130952Y-76964285D01*
X131083333Y-76988095D01*
X130892857Y-76988095D01*
X131345238Y-76726190D02*
X131654761Y-76726190D01*
X131488095Y-76916666D01*
X131559523Y-76916666D01*
X131607142Y-76940476D01*
X131630952Y-76964285D01*
X131654761Y-77011904D01*
X131654761Y-77130952D01*
X131630952Y-77178571D01*
X131607142Y-77202380D01*
X131559523Y-77226190D01*
X131416666Y-77226190D01*
X131369047Y-77202380D01*
X131345238Y-77178571D01*
X131845238Y-76773809D02*
X131869047Y-76750000D01*
X131916666Y-76726190D01*
X132035714Y-76726190D01*
X132083333Y-76750000D01*
X132107142Y-76773809D01*
X132130952Y-76821428D01*
X132130952Y-76869047D01*
X132107142Y-76940476D01*
X131821428Y-77226190D01*
X132130952Y-77226190D01*
X149678571Y-77976190D02*
X149511904Y-77738095D01*
X149392857Y-77976190D02*
X149392857Y-77476190D01*
X149583333Y-77476190D01*
X149630952Y-77500000D01*
X149654761Y-77523809D01*
X149678571Y-77571428D01*
X149678571Y-77642857D01*
X149654761Y-77690476D01*
X149630952Y-77714285D01*
X149583333Y-77738095D01*
X149392857Y-77738095D01*
X149845238Y-77476190D02*
X150154761Y-77476190D01*
X149988095Y-77666666D01*
X150059523Y-77666666D01*
X150107142Y-77690476D01*
X150130952Y-77714285D01*
X150154761Y-77761904D01*
X150154761Y-77880952D01*
X150130952Y-77928571D01*
X150107142Y-77952380D01*
X150059523Y-77976190D01*
X149916666Y-77976190D01*
X149869047Y-77952380D01*
X149845238Y-77928571D01*
X150321428Y-77476190D02*
X150630952Y-77476190D01*
X150464285Y-77666666D01*
X150535714Y-77666666D01*
X150583333Y-77690476D01*
X150607142Y-77714285D01*
X150630952Y-77761904D01*
X150630952Y-77880952D01*
X150607142Y-77928571D01*
X150583333Y-77952380D01*
X150535714Y-77976190D01*
X150392857Y-77976190D01*
X150345238Y-77952380D01*
X150321428Y-77928571D01*
X129178571Y-85726190D02*
X129011904Y-85488095D01*
X128892857Y-85726190D02*
X128892857Y-85226190D01*
X129083333Y-85226190D01*
X129130952Y-85250000D01*
X129154761Y-85273809D01*
X129178571Y-85321428D01*
X129178571Y-85392857D01*
X129154761Y-85440476D01*
X129130952Y-85464285D01*
X129083333Y-85488095D01*
X128892857Y-85488095D01*
X129345238Y-85226190D02*
X129654761Y-85226190D01*
X129488095Y-85416666D01*
X129559523Y-85416666D01*
X129607142Y-85440476D01*
X129630952Y-85464285D01*
X129654761Y-85511904D01*
X129654761Y-85630952D01*
X129630952Y-85678571D01*
X129607142Y-85702380D01*
X129559523Y-85726190D01*
X129416666Y-85726190D01*
X129369047Y-85702380D01*
X129345238Y-85678571D01*
X130083333Y-85392857D02*
X130083333Y-85726190D01*
X129964285Y-85202380D02*
X129845238Y-85559523D01*
X130154761Y-85559523D01*
X125154571Y-81252190D02*
X124987904Y-81014095D01*
X124868857Y-81252190D02*
X124868857Y-80752190D01*
X125059333Y-80752190D01*
X125106952Y-80776000D01*
X125130761Y-80799809D01*
X125154571Y-80847428D01*
X125154571Y-80918857D01*
X125130761Y-80966476D01*
X125106952Y-80990285D01*
X125059333Y-81014095D01*
X124868857Y-81014095D01*
X125321238Y-80752190D02*
X125630761Y-80752190D01*
X125464095Y-80942666D01*
X125535523Y-80942666D01*
X125583142Y-80966476D01*
X125606952Y-80990285D01*
X125630761Y-81037904D01*
X125630761Y-81156952D01*
X125606952Y-81204571D01*
X125583142Y-81228380D01*
X125535523Y-81252190D01*
X125392666Y-81252190D01*
X125345047Y-81228380D01*
X125321238Y-81204571D01*
X126083142Y-80752190D02*
X125845047Y-80752190D01*
X125821238Y-80990285D01*
X125845047Y-80966476D01*
X125892666Y-80942666D01*
X126011714Y-80942666D01*
X126059333Y-80966476D01*
X126083142Y-80990285D01*
X126106952Y-81037904D01*
X126106952Y-81156952D01*
X126083142Y-81204571D01*
X126059333Y-81228380D01*
X126011714Y-81252190D01*
X125892666Y-81252190D01*
X125845047Y-81228380D01*
X125821238Y-81204571D01*
X125878571Y-77151190D02*
X125711904Y-76913095D01*
X125592857Y-77151190D02*
X125592857Y-76651190D01*
X125783333Y-76651190D01*
X125830952Y-76675000D01*
X125854761Y-76698809D01*
X125878571Y-76746428D01*
X125878571Y-76817857D01*
X125854761Y-76865476D01*
X125830952Y-76889285D01*
X125783333Y-76913095D01*
X125592857Y-76913095D01*
X126045238Y-76651190D02*
X126354761Y-76651190D01*
X126188095Y-76841666D01*
X126259523Y-76841666D01*
X126307142Y-76865476D01*
X126330952Y-76889285D01*
X126354761Y-76936904D01*
X126354761Y-77055952D01*
X126330952Y-77103571D01*
X126307142Y-77127380D01*
X126259523Y-77151190D01*
X126116666Y-77151190D01*
X126069047Y-77127380D01*
X126045238Y-77103571D01*
X126783333Y-76651190D02*
X126688095Y-76651190D01*
X126640476Y-76675000D01*
X126616666Y-76698809D01*
X126569047Y-76770238D01*
X126545238Y-76865476D01*
X126545238Y-77055952D01*
X126569047Y-77103571D01*
X126592857Y-77127380D01*
X126640476Y-77151190D01*
X126735714Y-77151190D01*
X126783333Y-77127380D01*
X126807142Y-77103571D01*
X126830952Y-77055952D01*
X126830952Y-76936904D01*
X126807142Y-76889285D01*
X126783333Y-76865476D01*
X126735714Y-76841666D01*
X126640476Y-76841666D01*
X126592857Y-76865476D01*
X126569047Y-76889285D01*
X126545238Y-76936904D01*
X175326190Y-82295952D02*
X175730952Y-82295952D01*
X175778571Y-82272142D01*
X175802380Y-82248333D01*
X175826190Y-82200714D01*
X175826190Y-82105476D01*
X175802380Y-82057857D01*
X175778571Y-82034047D01*
X175730952Y-82010238D01*
X175326190Y-82010238D01*
X175826190Y-81510238D02*
X175826190Y-81795952D01*
X175826190Y-81653095D02*
X175326190Y-81653095D01*
X175397619Y-81700714D01*
X175445238Y-81748333D01*
X175469047Y-81795952D01*
X130869047Y-80976190D02*
X130869047Y-81380952D01*
X130892857Y-81428571D01*
X130916666Y-81452380D01*
X130964285Y-81476190D01*
X131059523Y-81476190D01*
X131107142Y-81452380D01*
X131130952Y-81428571D01*
X131154761Y-81380952D01*
X131154761Y-80976190D01*
X131369047Y-81023809D02*
X131392857Y-81000000D01*
X131440476Y-80976190D01*
X131559523Y-80976190D01*
X131607142Y-81000000D01*
X131630952Y-81023809D01*
X131654761Y-81071428D01*
X131654761Y-81119047D01*
X131630952Y-81190476D01*
X131345238Y-81476190D01*
X131654761Y-81476190D01*
D12*
X113813333Y-81732380D02*
X113337142Y-81732380D01*
X113337142Y-80732380D01*
X114670476Y-81732380D02*
X114099047Y-81732380D01*
X114384761Y-81732380D02*
X114384761Y-80732380D01*
X114289523Y-80875238D01*
X114194285Y-80970476D01*
X114099047Y-81018095D01*
X110145714Y-81466666D02*
X110621904Y-81466666D01*
X110050476Y-81752380D02*
X110383809Y-80752380D01*
X110717142Y-81752380D01*
X111574285Y-81752380D02*
X111002857Y-81752380D01*
X111288571Y-81752380D02*
X111288571Y-80752380D01*
X111193333Y-80895238D01*
X111098095Y-80990476D01*
X111002857Y-81038095D01*
X103620476Y-80752380D02*
X103953809Y-81752380D01*
X104287142Y-80752380D01*
X105144285Y-81752380D02*
X104572857Y-81752380D01*
X104858571Y-81752380D02*
X104858571Y-80752380D01*
X104763333Y-80895238D01*
X104668095Y-80990476D01*
X104572857Y-81038095D01*
X107405714Y-80780000D02*
X107310476Y-80732380D01*
X107167619Y-80732380D01*
X107024761Y-80780000D01*
X106929523Y-80875238D01*
X106881904Y-80970476D01*
X106834285Y-81160952D01*
X106834285Y-81303809D01*
X106881904Y-81494285D01*
X106929523Y-81589523D01*
X107024761Y-81684761D01*
X107167619Y-81732380D01*
X107262857Y-81732380D01*
X107405714Y-81684761D01*
X107453333Y-81637142D01*
X107453333Y-81303809D01*
X107262857Y-81303809D01*
X108405714Y-81732380D02*
X107834285Y-81732380D01*
X108120000Y-81732380D02*
X108120000Y-80732380D01*
X108024761Y-80875238D01*
X107929523Y-80970476D01*
X107834285Y-81018095D01*
D13*
X155205952Y-77666190D02*
X155205952Y-77166190D01*
X155325000Y-77166190D01*
X155396428Y-77190000D01*
X155444047Y-77237619D01*
X155467857Y-77285238D01*
X155491666Y-77380476D01*
X155491666Y-77451904D01*
X155467857Y-77547142D01*
X155444047Y-77594761D01*
X155396428Y-77642380D01*
X155325000Y-77666190D01*
X155205952Y-77666190D01*
X155658333Y-77166190D02*
X155967857Y-77166190D01*
X155801190Y-77356666D01*
X155872619Y-77356666D01*
X155920238Y-77380476D01*
X155944047Y-77404285D01*
X155967857Y-77451904D01*
X155967857Y-77570952D01*
X155944047Y-77618571D01*
X155920238Y-77642380D01*
X155872619Y-77666190D01*
X155729761Y-77666190D01*
X155682142Y-77642380D01*
X155658333Y-77618571D01*
X158380952Y-77696190D02*
X158380952Y-77196190D01*
X158500000Y-77196190D01*
X158571428Y-77220000D01*
X158619047Y-77267619D01*
X158642857Y-77315238D01*
X158666666Y-77410476D01*
X158666666Y-77481904D01*
X158642857Y-77577142D01*
X158619047Y-77624761D01*
X158571428Y-77672380D01*
X158500000Y-77696190D01*
X158380952Y-77696190D01*
X159095238Y-77362857D02*
X159095238Y-77696190D01*
X158976190Y-77172380D02*
X158857142Y-77529523D01*
X159166666Y-77529523D01*
X119645952Y-79571190D02*
X119645952Y-79071190D01*
X119765000Y-79071190D01*
X119836428Y-79095000D01*
X119884047Y-79142619D01*
X119907857Y-79190238D01*
X119931666Y-79285476D01*
X119931666Y-79356904D01*
X119907857Y-79452142D01*
X119884047Y-79499761D01*
X119836428Y-79547380D01*
X119765000Y-79571190D01*
X119645952Y-79571190D01*
X120384047Y-79071190D02*
X120145952Y-79071190D01*
X120122142Y-79309285D01*
X120145952Y-79285476D01*
X120193571Y-79261666D01*
X120312619Y-79261666D01*
X120360238Y-79285476D01*
X120384047Y-79309285D01*
X120407857Y-79356904D01*
X120407857Y-79475952D01*
X120384047Y-79523571D01*
X120360238Y-79547380D01*
X120312619Y-79571190D01*
X120193571Y-79571190D01*
X120145952Y-79547380D01*
X120122142Y-79523571D01*
X118165952Y-77291190D02*
X118165952Y-76791190D01*
X118285000Y-76791190D01*
X118356428Y-76815000D01*
X118404047Y-76862619D01*
X118427857Y-76910238D01*
X118451666Y-77005476D01*
X118451666Y-77076904D01*
X118427857Y-77172142D01*
X118404047Y-77219761D01*
X118356428Y-77267380D01*
X118285000Y-77291190D01*
X118165952Y-77291190D01*
X118880238Y-76791190D02*
X118785000Y-76791190D01*
X118737380Y-76815000D01*
X118713571Y-76838809D01*
X118665952Y-76910238D01*
X118642142Y-77005476D01*
X118642142Y-77195952D01*
X118665952Y-77243571D01*
X118689761Y-77267380D01*
X118737380Y-77291190D01*
X118832619Y-77291190D01*
X118880238Y-77267380D01*
X118904047Y-77243571D01*
X118927857Y-77195952D01*
X118927857Y-77076904D01*
X118904047Y-77029285D01*
X118880238Y-77005476D01*
X118832619Y-76981666D01*
X118737380Y-76981666D01*
X118689761Y-77005476D01*
X118665952Y-77029285D01*
X118642142Y-77076904D01*
X124130952Y-77031190D02*
X124130952Y-76531190D01*
X124250000Y-76531190D01*
X124321428Y-76555000D01*
X124369047Y-76602619D01*
X124392857Y-76650238D01*
X124416666Y-76745476D01*
X124416666Y-76816904D01*
X124392857Y-76912142D01*
X124369047Y-76959761D01*
X124321428Y-77007380D01*
X124250000Y-77031190D01*
X124130952Y-77031190D01*
X124583333Y-76531190D02*
X124916666Y-76531190D01*
X124702380Y-77031190D01*
X122820952Y-79571190D02*
X122820952Y-79071190D01*
X122940000Y-79071190D01*
X123011428Y-79095000D01*
X123059047Y-79142619D01*
X123082857Y-79190238D01*
X123106666Y-79285476D01*
X123106666Y-79356904D01*
X123082857Y-79452142D01*
X123059047Y-79499761D01*
X123011428Y-79547380D01*
X122940000Y-79571190D01*
X122820952Y-79571190D01*
X123392380Y-79285476D02*
X123344761Y-79261666D01*
X123320952Y-79237857D01*
X123297142Y-79190238D01*
X123297142Y-79166428D01*
X123320952Y-79118809D01*
X123344761Y-79095000D01*
X123392380Y-79071190D01*
X123487619Y-79071190D01*
X123535238Y-79095000D01*
X123559047Y-79118809D01*
X123582857Y-79166428D01*
X123582857Y-79190238D01*
X123559047Y-79237857D01*
X123535238Y-79261666D01*
X123487619Y-79285476D01*
X123392380Y-79285476D01*
X123344761Y-79309285D01*
X123320952Y-79333095D01*
X123297142Y-79380714D01*
X123297142Y-79475952D01*
X123320952Y-79523571D01*
X123344761Y-79547380D01*
X123392380Y-79571190D01*
X123487619Y-79571190D01*
X123535238Y-79547380D01*
X123559047Y-79523571D01*
X123582857Y-79475952D01*
X123582857Y-79380714D01*
X123559047Y-79333095D01*
X123535238Y-79309285D01*
X123487619Y-79285476D01*
X170894380Y-77997809D02*
X170846761Y-77974000D01*
X170799142Y-77926380D01*
X170727714Y-77854952D01*
X170680095Y-77831142D01*
X170632476Y-77831142D01*
X170656285Y-77950190D02*
X170608666Y-77926380D01*
X170561047Y-77878761D01*
X170537238Y-77783523D01*
X170537238Y-77616857D01*
X170561047Y-77521619D01*
X170608666Y-77474000D01*
X170656285Y-77450190D01*
X170751523Y-77450190D01*
X170799142Y-77474000D01*
X170846761Y-77521619D01*
X170870571Y-77616857D01*
X170870571Y-77783523D01*
X170846761Y-77878761D01*
X170799142Y-77926380D01*
X170751523Y-77950190D01*
X170656285Y-77950190D01*
X171346761Y-77950190D02*
X171061047Y-77950190D01*
X171203904Y-77950190D02*
X171203904Y-77450190D01*
X171156285Y-77521619D01*
X171108666Y-77569238D01*
X171061047Y-77593047D01*
X144083333Y-83726190D02*
X144083333Y-84083333D01*
X144059523Y-84154761D01*
X144011904Y-84202380D01*
X143940476Y-84226190D01*
X143892857Y-84226190D01*
X144321428Y-84226190D02*
X144321428Y-83726190D01*
X144511904Y-83726190D01*
X144559523Y-83750000D01*
X144583333Y-83773809D01*
X144607142Y-83821428D01*
X144607142Y-83892857D01*
X144583333Y-83940476D01*
X144559523Y-83964285D01*
X144511904Y-83988095D01*
X144321428Y-83988095D01*
X145083333Y-84226190D02*
X144797619Y-84226190D01*
X144940476Y-84226190D02*
X144940476Y-83726190D01*
X144892857Y-83797619D01*
X144845238Y-83845238D01*
X144797619Y-83869047D01*
X144083333Y-81226190D02*
X144083333Y-81583333D01*
X144059523Y-81654761D01*
X144011904Y-81702380D01*
X143940476Y-81726190D01*
X143892857Y-81726190D01*
X144321428Y-81726190D02*
X144321428Y-81226190D01*
X144511904Y-81226190D01*
X144559523Y-81250000D01*
X144583333Y-81273809D01*
X144607142Y-81321428D01*
X144607142Y-81392857D01*
X144583333Y-81440476D01*
X144559523Y-81464285D01*
X144511904Y-81488095D01*
X144321428Y-81488095D01*
X144797619Y-81273809D02*
X144821428Y-81250000D01*
X144869047Y-81226190D01*
X144988095Y-81226190D01*
X145035714Y-81250000D01*
X145059523Y-81273809D01*
X145083333Y-81321428D01*
X145083333Y-81369047D01*
X145059523Y-81440476D01*
X144773809Y-81726190D01*
X145083333Y-81726190D01*
X144083333Y-78726190D02*
X144083333Y-79083333D01*
X144059523Y-79154761D01*
X144011904Y-79202380D01*
X143940476Y-79226190D01*
X143892857Y-79226190D01*
X144321428Y-79226190D02*
X144321428Y-78726190D01*
X144511904Y-78726190D01*
X144559523Y-78750000D01*
X144583333Y-78773809D01*
X144607142Y-78821428D01*
X144607142Y-78892857D01*
X144583333Y-78940476D01*
X144559523Y-78964285D01*
X144511904Y-78988095D01*
X144321428Y-78988095D01*
X144773809Y-78726190D02*
X145083333Y-78726190D01*
X144916666Y-78916666D01*
X144988095Y-78916666D01*
X145035714Y-78940476D01*
X145059523Y-78964285D01*
X145083333Y-79011904D01*
X145083333Y-79130952D01*
X145059523Y-79178571D01*
X145035714Y-79202380D01*
X144988095Y-79226190D01*
X144845238Y-79226190D01*
X144797619Y-79202380D01*
X144773809Y-79178571D01*
X160672380Y-83346190D02*
X160505714Y-83108095D01*
X160386666Y-83346190D02*
X160386666Y-82846190D01*
X160577142Y-82846190D01*
X160624761Y-82870000D01*
X160648571Y-82893809D01*
X160672380Y-82941428D01*
X160672380Y-83012857D01*
X160648571Y-83060476D01*
X160624761Y-83084285D01*
X160577142Y-83108095D01*
X160386666Y-83108095D01*
X160815238Y-82846190D02*
X160981904Y-83346190D01*
X161148571Y-82846190D01*
X161577142Y-83346190D02*
X161291428Y-83346190D01*
X161434285Y-83346190D02*
X161434285Y-82846190D01*
X161386666Y-82917619D01*
X161339047Y-82965238D01*
X161291428Y-82989047D01*
X125202380Y-85476190D02*
X125035714Y-85238095D01*
X124916666Y-85476190D02*
X124916666Y-84976190D01*
X125107142Y-84976190D01*
X125154761Y-85000000D01*
X125178571Y-85023809D01*
X125202380Y-85071428D01*
X125202380Y-85142857D01*
X125178571Y-85190476D01*
X125154761Y-85214285D01*
X125107142Y-85238095D01*
X124916666Y-85238095D01*
X125345238Y-84976190D02*
X125511904Y-85476190D01*
X125678571Y-84976190D01*
X125821428Y-85023809D02*
X125845238Y-85000000D01*
X125892857Y-84976190D01*
X126011904Y-84976190D01*
X126059523Y-85000000D01*
X126083333Y-85023809D01*
X126107142Y-85071428D01*
X126107142Y-85119047D01*
X126083333Y-85190476D01*
X125797619Y-85476190D01*
X126107142Y-85476190D01*
D12*
D13*
X117843333Y-85216190D02*
X117843333Y-85573333D01*
X117819523Y-85644761D01*
X117771904Y-85692380D01*
X117700476Y-85716190D01*
X117652857Y-85716190D01*
X118081428Y-85716190D02*
X118081428Y-85216190D01*
X118271904Y-85216190D01*
X118319523Y-85240000D01*
X118343333Y-85263809D01*
X118367142Y-85311428D01*
X118367142Y-85382857D01*
X118343333Y-85430476D01*
X118319523Y-85454285D01*
X118271904Y-85478095D01*
X118081428Y-85478095D01*
X118795714Y-85382857D02*
X118795714Y-85716190D01*
X118676666Y-85192380D02*
X118557619Y-85549523D01*
X118867142Y-85549523D01*
X117823333Y-83810190D02*
X117823333Y-84167333D01*
X117799523Y-84238761D01*
X117751904Y-84286380D01*
X117680476Y-84310190D01*
X117632857Y-84310190D01*
X118061428Y-84310190D02*
X118061428Y-83810190D01*
X118251904Y-83810190D01*
X118299523Y-83834000D01*
X118323333Y-83857809D01*
X118347142Y-83905428D01*
X118347142Y-83976857D01*
X118323333Y-84024476D01*
X118299523Y-84048285D01*
X118251904Y-84072095D01*
X118061428Y-84072095D01*
X118799523Y-83810190D02*
X118561428Y-83810190D01*
X118537619Y-84048285D01*
X118561428Y-84024476D01*
X118609047Y-84000666D01*
X118728095Y-84000666D01*
X118775714Y-84024476D01*
X118799523Y-84048285D01*
X118823333Y-84095904D01*
X118823333Y-84214952D01*
X118799523Y-84262571D01*
X118775714Y-84286380D01*
X118728095Y-84310190D01*
X118609047Y-84310190D01*
X118561428Y-84286380D01*
X118537619Y-84262571D01*
X117803333Y-82570190D02*
X117803333Y-82927333D01*
X117779523Y-82998761D01*
X117731904Y-83046380D01*
X117660476Y-83070190D01*
X117612857Y-83070190D01*
X118041428Y-83070190D02*
X118041428Y-82570190D01*
X118231904Y-82570190D01*
X118279523Y-82594000D01*
X118303333Y-82617809D01*
X118327142Y-82665428D01*
X118327142Y-82736857D01*
X118303333Y-82784476D01*
X118279523Y-82808285D01*
X118231904Y-82832095D01*
X118041428Y-82832095D01*
X118755714Y-82570190D02*
X118660476Y-82570190D01*
X118612857Y-82594000D01*
X118589047Y-82617809D01*
X118541428Y-82689238D01*
X118517619Y-82784476D01*
X118517619Y-82974952D01*
X118541428Y-83022571D01*
X118565238Y-83046380D01*
X118612857Y-83070190D01*
X118708095Y-83070190D01*
X118755714Y-83046380D01*
X118779523Y-83022571D01*
X118803333Y-82974952D01*
X118803333Y-82855904D01*
X118779523Y-82808285D01*
X118755714Y-82784476D01*
X118708095Y-82760666D01*
X118612857Y-82760666D01*
X118565238Y-82784476D01*
X118541428Y-82808285D01*
X118517619Y-82855904D01*
X115002380Y-77053809D02*
X114954761Y-77030000D01*
X114907142Y-76982380D01*
X114835714Y-76910952D01*
X114788095Y-76887142D01*
X114740476Y-76887142D01*
X114764285Y-77006190D02*
X114716666Y-76982380D01*
X114669047Y-76934761D01*
X114645238Y-76839523D01*
X114645238Y-76672857D01*
X114669047Y-76577619D01*
X114716666Y-76530000D01*
X114764285Y-76506190D01*
X114859523Y-76506190D01*
X114907142Y-76530000D01*
X114954761Y-76577619D01*
X114978571Y-76672857D01*
X114978571Y-76839523D01*
X114954761Y-76934761D01*
X114907142Y-76982380D01*
X114859523Y-77006190D01*
X114764285Y-77006190D01*
X115407142Y-76672857D02*
X115407142Y-77006190D01*
X115288095Y-76482380D02*
X115169047Y-76839523D01*
X115478571Y-76839523D01*
M02*
