G04 #@! TF.GenerationSoftware,KiCad,Pcbnew,(5.1.2)-2*
G04 #@! TF.CreationDate,2019-06-17T21:10:21-05:00*
G04 #@! TF.ProjectId,OGP,4f47502e-6b69-4636-9164-5f7063625858,rev?*
G04 #@! TF.SameCoordinates,Original*
G04 #@! TF.FileFunction,Copper,L2,Bot*
G04 #@! TF.FilePolarity,Positive*
%FSLAX46Y46*%
G04 Gerber Fmt 4.6, Leading zero omitted, Abs format (unit mm)*
G04 Created by KiCad (PCBNEW (5.1.2)-2) date 2019-06-17 21:10:21*
%MOMM*%
%LPD*%
G04 APERTURE LIST*
%ADD10C,0.125000*%
%ADD11C,0.175000*%
%ADD12C,1.143000*%
%ADD13C,0.700000*%
%ADD14C,0.800000*%
%ADD15C,0.150000*%
%ADD16C,0.250000*%
G04 APERTURE END LIST*
D10*
X105404285Y-81911190D02*
X105404285Y-82268333D01*
X105428095Y-82339761D01*
X105475714Y-82387380D01*
X105547142Y-82411190D01*
X105594761Y-82411190D01*
X104951904Y-82411190D02*
X104951904Y-82149285D01*
X104975714Y-82101666D01*
X105023333Y-82077857D01*
X105118571Y-82077857D01*
X105166190Y-82101666D01*
X104951904Y-82387380D02*
X104999523Y-82411190D01*
X105118571Y-82411190D01*
X105166190Y-82387380D01*
X105190000Y-82339761D01*
X105190000Y-82292142D01*
X105166190Y-82244523D01*
X105118571Y-82220714D01*
X104999523Y-82220714D01*
X104951904Y-82196904D01*
X104713809Y-82411190D02*
X104713809Y-82077857D01*
X104713809Y-82173095D02*
X104690000Y-82125476D01*
X104666190Y-82101666D01*
X104618571Y-82077857D01*
X104570952Y-82077857D01*
X104404285Y-82411190D02*
X104404285Y-82077857D01*
X104404285Y-82173095D02*
X104380476Y-82125476D01*
X104356666Y-82101666D01*
X104309047Y-82077857D01*
X104261428Y-82077857D01*
X103904285Y-82387380D02*
X103951904Y-82411190D01*
X104047142Y-82411190D01*
X104094761Y-82387380D01*
X104118571Y-82339761D01*
X104118571Y-82149285D01*
X104094761Y-82101666D01*
X104047142Y-82077857D01*
X103951904Y-82077857D01*
X103904285Y-82101666D01*
X103880476Y-82149285D01*
X103880476Y-82196904D01*
X104118571Y-82244523D01*
X103737619Y-82077857D02*
X103547142Y-82077857D01*
X103666190Y-81911190D02*
X103666190Y-82339761D01*
X103642380Y-82387380D01*
X103594761Y-82411190D01*
X103547142Y-82411190D01*
X103451904Y-82077857D02*
X103261428Y-82077857D01*
X103380476Y-81911190D02*
X103380476Y-82339761D01*
X103356666Y-82387380D01*
X103309047Y-82411190D01*
X103261428Y-82411190D01*
X105797142Y-83238571D02*
X105820952Y-83262380D01*
X105892380Y-83286190D01*
X105940000Y-83286190D01*
X106011428Y-83262380D01*
X106059047Y-83214761D01*
X106082857Y-83167142D01*
X106106666Y-83071904D01*
X106106666Y-83000476D01*
X106082857Y-82905238D01*
X106059047Y-82857619D01*
X106011428Y-82810000D01*
X105940000Y-82786190D01*
X105892380Y-82786190D01*
X105820952Y-82810000D01*
X105797142Y-82833809D01*
X105582857Y-83286190D02*
X105582857Y-82786190D01*
X105130476Y-82952857D02*
X105130476Y-83357619D01*
X105154285Y-83405238D01*
X105178095Y-83429047D01*
X105225714Y-83452857D01*
X105297142Y-83452857D01*
X105344761Y-83429047D01*
X105130476Y-83262380D02*
X105178095Y-83286190D01*
X105273333Y-83286190D01*
X105320952Y-83262380D01*
X105344761Y-83238571D01*
X105368571Y-83190952D01*
X105368571Y-83048095D01*
X105344761Y-83000476D01*
X105320952Y-82976666D01*
X105273333Y-82952857D01*
X105178095Y-82952857D01*
X105130476Y-82976666D01*
X104678095Y-83286190D02*
X104678095Y-83024285D01*
X104701904Y-82976666D01*
X104749523Y-82952857D01*
X104844761Y-82952857D01*
X104892380Y-82976666D01*
X104678095Y-83262380D02*
X104725714Y-83286190D01*
X104844761Y-83286190D01*
X104892380Y-83262380D01*
X104916190Y-83214761D01*
X104916190Y-83167142D01*
X104892380Y-83119523D01*
X104844761Y-83095714D01*
X104725714Y-83095714D01*
X104678095Y-83071904D01*
X104440000Y-83286190D02*
X104440000Y-82952857D01*
X104440000Y-82786190D02*
X104463809Y-82810000D01*
X104440000Y-82833809D01*
X104416190Y-82810000D01*
X104440000Y-82786190D01*
X104440000Y-82833809D01*
X104201904Y-82952857D02*
X104201904Y-83286190D01*
X104201904Y-83000476D02*
X104178095Y-82976666D01*
X104130476Y-82952857D01*
X104059047Y-82952857D01*
X104011428Y-82976666D01*
X103987619Y-83024285D01*
X103987619Y-83286190D01*
X103559047Y-83262380D02*
X103606666Y-83286190D01*
X103701904Y-83286190D01*
X103749523Y-83262380D01*
X103773333Y-83214761D01*
X103773333Y-83024285D01*
X103749523Y-82976666D01*
X103701904Y-82952857D01*
X103606666Y-82952857D01*
X103559047Y-82976666D01*
X103535238Y-83024285D01*
X103535238Y-83071904D01*
X103773333Y-83119523D01*
X103320952Y-83286190D02*
X103320952Y-82952857D01*
X103320952Y-83048095D02*
X103297142Y-83000476D01*
X103273333Y-82976666D01*
X103225714Y-82952857D01*
X103178095Y-82952857D01*
X102940000Y-83286190D02*
X102987619Y-83262380D01*
X103011428Y-83238571D01*
X103035238Y-83190952D01*
X103035238Y-83048095D01*
X103011428Y-83000476D01*
X102987619Y-82976666D01*
X102940000Y-82952857D01*
X102868571Y-82952857D01*
X102820952Y-82976666D01*
X102797142Y-83000476D01*
X102773333Y-83048095D01*
X102773333Y-83190952D01*
X102797142Y-83238571D01*
X102820952Y-83262380D01*
X102868571Y-83286190D01*
X102940000Y-83286190D01*
X106297142Y-83661190D02*
X106297142Y-84018333D01*
X106320952Y-84089761D01*
X106368571Y-84137380D01*
X106440000Y-84161190D01*
X106487619Y-84161190D01*
X105844761Y-83827857D02*
X105844761Y-84161190D01*
X106059047Y-83827857D02*
X106059047Y-84089761D01*
X106035238Y-84137380D01*
X105987619Y-84161190D01*
X105916190Y-84161190D01*
X105868571Y-84137380D01*
X105844761Y-84113571D01*
X105606666Y-83827857D02*
X105606666Y-84161190D01*
X105606666Y-83875476D02*
X105582857Y-83851666D01*
X105535238Y-83827857D01*
X105463809Y-83827857D01*
X105416190Y-83851666D01*
X105392380Y-83899285D01*
X105392380Y-84161190D01*
X104963809Y-84137380D02*
X105011428Y-84161190D01*
X105106666Y-84161190D01*
X105154285Y-84137380D01*
X105178095Y-84089761D01*
X105178095Y-83899285D01*
X105154285Y-83851666D01*
X105106666Y-83827857D01*
X105011428Y-83827857D01*
X104963809Y-83851666D01*
X104940000Y-83899285D01*
X104940000Y-83946904D01*
X105178095Y-83994523D01*
X104701904Y-84137380D02*
X104701904Y-84161190D01*
X104725714Y-84208809D01*
X104749523Y-84232619D01*
X104130476Y-83708809D02*
X104106666Y-83685000D01*
X104059047Y-83661190D01*
X103940000Y-83661190D01*
X103892380Y-83685000D01*
X103868571Y-83708809D01*
X103844761Y-83756428D01*
X103844761Y-83804047D01*
X103868571Y-83875476D01*
X104154285Y-84161190D01*
X103844761Y-84161190D01*
X103535238Y-83661190D02*
X103487619Y-83661190D01*
X103440000Y-83685000D01*
X103416190Y-83708809D01*
X103392380Y-83756428D01*
X103368571Y-83851666D01*
X103368571Y-83970714D01*
X103392380Y-84065952D01*
X103416190Y-84113571D01*
X103440000Y-84137380D01*
X103487619Y-84161190D01*
X103535238Y-84161190D01*
X103582857Y-84137380D01*
X103606666Y-84113571D01*
X103630476Y-84065952D01*
X103654285Y-83970714D01*
X103654285Y-83851666D01*
X103630476Y-83756428D01*
X103606666Y-83708809D01*
X103582857Y-83685000D01*
X103535238Y-83661190D01*
X102892380Y-84161190D02*
X103178095Y-84161190D01*
X103035238Y-84161190D02*
X103035238Y-83661190D01*
X103082857Y-83732619D01*
X103130476Y-83780238D01*
X103178095Y-83804047D01*
X102654285Y-84161190D02*
X102559047Y-84161190D01*
X102511428Y-84137380D01*
X102487619Y-84113571D01*
X102440000Y-84042142D01*
X102416190Y-83946904D01*
X102416190Y-83756428D01*
X102440000Y-83708809D01*
X102463809Y-83685000D01*
X102511428Y-83661190D01*
X102606666Y-83661190D01*
X102654285Y-83685000D01*
X102678095Y-83708809D01*
X102701904Y-83756428D01*
X102701904Y-83875476D01*
X102678095Y-83923095D01*
X102654285Y-83946904D01*
X102606666Y-83970714D01*
X102511428Y-83970714D01*
X102463809Y-83946904D01*
X102440000Y-83923095D01*
X102416190Y-83875476D01*
D11*
X113079333Y-78610666D02*
X112946000Y-78610666D01*
X112879333Y-78644000D01*
X112812666Y-78710666D01*
X112779333Y-78844000D01*
X112779333Y-79077333D01*
X112812666Y-79210666D01*
X112879333Y-79277333D01*
X112946000Y-79310666D01*
X113079333Y-79310666D01*
X113146000Y-79277333D01*
X113212666Y-79210666D01*
X113246000Y-79077333D01*
X113246000Y-78844000D01*
X113212666Y-78710666D01*
X113146000Y-78644000D01*
X113079333Y-78610666D01*
X112479333Y-78844000D02*
X112479333Y-79544000D01*
X112479333Y-78877333D02*
X112412666Y-78844000D01*
X112279333Y-78844000D01*
X112212666Y-78877333D01*
X112179333Y-78910666D01*
X112146000Y-78977333D01*
X112146000Y-79177333D01*
X112179333Y-79244000D01*
X112212666Y-79277333D01*
X112279333Y-79310666D01*
X112412666Y-79310666D01*
X112479333Y-79277333D01*
X111946000Y-78844000D02*
X111679333Y-78844000D01*
X111846000Y-78610666D02*
X111846000Y-79210666D01*
X111812666Y-79277333D01*
X111746000Y-79310666D01*
X111679333Y-79310666D01*
X111446000Y-79310666D02*
X111446000Y-78844000D01*
X111446000Y-78610666D02*
X111479333Y-78644000D01*
X111446000Y-78677333D01*
X111412666Y-78644000D01*
X111446000Y-78610666D01*
X111446000Y-78677333D01*
X110812666Y-79277333D02*
X110879333Y-79310666D01*
X111012666Y-79310666D01*
X111079333Y-79277333D01*
X111112666Y-79244000D01*
X111146000Y-79177333D01*
X111146000Y-78977333D01*
X111112666Y-78910666D01*
X111079333Y-78877333D01*
X111012666Y-78844000D01*
X110879333Y-78844000D01*
X110812666Y-78877333D01*
X110212666Y-79310666D02*
X110212666Y-78944000D01*
X110246000Y-78877333D01*
X110312666Y-78844000D01*
X110446000Y-78844000D01*
X110512666Y-78877333D01*
X110212666Y-79277333D02*
X110279333Y-79310666D01*
X110446000Y-79310666D01*
X110512666Y-79277333D01*
X110546000Y-79210666D01*
X110546000Y-79144000D01*
X110512666Y-79077333D01*
X110446000Y-79044000D01*
X110279333Y-79044000D01*
X110212666Y-79010666D01*
X109779333Y-79310666D02*
X109846000Y-79277333D01*
X109879333Y-79210666D01*
X109879333Y-78610666D01*
X108612666Y-78644000D02*
X108679333Y-78610666D01*
X108779333Y-78610666D01*
X108879333Y-78644000D01*
X108946000Y-78710666D01*
X108979333Y-78777333D01*
X109012666Y-78910666D01*
X109012666Y-79010666D01*
X108979333Y-79144000D01*
X108946000Y-79210666D01*
X108879333Y-79277333D01*
X108779333Y-79310666D01*
X108712666Y-79310666D01*
X108612666Y-79277333D01*
X108579333Y-79244000D01*
X108579333Y-79010666D01*
X108712666Y-79010666D01*
X107979333Y-78844000D02*
X107979333Y-79310666D01*
X108279333Y-78844000D02*
X108279333Y-79210666D01*
X108246000Y-79277333D01*
X108179333Y-79310666D01*
X108079333Y-79310666D01*
X108012666Y-79277333D01*
X107979333Y-79244000D01*
X107646000Y-79310666D02*
X107646000Y-78844000D01*
X107646000Y-78610666D02*
X107679333Y-78644000D01*
X107646000Y-78677333D01*
X107612666Y-78644000D01*
X107646000Y-78610666D01*
X107646000Y-78677333D01*
X107412666Y-78844000D02*
X107146000Y-78844000D01*
X107312666Y-78610666D02*
X107312666Y-79210666D01*
X107279333Y-79277333D01*
X107212666Y-79310666D01*
X107146000Y-79310666D01*
X106612666Y-79310666D02*
X106612666Y-78944000D01*
X106646000Y-78877333D01*
X106712666Y-78844000D01*
X106846000Y-78844000D01*
X106912666Y-78877333D01*
X106612666Y-79277333D02*
X106679333Y-79310666D01*
X106846000Y-79310666D01*
X106912666Y-79277333D01*
X106946000Y-79210666D01*
X106946000Y-79144000D01*
X106912666Y-79077333D01*
X106846000Y-79044000D01*
X106679333Y-79044000D01*
X106612666Y-79010666D01*
X106279333Y-79310666D02*
X106279333Y-78844000D01*
X106279333Y-78977333D02*
X106246000Y-78910666D01*
X106212666Y-78877333D01*
X106146000Y-78844000D01*
X106079333Y-78844000D01*
X105312666Y-79310666D02*
X105312666Y-78610666D01*
X105046000Y-78610666D01*
X104979333Y-78644000D01*
X104946000Y-78677333D01*
X104912666Y-78744000D01*
X104912666Y-78844000D01*
X104946000Y-78910666D01*
X104979333Y-78944000D01*
X105046000Y-78977333D01*
X105312666Y-78977333D01*
X104612666Y-79310666D02*
X104612666Y-78844000D01*
X104612666Y-78610666D02*
X104646000Y-78644000D01*
X104612666Y-78677333D01*
X104579333Y-78644000D01*
X104612666Y-78610666D01*
X104612666Y-78677333D01*
X103979333Y-79277333D02*
X104046000Y-79310666D01*
X104179333Y-79310666D01*
X104246000Y-79277333D01*
X104279333Y-79244000D01*
X104312666Y-79177333D01*
X104312666Y-78977333D01*
X104279333Y-78910666D01*
X104246000Y-78877333D01*
X104179333Y-78844000D01*
X104046000Y-78844000D01*
X103979333Y-78877333D01*
X103679333Y-79310666D02*
X103679333Y-78610666D01*
X103612666Y-79044000D02*
X103412666Y-79310666D01*
X103412666Y-78844000D02*
X103679333Y-79110666D01*
X102812666Y-78844000D02*
X102812666Y-79310666D01*
X103112666Y-78844000D02*
X103112666Y-79210666D01*
X103079333Y-79277333D01*
X103012666Y-79310666D01*
X102912666Y-79310666D01*
X102846000Y-79277333D01*
X102812666Y-79244000D01*
X102479333Y-78844000D02*
X102479333Y-79544000D01*
X102479333Y-78877333D02*
X102412666Y-78844000D01*
X102279333Y-78844000D01*
X102212666Y-78877333D01*
X102179333Y-78910666D01*
X102146000Y-78977333D01*
X102146000Y-79177333D01*
X102179333Y-79244000D01*
X102212666Y-79277333D01*
X102279333Y-79310666D01*
X102412666Y-79310666D01*
X102479333Y-79277333D01*
D12*
X100838000Y-84836000D03*
X100838000Y-77724000D03*
X193294000Y-84836000D03*
X193294000Y-77724000D03*
D13*
X178435000Y-76835000D03*
X190500000Y-78740000D03*
X186691397Y-84453603D03*
X163195000Y-76835000D03*
X152451023Y-80187747D03*
X162560000Y-78105000D03*
X126238000Y-81280000D03*
X130048000Y-81280000D03*
X146870000Y-77978000D03*
X135636000Y-80772000D03*
X149410000Y-77285000D03*
X117348000Y-80518000D03*
X177165000Y-81915000D03*
X186055000Y-79375000D03*
X182245000Y-80645000D03*
X186055000Y-78474997D03*
X190500000Y-80010000D03*
X184785000Y-83185000D03*
X188595000Y-83820000D03*
X151765000Y-78740000D03*
X148590000Y-78105000D03*
X156210000Y-77470000D03*
X172720000Y-77470000D03*
X129540000Y-78486000D03*
X132334000Y-78740000D03*
X133350000Y-83058000D03*
X139446000Y-82804000D03*
X154178000Y-82550000D03*
X126450000Y-80200000D03*
X113890000Y-76870000D03*
X116260000Y-78710000D03*
X180975000Y-80645000D03*
X172085000Y-81280000D03*
X129286000Y-82042000D03*
X133604000Y-81534000D03*
X132080000Y-77470000D03*
X107664000Y-81250000D03*
X107664000Y-82250000D03*
X171800000Y-78300000D03*
X169850000Y-81150000D03*
X188600000Y-81800000D03*
X182975000Y-81925000D03*
X163629442Y-83195000D03*
X118080000Y-77300000D03*
X130110000Y-83450000D03*
X132400000Y-84125000D03*
X154225000Y-83800000D03*
X137160000Y-79215000D03*
X134874000Y-77470000D03*
X133604000Y-79756000D03*
X129286000Y-80264000D03*
X125222000Y-81534000D03*
X119380000Y-79502000D03*
X166350000Y-78850000D03*
X166350000Y-83100000D03*
X162560000Y-81915000D03*
X167640000Y-83820000D03*
X167640000Y-85090000D03*
X161926397Y-85091397D03*
X175260000Y-85090000D03*
X167005000Y-81915000D03*
X175895000Y-83820000D03*
X182245000Y-83185000D03*
X167005000Y-80645000D03*
X146000000Y-77500000D03*
X140250000Y-77500000D03*
X113792000Y-81280000D03*
X144875000Y-80750000D03*
X139192000Y-80772000D03*
X138100000Y-82400000D03*
X167350000Y-78100000D03*
X178435000Y-82550000D03*
X186055000Y-85090000D03*
X184050000Y-81650000D03*
X186750000Y-81900000D03*
X178435000Y-80645000D03*
X175260000Y-78105000D03*
X183515000Y-83185000D03*
X157480000Y-85725000D03*
X157480000Y-83820000D03*
X157480000Y-81280000D03*
X158685806Y-78095000D03*
X160530558Y-79499442D03*
X160653603Y-83818603D03*
X170815000Y-84455000D03*
X170815000Y-80645000D03*
X173356397Y-78106397D03*
X153035000Y-78740000D03*
X155575000Y-79562747D03*
X146051397Y-85091397D03*
X161290000Y-84455000D03*
X151130000Y-77470000D03*
X153670000Y-77470000D03*
X151000000Y-81915000D03*
X136885680Y-81579720D03*
X151000000Y-83750000D03*
X135890000Y-84328000D03*
X143340000Y-85000000D03*
X134620000Y-84615000D03*
X146812000Y-76962000D03*
X119470000Y-82000000D03*
X116390000Y-76850000D03*
D14*
X115700000Y-82070000D03*
D13*
X110744000Y-81026000D03*
X129275000Y-84450000D03*
X110720000Y-85280000D03*
X125476000Y-77724000D03*
X117500000Y-78730000D03*
X134620000Y-79215000D03*
X123444000Y-79756000D03*
X133604000Y-84836000D03*
X125730000Y-84582000D03*
X125390000Y-83270000D03*
X118110000Y-84582000D03*
X150114000Y-79756000D03*
X140462000Y-80772000D03*
X140960000Y-84990000D03*
X124714000Y-84582000D03*
X120205001Y-83925001D03*
X115780000Y-83930000D03*
D15*
X178435000Y-76835000D02*
X189865000Y-76835000D01*
X189865000Y-76835000D02*
X190500000Y-77470000D01*
X190500000Y-77470000D02*
X190500000Y-78740000D01*
X191125001Y-80310001D02*
X186980002Y-84455000D01*
X191125001Y-79709999D02*
X191125001Y-80310001D01*
X190500000Y-78740000D02*
X190500000Y-79084998D01*
X190500000Y-79084998D02*
X191125001Y-79709999D01*
X186980002Y-84455000D02*
X186690000Y-84455000D01*
X186690000Y-84455000D02*
X186691397Y-84453603D01*
X163830000Y-76835000D02*
X163195000Y-76835000D01*
X178435000Y-76835000D02*
X163830000Y-76835000D01*
X127508000Y-81280000D02*
X130048000Y-81280000D01*
X135636000Y-80772000D02*
X130556000Y-80772000D01*
X130556000Y-80772000D02*
X130048000Y-81280000D01*
X146870000Y-77978000D02*
X146870000Y-77920000D01*
X146870000Y-77920000D02*
X147505000Y-77285000D01*
X147505000Y-77285000D02*
X149410000Y-77285000D01*
X136250680Y-80157320D02*
X135636000Y-80772000D01*
X137398760Y-80157320D02*
X136250680Y-80157320D01*
X146812000Y-77978000D02*
X146558000Y-78232000D01*
X146870000Y-77978000D02*
X146812000Y-77978000D01*
X146558000Y-78232000D02*
X138252200Y-78232000D01*
X138252200Y-78232000D02*
X137896600Y-78587600D01*
X137896600Y-78587600D02*
X137896600Y-79659480D01*
X137896600Y-79659480D02*
X137398760Y-80157320D01*
X127508000Y-81280000D02*
X126238000Y-81280000D01*
X162560000Y-78599974D02*
X162560000Y-78105000D01*
X152451023Y-80187747D02*
X160972227Y-80187747D01*
X160972227Y-80187747D02*
X162560000Y-78599974D01*
X117438998Y-80518000D02*
X117348000Y-80518000D01*
X119181988Y-78775010D02*
X117438998Y-80518000D01*
X119669010Y-78775010D02*
X119181988Y-78775010D01*
X121920000Y-81026000D02*
X119669010Y-78775010D01*
X126238000Y-81280000D02*
X125984000Y-81280000D01*
X125984000Y-81280000D02*
X125476000Y-80772000D01*
X125476000Y-80772000D02*
X124718699Y-80772000D01*
X124718699Y-80772000D02*
X124464699Y-81026000D01*
X124464699Y-81026000D02*
X121920000Y-81026000D01*
X181925000Y-81915000D02*
X177165000Y-81915000D01*
X181985000Y-81915000D02*
X181925000Y-81915000D01*
X183255000Y-80645000D02*
X181985000Y-81915000D01*
X185420000Y-80645000D02*
X183255000Y-80645000D01*
X186055000Y-80010000D02*
X185420000Y-80645000D01*
X186055000Y-79375000D02*
X186055000Y-80010000D01*
X182245000Y-80645000D02*
X182245000Y-77470000D01*
X182245000Y-77470000D02*
X185050003Y-77470000D01*
X185050003Y-77470000D02*
X186055000Y-78474997D01*
X186055000Y-78474997D02*
X188964997Y-78474997D01*
X188964997Y-78474997D02*
X190500000Y-80010000D01*
X184785000Y-83185000D02*
X184785000Y-85725000D01*
X184785000Y-85725000D02*
X189230000Y-85725000D01*
X189230000Y-85725000D02*
X189230000Y-84455000D01*
X189230000Y-84455000D02*
X188595000Y-83820000D01*
X151765000Y-78740000D02*
X151130000Y-78105000D01*
X151130000Y-78105000D02*
X148590000Y-78105000D01*
X156210000Y-77470000D02*
X158115000Y-77470000D01*
X172720000Y-77470000D02*
X156210000Y-77470000D01*
D16*
X129540000Y-78486000D02*
X127814000Y-78486000D01*
X127814000Y-78486000D02*
X126550000Y-79750000D01*
X126550000Y-80100000D02*
X126450000Y-80200000D01*
X126550000Y-79750000D02*
X126550000Y-80100000D01*
X129540000Y-78486000D02*
X129686000Y-78486000D01*
X129940000Y-78740000D02*
X132334000Y-78740000D01*
X129686000Y-78486000D02*
X129940000Y-78740000D01*
X137567010Y-83058000D02*
X137675000Y-83165990D01*
X133350000Y-83058000D02*
X137567010Y-83058000D01*
X139084010Y-83165990D02*
X139446000Y-82804000D01*
X137675000Y-83165990D02*
X139084010Y-83165990D01*
X139446000Y-82804000D02*
X149696000Y-82804000D01*
X149696000Y-82804000D02*
X149850000Y-82650000D01*
X154078000Y-82650000D02*
X154178000Y-82550000D01*
X149850000Y-82650000D02*
X154078000Y-82650000D01*
X115594000Y-79780000D02*
X115316000Y-79502000D01*
X117600000Y-79780000D02*
X115594000Y-79780000D01*
X126450000Y-80200000D02*
X124725000Y-80200000D01*
X124725000Y-80200000D02*
X124425000Y-80500000D01*
X124425000Y-80500000D02*
X122050000Y-80500000D01*
X122050000Y-80500000D02*
X119925000Y-78375000D01*
X119925000Y-78375000D02*
X119005000Y-78375000D01*
X119005000Y-78375000D02*
X117600000Y-79780000D01*
X115316000Y-76962000D02*
X115302000Y-76962000D01*
X115302000Y-76962000D02*
X115020000Y-76680000D01*
X114080000Y-76680000D02*
X113890000Y-76870000D01*
X114180000Y-76680000D02*
X114080000Y-76680000D01*
X115020000Y-76680000D02*
X114180000Y-76680000D01*
D15*
X115316000Y-77766000D02*
X115316000Y-77620000D01*
X116260000Y-78710000D02*
X115316000Y-77766000D01*
D16*
X115316000Y-79502000D02*
X115316000Y-77620000D01*
X115316000Y-77620000D02*
X115316000Y-76962000D01*
D15*
X180975000Y-80645000D02*
X180975000Y-81280000D01*
X180975000Y-81280000D02*
X175260000Y-81280000D01*
X175260000Y-81280000D02*
X172085000Y-81280000D01*
X131318000Y-81534000D02*
X130810000Y-81534000D01*
X130810000Y-81534000D02*
X130302000Y-82042000D01*
X130302000Y-82042000D02*
X129286000Y-82042000D01*
X133604000Y-81534000D02*
X131318000Y-81534000D01*
X107664000Y-82250000D02*
X107664000Y-81250000D01*
X107664000Y-82250000D02*
X107664000Y-84750000D01*
X171800000Y-78300000D02*
X171750000Y-78250000D01*
X171750000Y-78250000D02*
X170700000Y-78250000D01*
X170700000Y-78250000D02*
X169850000Y-79100000D01*
X169850000Y-79100000D02*
X169850000Y-81150000D01*
X193294000Y-77724000D02*
X193294000Y-84836000D01*
X188600000Y-81800000D02*
X188000000Y-81200000D01*
X188000000Y-81200000D02*
X186950000Y-81200000D01*
X186950000Y-81200000D02*
X186775000Y-81025000D01*
X186775000Y-81025000D02*
X183400000Y-81025000D01*
X183400000Y-81025000D02*
X182975000Y-81450000D01*
X182975000Y-81450000D02*
X182975000Y-81925000D01*
X144690000Y-85980000D02*
X108918990Y-85980000D01*
X162860001Y-81289999D02*
X159460001Y-81289999D01*
X163185001Y-81614999D02*
X162860001Y-81289999D01*
X157725002Y-84500000D02*
X146385002Y-84500000D01*
X163185001Y-82750559D02*
X163185001Y-81614999D01*
X145751396Y-84466396D02*
X145426396Y-84791396D01*
X108918990Y-85980000D02*
X108914000Y-85984990D01*
X163629442Y-83195000D02*
X163185001Y-82750559D01*
X159460001Y-81289999D02*
X158100000Y-82650000D01*
X107664000Y-84750000D02*
X108914000Y-85984990D01*
X108914000Y-85984990D02*
X108914000Y-86000000D01*
X158105001Y-82655001D02*
X158105001Y-84120001D01*
X158100000Y-82650000D02*
X158105001Y-82655001D01*
X158105001Y-84120001D02*
X157725002Y-84500000D01*
X145426396Y-85243604D02*
X144690000Y-85980000D01*
X146385002Y-84500000D02*
X146351398Y-84466396D01*
X146351398Y-84466396D02*
X145751396Y-84466396D01*
X145426396Y-84791396D02*
X145426396Y-85243604D01*
X101982000Y-85980000D02*
X100838000Y-84836000D01*
X108918990Y-85980000D02*
X101982000Y-85980000D01*
X100838000Y-84836000D02*
X100838000Y-77724000D01*
X126492000Y-77470000D02*
X132080000Y-77470000D01*
X126066000Y-77044000D02*
X126492000Y-77470000D01*
X125140000Y-77044000D02*
X126066000Y-77044000D01*
X124968000Y-77216000D02*
X125140000Y-77044000D01*
X119120000Y-77216000D02*
X118674000Y-77216000D01*
X119120000Y-77216000D02*
X124968000Y-77216000D01*
X118674000Y-77216000D02*
X118164000Y-77216000D01*
X118164000Y-77216000D02*
X118080000Y-77300000D01*
X108224000Y-82810000D02*
X107664000Y-82250000D01*
X119520000Y-82810000D02*
X108224000Y-82810000D01*
X119720000Y-82610000D02*
X119520000Y-82810000D01*
X129920000Y-83260000D02*
X126350000Y-83260000D01*
X130110000Y-83450000D02*
X129920000Y-83260000D01*
X126350000Y-83260000D02*
X125736010Y-82646010D01*
X125736010Y-82646010D02*
X125736010Y-82636010D01*
X125736010Y-82636010D02*
X125710000Y-82610000D01*
X125710000Y-82610000D02*
X119720000Y-82610000D01*
X132400000Y-84125000D02*
X133425000Y-84125000D01*
X133425000Y-84125000D02*
X133900000Y-83650000D01*
X133900000Y-83650000D02*
X149975000Y-83650000D01*
X149975000Y-83650000D02*
X150525000Y-83100000D01*
X150525000Y-83100000D02*
X151700000Y-83100000D01*
X151700000Y-83100000D02*
X152400000Y-83800000D01*
X152400000Y-83800000D02*
X154225000Y-83800000D01*
X137160000Y-79215000D02*
X137160000Y-77724000D01*
X137160000Y-77724000D02*
X136906000Y-77470000D01*
X136906000Y-77470000D02*
X134874000Y-77470000D01*
X133604000Y-79756000D02*
X133096000Y-80264000D01*
X133096000Y-80264000D02*
X129286000Y-80264000D01*
X125222000Y-81534000D02*
X121666000Y-81534000D01*
X121666000Y-81534000D02*
X120396000Y-80264000D01*
X119634000Y-79502000D02*
X119380000Y-79502000D01*
X120396000Y-80264000D02*
X120384000Y-80264000D01*
X119622000Y-79502000D02*
X119380000Y-79502000D01*
X120384000Y-80264000D02*
X119622000Y-79502000D01*
X166350000Y-78850000D02*
X166100000Y-79100000D01*
X166100000Y-79100000D02*
X166100000Y-82850000D01*
X166100000Y-82850000D02*
X166350000Y-83100000D01*
X162560000Y-81915000D02*
X162560000Y-83185000D01*
X162560000Y-83185000D02*
X163195000Y-83820000D01*
X163195000Y-83820000D02*
X167640000Y-83820000D01*
X167640000Y-85090000D02*
X163970012Y-85090000D01*
X163970012Y-85090000D02*
X161927794Y-85090000D01*
X161927794Y-85090000D02*
X161926397Y-85091397D01*
X175260000Y-83820000D02*
X175260000Y-85090000D01*
X173990000Y-82550000D02*
X175260000Y-83820000D01*
X168415012Y-82550000D02*
X173990000Y-82550000D01*
X167005000Y-81915000D02*
X167780012Y-81915000D01*
X167780012Y-81915000D02*
X168415012Y-82550000D01*
X175895000Y-83820000D02*
X181610000Y-83820000D01*
X181610000Y-83820000D02*
X182245000Y-83185000D01*
X175895000Y-83820000D02*
X173990000Y-81915000D01*
X173980001Y-81905001D02*
X168265001Y-81905001D01*
X173990000Y-81915000D02*
X173980001Y-81905001D01*
X168265001Y-81905001D02*
X167005000Y-80645000D01*
X146000000Y-77500000D02*
X140250000Y-77500000D01*
X117856000Y-81280000D02*
X113792000Y-81280000D01*
X144875000Y-80750000D02*
X144875000Y-80931000D01*
X144875000Y-80931000D02*
X144272000Y-81534000D01*
X144272000Y-81534000D02*
X139954000Y-81534000D01*
X139954000Y-81534000D02*
X139192000Y-80772000D01*
X138176000Y-82550000D02*
X134366000Y-82550000D01*
X134366000Y-82550000D02*
X134112000Y-82296000D01*
X134112000Y-82296000D02*
X130810000Y-82296000D01*
X130810000Y-82296000D02*
X130302000Y-82804000D01*
X130302000Y-82804000D02*
X126492000Y-82804000D01*
X126492000Y-82804000D02*
X125984000Y-82296000D01*
X144875000Y-80750000D02*
X151616000Y-80750000D01*
X151616000Y-80750000D02*
X151892000Y-81026000D01*
X151892000Y-81026000D02*
X156718000Y-81026000D01*
X156718000Y-81026000D02*
X156972000Y-80772000D01*
X156972000Y-80772000D02*
X157206243Y-80537757D01*
X157206243Y-80537757D02*
X161270243Y-80537757D01*
X161270243Y-80537757D02*
X163830000Y-77978000D01*
X163830000Y-77978000D02*
X167132000Y-77978000D01*
X167132000Y-77978000D02*
X167228000Y-77978000D01*
X167228000Y-77978000D02*
X167350000Y-78100000D01*
X120650000Y-81280000D02*
X117856000Y-81280000D01*
X125984000Y-82296000D02*
X125936000Y-82296000D01*
X125936000Y-82296000D02*
X125800000Y-82160000D01*
X121530000Y-82160000D02*
X121350000Y-81980000D01*
X125800000Y-82160000D02*
X121530000Y-82160000D01*
X121412000Y-82042000D02*
X121350000Y-81980000D01*
X121350000Y-81980000D02*
X120650000Y-81280000D01*
X178435000Y-82550000D02*
X186055000Y-82550000D01*
X186055000Y-82550000D02*
X186055000Y-85090000D01*
X184050000Y-81650000D02*
X186500000Y-81650000D01*
X186500000Y-81650000D02*
X186750000Y-81900000D01*
X178435000Y-80645000D02*
X175895000Y-80645000D01*
X175895000Y-80645000D02*
X175260000Y-80010000D01*
X175260000Y-80010000D02*
X175260000Y-78105000D01*
X183515000Y-83185000D02*
X182880000Y-83820000D01*
X182880000Y-83820000D02*
X182880000Y-85090000D01*
X182880000Y-85090000D02*
X182245000Y-85725000D01*
X182245000Y-85725000D02*
X157480000Y-85725000D01*
X157480000Y-83820000D02*
X157480000Y-81280000D01*
X158685806Y-78095000D02*
X160090248Y-79499442D01*
X160090248Y-79499442D02*
X160530558Y-79499442D01*
X162710011Y-83829999D02*
X163335012Y-84455000D01*
X160653603Y-83818603D02*
X160664999Y-83829999D01*
X160664999Y-83829999D02*
X162710011Y-83829999D01*
X163335012Y-84455000D02*
X170815000Y-84455000D01*
X171740002Y-80645000D02*
X173355000Y-79030002D01*
X170815000Y-80645000D02*
X171740002Y-80645000D01*
X173355000Y-79030002D02*
X173355000Y-78107794D01*
X173355000Y-78107794D02*
X173356397Y-78106397D01*
X153035000Y-78740000D02*
X153670000Y-79375000D01*
X153670000Y-79375000D02*
X155387253Y-79375000D01*
X155387253Y-79375000D02*
X155575000Y-79562747D01*
X146062793Y-85080001D02*
X160664999Y-85080001D01*
X146051397Y-85091397D02*
X146062793Y-85080001D01*
X160664999Y-85080001D02*
X161290000Y-84455000D01*
X151130000Y-77470000D02*
X153670000Y-77470000D01*
X150505026Y-81915000D02*
X150420026Y-82000000D01*
X151000000Y-81915000D02*
X150505026Y-81915000D01*
X141447520Y-82000000D02*
X141314080Y-82000000D01*
X150420026Y-82000000D02*
X141447520Y-82000000D01*
X136885680Y-81579720D02*
X139192000Y-81579720D01*
X139612280Y-82000000D02*
X139192000Y-81579720D01*
X141447520Y-82000000D02*
X139612280Y-82000000D01*
X151000000Y-83750000D02*
X150750000Y-84000000D01*
X150750000Y-84000000D02*
X137234000Y-84000000D01*
X136218000Y-84000000D02*
X135890000Y-84328000D01*
X137234000Y-84000000D02*
X136218000Y-84000000D01*
X137160000Y-84836000D02*
X137182010Y-84836000D01*
X137182010Y-84836000D02*
X137668000Y-84350010D01*
X137668000Y-84350010D02*
X142400010Y-84350010D01*
X135095000Y-85090000D02*
X136906000Y-85090000D01*
X137160000Y-84836000D02*
X136906000Y-85090000D01*
X135095000Y-85090000D02*
X134620000Y-84615000D01*
X143050000Y-85000000D02*
X142400010Y-84350010D01*
X143340000Y-85000000D02*
X143050000Y-85000000D01*
X146812000Y-76962000D02*
X146558000Y-76708000D01*
X146558000Y-76708000D02*
X129794000Y-76708000D01*
X129794000Y-76708000D02*
X126268000Y-76708000D01*
X126268000Y-76708000D02*
X126220000Y-76660000D01*
X126220000Y-76660000D02*
X124910000Y-76660000D01*
X124910000Y-76660000D02*
X117840000Y-76660000D01*
X119400000Y-82070000D02*
X119470000Y-82000000D01*
X117840000Y-76660000D02*
X116580000Y-76660000D01*
X116580000Y-76660000D02*
X116390000Y-76850000D01*
X115410000Y-82070000D02*
X115700000Y-82070000D01*
X115700000Y-82070000D02*
X119400000Y-82070000D01*
X120650000Y-85280000D02*
X115020000Y-85280000D01*
X129275000Y-84450000D02*
X126620000Y-84450000D01*
X126620000Y-84450000D02*
X126270000Y-84100000D01*
X126270000Y-84100000D02*
X126240000Y-84100000D01*
X126240000Y-84100000D02*
X126070000Y-83930000D01*
X126070000Y-83930000D02*
X124310000Y-83930000D01*
X124310000Y-83930000D02*
X123750000Y-84490000D01*
X121440000Y-84490000D02*
X121420000Y-84510000D01*
X123750000Y-84490000D02*
X121440000Y-84490000D01*
X121420000Y-84510000D02*
X120650000Y-85280000D01*
X115020000Y-85280000D02*
X110720000Y-85280000D01*
X117510000Y-78740000D02*
X117500000Y-78730000D01*
X118070000Y-78740000D02*
X117510000Y-78740000D01*
X125476000Y-77724000D02*
X119086000Y-77724000D01*
X119086000Y-77724000D02*
X118070000Y-78740000D01*
X134620000Y-79215000D02*
X134079000Y-79215000D01*
X134079000Y-79215000D02*
X132959001Y-78095001D01*
X132959001Y-78095001D02*
X130165001Y-78095001D01*
X130165001Y-78095001D02*
X129890010Y-77820010D01*
X129890010Y-77820010D02*
X127411990Y-77820010D01*
X127411990Y-77820010D02*
X126746000Y-78486000D01*
X124714000Y-78486000D02*
X123444000Y-79756000D01*
X126746000Y-78486000D02*
X124714000Y-78486000D01*
X133604000Y-84836000D02*
X130302000Y-84836000D01*
X130302000Y-84836000D02*
X130048000Y-85090000D01*
X130048000Y-85090000D02*
X126746000Y-85090000D01*
X126746000Y-85090000D02*
X126238000Y-85090000D01*
X126238000Y-85090000D02*
X125730000Y-84582000D01*
X120560000Y-84610000D02*
X120570000Y-84610000D01*
X120570000Y-84610000D02*
X121090000Y-84090000D01*
X121090000Y-84090000D02*
X123560000Y-84090000D01*
X123560000Y-84090000D02*
X124380000Y-83270000D01*
X124380000Y-83270000D02*
X125390000Y-83270000D01*
X118138000Y-84610000D02*
X120570000Y-84610000D01*
X118110000Y-84582000D02*
X118138000Y-84610000D01*
X150114000Y-79756000D02*
X150114000Y-79502000D01*
X150114000Y-79502000D02*
X149606000Y-78994000D01*
X149606000Y-78994000D02*
X146812000Y-78994000D01*
X146812000Y-78994000D02*
X146558000Y-78740000D01*
X146558000Y-78740000D02*
X141224000Y-78740000D01*
X141224000Y-78740000D02*
X140462000Y-79502000D01*
X140462000Y-79502000D02*
X140462000Y-80772000D01*
X140462000Y-85598000D02*
X125222000Y-85598000D01*
X125222000Y-85598000D02*
X124968000Y-85344000D01*
X124968000Y-85344000D02*
X124968000Y-84836000D01*
X124968000Y-84836000D02*
X124714000Y-84582000D01*
X140960000Y-85100000D02*
X140462000Y-85598000D01*
X140960000Y-84990000D02*
X140960000Y-85100000D01*
X120205001Y-83925001D02*
X115895001Y-83925001D01*
X115895001Y-83925001D02*
X115784999Y-83925001D01*
X115784999Y-83925001D02*
X115780000Y-83930000D01*
D11*
G36*
X192697455Y-76891988D02*
G01*
X193294000Y-77488533D01*
X193890545Y-76891988D01*
X193853633Y-76737500D01*
X194534500Y-76737500D01*
X194534501Y-85822500D01*
X193853633Y-85822500D01*
X193890545Y-85668012D01*
X193294000Y-85071467D01*
X192697455Y-85668012D01*
X192734367Y-85822500D01*
X189760497Y-85822500D01*
X189770100Y-85725000D01*
X189767500Y-85698602D01*
X189767500Y-84726924D01*
X192126437Y-84726924D01*
X192127592Y-84956799D01*
X192173571Y-85182033D01*
X192257054Y-85383580D01*
X192461988Y-85432545D01*
X193058533Y-84836000D01*
X193529467Y-84836000D01*
X194126012Y-85432545D01*
X194330946Y-85383580D01*
X194417849Y-85170760D01*
X194461563Y-84945076D01*
X194460408Y-84715201D01*
X194414429Y-84489967D01*
X194330946Y-84288420D01*
X194126012Y-84239455D01*
X193529467Y-84836000D01*
X193058533Y-84836000D01*
X192461988Y-84239455D01*
X192257054Y-84288420D01*
X192170151Y-84501240D01*
X192126437Y-84726924D01*
X189767500Y-84726924D01*
X189767500Y-84481390D01*
X189770099Y-84455000D01*
X189767500Y-84428610D01*
X189767500Y-84428602D01*
X189759722Y-84349632D01*
X189758318Y-84345003D01*
X189728987Y-84248312D01*
X189696482Y-84187500D01*
X189679077Y-84154937D01*
X189664100Y-84136688D01*
X189628736Y-84093596D01*
X189628732Y-84093592D01*
X189611908Y-84073092D01*
X189591407Y-84056267D01*
X189539128Y-84003988D01*
X192697455Y-84003988D01*
X193294000Y-84600533D01*
X193890545Y-84003988D01*
X193841580Y-83799054D01*
X193628760Y-83712151D01*
X193403076Y-83668437D01*
X193173201Y-83669592D01*
X192947967Y-83715571D01*
X192746420Y-83799054D01*
X192697455Y-84003988D01*
X189539128Y-84003988D01*
X189407500Y-83872360D01*
X189407500Y-83739976D01*
X189376276Y-83583003D01*
X189315028Y-83435137D01*
X189226110Y-83302062D01*
X189112938Y-83188890D01*
X189048984Y-83146157D01*
X191486409Y-80708733D01*
X191506909Y-80691909D01*
X191523733Y-80671409D01*
X191523737Y-80671405D01*
X191568029Y-80617435D01*
X191574078Y-80610064D01*
X191598666Y-80564063D01*
X191623988Y-80516689D01*
X191654723Y-80415370D01*
X191657133Y-80390901D01*
X191662501Y-80336399D01*
X191662501Y-80336391D01*
X191665100Y-80310001D01*
X191662501Y-80283611D01*
X191662501Y-79736389D01*
X191665100Y-79709999D01*
X191662501Y-79683609D01*
X191662501Y-79683601D01*
X191654723Y-79604631D01*
X191623988Y-79503312D01*
X191574078Y-79409936D01*
X191561060Y-79394074D01*
X191523737Y-79348595D01*
X191523733Y-79348591D01*
X191506909Y-79328091D01*
X191486408Y-79311266D01*
X191243453Y-79068311D01*
X191281276Y-78976997D01*
X191312500Y-78820024D01*
X191312500Y-78659976D01*
X191291821Y-78556012D01*
X192697455Y-78556012D01*
X192746420Y-78760946D01*
X192959240Y-78847849D01*
X193184924Y-78891563D01*
X193414799Y-78890408D01*
X193640033Y-78844429D01*
X193841580Y-78760946D01*
X193890545Y-78556012D01*
X193294000Y-77959467D01*
X192697455Y-78556012D01*
X191291821Y-78556012D01*
X191281276Y-78503003D01*
X191220028Y-78355137D01*
X191131110Y-78222062D01*
X191037500Y-78128452D01*
X191037500Y-77614924D01*
X192126437Y-77614924D01*
X192127592Y-77844799D01*
X192173571Y-78070033D01*
X192257054Y-78271580D01*
X192461988Y-78320545D01*
X193058533Y-77724000D01*
X193529467Y-77724000D01*
X194126012Y-78320545D01*
X194330946Y-78271580D01*
X194417849Y-78058760D01*
X194461563Y-77833076D01*
X194460408Y-77603201D01*
X194414429Y-77377967D01*
X194330946Y-77176420D01*
X194126012Y-77127455D01*
X193529467Y-77724000D01*
X193058533Y-77724000D01*
X192461988Y-77127455D01*
X192257054Y-77176420D01*
X192170151Y-77389240D01*
X192126437Y-77614924D01*
X191037500Y-77614924D01*
X191037500Y-77496390D01*
X191040099Y-77470000D01*
X191037500Y-77443610D01*
X191037500Y-77443602D01*
X191029722Y-77364632D01*
X191024332Y-77346863D01*
X190998987Y-77263312D01*
X190968386Y-77206062D01*
X190949077Y-77169937D01*
X190932767Y-77150063D01*
X190898736Y-77108596D01*
X190898732Y-77108592D01*
X190881908Y-77088092D01*
X190861407Y-77071267D01*
X190527639Y-76737500D01*
X192734367Y-76737500D01*
X192697455Y-76891988D01*
X192697455Y-76891988D01*
G37*
X192697455Y-76891988D02*
X193294000Y-77488533D01*
X193890545Y-76891988D01*
X193853633Y-76737500D01*
X194534500Y-76737500D01*
X194534501Y-85822500D01*
X193853633Y-85822500D01*
X193890545Y-85668012D01*
X193294000Y-85071467D01*
X192697455Y-85668012D01*
X192734367Y-85822500D01*
X189760497Y-85822500D01*
X189770100Y-85725000D01*
X189767500Y-85698602D01*
X189767500Y-84726924D01*
X192126437Y-84726924D01*
X192127592Y-84956799D01*
X192173571Y-85182033D01*
X192257054Y-85383580D01*
X192461988Y-85432545D01*
X193058533Y-84836000D01*
X193529467Y-84836000D01*
X194126012Y-85432545D01*
X194330946Y-85383580D01*
X194417849Y-85170760D01*
X194461563Y-84945076D01*
X194460408Y-84715201D01*
X194414429Y-84489967D01*
X194330946Y-84288420D01*
X194126012Y-84239455D01*
X193529467Y-84836000D01*
X193058533Y-84836000D01*
X192461988Y-84239455D01*
X192257054Y-84288420D01*
X192170151Y-84501240D01*
X192126437Y-84726924D01*
X189767500Y-84726924D01*
X189767500Y-84481390D01*
X189770099Y-84455000D01*
X189767500Y-84428610D01*
X189767500Y-84428602D01*
X189759722Y-84349632D01*
X189758318Y-84345003D01*
X189728987Y-84248312D01*
X189696482Y-84187500D01*
X189679077Y-84154937D01*
X189664100Y-84136688D01*
X189628736Y-84093596D01*
X189628732Y-84093592D01*
X189611908Y-84073092D01*
X189591407Y-84056267D01*
X189539128Y-84003988D01*
X192697455Y-84003988D01*
X193294000Y-84600533D01*
X193890545Y-84003988D01*
X193841580Y-83799054D01*
X193628760Y-83712151D01*
X193403076Y-83668437D01*
X193173201Y-83669592D01*
X192947967Y-83715571D01*
X192746420Y-83799054D01*
X192697455Y-84003988D01*
X189539128Y-84003988D01*
X189407500Y-83872360D01*
X189407500Y-83739976D01*
X189376276Y-83583003D01*
X189315028Y-83435137D01*
X189226110Y-83302062D01*
X189112938Y-83188890D01*
X189048984Y-83146157D01*
X191486409Y-80708733D01*
X191506909Y-80691909D01*
X191523733Y-80671409D01*
X191523737Y-80671405D01*
X191568029Y-80617435D01*
X191574078Y-80610064D01*
X191598666Y-80564063D01*
X191623988Y-80516689D01*
X191654723Y-80415370D01*
X191657133Y-80390901D01*
X191662501Y-80336399D01*
X191662501Y-80336391D01*
X191665100Y-80310001D01*
X191662501Y-80283611D01*
X191662501Y-79736389D01*
X191665100Y-79709999D01*
X191662501Y-79683609D01*
X191662501Y-79683601D01*
X191654723Y-79604631D01*
X191623988Y-79503312D01*
X191574078Y-79409936D01*
X191561060Y-79394074D01*
X191523737Y-79348595D01*
X191523733Y-79348591D01*
X191506909Y-79328091D01*
X191486408Y-79311266D01*
X191243453Y-79068311D01*
X191281276Y-78976997D01*
X191312500Y-78820024D01*
X191312500Y-78659976D01*
X191291821Y-78556012D01*
X192697455Y-78556012D01*
X192746420Y-78760946D01*
X192959240Y-78847849D01*
X193184924Y-78891563D01*
X193414799Y-78890408D01*
X193640033Y-78844429D01*
X193841580Y-78760946D01*
X193890545Y-78556012D01*
X193294000Y-77959467D01*
X192697455Y-78556012D01*
X191291821Y-78556012D01*
X191281276Y-78503003D01*
X191220028Y-78355137D01*
X191131110Y-78222062D01*
X191037500Y-78128452D01*
X191037500Y-77614924D01*
X192126437Y-77614924D01*
X192127592Y-77844799D01*
X192173571Y-78070033D01*
X192257054Y-78271580D01*
X192461988Y-78320545D01*
X193058533Y-77724000D01*
X193529467Y-77724000D01*
X194126012Y-78320545D01*
X194330946Y-78271580D01*
X194417849Y-78058760D01*
X194461563Y-77833076D01*
X194460408Y-77603201D01*
X194414429Y-77377967D01*
X194330946Y-77176420D01*
X194126012Y-77127455D01*
X193529467Y-77724000D01*
X193058533Y-77724000D01*
X192461988Y-77127455D01*
X192257054Y-77176420D01*
X192170151Y-77389240D01*
X192126437Y-77614924D01*
X191037500Y-77614924D01*
X191037500Y-77496390D01*
X191040099Y-77470000D01*
X191037500Y-77443610D01*
X191037500Y-77443602D01*
X191029722Y-77364632D01*
X191024332Y-77346863D01*
X190998987Y-77263312D01*
X190968386Y-77206062D01*
X190949077Y-77169937D01*
X190932767Y-77150063D01*
X190898736Y-77108596D01*
X190898732Y-77108592D01*
X190881908Y-77088092D01*
X190861407Y-77071267D01*
X190527639Y-76737500D01*
X192734367Y-76737500D01*
X192697455Y-76891988D01*
G36*
X100241455Y-76891988D02*
G01*
X100838000Y-77488533D01*
X101434545Y-76891988D01*
X101397633Y-76737500D01*
X113087938Y-76737500D01*
X113077500Y-76789976D01*
X113077500Y-76950024D01*
X113108724Y-77106997D01*
X113169972Y-77254863D01*
X113258890Y-77387938D01*
X113372062Y-77501110D01*
X113505137Y-77590028D01*
X113653003Y-77651276D01*
X113809976Y-77682500D01*
X113970024Y-77682500D01*
X114126997Y-77651276D01*
X114274863Y-77590028D01*
X114407938Y-77501110D01*
X114521110Y-77387938D01*
X114601584Y-77267500D01*
X114728500Y-77267500D01*
X114728500Y-77648855D01*
X114728501Y-77648865D01*
X114728500Y-79473146D01*
X114725658Y-79502000D01*
X114728500Y-79530853D01*
X114728500Y-79530855D01*
X114737001Y-79617169D01*
X114770595Y-79727913D01*
X114790338Y-79764849D01*
X114825149Y-79829976D01*
X114830113Y-79836024D01*
X114898565Y-79919435D01*
X114920986Y-79937835D01*
X115158168Y-80175018D01*
X115176565Y-80197435D01*
X115266024Y-80270851D01*
X115368086Y-80325405D01*
X115478830Y-80358999D01*
X115565144Y-80367500D01*
X115565156Y-80367500D01*
X115593999Y-80370341D01*
X115622842Y-80367500D01*
X116549519Y-80367500D01*
X116535500Y-80437976D01*
X116535500Y-80598024D01*
X116564238Y-80742500D01*
X114403548Y-80742500D01*
X114309938Y-80648890D01*
X114176863Y-80559972D01*
X114028997Y-80498724D01*
X113872024Y-80467500D01*
X113711976Y-80467500D01*
X113555003Y-80498724D01*
X113407137Y-80559972D01*
X113274062Y-80648890D01*
X113160890Y-80762062D01*
X113071972Y-80895137D01*
X113010724Y-81043003D01*
X112979500Y-81199976D01*
X112979500Y-81360024D01*
X113010724Y-81516997D01*
X113071972Y-81664863D01*
X113160890Y-81797938D01*
X113274062Y-81911110D01*
X113407137Y-82000028D01*
X113555003Y-82061276D01*
X113711976Y-82092500D01*
X113872024Y-82092500D01*
X114028997Y-82061276D01*
X114176863Y-82000028D01*
X114309938Y-81911110D01*
X114403548Y-81817500D01*
X114871026Y-81817500D01*
X114870646Y-81818418D01*
X114837500Y-81985051D01*
X114837500Y-82154949D01*
X114870646Y-82321582D01*
X114935663Y-82478547D01*
X115030053Y-82619812D01*
X115150188Y-82739947D01*
X115291453Y-82834337D01*
X115448418Y-82899354D01*
X115615051Y-82932500D01*
X115784949Y-82932500D01*
X115951582Y-82899354D01*
X116108547Y-82834337D01*
X116249812Y-82739947D01*
X116369947Y-82619812D01*
X116378174Y-82607500D01*
X118928452Y-82607500D01*
X118952062Y-82631110D01*
X119085137Y-82720028D01*
X119233003Y-82781276D01*
X119389976Y-82812500D01*
X119550024Y-82812500D01*
X119706997Y-82781276D01*
X119854863Y-82720028D01*
X119987938Y-82631110D01*
X120101110Y-82517938D01*
X120190028Y-82384863D01*
X120251276Y-82236997D01*
X120282500Y-82080024D01*
X120282500Y-81919976D01*
X120262116Y-81817500D01*
X120427361Y-81817500D01*
X120988595Y-82378735D01*
X120988601Y-82378740D01*
X121131263Y-82521402D01*
X121148092Y-82541908D01*
X121229937Y-82609077D01*
X121323313Y-82658987D01*
X121424632Y-82689722D01*
X121503602Y-82697500D01*
X121503611Y-82697500D01*
X121529999Y-82700099D01*
X121556387Y-82697500D01*
X124813452Y-82697500D01*
X124778452Y-82732500D01*
X124406387Y-82732500D01*
X124379999Y-82729901D01*
X124353611Y-82732500D01*
X124353602Y-82732500D01*
X124274632Y-82740278D01*
X124173313Y-82771013D01*
X124079937Y-82820923D01*
X124066919Y-82831606D01*
X124018596Y-82871264D01*
X124018592Y-82871268D01*
X123998092Y-82888092D01*
X123981268Y-82908593D01*
X123337361Y-83552500D01*
X121116387Y-83552500D01*
X121089999Y-83549901D01*
X121063611Y-83552500D01*
X121063602Y-83552500D01*
X120984632Y-83560278D01*
X120939093Y-83574092D01*
X120925029Y-83540138D01*
X120836111Y-83407063D01*
X120722939Y-83293891D01*
X120589864Y-83204973D01*
X120441998Y-83143725D01*
X120285025Y-83112501D01*
X120124977Y-83112501D01*
X119968004Y-83143725D01*
X119820138Y-83204973D01*
X119687063Y-83293891D01*
X119593453Y-83387501D01*
X116386549Y-83387501D01*
X116297938Y-83298890D01*
X116164863Y-83209972D01*
X116016997Y-83148724D01*
X115860024Y-83117500D01*
X115699976Y-83117500D01*
X115543003Y-83148724D01*
X115395137Y-83209972D01*
X115262062Y-83298890D01*
X115148890Y-83412062D01*
X115059972Y-83545137D01*
X114998724Y-83693003D01*
X114967500Y-83849976D01*
X114967500Y-84010024D01*
X114998724Y-84166997D01*
X115059972Y-84314863D01*
X115148890Y-84447938D01*
X115262062Y-84561110D01*
X115395137Y-84650028D01*
X115543003Y-84711276D01*
X115699976Y-84742500D01*
X111331548Y-84742500D01*
X111237938Y-84648890D01*
X111104863Y-84559972D01*
X110956997Y-84498724D01*
X110800024Y-84467500D01*
X110639976Y-84467500D01*
X110483003Y-84498724D01*
X110335137Y-84559972D01*
X110202062Y-84648890D01*
X110088890Y-84762062D01*
X109999972Y-84895137D01*
X109938724Y-85043003D01*
X109907500Y-85199976D01*
X109907500Y-85360024D01*
X109938724Y-85516997D01*
X109999972Y-85664863D01*
X110088890Y-85797938D01*
X110113452Y-85822500D01*
X101397633Y-85822500D01*
X101434545Y-85668012D01*
X100838000Y-85071467D01*
X100241455Y-85668012D01*
X100278367Y-85822500D01*
X99851500Y-85822500D01*
X99851500Y-85395633D01*
X100005988Y-85432545D01*
X100602533Y-84836000D01*
X101073467Y-84836000D01*
X101670012Y-85432545D01*
X101874946Y-85383580D01*
X101961849Y-85170760D01*
X102005563Y-84945076D01*
X102005242Y-84881250D01*
X107084048Y-84881250D01*
X107084048Y-81331250D01*
X101795953Y-81331250D01*
X101795953Y-84269546D01*
X101670012Y-84239455D01*
X101073467Y-84836000D01*
X100602533Y-84836000D01*
X100005988Y-84239455D01*
X99851500Y-84276367D01*
X99851500Y-84003988D01*
X100241455Y-84003988D01*
X100838000Y-84600533D01*
X101434545Y-84003988D01*
X101385580Y-83799054D01*
X101172760Y-83712151D01*
X100947076Y-83668437D01*
X100717201Y-83669592D01*
X100491967Y-83715571D01*
X100290420Y-83799054D01*
X100241455Y-84003988D01*
X99851500Y-84003988D01*
X99851500Y-80945976D01*
X109931500Y-80945976D01*
X109931500Y-81106024D01*
X109962724Y-81262997D01*
X110023972Y-81410863D01*
X110112890Y-81543938D01*
X110226062Y-81657110D01*
X110359137Y-81746028D01*
X110507003Y-81807276D01*
X110663976Y-81838500D01*
X110824024Y-81838500D01*
X110980997Y-81807276D01*
X111128863Y-81746028D01*
X111261938Y-81657110D01*
X111375110Y-81543938D01*
X111464028Y-81410863D01*
X111525276Y-81262997D01*
X111556500Y-81106024D01*
X111556500Y-80945976D01*
X111525276Y-80789003D01*
X111464028Y-80641137D01*
X111375110Y-80508062D01*
X111261938Y-80394890D01*
X111128863Y-80305972D01*
X110980997Y-80244724D01*
X110824024Y-80213500D01*
X110663976Y-80213500D01*
X110507003Y-80244724D01*
X110359137Y-80305972D01*
X110226062Y-80394890D01*
X110112890Y-80508062D01*
X110023972Y-80641137D01*
X109962724Y-80789003D01*
X109931500Y-80945976D01*
X99851500Y-80945976D01*
X99851500Y-78556012D01*
X100241455Y-78556012D01*
X100290420Y-78760946D01*
X100503240Y-78847849D01*
X100728924Y-78891563D01*
X100958799Y-78890408D01*
X101184033Y-78844429D01*
X101385580Y-78760946D01*
X101434544Y-78556014D01*
X101462667Y-78584137D01*
X101462667Y-80133750D01*
X113929334Y-80133750D01*
X113929334Y-77983750D01*
X101976378Y-77983750D01*
X102005563Y-77833076D01*
X102004408Y-77603201D01*
X101958429Y-77377967D01*
X101874946Y-77176420D01*
X101670012Y-77127455D01*
X101073467Y-77724000D01*
X101087609Y-77738142D01*
X100852142Y-77973609D01*
X100838000Y-77959467D01*
X100241455Y-78556012D01*
X99851500Y-78556012D01*
X99851500Y-78283633D01*
X100005988Y-78320545D01*
X100602533Y-77724000D01*
X100005988Y-77127455D01*
X99851500Y-77164367D01*
X99851500Y-76737500D01*
X100278367Y-76737500D01*
X100241455Y-76891988D01*
X100241455Y-76891988D01*
G37*
X100241455Y-76891988D02*
X100838000Y-77488533D01*
X101434545Y-76891988D01*
X101397633Y-76737500D01*
X113087938Y-76737500D01*
X113077500Y-76789976D01*
X113077500Y-76950024D01*
X113108724Y-77106997D01*
X113169972Y-77254863D01*
X113258890Y-77387938D01*
X113372062Y-77501110D01*
X113505137Y-77590028D01*
X113653003Y-77651276D01*
X113809976Y-77682500D01*
X113970024Y-77682500D01*
X114126997Y-77651276D01*
X114274863Y-77590028D01*
X114407938Y-77501110D01*
X114521110Y-77387938D01*
X114601584Y-77267500D01*
X114728500Y-77267500D01*
X114728500Y-77648855D01*
X114728501Y-77648865D01*
X114728500Y-79473146D01*
X114725658Y-79502000D01*
X114728500Y-79530853D01*
X114728500Y-79530855D01*
X114737001Y-79617169D01*
X114770595Y-79727913D01*
X114790338Y-79764849D01*
X114825149Y-79829976D01*
X114830113Y-79836024D01*
X114898565Y-79919435D01*
X114920986Y-79937835D01*
X115158168Y-80175018D01*
X115176565Y-80197435D01*
X115266024Y-80270851D01*
X115368086Y-80325405D01*
X115478830Y-80358999D01*
X115565144Y-80367500D01*
X115565156Y-80367500D01*
X115593999Y-80370341D01*
X115622842Y-80367500D01*
X116549519Y-80367500D01*
X116535500Y-80437976D01*
X116535500Y-80598024D01*
X116564238Y-80742500D01*
X114403548Y-80742500D01*
X114309938Y-80648890D01*
X114176863Y-80559972D01*
X114028997Y-80498724D01*
X113872024Y-80467500D01*
X113711976Y-80467500D01*
X113555003Y-80498724D01*
X113407137Y-80559972D01*
X113274062Y-80648890D01*
X113160890Y-80762062D01*
X113071972Y-80895137D01*
X113010724Y-81043003D01*
X112979500Y-81199976D01*
X112979500Y-81360024D01*
X113010724Y-81516997D01*
X113071972Y-81664863D01*
X113160890Y-81797938D01*
X113274062Y-81911110D01*
X113407137Y-82000028D01*
X113555003Y-82061276D01*
X113711976Y-82092500D01*
X113872024Y-82092500D01*
X114028997Y-82061276D01*
X114176863Y-82000028D01*
X114309938Y-81911110D01*
X114403548Y-81817500D01*
X114871026Y-81817500D01*
X114870646Y-81818418D01*
X114837500Y-81985051D01*
X114837500Y-82154949D01*
X114870646Y-82321582D01*
X114935663Y-82478547D01*
X115030053Y-82619812D01*
X115150188Y-82739947D01*
X115291453Y-82834337D01*
X115448418Y-82899354D01*
X115615051Y-82932500D01*
X115784949Y-82932500D01*
X115951582Y-82899354D01*
X116108547Y-82834337D01*
X116249812Y-82739947D01*
X116369947Y-82619812D01*
X116378174Y-82607500D01*
X118928452Y-82607500D01*
X118952062Y-82631110D01*
X119085137Y-82720028D01*
X119233003Y-82781276D01*
X119389976Y-82812500D01*
X119550024Y-82812500D01*
X119706997Y-82781276D01*
X119854863Y-82720028D01*
X119987938Y-82631110D01*
X120101110Y-82517938D01*
X120190028Y-82384863D01*
X120251276Y-82236997D01*
X120282500Y-82080024D01*
X120282500Y-81919976D01*
X120262116Y-81817500D01*
X120427361Y-81817500D01*
X120988595Y-82378735D01*
X120988601Y-82378740D01*
X121131263Y-82521402D01*
X121148092Y-82541908D01*
X121229937Y-82609077D01*
X121323313Y-82658987D01*
X121424632Y-82689722D01*
X121503602Y-82697500D01*
X121503611Y-82697500D01*
X121529999Y-82700099D01*
X121556387Y-82697500D01*
X124813452Y-82697500D01*
X124778452Y-82732500D01*
X124406387Y-82732500D01*
X124379999Y-82729901D01*
X124353611Y-82732500D01*
X124353602Y-82732500D01*
X124274632Y-82740278D01*
X124173313Y-82771013D01*
X124079937Y-82820923D01*
X124066919Y-82831606D01*
X124018596Y-82871264D01*
X124018592Y-82871268D01*
X123998092Y-82888092D01*
X123981268Y-82908593D01*
X123337361Y-83552500D01*
X121116387Y-83552500D01*
X121089999Y-83549901D01*
X121063611Y-83552500D01*
X121063602Y-83552500D01*
X120984632Y-83560278D01*
X120939093Y-83574092D01*
X120925029Y-83540138D01*
X120836111Y-83407063D01*
X120722939Y-83293891D01*
X120589864Y-83204973D01*
X120441998Y-83143725D01*
X120285025Y-83112501D01*
X120124977Y-83112501D01*
X119968004Y-83143725D01*
X119820138Y-83204973D01*
X119687063Y-83293891D01*
X119593453Y-83387501D01*
X116386549Y-83387501D01*
X116297938Y-83298890D01*
X116164863Y-83209972D01*
X116016997Y-83148724D01*
X115860024Y-83117500D01*
X115699976Y-83117500D01*
X115543003Y-83148724D01*
X115395137Y-83209972D01*
X115262062Y-83298890D01*
X115148890Y-83412062D01*
X115059972Y-83545137D01*
X114998724Y-83693003D01*
X114967500Y-83849976D01*
X114967500Y-84010024D01*
X114998724Y-84166997D01*
X115059972Y-84314863D01*
X115148890Y-84447938D01*
X115262062Y-84561110D01*
X115395137Y-84650028D01*
X115543003Y-84711276D01*
X115699976Y-84742500D01*
X111331548Y-84742500D01*
X111237938Y-84648890D01*
X111104863Y-84559972D01*
X110956997Y-84498724D01*
X110800024Y-84467500D01*
X110639976Y-84467500D01*
X110483003Y-84498724D01*
X110335137Y-84559972D01*
X110202062Y-84648890D01*
X110088890Y-84762062D01*
X109999972Y-84895137D01*
X109938724Y-85043003D01*
X109907500Y-85199976D01*
X109907500Y-85360024D01*
X109938724Y-85516997D01*
X109999972Y-85664863D01*
X110088890Y-85797938D01*
X110113452Y-85822500D01*
X101397633Y-85822500D01*
X101434545Y-85668012D01*
X100838000Y-85071467D01*
X100241455Y-85668012D01*
X100278367Y-85822500D01*
X99851500Y-85822500D01*
X99851500Y-85395633D01*
X100005988Y-85432545D01*
X100602533Y-84836000D01*
X101073467Y-84836000D01*
X101670012Y-85432545D01*
X101874946Y-85383580D01*
X101961849Y-85170760D01*
X102005563Y-84945076D01*
X102005242Y-84881250D01*
X107084048Y-84881250D01*
X107084048Y-81331250D01*
X101795953Y-81331250D01*
X101795953Y-84269546D01*
X101670012Y-84239455D01*
X101073467Y-84836000D01*
X100602533Y-84836000D01*
X100005988Y-84239455D01*
X99851500Y-84276367D01*
X99851500Y-84003988D01*
X100241455Y-84003988D01*
X100838000Y-84600533D01*
X101434545Y-84003988D01*
X101385580Y-83799054D01*
X101172760Y-83712151D01*
X100947076Y-83668437D01*
X100717201Y-83669592D01*
X100491967Y-83715571D01*
X100290420Y-83799054D01*
X100241455Y-84003988D01*
X99851500Y-84003988D01*
X99851500Y-80945976D01*
X109931500Y-80945976D01*
X109931500Y-81106024D01*
X109962724Y-81262997D01*
X110023972Y-81410863D01*
X110112890Y-81543938D01*
X110226062Y-81657110D01*
X110359137Y-81746028D01*
X110507003Y-81807276D01*
X110663976Y-81838500D01*
X110824024Y-81838500D01*
X110980997Y-81807276D01*
X111128863Y-81746028D01*
X111261938Y-81657110D01*
X111375110Y-81543938D01*
X111464028Y-81410863D01*
X111525276Y-81262997D01*
X111556500Y-81106024D01*
X111556500Y-80945976D01*
X111525276Y-80789003D01*
X111464028Y-80641137D01*
X111375110Y-80508062D01*
X111261938Y-80394890D01*
X111128863Y-80305972D01*
X110980997Y-80244724D01*
X110824024Y-80213500D01*
X110663976Y-80213500D01*
X110507003Y-80244724D01*
X110359137Y-80305972D01*
X110226062Y-80394890D01*
X110112890Y-80508062D01*
X110023972Y-80641137D01*
X109962724Y-80789003D01*
X109931500Y-80945976D01*
X99851500Y-80945976D01*
X99851500Y-78556012D01*
X100241455Y-78556012D01*
X100290420Y-78760946D01*
X100503240Y-78847849D01*
X100728924Y-78891563D01*
X100958799Y-78890408D01*
X101184033Y-78844429D01*
X101385580Y-78760946D01*
X101434544Y-78556014D01*
X101462667Y-78584137D01*
X101462667Y-80133750D01*
X113929334Y-80133750D01*
X113929334Y-77983750D01*
X101976378Y-77983750D01*
X102005563Y-77833076D01*
X102004408Y-77603201D01*
X101958429Y-77377967D01*
X101874946Y-77176420D01*
X101670012Y-77127455D01*
X101073467Y-77724000D01*
X101087609Y-77738142D01*
X100852142Y-77973609D01*
X100838000Y-77959467D01*
X100241455Y-78556012D01*
X99851500Y-78556012D01*
X99851500Y-78283633D01*
X100005988Y-78320545D01*
X100602533Y-77724000D01*
X100005988Y-77127455D01*
X99851500Y-77164367D01*
X99851500Y-76737500D01*
X100278367Y-76737500D01*
X100241455Y-76891988D01*
G36*
X145420287Y-84573459D02*
G01*
X145331369Y-84706534D01*
X145270121Y-84854400D01*
X145238897Y-85011373D01*
X145238897Y-85171421D01*
X145270121Y-85328394D01*
X145331369Y-85476260D01*
X145420287Y-85609335D01*
X145533459Y-85722507D01*
X145666534Y-85811425D01*
X145693271Y-85822500D01*
X140997639Y-85822500D01*
X141017639Y-85802500D01*
X141040024Y-85802500D01*
X141196997Y-85771276D01*
X141344863Y-85710028D01*
X141477938Y-85621110D01*
X141591110Y-85507938D01*
X141680028Y-85374863D01*
X141741276Y-85226997D01*
X141772500Y-85070024D01*
X141772500Y-84909976D01*
X141768031Y-84887510D01*
X142177371Y-84887510D01*
X142581257Y-85291397D01*
X142619972Y-85384863D01*
X142708890Y-85517938D01*
X142822062Y-85631110D01*
X142955137Y-85720028D01*
X143103003Y-85781276D01*
X143259976Y-85812500D01*
X143420024Y-85812500D01*
X143576997Y-85781276D01*
X143724863Y-85720028D01*
X143857938Y-85631110D01*
X143971110Y-85517938D01*
X144060028Y-85384863D01*
X144121276Y-85236997D01*
X144152500Y-85080024D01*
X144152500Y-84919976D01*
X144121276Y-84763003D01*
X144060028Y-84615137D01*
X144008153Y-84537500D01*
X145456246Y-84537500D01*
X145420287Y-84573459D01*
X145420287Y-84573459D01*
G37*
X145420287Y-84573459D02*
X145331369Y-84706534D01*
X145270121Y-84854400D01*
X145238897Y-85011373D01*
X145238897Y-85171421D01*
X145270121Y-85328394D01*
X145331369Y-85476260D01*
X145420287Y-85609335D01*
X145533459Y-85722507D01*
X145666534Y-85811425D01*
X145693271Y-85822500D01*
X140997639Y-85822500D01*
X141017639Y-85802500D01*
X141040024Y-85802500D01*
X141196997Y-85771276D01*
X141344863Y-85710028D01*
X141477938Y-85621110D01*
X141591110Y-85507938D01*
X141680028Y-85374863D01*
X141741276Y-85226997D01*
X141772500Y-85070024D01*
X141772500Y-84909976D01*
X141768031Y-84887510D01*
X142177371Y-84887510D01*
X142581257Y-85291397D01*
X142619972Y-85384863D01*
X142708890Y-85517938D01*
X142822062Y-85631110D01*
X142955137Y-85720028D01*
X143103003Y-85781276D01*
X143259976Y-85812500D01*
X143420024Y-85812500D01*
X143576997Y-85781276D01*
X143724863Y-85720028D01*
X143857938Y-85631110D01*
X143971110Y-85517938D01*
X144060028Y-85384863D01*
X144121276Y-85236997D01*
X144152500Y-85080024D01*
X144152500Y-84919976D01*
X144121276Y-84763003D01*
X144060028Y-84615137D01*
X144008153Y-84537500D01*
X145456246Y-84537500D01*
X145420287Y-84573459D01*
G36*
X165568724Y-78613003D02*
G01*
X165537500Y-78769976D01*
X165537500Y-78930024D01*
X165563679Y-79061634D01*
X165562500Y-79073603D01*
X165562500Y-79073612D01*
X165559901Y-79100000D01*
X165562500Y-79126388D01*
X165562501Y-82823602D01*
X165559901Y-82850000D01*
X165563680Y-82888363D01*
X165537500Y-83019976D01*
X165537500Y-83180024D01*
X165557884Y-83282500D01*
X163417640Y-83282500D01*
X163097500Y-82962361D01*
X163097500Y-82526548D01*
X163191110Y-82432938D01*
X163280028Y-82299863D01*
X163341276Y-82151997D01*
X163372500Y-81995024D01*
X163372500Y-81834976D01*
X163341276Y-81678003D01*
X163280028Y-81530137D01*
X163191110Y-81397062D01*
X163077938Y-81283890D01*
X162944863Y-81194972D01*
X162796997Y-81133724D01*
X162640024Y-81102500D01*
X162479976Y-81102500D01*
X162323003Y-81133724D01*
X162175137Y-81194972D01*
X162042062Y-81283890D01*
X161928890Y-81397062D01*
X161839972Y-81530137D01*
X161778724Y-81678003D01*
X161747500Y-81834976D01*
X161747500Y-81995024D01*
X161778724Y-82151997D01*
X161839972Y-82299863D01*
X161928890Y-82432938D01*
X162022500Y-82526548D01*
X162022501Y-83158602D01*
X162019901Y-83185000D01*
X162022501Y-83211398D01*
X162022610Y-83212500D01*
X162030279Y-83290368D01*
X162030925Y-83292499D01*
X161276547Y-83292499D01*
X161171541Y-83187493D01*
X161038466Y-83098575D01*
X160890600Y-83037327D01*
X160733627Y-83006103D01*
X160573579Y-83006103D01*
X160416606Y-83037327D01*
X160268740Y-83098575D01*
X160135665Y-83187493D01*
X160022493Y-83300665D01*
X159933575Y-83433740D01*
X159872327Y-83581606D01*
X159841103Y-83738579D01*
X159841103Y-83898627D01*
X159872327Y-84055600D01*
X159933575Y-84203466D01*
X160022493Y-84336541D01*
X160135665Y-84449713D01*
X160268740Y-84538631D01*
X160278083Y-84542501D01*
X157858893Y-84542501D01*
X157864863Y-84540028D01*
X157997938Y-84451110D01*
X158111110Y-84337938D01*
X158200028Y-84204863D01*
X158261276Y-84056997D01*
X158292500Y-83900024D01*
X158292500Y-83739976D01*
X158261276Y-83583003D01*
X158200028Y-83435137D01*
X158111110Y-83302062D01*
X158017500Y-83208452D01*
X158017500Y-81891548D01*
X158111110Y-81797938D01*
X158200028Y-81664863D01*
X158261276Y-81516997D01*
X158292500Y-81360024D01*
X158292500Y-81199976D01*
X158267692Y-81075257D01*
X161243855Y-81075257D01*
X161270243Y-81077856D01*
X161296631Y-81075257D01*
X161296641Y-81075257D01*
X161375611Y-81067479D01*
X161476930Y-81036744D01*
X161570306Y-80986834D01*
X161652151Y-80919665D01*
X161668980Y-80899159D01*
X164052640Y-78515500D01*
X165609111Y-78515500D01*
X165568724Y-78613003D01*
X165568724Y-78613003D01*
G37*
X165568724Y-78613003D02*
X165537500Y-78769976D01*
X165537500Y-78930024D01*
X165563679Y-79061634D01*
X165562500Y-79073603D01*
X165562500Y-79073612D01*
X165559901Y-79100000D01*
X165562500Y-79126388D01*
X165562501Y-82823602D01*
X165559901Y-82850000D01*
X165563680Y-82888363D01*
X165537500Y-83019976D01*
X165537500Y-83180024D01*
X165557884Y-83282500D01*
X163417640Y-83282500D01*
X163097500Y-82962361D01*
X163097500Y-82526548D01*
X163191110Y-82432938D01*
X163280028Y-82299863D01*
X163341276Y-82151997D01*
X163372500Y-81995024D01*
X163372500Y-81834976D01*
X163341276Y-81678003D01*
X163280028Y-81530137D01*
X163191110Y-81397062D01*
X163077938Y-81283890D01*
X162944863Y-81194972D01*
X162796997Y-81133724D01*
X162640024Y-81102500D01*
X162479976Y-81102500D01*
X162323003Y-81133724D01*
X162175137Y-81194972D01*
X162042062Y-81283890D01*
X161928890Y-81397062D01*
X161839972Y-81530137D01*
X161778724Y-81678003D01*
X161747500Y-81834976D01*
X161747500Y-81995024D01*
X161778724Y-82151997D01*
X161839972Y-82299863D01*
X161928890Y-82432938D01*
X162022500Y-82526548D01*
X162022501Y-83158602D01*
X162019901Y-83185000D01*
X162022501Y-83211398D01*
X162022610Y-83212500D01*
X162030279Y-83290368D01*
X162030925Y-83292499D01*
X161276547Y-83292499D01*
X161171541Y-83187493D01*
X161038466Y-83098575D01*
X160890600Y-83037327D01*
X160733627Y-83006103D01*
X160573579Y-83006103D01*
X160416606Y-83037327D01*
X160268740Y-83098575D01*
X160135665Y-83187493D01*
X160022493Y-83300665D01*
X159933575Y-83433740D01*
X159872327Y-83581606D01*
X159841103Y-83738579D01*
X159841103Y-83898627D01*
X159872327Y-84055600D01*
X159933575Y-84203466D01*
X160022493Y-84336541D01*
X160135665Y-84449713D01*
X160268740Y-84538631D01*
X160278083Y-84542501D01*
X157858893Y-84542501D01*
X157864863Y-84540028D01*
X157997938Y-84451110D01*
X158111110Y-84337938D01*
X158200028Y-84204863D01*
X158261276Y-84056997D01*
X158292500Y-83900024D01*
X158292500Y-83739976D01*
X158261276Y-83583003D01*
X158200028Y-83435137D01*
X158111110Y-83302062D01*
X158017500Y-83208452D01*
X158017500Y-81891548D01*
X158111110Y-81797938D01*
X158200028Y-81664863D01*
X158261276Y-81516997D01*
X158292500Y-81360024D01*
X158292500Y-81199976D01*
X158267692Y-81075257D01*
X161243855Y-81075257D01*
X161270243Y-81077856D01*
X161296631Y-81075257D01*
X161296641Y-81075257D01*
X161375611Y-81067479D01*
X161476930Y-81036744D01*
X161570306Y-80986834D01*
X161652151Y-80919665D01*
X161668980Y-80899159D01*
X164052640Y-78515500D01*
X165609111Y-78515500D01*
X165568724Y-78613003D01*
G36*
X132537500Y-82977976D02*
G01*
X132537500Y-83138024D01*
X132568724Y-83294997D01*
X132584589Y-83333299D01*
X132480024Y-83312500D01*
X132319976Y-83312500D01*
X132163003Y-83343724D01*
X132015137Y-83404972D01*
X131882062Y-83493890D01*
X131768890Y-83607062D01*
X131679972Y-83740137D01*
X131618724Y-83888003D01*
X131587500Y-84044976D01*
X131587500Y-84205024D01*
X131606094Y-84298500D01*
X130328387Y-84298500D01*
X130301999Y-84295901D01*
X130275611Y-84298500D01*
X130275602Y-84298500D01*
X130196632Y-84306278D01*
X130095313Y-84337013D01*
X130082324Y-84343956D01*
X130056276Y-84213003D01*
X129995028Y-84065137D01*
X129906110Y-83932062D01*
X129792938Y-83818890D01*
X129659863Y-83729972D01*
X129511997Y-83668724D01*
X129355024Y-83637500D01*
X129194976Y-83637500D01*
X129038003Y-83668724D01*
X128890137Y-83729972D01*
X128757062Y-83818890D01*
X128663452Y-83912500D01*
X126842639Y-83912500D01*
X126668736Y-83738597D01*
X126651908Y-83718092D01*
X126570063Y-83650923D01*
X126529243Y-83629104D01*
X126468736Y-83568597D01*
X126451908Y-83548092D01*
X126370063Y-83480923D01*
X126276687Y-83431013D01*
X126191529Y-83405180D01*
X126202500Y-83350024D01*
X126202500Y-83258723D01*
X126285313Y-83302987D01*
X126386632Y-83333722D01*
X126465602Y-83341500D01*
X126465611Y-83341500D01*
X126491999Y-83344099D01*
X126518387Y-83341500D01*
X130275612Y-83341500D01*
X130302000Y-83344099D01*
X130328388Y-83341500D01*
X130328398Y-83341500D01*
X130407368Y-83333722D01*
X130508687Y-83302987D01*
X130602063Y-83253077D01*
X130683908Y-83185908D01*
X130700737Y-83165403D01*
X131032640Y-82833500D01*
X132566238Y-82833500D01*
X132537500Y-82977976D01*
X132537500Y-82977976D01*
G37*
X132537500Y-82977976D02*
X132537500Y-83138024D01*
X132568724Y-83294997D01*
X132584589Y-83333299D01*
X132480024Y-83312500D01*
X132319976Y-83312500D01*
X132163003Y-83343724D01*
X132015137Y-83404972D01*
X131882062Y-83493890D01*
X131768890Y-83607062D01*
X131679972Y-83740137D01*
X131618724Y-83888003D01*
X131587500Y-84044976D01*
X131587500Y-84205024D01*
X131606094Y-84298500D01*
X130328387Y-84298500D01*
X130301999Y-84295901D01*
X130275611Y-84298500D01*
X130275602Y-84298500D01*
X130196632Y-84306278D01*
X130095313Y-84337013D01*
X130082324Y-84343956D01*
X130056276Y-84213003D01*
X129995028Y-84065137D01*
X129906110Y-83932062D01*
X129792938Y-83818890D01*
X129659863Y-83729972D01*
X129511997Y-83668724D01*
X129355024Y-83637500D01*
X129194976Y-83637500D01*
X129038003Y-83668724D01*
X128890137Y-83729972D01*
X128757062Y-83818890D01*
X128663452Y-83912500D01*
X126842639Y-83912500D01*
X126668736Y-83738597D01*
X126651908Y-83718092D01*
X126570063Y-83650923D01*
X126529243Y-83629104D01*
X126468736Y-83568597D01*
X126451908Y-83548092D01*
X126370063Y-83480923D01*
X126276687Y-83431013D01*
X126191529Y-83405180D01*
X126202500Y-83350024D01*
X126202500Y-83258723D01*
X126285313Y-83302987D01*
X126386632Y-83333722D01*
X126465602Y-83341500D01*
X126465611Y-83341500D01*
X126491999Y-83344099D01*
X126518387Y-83341500D01*
X130275612Y-83341500D01*
X130302000Y-83344099D01*
X130328388Y-83341500D01*
X130328398Y-83341500D01*
X130407368Y-83333722D01*
X130508687Y-83302987D01*
X130602063Y-83253077D01*
X130683908Y-83185908D01*
X130700737Y-83165403D01*
X131032640Y-82833500D01*
X132566238Y-82833500D01*
X132537500Y-82977976D01*
G36*
X189687500Y-79957640D02*
G01*
X189687500Y-80090024D01*
X189718724Y-80246997D01*
X189779972Y-80394863D01*
X189868890Y-80527938D01*
X189982062Y-80641110D01*
X190013048Y-80661814D01*
X186980820Y-83694043D01*
X186928394Y-83672327D01*
X186771421Y-83641103D01*
X186611373Y-83641103D01*
X186592500Y-83644857D01*
X186592500Y-82697089D01*
X186669976Y-82712500D01*
X186830024Y-82712500D01*
X186986997Y-82681276D01*
X187134863Y-82620028D01*
X187267938Y-82531110D01*
X187381110Y-82417938D01*
X187470028Y-82284863D01*
X187531276Y-82136997D01*
X187562500Y-81980024D01*
X187562500Y-81819976D01*
X187531276Y-81663003D01*
X187470028Y-81515137D01*
X187381110Y-81382062D01*
X187267938Y-81268890D01*
X187134863Y-81179972D01*
X186986997Y-81118724D01*
X186830024Y-81087500D01*
X186669976Y-81087500D01*
X186538367Y-81113679D01*
X186526398Y-81112500D01*
X186526388Y-81112500D01*
X186500000Y-81109901D01*
X186473612Y-81112500D01*
X185685596Y-81112500D01*
X185720063Y-81094077D01*
X185801908Y-81026908D01*
X185818737Y-81006402D01*
X186416407Y-80408733D01*
X186436908Y-80391908D01*
X186453732Y-80371408D01*
X186453736Y-80371404D01*
X186504076Y-80310064D01*
X186506264Y-80305972D01*
X186530763Y-80260137D01*
X186553987Y-80216688D01*
X186584722Y-80115369D01*
X186585955Y-80102846D01*
X186592500Y-80036398D01*
X186592500Y-80036390D01*
X186595099Y-80010000D01*
X186592763Y-79986285D01*
X186686110Y-79892938D01*
X186775028Y-79759863D01*
X186836276Y-79611997D01*
X186867500Y-79455024D01*
X186867500Y-79294976D01*
X186836276Y-79138003D01*
X186784290Y-79012497D01*
X188742358Y-79012497D01*
X189687500Y-79957640D01*
X189687500Y-79957640D01*
G37*
X189687500Y-79957640D02*
X189687500Y-80090024D01*
X189718724Y-80246997D01*
X189779972Y-80394863D01*
X189868890Y-80527938D01*
X189982062Y-80641110D01*
X190013048Y-80661814D01*
X186980820Y-83694043D01*
X186928394Y-83672327D01*
X186771421Y-83641103D01*
X186611373Y-83641103D01*
X186592500Y-83644857D01*
X186592500Y-82697089D01*
X186669976Y-82712500D01*
X186830024Y-82712500D01*
X186986997Y-82681276D01*
X187134863Y-82620028D01*
X187267938Y-82531110D01*
X187381110Y-82417938D01*
X187470028Y-82284863D01*
X187531276Y-82136997D01*
X187562500Y-81980024D01*
X187562500Y-81819976D01*
X187531276Y-81663003D01*
X187470028Y-81515137D01*
X187381110Y-81382062D01*
X187267938Y-81268890D01*
X187134863Y-81179972D01*
X186986997Y-81118724D01*
X186830024Y-81087500D01*
X186669976Y-81087500D01*
X186538367Y-81113679D01*
X186526398Y-81112500D01*
X186526388Y-81112500D01*
X186500000Y-81109901D01*
X186473612Y-81112500D01*
X185685596Y-81112500D01*
X185720063Y-81094077D01*
X185801908Y-81026908D01*
X185818737Y-81006402D01*
X186416407Y-80408733D01*
X186436908Y-80391908D01*
X186453732Y-80371408D01*
X186453736Y-80371404D01*
X186504076Y-80310064D01*
X186506264Y-80305972D01*
X186530763Y-80260137D01*
X186553987Y-80216688D01*
X186584722Y-80115369D01*
X186585955Y-80102846D01*
X186592500Y-80036398D01*
X186592500Y-80036390D01*
X186595099Y-80010000D01*
X186592763Y-79986285D01*
X186686110Y-79892938D01*
X186775028Y-79759863D01*
X186836276Y-79611997D01*
X186867500Y-79455024D01*
X186867500Y-79294976D01*
X186836276Y-79138003D01*
X186784290Y-79012497D01*
X188742358Y-79012497D01*
X189687500Y-79957640D01*
G36*
X174875137Y-77384972D02*
G01*
X174742062Y-77473890D01*
X174628890Y-77587062D01*
X174539972Y-77720137D01*
X174478724Y-77868003D01*
X174447500Y-78024976D01*
X174447500Y-78185024D01*
X174478724Y-78341997D01*
X174539972Y-78489863D01*
X174628890Y-78622938D01*
X174722501Y-78716549D01*
X174722500Y-79983612D01*
X174719901Y-80010000D01*
X174722500Y-80036388D01*
X174722500Y-80036397D01*
X174730278Y-80115367D01*
X174761013Y-80216686D01*
X174810923Y-80310063D01*
X174878092Y-80391908D01*
X174898597Y-80408736D01*
X175496267Y-81006407D01*
X175513092Y-81026908D01*
X175533592Y-81043732D01*
X175533596Y-81043736D01*
X175578677Y-81080733D01*
X175594937Y-81094077D01*
X175638402Y-81117309D01*
X175688312Y-81143987D01*
X175789631Y-81174722D01*
X175798903Y-81175635D01*
X175868602Y-81182500D01*
X175868610Y-81182500D01*
X175895000Y-81185099D01*
X175921390Y-81182500D01*
X176810247Y-81182500D01*
X176780137Y-81194972D01*
X176647062Y-81283890D01*
X176533890Y-81397062D01*
X176444972Y-81530137D01*
X176383724Y-81678003D01*
X176352500Y-81834976D01*
X176352500Y-81995024D01*
X176383724Y-82151997D01*
X176444972Y-82299863D01*
X176533890Y-82432938D01*
X176647062Y-82546110D01*
X176780137Y-82635028D01*
X176928003Y-82696276D01*
X177084976Y-82727500D01*
X177245024Y-82727500D01*
X177401997Y-82696276D01*
X177549863Y-82635028D01*
X177622500Y-82586493D01*
X177622500Y-82630024D01*
X177653724Y-82786997D01*
X177714972Y-82934863D01*
X177803890Y-83067938D01*
X177917062Y-83181110D01*
X178050137Y-83270028D01*
X178080247Y-83282500D01*
X176506548Y-83282500D01*
X176412938Y-83188890D01*
X176279863Y-83099972D01*
X176131997Y-83038724D01*
X175975024Y-83007500D01*
X175842640Y-83007500D01*
X174378736Y-81543597D01*
X174361909Y-81523093D01*
X174280064Y-81455924D01*
X174186688Y-81406014D01*
X174085369Y-81375279D01*
X174006399Y-81367501D01*
X174006389Y-81367501D01*
X173980001Y-81364902D01*
X173953613Y-81367501D01*
X171193893Y-81367501D01*
X171199863Y-81365028D01*
X171332938Y-81276110D01*
X171426548Y-81182500D01*
X171713614Y-81182500D01*
X171740002Y-81185099D01*
X171766390Y-81182500D01*
X171766400Y-81182500D01*
X171845370Y-81174722D01*
X171946689Y-81143987D01*
X172040065Y-81094077D01*
X172121910Y-81026908D01*
X172138739Y-81006402D01*
X173716408Y-79428734D01*
X173736908Y-79411910D01*
X173753732Y-79391410D01*
X173753736Y-79391406D01*
X173802025Y-79332565D01*
X173804077Y-79330065D01*
X173853987Y-79236689D01*
X173884722Y-79135370D01*
X173892500Y-79056400D01*
X173892500Y-79056391D01*
X173895099Y-79030003D01*
X173892500Y-79003615D01*
X173892500Y-78719342D01*
X173987507Y-78624335D01*
X174076425Y-78491260D01*
X174137673Y-78343394D01*
X174168897Y-78186421D01*
X174168897Y-78026373D01*
X174137673Y-77869400D01*
X174076425Y-77721534D01*
X173987507Y-77588459D01*
X173874335Y-77475287D01*
X173741260Y-77386369D01*
X173707777Y-77372500D01*
X174905247Y-77372500D01*
X174875137Y-77384972D01*
X174875137Y-77384972D01*
G37*
X174875137Y-77384972D02*
X174742062Y-77473890D01*
X174628890Y-77587062D01*
X174539972Y-77720137D01*
X174478724Y-77868003D01*
X174447500Y-78024976D01*
X174447500Y-78185024D01*
X174478724Y-78341997D01*
X174539972Y-78489863D01*
X174628890Y-78622938D01*
X174722501Y-78716549D01*
X174722500Y-79983612D01*
X174719901Y-80010000D01*
X174722500Y-80036388D01*
X174722500Y-80036397D01*
X174730278Y-80115367D01*
X174761013Y-80216686D01*
X174810923Y-80310063D01*
X174878092Y-80391908D01*
X174898597Y-80408736D01*
X175496267Y-81006407D01*
X175513092Y-81026908D01*
X175533592Y-81043732D01*
X175533596Y-81043736D01*
X175578677Y-81080733D01*
X175594937Y-81094077D01*
X175638402Y-81117309D01*
X175688312Y-81143987D01*
X175789631Y-81174722D01*
X175798903Y-81175635D01*
X175868602Y-81182500D01*
X175868610Y-81182500D01*
X175895000Y-81185099D01*
X175921390Y-81182500D01*
X176810247Y-81182500D01*
X176780137Y-81194972D01*
X176647062Y-81283890D01*
X176533890Y-81397062D01*
X176444972Y-81530137D01*
X176383724Y-81678003D01*
X176352500Y-81834976D01*
X176352500Y-81995024D01*
X176383724Y-82151997D01*
X176444972Y-82299863D01*
X176533890Y-82432938D01*
X176647062Y-82546110D01*
X176780137Y-82635028D01*
X176928003Y-82696276D01*
X177084976Y-82727500D01*
X177245024Y-82727500D01*
X177401997Y-82696276D01*
X177549863Y-82635028D01*
X177622500Y-82586493D01*
X177622500Y-82630024D01*
X177653724Y-82786997D01*
X177714972Y-82934863D01*
X177803890Y-83067938D01*
X177917062Y-83181110D01*
X178050137Y-83270028D01*
X178080247Y-83282500D01*
X176506548Y-83282500D01*
X176412938Y-83188890D01*
X176279863Y-83099972D01*
X176131997Y-83038724D01*
X175975024Y-83007500D01*
X175842640Y-83007500D01*
X174378736Y-81543597D01*
X174361909Y-81523093D01*
X174280064Y-81455924D01*
X174186688Y-81406014D01*
X174085369Y-81375279D01*
X174006399Y-81367501D01*
X174006389Y-81367501D01*
X173980001Y-81364902D01*
X173953613Y-81367501D01*
X171193893Y-81367501D01*
X171199863Y-81365028D01*
X171332938Y-81276110D01*
X171426548Y-81182500D01*
X171713614Y-81182500D01*
X171740002Y-81185099D01*
X171766390Y-81182500D01*
X171766400Y-81182500D01*
X171845370Y-81174722D01*
X171946689Y-81143987D01*
X172040065Y-81094077D01*
X172121910Y-81026908D01*
X172138739Y-81006402D01*
X173716408Y-79428734D01*
X173736908Y-79411910D01*
X173753732Y-79391410D01*
X173753736Y-79391406D01*
X173802025Y-79332565D01*
X173804077Y-79330065D01*
X173853987Y-79236689D01*
X173884722Y-79135370D01*
X173892500Y-79056400D01*
X173892500Y-79056391D01*
X173895099Y-79030003D01*
X173892500Y-79003615D01*
X173892500Y-78719342D01*
X173987507Y-78624335D01*
X174076425Y-78491260D01*
X174137673Y-78343394D01*
X174168897Y-78186421D01*
X174168897Y-78026373D01*
X174137673Y-77869400D01*
X174076425Y-77721534D01*
X173987507Y-77588459D01*
X173874335Y-77475287D01*
X173741260Y-77386369D01*
X173707777Y-77372500D01*
X174905247Y-77372500D01*
X174875137Y-77384972D01*
G36*
X129530062Y-81911110D02*
G01*
X129663137Y-82000028D01*
X129811003Y-82061276D01*
X129967976Y-82092500D01*
X130128024Y-82092500D01*
X130284482Y-82061378D01*
X130079361Y-82266500D01*
X126714640Y-82266500D01*
X126499334Y-82051195D01*
X126622863Y-82000028D01*
X126755938Y-81911110D01*
X126849548Y-81817500D01*
X129436452Y-81817500D01*
X129530062Y-81911110D01*
X129530062Y-81911110D01*
G37*
X129530062Y-81911110D02*
X129663137Y-82000028D01*
X129811003Y-82061276D01*
X129967976Y-82092500D01*
X130128024Y-82092500D01*
X130284482Y-82061378D01*
X130079361Y-82266500D01*
X126714640Y-82266500D01*
X126499334Y-82051195D01*
X126622863Y-82000028D01*
X126755938Y-81911110D01*
X126849548Y-81817500D01*
X129436452Y-81817500D01*
X129530062Y-81911110D01*
G36*
X135118062Y-81403110D02*
G01*
X135251137Y-81492028D01*
X135399003Y-81553276D01*
X135555976Y-81584500D01*
X135716024Y-81584500D01*
X135872997Y-81553276D01*
X136020863Y-81492028D01*
X136082958Y-81450537D01*
X136073180Y-81499696D01*
X136073180Y-81659744D01*
X136104404Y-81816717D01*
X136165652Y-81964583D01*
X136197669Y-82012500D01*
X134588639Y-82012500D01*
X134510736Y-81934597D01*
X134493908Y-81914092D01*
X134412063Y-81846923D01*
X134318687Y-81797013D01*
X134217368Y-81766278D01*
X134138398Y-81758500D01*
X134138388Y-81758500D01*
X134112000Y-81755901D01*
X134085612Y-81758500D01*
X130836387Y-81758500D01*
X130809999Y-81755901D01*
X130783611Y-81758500D01*
X130783602Y-81758500D01*
X130704632Y-81766278D01*
X130699154Y-81767940D01*
X130768028Y-81664863D01*
X130829276Y-81516997D01*
X130860500Y-81360024D01*
X130860500Y-81309500D01*
X135024452Y-81309500D01*
X135118062Y-81403110D01*
X135118062Y-81403110D01*
G37*
X135118062Y-81403110D02*
X135251137Y-81492028D01*
X135399003Y-81553276D01*
X135555976Y-81584500D01*
X135716024Y-81584500D01*
X135872997Y-81553276D01*
X136020863Y-81492028D01*
X136082958Y-81450537D01*
X136073180Y-81499696D01*
X136073180Y-81659744D01*
X136104404Y-81816717D01*
X136165652Y-81964583D01*
X136197669Y-82012500D01*
X134588639Y-82012500D01*
X134510736Y-81934597D01*
X134493908Y-81914092D01*
X134412063Y-81846923D01*
X134318687Y-81797013D01*
X134217368Y-81766278D01*
X134138398Y-81758500D01*
X134138388Y-81758500D01*
X134112000Y-81755901D01*
X134085612Y-81758500D01*
X130836387Y-81758500D01*
X130809999Y-81755901D01*
X130783611Y-81758500D01*
X130783602Y-81758500D01*
X130704632Y-81766278D01*
X130699154Y-81767940D01*
X130768028Y-81664863D01*
X130829276Y-81516997D01*
X130860500Y-81360024D01*
X130860500Y-81309500D01*
X135024452Y-81309500D01*
X135118062Y-81403110D01*
G36*
X183268724Y-81413003D02*
G01*
X183237500Y-81569976D01*
X183237500Y-81730024D01*
X183268724Y-81886997D01*
X183320709Y-82012500D01*
X182647639Y-82012500D01*
X183283989Y-81376150D01*
X183268724Y-81413003D01*
X183268724Y-81413003D01*
G37*
X183268724Y-81413003D02*
X183237500Y-81569976D01*
X183237500Y-81730024D01*
X183268724Y-81886997D01*
X183320709Y-82012500D01*
X182647639Y-82012500D01*
X183283989Y-81376150D01*
X183268724Y-81413003D01*
G36*
X177917062Y-77466110D02*
G01*
X178050137Y-77555028D01*
X178198003Y-77616276D01*
X178354976Y-77647500D01*
X178515024Y-77647500D01*
X178671997Y-77616276D01*
X178819863Y-77555028D01*
X178952938Y-77466110D01*
X179046548Y-77372500D01*
X181714503Y-77372500D01*
X181704900Y-77470000D01*
X181707501Y-77496408D01*
X181707500Y-80033452D01*
X181613890Y-80127062D01*
X181524972Y-80260137D01*
X181463724Y-80408003D01*
X181432500Y-80564976D01*
X181432500Y-80725024D01*
X181463724Y-80881997D01*
X181524972Y-81029863D01*
X181613890Y-81162938D01*
X181727062Y-81276110D01*
X181809001Y-81330860D01*
X181762361Y-81377500D01*
X178789753Y-81377500D01*
X178819863Y-81365028D01*
X178952938Y-81276110D01*
X179066110Y-81162938D01*
X179155028Y-81029863D01*
X179216276Y-80881997D01*
X179247500Y-80725024D01*
X179247500Y-80564976D01*
X179216276Y-80408003D01*
X179155028Y-80260137D01*
X179066110Y-80127062D01*
X178952938Y-80013890D01*
X178819863Y-79924972D01*
X178671997Y-79863724D01*
X178515024Y-79832500D01*
X178354976Y-79832500D01*
X178198003Y-79863724D01*
X178050137Y-79924972D01*
X177917062Y-80013890D01*
X177823452Y-80107500D01*
X176117640Y-80107500D01*
X175797500Y-79787361D01*
X175797500Y-78716548D01*
X175891110Y-78622938D01*
X175980028Y-78489863D01*
X176041276Y-78341997D01*
X176072500Y-78185024D01*
X176072500Y-78024976D01*
X176041276Y-77868003D01*
X175980028Y-77720137D01*
X175891110Y-77587062D01*
X175777938Y-77473890D01*
X175644863Y-77384972D01*
X175614753Y-77372500D01*
X177823452Y-77372500D01*
X177917062Y-77466110D01*
X177917062Y-77466110D01*
G37*
X177917062Y-77466110D02*
X178050137Y-77555028D01*
X178198003Y-77616276D01*
X178354976Y-77647500D01*
X178515024Y-77647500D01*
X178671997Y-77616276D01*
X178819863Y-77555028D01*
X178952938Y-77466110D01*
X179046548Y-77372500D01*
X181714503Y-77372500D01*
X181704900Y-77470000D01*
X181707501Y-77496408D01*
X181707500Y-80033452D01*
X181613890Y-80127062D01*
X181524972Y-80260137D01*
X181463724Y-80408003D01*
X181432500Y-80564976D01*
X181432500Y-80725024D01*
X181463724Y-80881997D01*
X181524972Y-81029863D01*
X181613890Y-81162938D01*
X181727062Y-81276110D01*
X181809001Y-81330860D01*
X181762361Y-81377500D01*
X178789753Y-81377500D01*
X178819863Y-81365028D01*
X178952938Y-81276110D01*
X179066110Y-81162938D01*
X179155028Y-81029863D01*
X179216276Y-80881997D01*
X179247500Y-80725024D01*
X179247500Y-80564976D01*
X179216276Y-80408003D01*
X179155028Y-80260137D01*
X179066110Y-80127062D01*
X178952938Y-80013890D01*
X178819863Y-79924972D01*
X178671997Y-79863724D01*
X178515024Y-79832500D01*
X178354976Y-79832500D01*
X178198003Y-79863724D01*
X178050137Y-79924972D01*
X177917062Y-80013890D01*
X177823452Y-80107500D01*
X176117640Y-80107500D01*
X175797500Y-79787361D01*
X175797500Y-78716548D01*
X175891110Y-78622938D01*
X175980028Y-78489863D01*
X176041276Y-78341997D01*
X176072500Y-78185024D01*
X176072500Y-78024976D01*
X176041276Y-77868003D01*
X175980028Y-77720137D01*
X175891110Y-77587062D01*
X175777938Y-77473890D01*
X175644863Y-77384972D01*
X175614753Y-77372500D01*
X177823452Y-77372500D01*
X177917062Y-77466110D01*
G36*
X172202062Y-78101110D02*
G01*
X172335137Y-78190028D01*
X172483003Y-78251276D01*
X172559838Y-78266559D01*
X172575121Y-78343394D01*
X172636369Y-78491260D01*
X172725287Y-78624335D01*
X172817500Y-78716548D01*
X172817500Y-78807362D01*
X171517363Y-80107500D01*
X171426548Y-80107500D01*
X171332938Y-80013890D01*
X171199863Y-79924972D01*
X171051997Y-79863724D01*
X170895024Y-79832500D01*
X170734976Y-79832500D01*
X170578003Y-79863724D01*
X170430137Y-79924972D01*
X170297062Y-80013890D01*
X170183890Y-80127062D01*
X170094972Y-80260137D01*
X170033724Y-80408003D01*
X170002500Y-80564976D01*
X170002500Y-80725024D01*
X170033724Y-80881997D01*
X170094972Y-81029863D01*
X170183890Y-81162938D01*
X170297062Y-81276110D01*
X170430137Y-81365028D01*
X170436107Y-81367501D01*
X168487641Y-81367501D01*
X167817500Y-80697361D01*
X167817500Y-80564976D01*
X167786276Y-80408003D01*
X167725028Y-80260137D01*
X167636110Y-80127062D01*
X167522938Y-80013890D01*
X167389863Y-79924972D01*
X167241997Y-79863724D01*
X167085024Y-79832500D01*
X166924976Y-79832500D01*
X166768003Y-79863724D01*
X166637500Y-79917780D01*
X166637500Y-79610357D01*
X166734863Y-79570028D01*
X166867938Y-79481110D01*
X166981110Y-79367938D01*
X167070028Y-79234863D01*
X167131276Y-79086997D01*
X167162500Y-78930024D01*
X167162500Y-78891122D01*
X167269976Y-78912500D01*
X167430024Y-78912500D01*
X167586997Y-78881276D01*
X167734863Y-78820028D01*
X167867938Y-78731110D01*
X167981110Y-78617938D01*
X168070028Y-78484863D01*
X168131276Y-78336997D01*
X168162500Y-78180024D01*
X168162500Y-78019976D01*
X168160018Y-78007500D01*
X172108452Y-78007500D01*
X172202062Y-78101110D01*
X172202062Y-78101110D01*
G37*
X172202062Y-78101110D02*
X172335137Y-78190028D01*
X172483003Y-78251276D01*
X172559838Y-78266559D01*
X172575121Y-78343394D01*
X172636369Y-78491260D01*
X172725287Y-78624335D01*
X172817500Y-78716548D01*
X172817500Y-78807362D01*
X171517363Y-80107500D01*
X171426548Y-80107500D01*
X171332938Y-80013890D01*
X171199863Y-79924972D01*
X171051997Y-79863724D01*
X170895024Y-79832500D01*
X170734976Y-79832500D01*
X170578003Y-79863724D01*
X170430137Y-79924972D01*
X170297062Y-80013890D01*
X170183890Y-80127062D01*
X170094972Y-80260137D01*
X170033724Y-80408003D01*
X170002500Y-80564976D01*
X170002500Y-80725024D01*
X170033724Y-80881997D01*
X170094972Y-81029863D01*
X170183890Y-81162938D01*
X170297062Y-81276110D01*
X170430137Y-81365028D01*
X170436107Y-81367501D01*
X168487641Y-81367501D01*
X167817500Y-80697361D01*
X167817500Y-80564976D01*
X167786276Y-80408003D01*
X167725028Y-80260137D01*
X167636110Y-80127062D01*
X167522938Y-80013890D01*
X167389863Y-79924972D01*
X167241997Y-79863724D01*
X167085024Y-79832500D01*
X166924976Y-79832500D01*
X166768003Y-79863724D01*
X166637500Y-79917780D01*
X166637500Y-79610357D01*
X166734863Y-79570028D01*
X166867938Y-79481110D01*
X166981110Y-79367938D01*
X167070028Y-79234863D01*
X167131276Y-79086997D01*
X167162500Y-78930024D01*
X167162500Y-78891122D01*
X167269976Y-78912500D01*
X167430024Y-78912500D01*
X167586997Y-78881276D01*
X167734863Y-78820028D01*
X167867938Y-78731110D01*
X167981110Y-78617938D01*
X168070028Y-78484863D01*
X168131276Y-78336997D01*
X168162500Y-78180024D01*
X168162500Y-78019976D01*
X168160018Y-78007500D01*
X172108452Y-78007500D01*
X172202062Y-78101110D01*
G36*
X126162632Y-77237722D02*
G01*
X126241602Y-77245500D01*
X126241612Y-77245500D01*
X126267999Y-77248099D01*
X126294387Y-77245500D01*
X134090238Y-77245500D01*
X134061500Y-77389976D01*
X134061500Y-77550024D01*
X134092724Y-77706997D01*
X134153972Y-77854863D01*
X134242890Y-77987938D01*
X134356062Y-78101110D01*
X134489137Y-78190028D01*
X134637003Y-78251276D01*
X134793976Y-78282500D01*
X134954024Y-78282500D01*
X135110997Y-78251276D01*
X135258863Y-78190028D01*
X135391938Y-78101110D01*
X135485548Y-78007500D01*
X136622501Y-78007500D01*
X136622500Y-78603452D01*
X136528890Y-78697062D01*
X136439972Y-78830137D01*
X136378724Y-78978003D01*
X136347500Y-79134976D01*
X136347500Y-79295024D01*
X136378724Y-79451997D01*
X136439972Y-79599863D01*
X136453307Y-79619820D01*
X136277070Y-79619820D01*
X136250680Y-79617221D01*
X136224290Y-79619820D01*
X136224282Y-79619820D01*
X136154583Y-79626685D01*
X136145311Y-79627598D01*
X136043992Y-79658333D01*
X135994082Y-79685011D01*
X135950617Y-79708243D01*
X135943618Y-79713987D01*
X135889276Y-79758584D01*
X135889272Y-79758588D01*
X135868772Y-79775412D01*
X135851947Y-79795913D01*
X135688360Y-79959500D01*
X135555976Y-79959500D01*
X135399003Y-79990724D01*
X135251137Y-80051972D01*
X135118062Y-80140890D01*
X135024452Y-80234500D01*
X134261462Y-80234500D01*
X134324028Y-80140863D01*
X134383848Y-79996444D01*
X134539976Y-80027500D01*
X134700024Y-80027500D01*
X134856997Y-79996276D01*
X135004863Y-79935028D01*
X135137938Y-79846110D01*
X135251110Y-79732938D01*
X135340028Y-79599863D01*
X135401276Y-79451997D01*
X135432500Y-79295024D01*
X135432500Y-79134976D01*
X135401276Y-78978003D01*
X135340028Y-78830137D01*
X135251110Y-78697062D01*
X135137938Y-78583890D01*
X135004863Y-78494972D01*
X134856997Y-78433724D01*
X134700024Y-78402500D01*
X134539976Y-78402500D01*
X134383003Y-78433724D01*
X134235137Y-78494972D01*
X134165585Y-78541445D01*
X133357737Y-77733598D01*
X133340909Y-77713093D01*
X133259064Y-77645924D01*
X133165688Y-77596014D01*
X133064369Y-77565279D01*
X132985399Y-77557501D01*
X132985389Y-77557501D01*
X132959001Y-77554902D01*
X132932613Y-77557501D01*
X130387640Y-77557501D01*
X130288747Y-77458608D01*
X130271918Y-77438102D01*
X130190073Y-77370933D01*
X130096697Y-77321023D01*
X129995378Y-77290288D01*
X129916408Y-77282510D01*
X129916398Y-77282510D01*
X129890010Y-77279911D01*
X129863622Y-77282510D01*
X127438377Y-77282510D01*
X127411989Y-77279911D01*
X127385601Y-77282510D01*
X127385592Y-77282510D01*
X127306622Y-77290288D01*
X127205303Y-77321023D01*
X127111927Y-77370933D01*
X127111925Y-77370934D01*
X127111926Y-77370934D01*
X127050586Y-77421274D01*
X127050582Y-77421278D01*
X127030082Y-77438102D01*
X127013257Y-77458603D01*
X126523361Y-77948500D01*
X126259762Y-77948500D01*
X126288500Y-77804024D01*
X126288500Y-77643976D01*
X126257276Y-77487003D01*
X126196028Y-77339137D01*
X126119528Y-77224646D01*
X126162632Y-77237722D01*
X126162632Y-77237722D01*
G37*
X126162632Y-77237722D02*
X126241602Y-77245500D01*
X126241612Y-77245500D01*
X126267999Y-77248099D01*
X126294387Y-77245500D01*
X134090238Y-77245500D01*
X134061500Y-77389976D01*
X134061500Y-77550024D01*
X134092724Y-77706997D01*
X134153972Y-77854863D01*
X134242890Y-77987938D01*
X134356062Y-78101110D01*
X134489137Y-78190028D01*
X134637003Y-78251276D01*
X134793976Y-78282500D01*
X134954024Y-78282500D01*
X135110997Y-78251276D01*
X135258863Y-78190028D01*
X135391938Y-78101110D01*
X135485548Y-78007500D01*
X136622501Y-78007500D01*
X136622500Y-78603452D01*
X136528890Y-78697062D01*
X136439972Y-78830137D01*
X136378724Y-78978003D01*
X136347500Y-79134976D01*
X136347500Y-79295024D01*
X136378724Y-79451997D01*
X136439972Y-79599863D01*
X136453307Y-79619820D01*
X136277070Y-79619820D01*
X136250680Y-79617221D01*
X136224290Y-79619820D01*
X136224282Y-79619820D01*
X136154583Y-79626685D01*
X136145311Y-79627598D01*
X136043992Y-79658333D01*
X135994082Y-79685011D01*
X135950617Y-79708243D01*
X135943618Y-79713987D01*
X135889276Y-79758584D01*
X135889272Y-79758588D01*
X135868772Y-79775412D01*
X135851947Y-79795913D01*
X135688360Y-79959500D01*
X135555976Y-79959500D01*
X135399003Y-79990724D01*
X135251137Y-80051972D01*
X135118062Y-80140890D01*
X135024452Y-80234500D01*
X134261462Y-80234500D01*
X134324028Y-80140863D01*
X134383848Y-79996444D01*
X134539976Y-80027500D01*
X134700024Y-80027500D01*
X134856997Y-79996276D01*
X135004863Y-79935028D01*
X135137938Y-79846110D01*
X135251110Y-79732938D01*
X135340028Y-79599863D01*
X135401276Y-79451997D01*
X135432500Y-79295024D01*
X135432500Y-79134976D01*
X135401276Y-78978003D01*
X135340028Y-78830137D01*
X135251110Y-78697062D01*
X135137938Y-78583890D01*
X135004863Y-78494972D01*
X134856997Y-78433724D01*
X134700024Y-78402500D01*
X134539976Y-78402500D01*
X134383003Y-78433724D01*
X134235137Y-78494972D01*
X134165585Y-78541445D01*
X133357737Y-77733598D01*
X133340909Y-77713093D01*
X133259064Y-77645924D01*
X133165688Y-77596014D01*
X133064369Y-77565279D01*
X132985399Y-77557501D01*
X132985389Y-77557501D01*
X132959001Y-77554902D01*
X132932613Y-77557501D01*
X130387640Y-77557501D01*
X130288747Y-77458608D01*
X130271918Y-77438102D01*
X130190073Y-77370933D01*
X130096697Y-77321023D01*
X129995378Y-77290288D01*
X129916408Y-77282510D01*
X129916398Y-77282510D01*
X129890010Y-77279911D01*
X129863622Y-77282510D01*
X127438377Y-77282510D01*
X127411989Y-77279911D01*
X127385601Y-77282510D01*
X127385592Y-77282510D01*
X127306622Y-77290288D01*
X127205303Y-77321023D01*
X127111927Y-77370933D01*
X127111925Y-77370934D01*
X127111926Y-77370934D01*
X127050586Y-77421274D01*
X127050582Y-77421278D01*
X127030082Y-77438102D01*
X127013257Y-77458603D01*
X126523361Y-77948500D01*
X126259762Y-77948500D01*
X126288500Y-77804024D01*
X126288500Y-77643976D01*
X126257276Y-77487003D01*
X126196028Y-77339137D01*
X126119528Y-77224646D01*
X126162632Y-77237722D01*
G36*
X118879313Y-77225013D02*
G01*
X118785937Y-77274923D01*
X118776692Y-77282510D01*
X118724596Y-77325264D01*
X118724592Y-77325268D01*
X118704092Y-77342092D01*
X118687268Y-77362592D01*
X117977794Y-78072067D01*
X117884863Y-78009972D01*
X117736997Y-77948724D01*
X117580024Y-77917500D01*
X117419976Y-77917500D01*
X117263003Y-77948724D01*
X117115137Y-78009972D01*
X116982062Y-78098890D01*
X116890000Y-78190952D01*
X116777938Y-78078890D01*
X116644863Y-77989972D01*
X116496997Y-77928724D01*
X116340024Y-77897500D01*
X116207640Y-77897500D01*
X115903500Y-77593361D01*
X115903500Y-77502116D01*
X116005137Y-77570028D01*
X116153003Y-77631276D01*
X116309976Y-77662500D01*
X116470024Y-77662500D01*
X116626997Y-77631276D01*
X116774863Y-77570028D01*
X116907938Y-77481110D01*
X117021110Y-77367938D01*
X117110028Y-77234863D01*
X117125504Y-77197500D01*
X118970011Y-77197500D01*
X118879313Y-77225013D01*
X118879313Y-77225013D01*
G37*
X118879313Y-77225013D02*
X118785937Y-77274923D01*
X118776692Y-77282510D01*
X118724596Y-77325264D01*
X118724592Y-77325268D01*
X118704092Y-77342092D01*
X118687268Y-77362592D01*
X117977794Y-78072067D01*
X117884863Y-78009972D01*
X117736997Y-77948724D01*
X117580024Y-77917500D01*
X117419976Y-77917500D01*
X117263003Y-77948724D01*
X117115137Y-78009972D01*
X116982062Y-78098890D01*
X116890000Y-78190952D01*
X116777938Y-78078890D01*
X116644863Y-77989972D01*
X116496997Y-77928724D01*
X116340024Y-77897500D01*
X116207640Y-77897500D01*
X115903500Y-77593361D01*
X115903500Y-77502116D01*
X116005137Y-77570028D01*
X116153003Y-77631276D01*
X116309976Y-77662500D01*
X116470024Y-77662500D01*
X116626997Y-77631276D01*
X116774863Y-77570028D01*
X116907938Y-77481110D01*
X117021110Y-77367938D01*
X117110028Y-77234863D01*
X117125504Y-77197500D01*
X118970011Y-77197500D01*
X118879313Y-77225013D01*
M02*
