G04 #@! TF.GenerationSoftware,KiCad,Pcbnew,(5.1.2)-2*
G04 #@! TF.CreationDate,2019-06-17T21:10:21-05:00*
G04 #@! TF.ProjectId,OGP,4f47502e-6b69-4636-9164-5f7063625858,rev?*
G04 #@! TF.SameCoordinates,Original*
G04 #@! TF.FileFunction,Soldermask,Top*
G04 #@! TF.FilePolarity,Negative*
%FSLAX46Y46*%
G04 Gerber Fmt 4.6, Leading zero omitted, Abs format (unit mm)*
G04 Created by KiCad (PCBNEW (5.1.2)-2) date 2019-06-17 21:10:21*
%MOMM*%
%LPD*%
G04 APERTURE LIST*
%ADD10C,1.543000*%
%ADD11R,1.000000X0.900000*%
%ADD12R,0.900000X1.000000*%
%ADD13R,1.200000X1.200000*%
%ADD14R,1.000000X1.200000*%
%ADD15R,0.800000X1.000000*%
%ADD16R,1.000000X0.800000*%
%ADD17R,1.000000X1.900000*%
%ADD18R,2.398980X2.398980*%
%ADD19R,1.000000X1.100000*%
%ADD20R,1.300000X1.200000*%
%ADD21R,0.680000X0.830000*%
%ADD22R,1.900000X2.000000*%
%ADD23R,1.600000X1.600000*%
%ADD24R,0.800000X1.050000*%
G04 APERTURE END LIST*
D10*
X100838000Y-84836000D03*
X100838000Y-77724000D03*
X193294000Y-84836000D03*
D11*
X137075000Y-77470000D03*
X135975000Y-77470000D03*
D12*
X187325000Y-78655000D03*
X187325000Y-77555000D03*
X189230000Y-77640000D03*
X189230000Y-78740000D03*
D11*
X147870000Y-81280000D03*
X146770000Y-81280000D03*
X152950000Y-83185000D03*
X151850000Y-83185000D03*
X128550000Y-78500000D03*
X127450000Y-78500000D03*
D12*
X173990000Y-82550000D03*
X173990000Y-81450000D03*
X132500000Y-83050000D03*
X132500000Y-81950000D03*
X131000000Y-78000000D03*
X131000000Y-79100000D03*
D11*
X127355000Y-80264000D03*
X128455000Y-80264000D03*
D12*
X131000000Y-83450000D03*
X131000000Y-84550000D03*
D11*
X128455000Y-82000000D03*
X127355000Y-82000000D03*
D13*
X165265000Y-78000000D03*
X163665000Y-78000000D03*
X163665000Y-84500000D03*
X165265000Y-84500000D03*
D14*
X163615000Y-82250000D03*
X165315000Y-82250000D03*
X165315000Y-80250000D03*
X163615000Y-80250000D03*
D15*
X138615000Y-77470000D03*
X139515000Y-77470000D03*
X144050000Y-77470000D03*
X144950000Y-77470000D03*
X142055000Y-77470000D03*
X141155000Y-77470000D03*
X169106000Y-76962000D03*
X168206000Y-76962000D03*
X168617766Y-83888536D03*
X169517766Y-83888536D03*
X169517766Y-85158536D03*
X168617766Y-85158536D03*
X173170000Y-85090000D03*
X172270000Y-85090000D03*
X173170000Y-83820000D03*
X172270000Y-83820000D03*
X187510000Y-85090000D03*
X188410000Y-85090000D03*
X190315000Y-82550000D03*
X189415000Y-82550000D03*
D16*
X187325000Y-81095000D03*
X187325000Y-80195000D03*
D15*
X190315000Y-84455000D03*
X189415000Y-84455000D03*
D16*
X189230000Y-80195000D03*
X189230000Y-81095000D03*
D15*
X179970000Y-77470000D03*
X179070000Y-77470000D03*
D16*
X187325000Y-83450000D03*
X187325000Y-82550000D03*
D15*
X176715000Y-77470000D03*
X177615000Y-77470000D03*
X184970000Y-77470000D03*
X185870000Y-77470000D03*
D16*
X173990000Y-79825000D03*
X173990000Y-78925000D03*
D15*
X151950000Y-79375000D03*
X152850000Y-79375000D03*
X147770000Y-85090000D03*
X146870000Y-85090000D03*
X151950000Y-81280000D03*
X152850000Y-81280000D03*
X146870000Y-83185000D03*
X147770000Y-83185000D03*
X149410000Y-81280000D03*
X150310000Y-81280000D03*
X150310000Y-83185000D03*
X149410000Y-83185000D03*
X152850000Y-77470000D03*
X151950000Y-77470000D03*
X149410000Y-85090000D03*
X150310000Y-85090000D03*
X147770000Y-79375000D03*
X146870000Y-79375000D03*
X117350000Y-81390000D03*
X116450000Y-81390000D03*
X151950000Y-85090000D03*
X152850000Y-85090000D03*
X127550000Y-83500000D03*
X128450000Y-83500000D03*
D16*
X132500000Y-80450000D03*
X132500000Y-79550000D03*
D15*
X133950000Y-77500000D03*
X133050000Y-77500000D03*
X150310000Y-78740000D03*
X149410000Y-78740000D03*
X128400000Y-85090000D03*
X127500000Y-85090000D03*
D16*
X125476000Y-80148000D03*
X125476000Y-79248000D03*
D15*
X127525000Y-77000000D03*
X128425000Y-77000000D03*
D17*
X177165000Y-79215000D03*
X178435000Y-79215000D03*
X179705000Y-79215000D03*
X180975000Y-79215000D03*
X182245000Y-79215000D03*
X183515000Y-79215000D03*
X184785000Y-79215000D03*
X184785000Y-84615000D03*
X183515000Y-84615000D03*
X182245000Y-84615000D03*
X180975000Y-84615000D03*
X179705000Y-84615000D03*
X178435000Y-84615000D03*
X177165000Y-84615000D03*
X134620000Y-84615000D03*
X135890000Y-84615000D03*
X137160000Y-84615000D03*
X138430000Y-84615000D03*
X139700000Y-84615000D03*
X140970000Y-84615000D03*
X142240000Y-84615000D03*
X142240000Y-79215000D03*
X140970000Y-79215000D03*
X139700000Y-79215000D03*
X138430000Y-79215000D03*
X137160000Y-79215000D03*
X135890000Y-79215000D03*
X134620000Y-79215000D03*
D18*
X113919000Y-78740000D03*
X113919000Y-83820000D03*
X110744000Y-78740000D03*
X110744000Y-83820000D03*
X104394000Y-83820000D03*
X104394000Y-78740000D03*
X107569000Y-78740000D03*
X107569000Y-83820000D03*
D19*
X154875000Y-78740000D03*
X156275000Y-78740000D03*
X158050000Y-78740000D03*
X159450000Y-78740000D03*
X119315000Y-80645000D03*
X120715000Y-80645000D03*
X121000000Y-78170000D03*
X119600000Y-78170000D03*
X122490000Y-78105000D03*
X123890000Y-78105000D03*
X123890000Y-80645000D03*
X122490000Y-80645000D03*
D20*
X170545000Y-79375000D03*
X168545000Y-80325000D03*
X168545000Y-78425000D03*
D21*
X144760000Y-85000000D03*
X144240000Y-85000000D03*
X144240000Y-82500000D03*
X144760000Y-82500000D03*
X144240000Y-80000000D03*
X144760000Y-80000000D03*
D22*
X155860000Y-82550000D03*
D23*
X159100000Y-81150000D03*
X159100000Y-83950000D03*
X123445001Y-85325001D03*
X123445001Y-82525001D03*
D22*
X120205001Y-83925001D03*
D10*
X193294000Y-77724000D03*
D21*
X117100000Y-85344000D03*
X116580000Y-85344000D03*
X117100000Y-84074000D03*
X116580000Y-84074000D03*
X116580000Y-82804000D03*
X117100000Y-82804000D03*
D24*
X116190000Y-77790000D03*
X117490000Y-77790000D03*
X116840000Y-79690000D03*
X116840000Y-77790000D03*
X117490000Y-79690000D03*
X116190000Y-79690000D03*
M02*
