G04 #@! TF.GenerationSoftware,KiCad,Pcbnew,(5.1.10)-1*
G04 #@! TF.CreationDate,2021-08-26T23:04:46-05:00*
G04 #@! TF.ProjectId,OGPsim,4f475073-696d-42e6-9b69-6361645f7063,rev?*
G04 #@! TF.SameCoordinates,Original*
G04 #@! TF.FileFunction,Soldermask,Top*
G04 #@! TF.FilePolarity,Negative*
%FSLAX46Y46*%
G04 Gerber Fmt 4.6, Leading zero omitted, Abs format (unit mm)*
G04 Created by KiCad (PCBNEW (5.1.10)-1) date 2021-08-26 23:04:46*
%MOMM*%
%LPD*%
G01*
G04 APERTURE LIST*
%ADD10C,0.100000*%
G04 APERTURE END LIST*
G36*
G01*
X142439200Y-100189600D02*
X141939200Y-100189600D01*
G75*
G02*
X141888200Y-100138600I0J51000D01*
G01*
X141888200Y-99538600D01*
G75*
G02*
X141939200Y-99487600I51000J0D01*
G01*
X142439200Y-99487600D01*
G75*
G02*
X142490200Y-99538600I0J-51000D01*
G01*
X142490200Y-100138600D01*
G75*
G02*
X142439200Y-100189600I-51000J0D01*
G01*
G37*
G36*
G01*
X142439200Y-99089600D02*
X141939200Y-99089600D01*
G75*
G02*
X141888200Y-99038600I0J51000D01*
G01*
X141888200Y-98438600D01*
G75*
G02*
X141939200Y-98387600I51000J0D01*
G01*
X142439200Y-98387600D01*
G75*
G02*
X142490200Y-98438600I0J-51000D01*
G01*
X142490200Y-99038600D01*
G75*
G02*
X142439200Y-99089600I-51000J0D01*
G01*
G37*
G36*
G01*
X141939200Y-104229600D02*
X142439200Y-104229600D01*
G75*
G02*
X142490200Y-104280600I0J-51000D01*
G01*
X142490200Y-104880600D01*
G75*
G02*
X142439200Y-104931600I-51000J0D01*
G01*
X141939200Y-104931600D01*
G75*
G02*
X141888200Y-104880600I0J51000D01*
G01*
X141888200Y-104280600D01*
G75*
G02*
X141939200Y-104229600I51000J0D01*
G01*
G37*
G36*
G01*
X141939200Y-105329600D02*
X142439200Y-105329600D01*
G75*
G02*
X142490200Y-105380600I0J-51000D01*
G01*
X142490200Y-105980600D01*
G75*
G02*
X142439200Y-106031600I-51000J0D01*
G01*
X141939200Y-106031600D01*
G75*
G02*
X141888200Y-105980600I0J51000D01*
G01*
X141888200Y-105380600D01*
G75*
G02*
X141939200Y-105329600I51000J0D01*
G01*
G37*
G36*
G01*
X139907200Y-99233600D02*
X140407200Y-99233600D01*
G75*
G02*
X140458200Y-99284600I0J-51000D01*
G01*
X140458200Y-99884600D01*
G75*
G02*
X140407200Y-99935600I-51000J0D01*
G01*
X139907200Y-99935600D01*
G75*
G02*
X139856200Y-99884600I0J51000D01*
G01*
X139856200Y-99284600D01*
G75*
G02*
X139907200Y-99233600I51000J0D01*
G01*
G37*
G36*
G01*
X139907200Y-98133600D02*
X140407200Y-98133600D01*
G75*
G02*
X140458200Y-98184600I0J-51000D01*
G01*
X140458200Y-98784600D01*
G75*
G02*
X140407200Y-98835600I-51000J0D01*
G01*
X139907200Y-98835600D01*
G75*
G02*
X139856200Y-98784600I0J51000D01*
G01*
X139856200Y-98184600D01*
G75*
G02*
X139907200Y-98133600I51000J0D01*
G01*
G37*
G36*
G01*
X140407200Y-105185600D02*
X139907200Y-105185600D01*
G75*
G02*
X139856200Y-105134600I0J51000D01*
G01*
X139856200Y-104534600D01*
G75*
G02*
X139907200Y-104483600I51000J0D01*
G01*
X140407200Y-104483600D01*
G75*
G02*
X140458200Y-104534600I0J-51000D01*
G01*
X140458200Y-105134600D01*
G75*
G02*
X140407200Y-105185600I-51000J0D01*
G01*
G37*
G36*
G01*
X140407200Y-106285600D02*
X139907200Y-106285600D01*
G75*
G02*
X139856200Y-106234600I0J51000D01*
G01*
X139856200Y-105634600D01*
G75*
G02*
X139907200Y-105583600I51000J0D01*
G01*
X140407200Y-105583600D01*
G75*
G02*
X140458200Y-105634600I0J-51000D01*
G01*
X140458200Y-106234600D01*
G75*
G02*
X140407200Y-106285600I-51000J0D01*
G01*
G37*
G36*
G01*
X134827200Y-98387600D02*
X135327200Y-98387600D01*
G75*
G02*
X135378200Y-98438600I0J-51000D01*
G01*
X135378200Y-99038600D01*
G75*
G02*
X135327200Y-99089600I-51000J0D01*
G01*
X134827200Y-99089600D01*
G75*
G02*
X134776200Y-99038600I0J51000D01*
G01*
X134776200Y-98438600D01*
G75*
G02*
X134827200Y-98387600I51000J0D01*
G01*
G37*
G36*
G01*
X134827200Y-99487600D02*
X135327200Y-99487600D01*
G75*
G02*
X135378200Y-99538600I0J-51000D01*
G01*
X135378200Y-100138600D01*
G75*
G02*
X135327200Y-100189600I-51000J0D01*
G01*
X134827200Y-100189600D01*
G75*
G02*
X134776200Y-100138600I0J51000D01*
G01*
X134776200Y-99538600D01*
G75*
G02*
X134827200Y-99487600I51000J0D01*
G01*
G37*
G36*
G01*
X135327200Y-106031600D02*
X134827200Y-106031600D01*
G75*
G02*
X134776200Y-105980600I0J51000D01*
G01*
X134776200Y-105380600D01*
G75*
G02*
X134827200Y-105329600I51000J0D01*
G01*
X135327200Y-105329600D01*
G75*
G02*
X135378200Y-105380600I0J-51000D01*
G01*
X135378200Y-105980600D01*
G75*
G02*
X135327200Y-106031600I-51000J0D01*
G01*
G37*
G36*
G01*
X135327200Y-104931600D02*
X134827200Y-104931600D01*
G75*
G02*
X134776200Y-104880600I0J51000D01*
G01*
X134776200Y-104280600D01*
G75*
G02*
X134827200Y-104229600I51000J0D01*
G01*
X135327200Y-104229600D01*
G75*
G02*
X135378200Y-104280600I0J-51000D01*
G01*
X135378200Y-104880600D01*
G75*
G02*
X135327200Y-104931600I-51000J0D01*
G01*
G37*
G36*
G01*
X137875200Y-101265600D02*
X138375200Y-101265600D01*
G75*
G02*
X138426200Y-101316600I0J-51000D01*
G01*
X138426200Y-101916600D01*
G75*
G02*
X138375200Y-101967600I-51000J0D01*
G01*
X137875200Y-101967600D01*
G75*
G02*
X137824200Y-101916600I0J51000D01*
G01*
X137824200Y-101316600D01*
G75*
G02*
X137875200Y-101265600I51000J0D01*
G01*
G37*
G36*
G01*
X137875200Y-100165600D02*
X138375200Y-100165600D01*
G75*
G02*
X138426200Y-100216600I0J-51000D01*
G01*
X138426200Y-100816600D01*
G75*
G02*
X138375200Y-100867600I-51000J0D01*
G01*
X137875200Y-100867600D01*
G75*
G02*
X137824200Y-100816600I0J51000D01*
G01*
X137824200Y-100216600D01*
G75*
G02*
X137875200Y-100165600I51000J0D01*
G01*
G37*
G36*
G01*
X138375200Y-103153600D02*
X137875200Y-103153600D01*
G75*
G02*
X137824200Y-103102600I0J51000D01*
G01*
X137824200Y-102502600D01*
G75*
G02*
X137875200Y-102451600I51000J0D01*
G01*
X138375200Y-102451600D01*
G75*
G02*
X138426200Y-102502600I0J-51000D01*
G01*
X138426200Y-103102600D01*
G75*
G02*
X138375200Y-103153600I-51000J0D01*
G01*
G37*
G36*
G01*
X138375200Y-104253600D02*
X137875200Y-104253600D01*
G75*
G02*
X137824200Y-104202600I0J51000D01*
G01*
X137824200Y-103602600D01*
G75*
G02*
X137875200Y-103551600I51000J0D01*
G01*
X138375200Y-103551600D01*
G75*
G02*
X138426200Y-103602600I0J-51000D01*
G01*
X138426200Y-104202600D01*
G75*
G02*
X138375200Y-104253600I-51000J0D01*
G01*
G37*
G36*
G01*
X150577200Y-104183600D02*
X151327200Y-104183600D01*
G75*
G02*
X151378200Y-104234600I0J-51000D01*
G01*
X151378200Y-105034600D01*
G75*
G02*
X151327200Y-105085600I-51000J0D01*
G01*
X150577200Y-105085600D01*
G75*
G02*
X150526200Y-105034600I0J51000D01*
G01*
X150526200Y-104234600D01*
G75*
G02*
X150577200Y-104183600I51000J0D01*
G01*
G37*
G36*
G01*
X150577200Y-105683600D02*
X151327200Y-105683600D01*
G75*
G02*
X151378200Y-105734600I0J-51000D01*
G01*
X151378200Y-106534600D01*
G75*
G02*
X151327200Y-106585600I-51000J0D01*
G01*
X150577200Y-106585600D01*
G75*
G02*
X150526200Y-106534600I0J51000D01*
G01*
X150526200Y-105734600D01*
G75*
G02*
X150577200Y-105683600I51000J0D01*
G01*
G37*
G36*
G01*
X141482200Y-101959600D02*
X141482200Y-102459600D01*
G75*
G02*
X141431200Y-102510600I-51000J0D01*
G01*
X140831200Y-102510600D01*
G75*
G02*
X140780200Y-102459600I0J51000D01*
G01*
X140780200Y-101959600D01*
G75*
G02*
X140831200Y-101908600I51000J0D01*
G01*
X141431200Y-101908600D01*
G75*
G02*
X141482200Y-101959600I0J-51000D01*
G01*
G37*
G36*
G01*
X142582200Y-101959600D02*
X142582200Y-102459600D01*
G75*
G02*
X142531200Y-102510600I-51000J0D01*
G01*
X141931200Y-102510600D01*
G75*
G02*
X141880200Y-102459600I0J51000D01*
G01*
X141880200Y-101959600D01*
G75*
G02*
X141931200Y-101908600I51000J0D01*
G01*
X142531200Y-101908600D01*
G75*
G02*
X142582200Y-101959600I0J-51000D01*
G01*
G37*
G36*
G01*
X153631200Y-106023600D02*
X153631200Y-106523600D01*
G75*
G02*
X153580200Y-106574600I-51000J0D01*
G01*
X152980200Y-106574600D01*
G75*
G02*
X152929200Y-106523600I0J51000D01*
G01*
X152929200Y-106023600D01*
G75*
G02*
X152980200Y-105972600I51000J0D01*
G01*
X153580200Y-105972600D01*
G75*
G02*
X153631200Y-106023600I0J-51000D01*
G01*
G37*
G36*
G01*
X152531200Y-106023600D02*
X152531200Y-106523600D01*
G75*
G02*
X152480200Y-106574600I-51000J0D01*
G01*
X151880200Y-106574600D01*
G75*
G02*
X151829200Y-106523600I0J51000D01*
G01*
X151829200Y-106023600D01*
G75*
G02*
X151880200Y-105972600I51000J0D01*
G01*
X152480200Y-105972600D01*
G75*
G02*
X152531200Y-106023600I0J-51000D01*
G01*
G37*
G36*
G01*
X151327200Y-100235600D02*
X150577200Y-100235600D01*
G75*
G02*
X150526200Y-100184600I0J51000D01*
G01*
X150526200Y-99384600D01*
G75*
G02*
X150577200Y-99333600I51000J0D01*
G01*
X151327200Y-99333600D01*
G75*
G02*
X151378200Y-99384600I0J-51000D01*
G01*
X151378200Y-100184600D01*
G75*
G02*
X151327200Y-100235600I-51000J0D01*
G01*
G37*
G36*
G01*
X151327200Y-98735600D02*
X150577200Y-98735600D01*
G75*
G02*
X150526200Y-98684600I0J51000D01*
G01*
X150526200Y-97884600D01*
G75*
G02*
X150577200Y-97833600I51000J0D01*
G01*
X151327200Y-97833600D01*
G75*
G02*
X151378200Y-97884600I0J-51000D01*
G01*
X151378200Y-98684600D01*
G75*
G02*
X151327200Y-98735600I-51000J0D01*
G01*
G37*
G36*
G01*
X135998200Y-100970600D02*
X135998200Y-101670600D01*
G75*
G02*
X135947200Y-101721600I-51000J0D01*
G01*
X135347200Y-101721600D01*
G75*
G02*
X135296200Y-101670600I0J51000D01*
G01*
X135296200Y-100970600D01*
G75*
G02*
X135347200Y-100919600I51000J0D01*
G01*
X135947200Y-100919600D01*
G75*
G02*
X135998200Y-100970600I0J-51000D01*
G01*
G37*
G36*
G01*
X137398200Y-100970600D02*
X137398200Y-101670600D01*
G75*
G02*
X137347200Y-101721600I-51000J0D01*
G01*
X136747200Y-101721600D01*
G75*
G02*
X136696200Y-101670600I0J51000D01*
G01*
X136696200Y-100970600D01*
G75*
G02*
X136747200Y-100919600I51000J0D01*
G01*
X137347200Y-100919600D01*
G75*
G02*
X137398200Y-100970600I0J-51000D01*
G01*
G37*
G36*
G01*
X137398200Y-102748600D02*
X137398200Y-103448600D01*
G75*
G02*
X137347200Y-103499600I-51000J0D01*
G01*
X136747200Y-103499600D01*
G75*
G02*
X136696200Y-103448600I0J51000D01*
G01*
X136696200Y-102748600D01*
G75*
G02*
X136747200Y-102697600I51000J0D01*
G01*
X137347200Y-102697600D01*
G75*
G02*
X137398200Y-102748600I0J-51000D01*
G01*
G37*
G36*
G01*
X135998200Y-102748600D02*
X135998200Y-103448600D01*
G75*
G02*
X135947200Y-103499600I-51000J0D01*
G01*
X135347200Y-103499600D01*
G75*
G02*
X135296200Y-103448600I0J51000D01*
G01*
X135296200Y-102748600D01*
G75*
G02*
X135347200Y-102697600I51000J0D01*
G01*
X135947200Y-102697600D01*
G75*
G02*
X135998200Y-102748600I0J-51000D01*
G01*
G37*
G36*
G01*
X136810200Y-98405600D02*
X136810200Y-99155600D01*
G75*
G02*
X136759200Y-99206600I-51000J0D01*
G01*
X135959200Y-99206600D01*
G75*
G02*
X135908200Y-99155600I0J51000D01*
G01*
X135908200Y-98405600D01*
G75*
G02*
X135959200Y-98354600I51000J0D01*
G01*
X136759200Y-98354600D01*
G75*
G02*
X136810200Y-98405600I0J-51000D01*
G01*
G37*
G36*
G01*
X138310200Y-98405600D02*
X138310200Y-99155600D01*
G75*
G02*
X138259200Y-99206600I-51000J0D01*
G01*
X137459200Y-99206600D01*
G75*
G02*
X137408200Y-99155600I0J51000D01*
G01*
X137408200Y-98405600D01*
G75*
G02*
X137459200Y-98354600I51000J0D01*
G01*
X138259200Y-98354600D01*
G75*
G02*
X138310200Y-98405600I0J-51000D01*
G01*
G37*
G36*
G01*
X136810200Y-105263600D02*
X136810200Y-106013600D01*
G75*
G02*
X136759200Y-106064600I-51000J0D01*
G01*
X135959200Y-106064600D01*
G75*
G02*
X135908200Y-106013600I0J51000D01*
G01*
X135908200Y-105263600D01*
G75*
G02*
X135959200Y-105212600I51000J0D01*
G01*
X136759200Y-105212600D01*
G75*
G02*
X136810200Y-105263600I0J-51000D01*
G01*
G37*
G36*
G01*
X138310200Y-105263600D02*
X138310200Y-106013600D01*
G75*
G02*
X138259200Y-106064600I-51000J0D01*
G01*
X137459200Y-106064600D01*
G75*
G02*
X137408200Y-106013600I0J51000D01*
G01*
X137408200Y-105263600D01*
G75*
G02*
X137459200Y-105212600I51000J0D01*
G01*
X138259200Y-105212600D01*
G75*
G02*
X138310200Y-105263600I0J-51000D01*
G01*
G37*
G36*
G01*
X140873200Y-98333600D02*
X141473200Y-98333600D01*
G75*
G02*
X141524200Y-98384600I0J-51000D01*
G01*
X141524200Y-98784600D01*
G75*
G02*
X141473200Y-98835600I-51000J0D01*
G01*
X140873200Y-98835600D01*
G75*
G02*
X140822200Y-98784600I0J51000D01*
G01*
X140822200Y-98384600D01*
G75*
G02*
X140873200Y-98333600I51000J0D01*
G01*
G37*
G36*
G01*
X140873200Y-99233600D02*
X141473200Y-99233600D01*
G75*
G02*
X141524200Y-99284600I0J-51000D01*
G01*
X141524200Y-99684600D01*
G75*
G02*
X141473200Y-99735600I-51000J0D01*
G01*
X140873200Y-99735600D01*
G75*
G02*
X140822200Y-99684600I0J51000D01*
G01*
X140822200Y-99284600D01*
G75*
G02*
X140873200Y-99233600I51000J0D01*
G01*
G37*
G36*
G01*
X141473200Y-105185600D02*
X140873200Y-105185600D01*
G75*
G02*
X140822200Y-105134600I0J51000D01*
G01*
X140822200Y-104734600D01*
G75*
G02*
X140873200Y-104683600I51000J0D01*
G01*
X141473200Y-104683600D01*
G75*
G02*
X141524200Y-104734600I0J-51000D01*
G01*
X141524200Y-105134600D01*
G75*
G02*
X141473200Y-105185600I-51000J0D01*
G01*
G37*
G36*
G01*
X141473200Y-106085600D02*
X140873200Y-106085600D01*
G75*
G02*
X140822200Y-106034600I0J51000D01*
G01*
X140822200Y-105634600D01*
G75*
G02*
X140873200Y-105583600I51000J0D01*
G01*
X141473200Y-105583600D01*
G75*
G02*
X141524200Y-105634600I0J-51000D01*
G01*
X141524200Y-106034600D01*
G75*
G02*
X141473200Y-106085600I-51000J0D01*
G01*
G37*
G36*
G01*
X140873200Y-100111600D02*
X141473200Y-100111600D01*
G75*
G02*
X141524200Y-100162600I0J-51000D01*
G01*
X141524200Y-100562600D01*
G75*
G02*
X141473200Y-100613600I-51000J0D01*
G01*
X140873200Y-100613600D01*
G75*
G02*
X140822200Y-100562600I0J51000D01*
G01*
X140822200Y-100162600D01*
G75*
G02*
X140873200Y-100111600I51000J0D01*
G01*
G37*
G36*
G01*
X140873200Y-101011600D02*
X141473200Y-101011600D01*
G75*
G02*
X141524200Y-101062600I0J-51000D01*
G01*
X141524200Y-101462600D01*
G75*
G02*
X141473200Y-101513600I-51000J0D01*
G01*
X140873200Y-101513600D01*
G75*
G02*
X140822200Y-101462600I0J51000D01*
G01*
X140822200Y-101062600D01*
G75*
G02*
X140873200Y-101011600I51000J0D01*
G01*
G37*
G36*
G01*
X141473200Y-103407600D02*
X140873200Y-103407600D01*
G75*
G02*
X140822200Y-103356600I0J51000D01*
G01*
X140822200Y-102956600D01*
G75*
G02*
X140873200Y-102905600I51000J0D01*
G01*
X141473200Y-102905600D01*
G75*
G02*
X141524200Y-102956600I0J-51000D01*
G01*
X141524200Y-103356600D01*
G75*
G02*
X141473200Y-103407600I-51000J0D01*
G01*
G37*
G36*
G01*
X141473200Y-104307600D02*
X140873200Y-104307600D01*
G75*
G02*
X140822200Y-104256600I0J51000D01*
G01*
X140822200Y-103856600D01*
G75*
G02*
X140873200Y-103805600I51000J0D01*
G01*
X141473200Y-103805600D01*
G75*
G02*
X141524200Y-103856600I0J-51000D01*
G01*
X141524200Y-104256600D01*
G75*
G02*
X141473200Y-104307600I-51000J0D01*
G01*
G37*
G36*
G01*
X138841200Y-98333600D02*
X139441200Y-98333600D01*
G75*
G02*
X139492200Y-98384600I0J-51000D01*
G01*
X139492200Y-98784600D01*
G75*
G02*
X139441200Y-98835600I-51000J0D01*
G01*
X138841200Y-98835600D01*
G75*
G02*
X138790200Y-98784600I0J51000D01*
G01*
X138790200Y-98384600D01*
G75*
G02*
X138841200Y-98333600I51000J0D01*
G01*
G37*
G36*
G01*
X138841200Y-99233600D02*
X139441200Y-99233600D01*
G75*
G02*
X139492200Y-99284600I0J-51000D01*
G01*
X139492200Y-99684600D01*
G75*
G02*
X139441200Y-99735600I-51000J0D01*
G01*
X138841200Y-99735600D01*
G75*
G02*
X138790200Y-99684600I0J51000D01*
G01*
X138790200Y-99284600D01*
G75*
G02*
X138841200Y-99233600I51000J0D01*
G01*
G37*
G36*
G01*
X139441200Y-105185600D02*
X138841200Y-105185600D01*
G75*
G02*
X138790200Y-105134600I0J51000D01*
G01*
X138790200Y-104734600D01*
G75*
G02*
X138841200Y-104683600I51000J0D01*
G01*
X139441200Y-104683600D01*
G75*
G02*
X139492200Y-104734600I0J-51000D01*
G01*
X139492200Y-105134600D01*
G75*
G02*
X139441200Y-105185600I-51000J0D01*
G01*
G37*
G36*
G01*
X139441200Y-106085600D02*
X138841200Y-106085600D01*
G75*
G02*
X138790200Y-106034600I0J51000D01*
G01*
X138790200Y-105634600D01*
G75*
G02*
X138841200Y-105583600I51000J0D01*
G01*
X139441200Y-105583600D01*
G75*
G02*
X139492200Y-105634600I0J-51000D01*
G01*
X139492200Y-106034600D01*
G75*
G02*
X139441200Y-106085600I-51000J0D01*
G01*
G37*
G36*
G01*
X137302200Y-99750600D02*
X137302200Y-100350600D01*
G75*
G02*
X137251200Y-100401600I-51000J0D01*
G01*
X136851200Y-100401600D01*
G75*
G02*
X136800200Y-100350600I0J51000D01*
G01*
X136800200Y-99750600D01*
G75*
G02*
X136851200Y-99699600I51000J0D01*
G01*
X137251200Y-99699600D01*
G75*
G02*
X137302200Y-99750600I0J-51000D01*
G01*
G37*
G36*
G01*
X136402200Y-99750600D02*
X136402200Y-100350600D01*
G75*
G02*
X136351200Y-100401600I-51000J0D01*
G01*
X135951200Y-100401600D01*
G75*
G02*
X135900200Y-100350600I0J51000D01*
G01*
X135900200Y-99750600D01*
G75*
G02*
X135951200Y-99699600I51000J0D01*
G01*
X136351200Y-99699600D01*
G75*
G02*
X136402200Y-99750600I0J-51000D01*
G01*
G37*
G36*
G01*
X136402200Y-104068600D02*
X136402200Y-104668600D01*
G75*
G02*
X136351200Y-104719600I-51000J0D01*
G01*
X135951200Y-104719600D01*
G75*
G02*
X135900200Y-104668600I0J51000D01*
G01*
X135900200Y-104068600D01*
G75*
G02*
X135951200Y-104017600I51000J0D01*
G01*
X136351200Y-104017600D01*
G75*
G02*
X136402200Y-104068600I0J-51000D01*
G01*
G37*
G36*
G01*
X137302200Y-104068600D02*
X137302200Y-104668600D01*
G75*
G02*
X137251200Y-104719600I-51000J0D01*
G01*
X136851200Y-104719600D01*
G75*
G02*
X136800200Y-104668600I0J51000D01*
G01*
X136800200Y-104068600D01*
G75*
G02*
X136851200Y-104017600I51000J0D01*
G01*
X137251200Y-104017600D01*
G75*
G02*
X137302200Y-104068600I0J-51000D01*
G01*
G37*
G36*
G01*
X139441200Y-100867600D02*
X138841200Y-100867600D01*
G75*
G02*
X138790200Y-100816600I0J51000D01*
G01*
X138790200Y-100416600D01*
G75*
G02*
X138841200Y-100365600I51000J0D01*
G01*
X139441200Y-100365600D01*
G75*
G02*
X139492200Y-100416600I0J-51000D01*
G01*
X139492200Y-100816600D01*
G75*
G02*
X139441200Y-100867600I-51000J0D01*
G01*
G37*
G36*
G01*
X139441200Y-101767600D02*
X138841200Y-101767600D01*
G75*
G02*
X138790200Y-101716600I0J51000D01*
G01*
X138790200Y-101316600D01*
G75*
G02*
X138841200Y-101265600I51000J0D01*
G01*
X139441200Y-101265600D01*
G75*
G02*
X139492200Y-101316600I0J-51000D01*
G01*
X139492200Y-101716600D01*
G75*
G02*
X139441200Y-101767600I-51000J0D01*
G01*
G37*
G36*
G01*
X138841200Y-102651600D02*
X139441200Y-102651600D01*
G75*
G02*
X139492200Y-102702600I0J-51000D01*
G01*
X139492200Y-103102600D01*
G75*
G02*
X139441200Y-103153600I-51000J0D01*
G01*
X138841200Y-103153600D01*
G75*
G02*
X138790200Y-103102600I0J51000D01*
G01*
X138790200Y-102702600D01*
G75*
G02*
X138841200Y-102651600I51000J0D01*
G01*
G37*
G36*
G01*
X138841200Y-103551600D02*
X139441200Y-103551600D01*
G75*
G02*
X139492200Y-103602600I0J-51000D01*
G01*
X139492200Y-104002600D01*
G75*
G02*
X139441200Y-104053600I-51000J0D01*
G01*
X138841200Y-104053600D01*
G75*
G02*
X138790200Y-104002600I0J51000D01*
G01*
X138790200Y-103602600D01*
G75*
G02*
X138841200Y-103551600I51000J0D01*
G01*
G37*
G36*
G01*
X139857200Y-101265600D02*
X140457200Y-101265600D01*
G75*
G02*
X140508200Y-101316600I0J-51000D01*
G01*
X140508200Y-101716600D01*
G75*
G02*
X140457200Y-101767600I-51000J0D01*
G01*
X139857200Y-101767600D01*
G75*
G02*
X139806200Y-101716600I0J51000D01*
G01*
X139806200Y-101316600D01*
G75*
G02*
X139857200Y-101265600I51000J0D01*
G01*
G37*
G36*
G01*
X139857200Y-100365600D02*
X140457200Y-100365600D01*
G75*
G02*
X140508200Y-100416600I0J-51000D01*
G01*
X140508200Y-100816600D01*
G75*
G02*
X140457200Y-100867600I-51000J0D01*
G01*
X139857200Y-100867600D01*
G75*
G02*
X139806200Y-100816600I0J51000D01*
G01*
X139806200Y-100416600D01*
G75*
G02*
X139857200Y-100365600I51000J0D01*
G01*
G37*
G36*
G01*
X140457200Y-104053600D02*
X139857200Y-104053600D01*
G75*
G02*
X139806200Y-104002600I0J51000D01*
G01*
X139806200Y-103602600D01*
G75*
G02*
X139857200Y-103551600I51000J0D01*
G01*
X140457200Y-103551600D01*
G75*
G02*
X140508200Y-103602600I0J-51000D01*
G01*
X140508200Y-104002600D01*
G75*
G02*
X140457200Y-104053600I-51000J0D01*
G01*
G37*
G36*
G01*
X140457200Y-103153600D02*
X139857200Y-103153600D01*
G75*
G02*
X139806200Y-103102600I0J51000D01*
G01*
X139806200Y-102702600D01*
G75*
G02*
X139857200Y-102651600I51000J0D01*
G01*
X140457200Y-102651600D01*
G75*
G02*
X140508200Y-102702600I0J-51000D01*
G01*
X140508200Y-103102600D01*
G75*
G02*
X140457200Y-103153600I-51000J0D01*
G01*
G37*
G36*
G01*
X150525200Y-103297600D02*
X151125200Y-103297600D01*
G75*
G02*
X151176200Y-103348600I0J-51000D01*
G01*
X151176200Y-103748600D01*
G75*
G02*
X151125200Y-103799600I-51000J0D01*
G01*
X150525200Y-103799600D01*
G75*
G02*
X150474200Y-103748600I0J51000D01*
G01*
X150474200Y-103348600D01*
G75*
G02*
X150525200Y-103297600I51000J0D01*
G01*
G37*
G36*
G01*
X150525200Y-102397600D02*
X151125200Y-102397600D01*
G75*
G02*
X151176200Y-102448600I0J-51000D01*
G01*
X151176200Y-102848600D01*
G75*
G02*
X151125200Y-102899600I-51000J0D01*
G01*
X150525200Y-102899600D01*
G75*
G02*
X150474200Y-102848600I0J51000D01*
G01*
X150474200Y-102448600D01*
G75*
G02*
X150525200Y-102397600I51000J0D01*
G01*
G37*
G36*
G01*
X150525200Y-100619600D02*
X151125200Y-100619600D01*
G75*
G02*
X151176200Y-100670600I0J-51000D01*
G01*
X151176200Y-101070600D01*
G75*
G02*
X151125200Y-101121600I-51000J0D01*
G01*
X150525200Y-101121600D01*
G75*
G02*
X150474200Y-101070600I0J51000D01*
G01*
X150474200Y-100670600D01*
G75*
G02*
X150525200Y-100619600I51000J0D01*
G01*
G37*
G36*
G01*
X150525200Y-101519600D02*
X151125200Y-101519600D01*
G75*
G02*
X151176200Y-101570600I0J-51000D01*
G01*
X151176200Y-101970600D01*
G75*
G02*
X151125200Y-102021600I-51000J0D01*
G01*
X150525200Y-102021600D01*
G75*
G02*
X150474200Y-101970600I0J51000D01*
G01*
X150474200Y-101570600D01*
G75*
G02*
X150525200Y-101519600I51000J0D01*
G01*
G37*
G36*
G01*
X151541200Y-102397600D02*
X152141200Y-102397600D01*
G75*
G02*
X152192200Y-102448600I0J-51000D01*
G01*
X152192200Y-102848600D01*
G75*
G02*
X152141200Y-102899600I-51000J0D01*
G01*
X151541200Y-102899600D01*
G75*
G02*
X151490200Y-102848600I0J51000D01*
G01*
X151490200Y-102448600D01*
G75*
G02*
X151541200Y-102397600I51000J0D01*
G01*
G37*
G36*
G01*
X151541200Y-103297600D02*
X152141200Y-103297600D01*
G75*
G02*
X152192200Y-103348600I0J-51000D01*
G01*
X152192200Y-103748600D01*
G75*
G02*
X152141200Y-103799600I-51000J0D01*
G01*
X151541200Y-103799600D01*
G75*
G02*
X151490200Y-103748600I0J51000D01*
G01*
X151490200Y-103348600D01*
G75*
G02*
X151541200Y-103297600I51000J0D01*
G01*
G37*
G36*
G01*
X152141200Y-101121600D02*
X151541200Y-101121600D01*
G75*
G02*
X151490200Y-101070600I0J51000D01*
G01*
X151490200Y-100670600D01*
G75*
G02*
X151541200Y-100619600I51000J0D01*
G01*
X152141200Y-100619600D01*
G75*
G02*
X152192200Y-100670600I0J-51000D01*
G01*
X152192200Y-101070600D01*
G75*
G02*
X152141200Y-101121600I-51000J0D01*
G01*
G37*
G36*
G01*
X152141200Y-102021600D02*
X151541200Y-102021600D01*
G75*
G02*
X151490200Y-101970600I0J51000D01*
G01*
X151490200Y-101570600D01*
G75*
G02*
X151541200Y-101519600I51000J0D01*
G01*
X152141200Y-101519600D01*
G75*
G02*
X152192200Y-101570600I0J-51000D01*
G01*
X152192200Y-101970600D01*
G75*
G02*
X152141200Y-102021600I-51000J0D01*
G01*
G37*
G36*
G01*
X155489800Y-105141600D02*
X152699800Y-105141600D01*
G75*
G02*
X152648800Y-105090600I0J51000D01*
G01*
X152648800Y-103900600D01*
G75*
G02*
X152699800Y-103849600I51000J0D01*
G01*
X155489800Y-103849600D01*
G75*
G02*
X155540800Y-103900600I0J-51000D01*
G01*
X155540800Y-105090600D01*
G75*
G02*
X155489800Y-105141600I-51000J0D01*
G01*
G37*
G36*
G01*
X160329800Y-102601600D02*
X157539800Y-102601600D01*
G75*
G02*
X157488800Y-102550600I0J51000D01*
G01*
X157488800Y-101360600D01*
G75*
G02*
X157539800Y-101309600I51000J0D01*
G01*
X160329800Y-101309600D01*
G75*
G02*
X160380800Y-101360600I0J-51000D01*
G01*
X160380800Y-102550600D01*
G75*
G02*
X160329800Y-102601600I-51000J0D01*
G01*
G37*
G36*
G01*
X155489800Y-100061600D02*
X152699800Y-100061600D01*
G75*
G02*
X152648800Y-100010600I0J51000D01*
G01*
X152648800Y-98820600D01*
G75*
G02*
X152699800Y-98769600I51000J0D01*
G01*
X155489800Y-98769600D01*
G75*
G02*
X155540800Y-98820600I0J-51000D01*
G01*
X155540800Y-100010600D01*
G75*
G02*
X155489800Y-100061600I-51000J0D01*
G01*
G37*
G36*
G01*
X148406200Y-98699600D02*
X148406200Y-98099600D01*
G75*
G02*
X148457200Y-98048600I51000J0D01*
G01*
X149957200Y-98048600D01*
G75*
G02*
X150008200Y-98099600I0J-51000D01*
G01*
X150008200Y-98699600D01*
G75*
G02*
X149957200Y-98750600I-51000J0D01*
G01*
X148457200Y-98750600D01*
G75*
G02*
X148406200Y-98699600I0J51000D01*
G01*
G37*
G36*
G01*
X148406200Y-99969600D02*
X148406200Y-99369600D01*
G75*
G02*
X148457200Y-99318600I51000J0D01*
G01*
X149957200Y-99318600D01*
G75*
G02*
X150008200Y-99369600I0J-51000D01*
G01*
X150008200Y-99969600D01*
G75*
G02*
X149957200Y-100020600I-51000J0D01*
G01*
X148457200Y-100020600D01*
G75*
G02*
X148406200Y-99969600I0J51000D01*
G01*
G37*
G36*
G01*
X148406200Y-101239600D02*
X148406200Y-100639600D01*
G75*
G02*
X148457200Y-100588600I51000J0D01*
G01*
X149957200Y-100588600D01*
G75*
G02*
X150008200Y-100639600I0J-51000D01*
G01*
X150008200Y-101239600D01*
G75*
G02*
X149957200Y-101290600I-51000J0D01*
G01*
X148457200Y-101290600D01*
G75*
G02*
X148406200Y-101239600I0J51000D01*
G01*
G37*
G36*
G01*
X148406200Y-102509600D02*
X148406200Y-101909600D01*
G75*
G02*
X148457200Y-101858600I51000J0D01*
G01*
X149957200Y-101858600D01*
G75*
G02*
X150008200Y-101909600I0J-51000D01*
G01*
X150008200Y-102509600D01*
G75*
G02*
X149957200Y-102560600I-51000J0D01*
G01*
X148457200Y-102560600D01*
G75*
G02*
X148406200Y-102509600I0J51000D01*
G01*
G37*
G36*
G01*
X148406200Y-103779600D02*
X148406200Y-103179600D01*
G75*
G02*
X148457200Y-103128600I51000J0D01*
G01*
X149957200Y-103128600D01*
G75*
G02*
X150008200Y-103179600I0J-51000D01*
G01*
X150008200Y-103779600D01*
G75*
G02*
X149957200Y-103830600I-51000J0D01*
G01*
X148457200Y-103830600D01*
G75*
G02*
X148406200Y-103779600I0J51000D01*
G01*
G37*
G36*
G01*
X148406200Y-105049600D02*
X148406200Y-104449600D01*
G75*
G02*
X148457200Y-104398600I51000J0D01*
G01*
X149957200Y-104398600D01*
G75*
G02*
X150008200Y-104449600I0J-51000D01*
G01*
X150008200Y-105049600D01*
G75*
G02*
X149957200Y-105100600I-51000J0D01*
G01*
X148457200Y-105100600D01*
G75*
G02*
X148406200Y-105049600I0J51000D01*
G01*
G37*
G36*
G01*
X148406200Y-106319600D02*
X148406200Y-105719600D01*
G75*
G02*
X148457200Y-105668600I51000J0D01*
G01*
X149957200Y-105668600D01*
G75*
G02*
X150008200Y-105719600I0J-51000D01*
G01*
X150008200Y-106319600D01*
G75*
G02*
X149957200Y-106370600I-51000J0D01*
G01*
X148457200Y-106370600D01*
G75*
G02*
X148406200Y-106319600I0J51000D01*
G01*
G37*
G36*
G01*
X143006200Y-106319600D02*
X143006200Y-105719600D01*
G75*
G02*
X143057200Y-105668600I51000J0D01*
G01*
X144557200Y-105668600D01*
G75*
G02*
X144608200Y-105719600I0J-51000D01*
G01*
X144608200Y-106319600D01*
G75*
G02*
X144557200Y-106370600I-51000J0D01*
G01*
X143057200Y-106370600D01*
G75*
G02*
X143006200Y-106319600I0J51000D01*
G01*
G37*
G36*
G01*
X143006200Y-105049600D02*
X143006200Y-104449600D01*
G75*
G02*
X143057200Y-104398600I51000J0D01*
G01*
X144557200Y-104398600D01*
G75*
G02*
X144608200Y-104449600I0J-51000D01*
G01*
X144608200Y-105049600D01*
G75*
G02*
X144557200Y-105100600I-51000J0D01*
G01*
X143057200Y-105100600D01*
G75*
G02*
X143006200Y-105049600I0J51000D01*
G01*
G37*
G36*
G01*
X143006200Y-103779600D02*
X143006200Y-103179600D01*
G75*
G02*
X143057200Y-103128600I51000J0D01*
G01*
X144557200Y-103128600D01*
G75*
G02*
X144608200Y-103179600I0J-51000D01*
G01*
X144608200Y-103779600D01*
G75*
G02*
X144557200Y-103830600I-51000J0D01*
G01*
X143057200Y-103830600D01*
G75*
G02*
X143006200Y-103779600I0J51000D01*
G01*
G37*
G36*
G01*
X143006200Y-102509600D02*
X143006200Y-101909600D01*
G75*
G02*
X143057200Y-101858600I51000J0D01*
G01*
X144557200Y-101858600D01*
G75*
G02*
X144608200Y-101909600I0J-51000D01*
G01*
X144608200Y-102509600D01*
G75*
G02*
X144557200Y-102560600I-51000J0D01*
G01*
X143057200Y-102560600D01*
G75*
G02*
X143006200Y-102509600I0J51000D01*
G01*
G37*
G36*
G01*
X143006200Y-101239600D02*
X143006200Y-100639600D01*
G75*
G02*
X143057200Y-100588600I51000J0D01*
G01*
X144557200Y-100588600D01*
G75*
G02*
X144608200Y-100639600I0J-51000D01*
G01*
X144608200Y-101239600D01*
G75*
G02*
X144557200Y-101290600I-51000J0D01*
G01*
X143057200Y-101290600D01*
G75*
G02*
X143006200Y-101239600I0J51000D01*
G01*
G37*
G36*
G01*
X143006200Y-99969600D02*
X143006200Y-99369600D01*
G75*
G02*
X143057200Y-99318600I51000J0D01*
G01*
X144557200Y-99318600D01*
G75*
G02*
X144608200Y-99369600I0J-51000D01*
G01*
X144608200Y-99969600D01*
G75*
G02*
X144557200Y-100020600I-51000J0D01*
G01*
X143057200Y-100020600D01*
G75*
G02*
X143006200Y-99969600I0J51000D01*
G01*
G37*
G36*
G01*
X143006200Y-98699600D02*
X143006200Y-98099600D01*
G75*
G02*
X143057200Y-98048600I51000J0D01*
G01*
X144557200Y-98048600D01*
G75*
G02*
X144608200Y-98099600I0J-51000D01*
G01*
X144608200Y-98699600D01*
G75*
G02*
X144557200Y-98750600I-51000J0D01*
G01*
X143057200Y-98750600D01*
G75*
G02*
X143006200Y-98699600I0J51000D01*
G01*
G37*
G36*
G01*
X134442400Y-101135400D02*
X134442400Y-102105400D01*
G75*
G02*
X134391400Y-102156400I-51000J0D01*
G01*
X133121400Y-102156400D01*
G75*
G02*
X133070400Y-102105400I0J51000D01*
G01*
X133070400Y-101135400D01*
G75*
G02*
X133121400Y-101084400I51000J0D01*
G01*
X134391400Y-101084400D01*
G75*
G02*
X134442400Y-101135400I0J-51000D01*
G01*
G37*
G36*
G01*
X134442400Y-102415400D02*
X134442400Y-103385400D01*
G75*
G02*
X134391400Y-103436400I-51000J0D01*
G01*
X133121400Y-103436400D01*
G75*
G02*
X133070400Y-103385400I0J51000D01*
G01*
X133070400Y-102415400D01*
G75*
G02*
X133121400Y-102364400I51000J0D01*
G01*
X134391400Y-102364400D01*
G75*
G02*
X134442400Y-102415400I0J-51000D01*
G01*
G37*
G36*
G01*
X164635400Y-98018400D02*
X165605400Y-98018400D01*
G75*
G02*
X165656400Y-98069400I0J-51000D01*
G01*
X165656400Y-99339400D01*
G75*
G02*
X165605400Y-99390400I-51000J0D01*
G01*
X164635400Y-99390400D01*
G75*
G02*
X164584400Y-99339400I0J51000D01*
G01*
X164584400Y-98069400D01*
G75*
G02*
X164635400Y-98018400I51000J0D01*
G01*
G37*
G36*
G01*
X165915400Y-98018400D02*
X166885400Y-98018400D01*
G75*
G02*
X166936400Y-98069400I0J-51000D01*
G01*
X166936400Y-99339400D01*
G75*
G02*
X166885400Y-99390400I-51000J0D01*
G01*
X165915400Y-99390400D01*
G75*
G02*
X165864400Y-99339400I0J51000D01*
G01*
X165864400Y-98069400D01*
G75*
G02*
X165915400Y-98018400I51000J0D01*
G01*
G37*
G36*
G01*
X165915400Y-104774800D02*
X166885400Y-104774800D01*
G75*
G02*
X166936400Y-104825800I0J-51000D01*
G01*
X166936400Y-106095800D01*
G75*
G02*
X166885400Y-106146800I-51000J0D01*
G01*
X165915400Y-106146800D01*
G75*
G02*
X165864400Y-106095800I0J51000D01*
G01*
X165864400Y-104825800D01*
G75*
G02*
X165915400Y-104774800I51000J0D01*
G01*
G37*
G36*
G01*
X164635400Y-104774800D02*
X165605400Y-104774800D01*
G75*
G02*
X165656400Y-104825800I0J-51000D01*
G01*
X165656400Y-106095800D01*
G75*
G02*
X165605400Y-106146800I-51000J0D01*
G01*
X164635400Y-106146800D01*
G75*
G02*
X164584400Y-106095800I0J51000D01*
G01*
X164584400Y-104825800D01*
G75*
G02*
X164635400Y-104774800I51000J0D01*
G01*
G37*
G36*
G01*
X161536600Y-98018400D02*
X162506600Y-98018400D01*
G75*
G02*
X162557600Y-98069400I0J-51000D01*
G01*
X162557600Y-99339400D01*
G75*
G02*
X162506600Y-99390400I-51000J0D01*
G01*
X161536600Y-99390400D01*
G75*
G02*
X161485600Y-99339400I0J51000D01*
G01*
X161485600Y-98069400D01*
G75*
G02*
X161536600Y-98018400I51000J0D01*
G01*
G37*
G36*
G01*
X162816600Y-98018400D02*
X163786600Y-98018400D01*
G75*
G02*
X163837600Y-98069400I0J-51000D01*
G01*
X163837600Y-99339400D01*
G75*
G02*
X163786600Y-99390400I-51000J0D01*
G01*
X162816600Y-99390400D01*
G75*
G02*
X162765600Y-99339400I0J51000D01*
G01*
X162765600Y-98069400D01*
G75*
G02*
X162816600Y-98018400I51000J0D01*
G01*
G37*
G36*
G01*
X162816600Y-104774800D02*
X163786600Y-104774800D01*
G75*
G02*
X163837600Y-104825800I0J-51000D01*
G01*
X163837600Y-106095800D01*
G75*
G02*
X163786600Y-106146800I-51000J0D01*
G01*
X162816600Y-106146800D01*
G75*
G02*
X162765600Y-106095800I0J51000D01*
G01*
X162765600Y-104825800D01*
G75*
G02*
X162816600Y-104774800I51000J0D01*
G01*
G37*
G36*
G01*
X161536600Y-104774800D02*
X162506600Y-104774800D01*
G75*
G02*
X162557600Y-104825800I0J-51000D01*
G01*
X162557600Y-106095800D01*
G75*
G02*
X162506600Y-106146800I-51000J0D01*
G01*
X161536600Y-106146800D01*
G75*
G02*
X161485600Y-106095800I0J51000D01*
G01*
X161485600Y-104825800D01*
G75*
G02*
X161536600Y-104774800I51000J0D01*
G01*
G37*
D10*
G36*
X165866132Y-104773800D02*
G01*
X165866400Y-104774800D01*
X165866400Y-106146800D01*
X165865400Y-106148532D01*
X165864400Y-106148800D01*
X165656400Y-106148800D01*
X165654668Y-106147800D01*
X165654400Y-106146800D01*
X165654400Y-104774800D01*
X165655400Y-104773068D01*
X165656400Y-104772800D01*
X165864400Y-104772800D01*
X165866132Y-104773800D01*
G37*
G36*
X162767332Y-104773800D02*
G01*
X162767600Y-104774800D01*
X162767600Y-106146800D01*
X162766600Y-106148532D01*
X162765600Y-106148800D01*
X162557600Y-106148800D01*
X162555868Y-106147800D01*
X162555600Y-106146800D01*
X162555600Y-104774800D01*
X162556600Y-104773068D01*
X162557600Y-104772800D01*
X162765600Y-104772800D01*
X162767332Y-104773800D01*
G37*
G36*
X134444132Y-102155400D02*
G01*
X134444400Y-102156400D01*
X134444400Y-102364400D01*
X134443400Y-102366132D01*
X134442400Y-102366400D01*
X133070400Y-102366400D01*
X133068668Y-102365400D01*
X133068400Y-102364400D01*
X133068400Y-102156400D01*
X133069400Y-102154668D01*
X133070400Y-102154400D01*
X134442400Y-102154400D01*
X134444132Y-102155400D01*
G37*
G36*
X162767332Y-98017400D02*
G01*
X162767600Y-98018400D01*
X162767600Y-99390400D01*
X162766600Y-99392132D01*
X162765600Y-99392400D01*
X162557600Y-99392400D01*
X162555868Y-99391400D01*
X162555600Y-99390400D01*
X162555600Y-98018400D01*
X162556600Y-98016668D01*
X162557600Y-98016400D01*
X162765600Y-98016400D01*
X162767332Y-98017400D01*
G37*
G36*
X165866132Y-98017400D02*
G01*
X165866400Y-98018400D01*
X165866400Y-99390400D01*
X165865400Y-99392132D01*
X165864400Y-99392400D01*
X165656400Y-99392400D01*
X165654668Y-99391400D01*
X165654400Y-99390400D01*
X165654400Y-98018400D01*
X165655400Y-98016668D01*
X165656400Y-98016400D01*
X165864400Y-98016400D01*
X165866132Y-98017400D01*
G37*
M02*
