M48
; DRILL file {KiCad (5.1.10)-1} date 08/26/21 23:04:49
; FORMAT={-:-/ absolute / metric / decimal}
; #@! TF.CreationDate,2021-08-26T23:04:49-05:00
; #@! TF.GenerationSoftware,Kicad,Pcbnew,(5.1.10)-1
; #@! TF.FileFunction,Plated,1,4,PTH
FMAT,2
METRIC
T1C0.300
T2C0.400
%
G90
G05
T1
X133.096Y-106.07
X133.147Y-98.146
X133.147Y-100.076
X133.147Y-104.191
X134.95Y-105.639
X135.077Y-98.781
X135.331Y-99.797
X135.331Y-104.623
X135.992Y-102.21
X136.347Y-98.806
X136.474Y-105.639
X136.982Y-101.321
X136.982Y-103.099
X137.109Y-100.051
X137.109Y-104.369
X137.211Y-106.477
X137.859Y-105.639
X137.871Y-99.035
X138.125Y-100.517
X138.125Y-101.617
X138.125Y-102.803
X138.125Y-103.988
X139.141Y-99.485
X139.141Y-100.617
X139.141Y-104.935
X139.598Y-102.311
X140.023Y-103.803
X140.157Y-98.485
X140.157Y-101.575
X140.157Y-105.935
X141.046Y-102.21
X141.173Y-101.263
X141.173Y-103.175
X142.037Y-103.632
X142.428Y-100.635
X142.443Y-103.022
X143.807Y-102.21
X145.085Y-102.87
X145.186Y-105.969
X146.202Y-105.766
X146.71Y-97.942
X147.462Y-105.735
X147.777Y-100.33
X147.777Y-104.191
X149.2Y-104.75
X149.207Y-99.67
X149.207Y-103.48
X149.207Y-106.02
X150.825Y-100.871
X150.825Y-102.649
X150.978Y-104.648
X151.841Y-102.649
X151.841Y-103.549
X152.095Y-105.715
X152.298Y-97.841
X152.857Y-101.295
X153.28Y-106.274
X153.518Y-103.226
X153.67Y-100.533
X155.143Y-103.988
X156.261Y-105.664
X156.464Y-99.416
X159.817Y-100.178
X159.868Y-103.683
X162.022Y-102.088
X165.12Y-102.138
X166.4Y-102.078
T2
X147.65Y-102.21
X163.576Y-100.178
X163.576Y-103.937
T0
M30
