G04 #@! TF.GenerationSoftware,KiCad,Pcbnew,(5.1.10)-1*
G04 #@! TF.CreationDate,2021-08-26T22:05:31-05:00*
G04 #@! TF.ProjectId,OGPsim,4f475073-696d-42e6-9b69-6361645f7063,rev?*
G04 #@! TF.SameCoordinates,Original*
G04 #@! TF.FileFunction,Copper,L2,Inr*
G04 #@! TF.FilePolarity,Positive*
%FSLAX46Y46*%
G04 Gerber Fmt 4.6, Leading zero omitted, Abs format (unit mm)*
G04 Created by KiCad (PCBNEW (5.1.10)-1) date 2021-08-26 22:05:31*
%MOMM*%
%LPD*%
G01*
G04 APERTURE LIST*
G04 #@! TA.AperFunction,ViaPad*
%ADD10C,0.800000*%
G04 #@! TD*
G04 #@! TA.AperFunction,ViaPad*
%ADD11C,0.400000*%
G04 #@! TD*
G04 #@! TA.AperFunction,ViaPad*
%ADD12C,0.600000*%
G04 #@! TD*
G04 #@! TA.AperFunction,Conductor*
%ADD13C,0.185000*%
G04 #@! TD*
G04 #@! TA.AperFunction,Conductor*
%ADD14C,0.100000*%
G04 #@! TD*
G04 APERTURE END LIST*
D10*
X147650200Y-102209600D03*
D11*
X141046200Y-102209600D03*
D10*
X163576000Y-100177600D03*
X163576000Y-103936800D03*
D12*
X159816800Y-100177600D03*
D11*
X159867600Y-103682800D03*
X156260800Y-105664000D03*
D12*
X156464000Y-99415600D03*
D11*
X145084800Y-102870000D03*
D12*
X147777200Y-100330000D03*
D11*
X147777200Y-104190800D03*
X147462240Y-105735120D03*
X146202400Y-105765600D03*
X142427960Y-100634800D03*
D12*
X142443200Y-103022400D03*
D11*
X133146800Y-104190800D03*
X133096000Y-106070400D03*
X133146800Y-98145600D03*
X133146800Y-100076000D03*
D12*
X146710400Y-97942400D03*
D11*
X152298400Y-97840800D03*
D12*
X135991600Y-102209600D03*
X153670000Y-100533200D03*
D11*
X153517600Y-103225600D03*
X143807200Y-102209600D03*
D12*
X162021600Y-102087600D03*
D11*
X140157200Y-101574600D03*
X140157200Y-98484600D03*
X140157200Y-105934600D03*
X135077200Y-98780600D03*
X134950200Y-105638600D03*
X151841200Y-103548600D03*
X153280200Y-106273600D03*
X136347200Y-98806000D03*
X138125200Y-100516600D03*
X136474200Y-105638600D03*
X138125200Y-103987600D03*
D12*
X165120400Y-102138400D03*
D11*
X139141200Y-99484600D03*
X141173200Y-101262600D03*
X141173200Y-103174800D03*
X139141200Y-104934600D03*
X136982200Y-101320600D03*
X135331200Y-99796600D03*
X137871200Y-99034600D03*
X136982200Y-103098600D03*
X135331200Y-104622600D03*
X137859200Y-105638600D03*
X137109200Y-100050600D03*
X138125200Y-101616600D03*
X137109200Y-104368600D03*
X138125200Y-102802600D03*
X139598400Y-102311200D03*
X149207200Y-106019600D03*
X150825200Y-102648600D03*
X150977600Y-104648000D03*
X150825200Y-100870600D03*
X152095200Y-105714800D03*
X139141200Y-100616600D03*
X149207200Y-103479600D03*
X149199600Y-104749600D03*
X142036800Y-103632000D03*
X140023000Y-103802600D03*
X155143200Y-103987600D03*
X151841200Y-102648600D03*
X149207200Y-99669600D03*
X145186400Y-105968800D03*
X137210800Y-106476800D03*
D12*
X166400400Y-102077600D03*
D11*
X152857200Y-101295200D03*
D13*
X167120901Y-106516500D02*
X153820905Y-106516500D01*
X153849931Y-106446426D01*
X153872700Y-106331956D01*
X153872700Y-106215244D01*
X153849931Y-106100774D01*
X153805267Y-105992946D01*
X153740425Y-105895903D01*
X153657897Y-105813375D01*
X153560854Y-105748533D01*
X153453026Y-105703869D01*
X153338556Y-105681100D01*
X153221844Y-105681100D01*
X153107374Y-105703869D01*
X152999546Y-105748533D01*
X152902503Y-105813375D01*
X152819975Y-105895903D01*
X152755133Y-105992946D01*
X152710469Y-106100774D01*
X152687700Y-106215244D01*
X152687700Y-106331956D01*
X152710469Y-106446426D01*
X152739495Y-106516500D01*
X149530009Y-106516500D01*
X149584897Y-106479825D01*
X149667425Y-106397297D01*
X149732267Y-106300254D01*
X149776931Y-106192426D01*
X149799700Y-106077956D01*
X149799700Y-105961244D01*
X149776931Y-105846774D01*
X149732267Y-105738946D01*
X149677141Y-105656444D01*
X151502700Y-105656444D01*
X151502700Y-105773156D01*
X151525469Y-105887626D01*
X151570133Y-105995454D01*
X151634975Y-106092497D01*
X151717503Y-106175025D01*
X151814546Y-106239867D01*
X151922374Y-106284531D01*
X152036844Y-106307300D01*
X152153556Y-106307300D01*
X152268026Y-106284531D01*
X152375854Y-106239867D01*
X152472897Y-106175025D01*
X152555425Y-106092497D01*
X152620267Y-105995454D01*
X152664931Y-105887626D01*
X152687700Y-105773156D01*
X152687700Y-105656444D01*
X152664931Y-105541974D01*
X152620267Y-105434146D01*
X152555425Y-105337103D01*
X152472897Y-105254575D01*
X152375854Y-105189733D01*
X152268026Y-105145069D01*
X152153556Y-105122300D01*
X152036844Y-105122300D01*
X151922374Y-105145069D01*
X151814546Y-105189733D01*
X151717503Y-105254575D01*
X151634975Y-105337103D01*
X151570133Y-105434146D01*
X151525469Y-105541974D01*
X151502700Y-105656444D01*
X149677141Y-105656444D01*
X149667425Y-105641903D01*
X149584897Y-105559375D01*
X149487854Y-105494533D01*
X149380026Y-105449869D01*
X149265556Y-105427100D01*
X149148844Y-105427100D01*
X149034374Y-105449869D01*
X148926546Y-105494533D01*
X148829503Y-105559375D01*
X148746975Y-105641903D01*
X148682133Y-105738946D01*
X148637469Y-105846774D01*
X148614700Y-105961244D01*
X148614700Y-106077956D01*
X148637469Y-106192426D01*
X148682133Y-106300254D01*
X148746975Y-106397297D01*
X148829503Y-106479825D01*
X148884391Y-106516500D01*
X145412413Y-106516500D01*
X145467054Y-106493867D01*
X145564097Y-106429025D01*
X145646625Y-106346497D01*
X145711467Y-106249454D01*
X145756131Y-106141626D01*
X145778900Y-106027156D01*
X145778900Y-105910444D01*
X145756131Y-105795974D01*
X145711467Y-105688146D01*
X145646625Y-105591103D01*
X145564097Y-105508575D01*
X145467054Y-105443733D01*
X145359226Y-105399069D01*
X145244756Y-105376300D01*
X145128044Y-105376300D01*
X145013574Y-105399069D01*
X144905746Y-105443733D01*
X144808703Y-105508575D01*
X144726175Y-105591103D01*
X144661333Y-105688146D01*
X144616669Y-105795974D01*
X144593900Y-105910444D01*
X144593900Y-106027156D01*
X144616669Y-106141626D01*
X144661333Y-106249454D01*
X144726175Y-106346497D01*
X144808703Y-106429025D01*
X144905746Y-106493867D01*
X144960387Y-106516500D01*
X140268847Y-106516500D01*
X140330026Y-106504331D01*
X140437854Y-106459667D01*
X140534897Y-106394825D01*
X140617425Y-106312297D01*
X140682267Y-106215254D01*
X140726931Y-106107426D01*
X140749700Y-105992956D01*
X140749700Y-105876244D01*
X140726931Y-105761774D01*
X140682267Y-105653946D01*
X140617425Y-105556903D01*
X140534897Y-105474375D01*
X140437854Y-105409533D01*
X140330026Y-105364869D01*
X140215556Y-105342100D01*
X140098844Y-105342100D01*
X139984374Y-105364869D01*
X139876546Y-105409533D01*
X139779503Y-105474375D01*
X139696975Y-105556903D01*
X139632133Y-105653946D01*
X139587469Y-105761774D01*
X139564700Y-105876244D01*
X139564700Y-105992956D01*
X139587469Y-106107426D01*
X139632133Y-106215254D01*
X139696975Y-106312297D01*
X139779503Y-106394825D01*
X139876546Y-106459667D01*
X139984374Y-106504331D01*
X140045553Y-106516500D01*
X137803300Y-106516500D01*
X137803300Y-106418444D01*
X137780531Y-106303974D01*
X137745811Y-106220154D01*
X137800844Y-106231100D01*
X137917556Y-106231100D01*
X138032026Y-106208331D01*
X138139854Y-106163667D01*
X138236897Y-106098825D01*
X138319425Y-106016297D01*
X138384267Y-105919254D01*
X138428931Y-105811426D01*
X138451700Y-105696956D01*
X138451700Y-105580244D01*
X138428931Y-105465774D01*
X138384267Y-105357946D01*
X138319425Y-105260903D01*
X138236897Y-105178375D01*
X138139854Y-105113533D01*
X138032026Y-105068869D01*
X137917556Y-105046100D01*
X137800844Y-105046100D01*
X137686374Y-105068869D01*
X137578546Y-105113533D01*
X137481503Y-105178375D01*
X137398975Y-105260903D01*
X137334133Y-105357946D01*
X137289469Y-105465774D01*
X137266700Y-105580244D01*
X137266700Y-105696956D01*
X137289469Y-105811426D01*
X137324189Y-105895246D01*
X137269156Y-105884300D01*
X137152444Y-105884300D01*
X137037974Y-105907069D01*
X136995712Y-105924575D01*
X136999267Y-105919254D01*
X137043931Y-105811426D01*
X137066700Y-105696956D01*
X137066700Y-105580244D01*
X137043931Y-105465774D01*
X136999267Y-105357946D01*
X136934425Y-105260903D01*
X136851897Y-105178375D01*
X136754854Y-105113533D01*
X136647026Y-105068869D01*
X136532556Y-105046100D01*
X136415844Y-105046100D01*
X136301374Y-105068869D01*
X136193546Y-105113533D01*
X136096503Y-105178375D01*
X136013975Y-105260903D01*
X135949133Y-105357946D01*
X135904469Y-105465774D01*
X135881700Y-105580244D01*
X135881700Y-105696956D01*
X135904469Y-105811426D01*
X135949133Y-105919254D01*
X136013975Y-106016297D01*
X136096503Y-106098825D01*
X136193546Y-106163667D01*
X136301374Y-106208331D01*
X136415844Y-106231100D01*
X136532556Y-106231100D01*
X136647026Y-106208331D01*
X136689288Y-106190825D01*
X136685733Y-106196146D01*
X136641069Y-106303974D01*
X136618300Y-106418444D01*
X136618300Y-106516500D01*
X132954700Y-106516500D01*
X132954700Y-105580244D01*
X134357700Y-105580244D01*
X134357700Y-105696956D01*
X134380469Y-105811426D01*
X134425133Y-105919254D01*
X134489975Y-106016297D01*
X134572503Y-106098825D01*
X134669546Y-106163667D01*
X134777374Y-106208331D01*
X134891844Y-106231100D01*
X135008556Y-106231100D01*
X135123026Y-106208331D01*
X135230854Y-106163667D01*
X135327897Y-106098825D01*
X135410425Y-106016297D01*
X135475267Y-105919254D01*
X135519931Y-105811426D01*
X135542700Y-105696956D01*
X135542700Y-105580244D01*
X135519931Y-105465774D01*
X135475267Y-105357946D01*
X135410425Y-105260903D01*
X135364622Y-105215100D01*
X135389556Y-105215100D01*
X135504026Y-105192331D01*
X135611854Y-105147667D01*
X135708897Y-105082825D01*
X135791425Y-105000297D01*
X135856267Y-104903254D01*
X135900931Y-104795426D01*
X135923700Y-104680956D01*
X135923700Y-104564244D01*
X135900931Y-104449774D01*
X135856267Y-104341946D01*
X135791425Y-104244903D01*
X135708897Y-104162375D01*
X135611854Y-104097533D01*
X135504026Y-104052869D01*
X135389556Y-104030100D01*
X135272844Y-104030100D01*
X135158374Y-104052869D01*
X135050546Y-104097533D01*
X134953503Y-104162375D01*
X134870975Y-104244903D01*
X134806133Y-104341946D01*
X134761469Y-104449774D01*
X134738700Y-104564244D01*
X134738700Y-104680956D01*
X134761469Y-104795426D01*
X134806133Y-104903254D01*
X134870975Y-105000297D01*
X134916778Y-105046100D01*
X134891844Y-105046100D01*
X134777374Y-105068869D01*
X134669546Y-105113533D01*
X134572503Y-105178375D01*
X134489975Y-105260903D01*
X134425133Y-105357946D01*
X134380469Y-105465774D01*
X134357700Y-105580244D01*
X132954700Y-105580244D01*
X132954700Y-103040244D01*
X136389700Y-103040244D01*
X136389700Y-103156956D01*
X136412469Y-103271426D01*
X136457133Y-103379254D01*
X136521975Y-103476297D01*
X136604503Y-103558825D01*
X136701546Y-103623667D01*
X136809374Y-103668331D01*
X136923844Y-103691100D01*
X137040556Y-103691100D01*
X137155026Y-103668331D01*
X137262854Y-103623667D01*
X137359897Y-103558825D01*
X137442425Y-103476297D01*
X137507267Y-103379254D01*
X137551931Y-103271426D01*
X137574700Y-103156956D01*
X137574700Y-103040244D01*
X137567663Y-103004864D01*
X137600133Y-103083254D01*
X137664975Y-103180297D01*
X137747503Y-103262825D01*
X137844546Y-103327667D01*
X137952374Y-103372331D01*
X138066844Y-103395100D01*
X137952374Y-103417869D01*
X137844546Y-103462533D01*
X137747503Y-103527375D01*
X137664975Y-103609903D01*
X137600133Y-103706946D01*
X137555469Y-103814774D01*
X137532700Y-103929244D01*
X137532700Y-103954178D01*
X137486897Y-103908375D01*
X137389854Y-103843533D01*
X137282026Y-103798869D01*
X137167556Y-103776100D01*
X137050844Y-103776100D01*
X136936374Y-103798869D01*
X136828546Y-103843533D01*
X136731503Y-103908375D01*
X136648975Y-103990903D01*
X136584133Y-104087946D01*
X136539469Y-104195774D01*
X136516700Y-104310244D01*
X136516700Y-104426956D01*
X136539469Y-104541426D01*
X136584133Y-104649254D01*
X136648975Y-104746297D01*
X136731503Y-104828825D01*
X136828546Y-104893667D01*
X136936374Y-104938331D01*
X137050844Y-104961100D01*
X137167556Y-104961100D01*
X137282026Y-104938331D01*
X137389854Y-104893667D01*
X137415929Y-104876244D01*
X138548700Y-104876244D01*
X138548700Y-104992956D01*
X138571469Y-105107426D01*
X138616133Y-105215254D01*
X138680975Y-105312297D01*
X138763503Y-105394825D01*
X138860546Y-105459667D01*
X138968374Y-105504331D01*
X139082844Y-105527100D01*
X139199556Y-105527100D01*
X139314026Y-105504331D01*
X139421854Y-105459667D01*
X139518897Y-105394825D01*
X139601425Y-105312297D01*
X139666267Y-105215254D01*
X139710931Y-105107426D01*
X139733700Y-104992956D01*
X139733700Y-104876244D01*
X139710931Y-104761774D01*
X139681717Y-104691244D01*
X148607100Y-104691244D01*
X148607100Y-104807956D01*
X148629869Y-104922426D01*
X148674533Y-105030254D01*
X148739375Y-105127297D01*
X148821903Y-105209825D01*
X148918946Y-105274667D01*
X149026774Y-105319331D01*
X149141244Y-105342100D01*
X149257956Y-105342100D01*
X149372426Y-105319331D01*
X149480254Y-105274667D01*
X149577297Y-105209825D01*
X149659825Y-105127297D01*
X149724667Y-105030254D01*
X149769331Y-104922426D01*
X149792100Y-104807956D01*
X149792100Y-104691244D01*
X149771891Y-104589644D01*
X150385100Y-104589644D01*
X150385100Y-104706356D01*
X150407869Y-104820826D01*
X150452533Y-104928654D01*
X150517375Y-105025697D01*
X150599903Y-105108225D01*
X150696946Y-105173067D01*
X150804774Y-105217731D01*
X150919244Y-105240500D01*
X151035956Y-105240500D01*
X151150426Y-105217731D01*
X151258254Y-105173067D01*
X151355297Y-105108225D01*
X151437825Y-105025697D01*
X151502667Y-104928654D01*
X151547331Y-104820826D01*
X151570100Y-104706356D01*
X151570100Y-104589644D01*
X151547331Y-104475174D01*
X151502667Y-104367346D01*
X151437825Y-104270303D01*
X151355297Y-104187775D01*
X151258254Y-104122933D01*
X151150426Y-104078269D01*
X151035956Y-104055500D01*
X150919244Y-104055500D01*
X150804774Y-104078269D01*
X150696946Y-104122933D01*
X150599903Y-104187775D01*
X150517375Y-104270303D01*
X150452533Y-104367346D01*
X150407869Y-104475174D01*
X150385100Y-104589644D01*
X149771891Y-104589644D01*
X149769331Y-104576774D01*
X149724667Y-104468946D01*
X149659825Y-104371903D01*
X149577297Y-104289375D01*
X149480254Y-104224533D01*
X149372426Y-104179869D01*
X149257956Y-104157100D01*
X149141244Y-104157100D01*
X149026774Y-104179869D01*
X148918946Y-104224533D01*
X148821903Y-104289375D01*
X148739375Y-104371903D01*
X148674533Y-104468946D01*
X148629869Y-104576774D01*
X148607100Y-104691244D01*
X139681717Y-104691244D01*
X139666267Y-104653946D01*
X139601425Y-104556903D01*
X139518897Y-104474375D01*
X139421854Y-104409533D01*
X139314026Y-104364869D01*
X139199556Y-104342100D01*
X139082844Y-104342100D01*
X138968374Y-104364869D01*
X138860546Y-104409533D01*
X138763503Y-104474375D01*
X138680975Y-104556903D01*
X138616133Y-104653946D01*
X138571469Y-104761774D01*
X138548700Y-104876244D01*
X137415929Y-104876244D01*
X137486897Y-104828825D01*
X137569425Y-104746297D01*
X137634267Y-104649254D01*
X137678931Y-104541426D01*
X137701700Y-104426956D01*
X137701700Y-104402022D01*
X137747503Y-104447825D01*
X137844546Y-104512667D01*
X137952374Y-104557331D01*
X138066844Y-104580100D01*
X138183556Y-104580100D01*
X138298026Y-104557331D01*
X138405854Y-104512667D01*
X138502897Y-104447825D01*
X138585425Y-104365297D01*
X138650267Y-104268254D01*
X138694931Y-104160426D01*
X138717700Y-104045956D01*
X138717700Y-103929244D01*
X138694931Y-103814774D01*
X138665717Y-103744244D01*
X139430500Y-103744244D01*
X139430500Y-103860956D01*
X139453269Y-103975426D01*
X139497933Y-104083254D01*
X139562775Y-104180297D01*
X139645303Y-104262825D01*
X139742346Y-104327667D01*
X139850174Y-104372331D01*
X139964644Y-104395100D01*
X140081356Y-104395100D01*
X140195826Y-104372331D01*
X140303654Y-104327667D01*
X140400697Y-104262825D01*
X140483225Y-104180297D01*
X140548067Y-104083254D01*
X140592731Y-103975426D01*
X140615500Y-103860956D01*
X140615500Y-103744244D01*
X140592731Y-103629774D01*
X140548067Y-103521946D01*
X140483225Y-103424903D01*
X140400697Y-103342375D01*
X140303654Y-103277533D01*
X140195826Y-103232869D01*
X140081356Y-103210100D01*
X139964644Y-103210100D01*
X139850174Y-103232869D01*
X139742346Y-103277533D01*
X139645303Y-103342375D01*
X139562775Y-103424903D01*
X139497933Y-103521946D01*
X139453269Y-103629774D01*
X139430500Y-103744244D01*
X138665717Y-103744244D01*
X138650267Y-103706946D01*
X138585425Y-103609903D01*
X138502897Y-103527375D01*
X138405854Y-103462533D01*
X138298026Y-103417869D01*
X138183556Y-103395100D01*
X138298026Y-103372331D01*
X138405854Y-103327667D01*
X138502897Y-103262825D01*
X138585425Y-103180297D01*
X138628090Y-103116444D01*
X140580700Y-103116444D01*
X140580700Y-103233156D01*
X140603469Y-103347626D01*
X140648133Y-103455454D01*
X140712975Y-103552497D01*
X140795503Y-103635025D01*
X140892546Y-103699867D01*
X141000374Y-103744531D01*
X141114844Y-103767300D01*
X141231556Y-103767300D01*
X141346026Y-103744531D01*
X141446775Y-103702799D01*
X141467069Y-103804826D01*
X141511733Y-103912654D01*
X141576575Y-104009697D01*
X141659103Y-104092225D01*
X141756146Y-104157067D01*
X141863974Y-104201731D01*
X141978444Y-104224500D01*
X142095156Y-104224500D01*
X142209626Y-104201731D01*
X142317454Y-104157067D01*
X142414497Y-104092225D01*
X142497025Y-104009697D01*
X142561867Y-103912654D01*
X142606531Y-103804826D01*
X142629300Y-103690356D01*
X142629300Y-103573644D01*
X142606531Y-103459174D01*
X142590820Y-103421244D01*
X148614700Y-103421244D01*
X148614700Y-103537956D01*
X148637469Y-103652426D01*
X148682133Y-103760254D01*
X148746975Y-103857297D01*
X148829503Y-103939825D01*
X148926546Y-104004667D01*
X149034374Y-104049331D01*
X149148844Y-104072100D01*
X149265556Y-104072100D01*
X149380026Y-104049331D01*
X149487854Y-104004667D01*
X149584897Y-103939825D01*
X149667425Y-103857297D01*
X149732267Y-103760254D01*
X149776931Y-103652426D01*
X149799700Y-103537956D01*
X149799700Y-103421244D01*
X149776931Y-103306774D01*
X149732267Y-103198946D01*
X149667425Y-103101903D01*
X149584897Y-103019375D01*
X149487854Y-102954533D01*
X149380026Y-102909869D01*
X149265556Y-102887100D01*
X149148844Y-102887100D01*
X149034374Y-102909869D01*
X148926546Y-102954533D01*
X148829503Y-103019375D01*
X148746975Y-103101903D01*
X148682133Y-103198946D01*
X148637469Y-103306774D01*
X148614700Y-103421244D01*
X142590820Y-103421244D01*
X142561867Y-103351346D01*
X142497025Y-103254303D01*
X142414497Y-103171775D01*
X142317454Y-103106933D01*
X142209626Y-103062269D01*
X142095156Y-103039500D01*
X141978444Y-103039500D01*
X141863974Y-103062269D01*
X141763225Y-103104001D01*
X141742931Y-103001974D01*
X141698267Y-102894146D01*
X141633425Y-102797103D01*
X141550897Y-102714575D01*
X141453854Y-102649733D01*
X141346026Y-102605069D01*
X141231556Y-102582300D01*
X141114844Y-102582300D01*
X141000374Y-102605069D01*
X140892546Y-102649733D01*
X140795503Y-102714575D01*
X140712975Y-102797103D01*
X140648133Y-102894146D01*
X140603469Y-103001974D01*
X140580700Y-103116444D01*
X138628090Y-103116444D01*
X138650267Y-103083254D01*
X138694931Y-102975426D01*
X138717700Y-102860956D01*
X138717700Y-102744244D01*
X138694931Y-102629774D01*
X138650267Y-102521946D01*
X138585425Y-102424903D01*
X138502897Y-102342375D01*
X138405854Y-102277533D01*
X138346250Y-102252844D01*
X139005900Y-102252844D01*
X139005900Y-102369556D01*
X139028669Y-102484026D01*
X139073333Y-102591854D01*
X139138175Y-102688897D01*
X139220703Y-102771425D01*
X139317746Y-102836267D01*
X139425574Y-102880931D01*
X139540044Y-102903700D01*
X139656756Y-102903700D01*
X139771226Y-102880931D01*
X139879054Y-102836267D01*
X139976097Y-102771425D01*
X140058625Y-102688897D01*
X140123467Y-102591854D01*
X140168131Y-102484026D01*
X140190900Y-102369556D01*
X140190900Y-102252844D01*
X140173845Y-102167100D01*
X140215556Y-102167100D01*
X140295271Y-102151244D01*
X143214700Y-102151244D01*
X143214700Y-102267956D01*
X143237469Y-102382426D01*
X143282133Y-102490254D01*
X143346975Y-102587297D01*
X143429503Y-102669825D01*
X143526546Y-102734667D01*
X143634374Y-102779331D01*
X143748844Y-102802100D01*
X143865556Y-102802100D01*
X143980026Y-102779331D01*
X144087854Y-102734667D01*
X144184897Y-102669825D01*
X144264478Y-102590244D01*
X150232700Y-102590244D01*
X150232700Y-102706956D01*
X150255469Y-102821426D01*
X150300133Y-102929254D01*
X150364975Y-103026297D01*
X150447503Y-103108825D01*
X150544546Y-103173667D01*
X150652374Y-103218331D01*
X150766844Y-103241100D01*
X150883556Y-103241100D01*
X150998026Y-103218331D01*
X151105854Y-103173667D01*
X151202897Y-103108825D01*
X151285425Y-103026297D01*
X151333200Y-102954797D01*
X151380975Y-103026297D01*
X151453278Y-103098600D01*
X151380975Y-103170903D01*
X151316133Y-103267946D01*
X151271469Y-103375774D01*
X151248700Y-103490244D01*
X151248700Y-103606956D01*
X151271469Y-103721426D01*
X151316133Y-103829254D01*
X151380975Y-103926297D01*
X151463503Y-104008825D01*
X151560546Y-104073667D01*
X151668374Y-104118331D01*
X151782844Y-104141100D01*
X151899556Y-104141100D01*
X152014026Y-104118331D01*
X152121854Y-104073667D01*
X152218897Y-104008825D01*
X152298478Y-103929244D01*
X154550700Y-103929244D01*
X154550700Y-104045956D01*
X154573469Y-104160426D01*
X154618133Y-104268254D01*
X154682975Y-104365297D01*
X154765503Y-104447825D01*
X154862546Y-104512667D01*
X154970374Y-104557331D01*
X155084844Y-104580100D01*
X155201556Y-104580100D01*
X155316026Y-104557331D01*
X155423854Y-104512667D01*
X155520897Y-104447825D01*
X155603425Y-104365297D01*
X155668267Y-104268254D01*
X155712931Y-104160426D01*
X155735700Y-104045956D01*
X155735700Y-103929244D01*
X155712931Y-103814774D01*
X155668267Y-103706946D01*
X155603425Y-103609903D01*
X155520897Y-103527375D01*
X155423854Y-103462533D01*
X155316026Y-103417869D01*
X155201556Y-103395100D01*
X155084844Y-103395100D01*
X154970374Y-103417869D01*
X154862546Y-103462533D01*
X154765503Y-103527375D01*
X154682975Y-103609903D01*
X154618133Y-103706946D01*
X154573469Y-103814774D01*
X154550700Y-103929244D01*
X152298478Y-103929244D01*
X152301425Y-103926297D01*
X152366267Y-103829254D01*
X152410931Y-103721426D01*
X152433700Y-103606956D01*
X152433700Y-103490244D01*
X152410931Y-103375774D01*
X152366267Y-103267946D01*
X152301425Y-103170903D01*
X152229122Y-103098600D01*
X152301425Y-103026297D01*
X152366267Y-102929254D01*
X152410931Y-102821426D01*
X152433700Y-102706956D01*
X152433700Y-102590244D01*
X152410931Y-102475774D01*
X152366267Y-102367946D01*
X152301425Y-102270903D01*
X152218897Y-102188375D01*
X152121854Y-102123533D01*
X152014026Y-102078869D01*
X151899556Y-102056100D01*
X151782844Y-102056100D01*
X151668374Y-102078869D01*
X151560546Y-102123533D01*
X151463503Y-102188375D01*
X151380975Y-102270903D01*
X151333200Y-102342403D01*
X151285425Y-102270903D01*
X151202897Y-102188375D01*
X151105854Y-102123533D01*
X150998026Y-102078869D01*
X150883556Y-102056100D01*
X150766844Y-102056100D01*
X150652374Y-102078869D01*
X150544546Y-102123533D01*
X150447503Y-102188375D01*
X150364975Y-102270903D01*
X150300133Y-102367946D01*
X150255469Y-102475774D01*
X150232700Y-102590244D01*
X144264478Y-102590244D01*
X144267425Y-102587297D01*
X144332267Y-102490254D01*
X144376931Y-102382426D01*
X144399700Y-102267956D01*
X144399700Y-102151244D01*
X144376931Y-102036774D01*
X144369733Y-102019395D01*
X161329100Y-102019395D01*
X161329100Y-102155805D01*
X161355712Y-102289595D01*
X161407914Y-102415622D01*
X161483700Y-102529043D01*
X161580157Y-102625500D01*
X161693578Y-102701286D01*
X161819605Y-102753488D01*
X161953395Y-102780100D01*
X162089805Y-102780100D01*
X162223595Y-102753488D01*
X162349622Y-102701286D01*
X162463043Y-102625500D01*
X162559500Y-102529043D01*
X162635286Y-102415622D01*
X162687488Y-102289595D01*
X162714100Y-102155805D01*
X162714100Y-102070195D01*
X164427900Y-102070195D01*
X164427900Y-102206605D01*
X164454512Y-102340395D01*
X164506714Y-102466422D01*
X164582500Y-102579843D01*
X164678957Y-102676300D01*
X164792378Y-102752086D01*
X164918405Y-102804288D01*
X165052195Y-102830900D01*
X165188605Y-102830900D01*
X165322395Y-102804288D01*
X165448422Y-102752086D01*
X165561843Y-102676300D01*
X165658300Y-102579843D01*
X165734086Y-102466422D01*
X165772992Y-102372494D01*
X165786714Y-102405622D01*
X165862500Y-102519043D01*
X165958957Y-102615500D01*
X166072378Y-102691286D01*
X166198405Y-102743488D01*
X166332195Y-102770100D01*
X166468605Y-102770100D01*
X166602395Y-102743488D01*
X166728422Y-102691286D01*
X166841843Y-102615500D01*
X166938300Y-102519043D01*
X167014086Y-102405622D01*
X167066288Y-102279595D01*
X167092900Y-102145805D01*
X167092900Y-102009395D01*
X167066288Y-101875605D01*
X167014086Y-101749578D01*
X166938300Y-101636157D01*
X166841843Y-101539700D01*
X166728422Y-101463914D01*
X166602395Y-101411712D01*
X166468605Y-101385100D01*
X166332195Y-101385100D01*
X166198405Y-101411712D01*
X166072378Y-101463914D01*
X165958957Y-101539700D01*
X165862500Y-101636157D01*
X165786714Y-101749578D01*
X165747808Y-101843506D01*
X165734086Y-101810378D01*
X165658300Y-101696957D01*
X165561843Y-101600500D01*
X165448422Y-101524714D01*
X165322395Y-101472512D01*
X165188605Y-101445900D01*
X165052195Y-101445900D01*
X164918405Y-101472512D01*
X164792378Y-101524714D01*
X164678957Y-101600500D01*
X164582500Y-101696957D01*
X164506714Y-101810378D01*
X164454512Y-101936405D01*
X164427900Y-102070195D01*
X162714100Y-102070195D01*
X162714100Y-102019395D01*
X162687488Y-101885605D01*
X162635286Y-101759578D01*
X162559500Y-101646157D01*
X162463043Y-101549700D01*
X162349622Y-101473914D01*
X162223595Y-101421712D01*
X162089805Y-101395100D01*
X161953395Y-101395100D01*
X161819605Y-101421712D01*
X161693578Y-101473914D01*
X161580157Y-101549700D01*
X161483700Y-101646157D01*
X161407914Y-101759578D01*
X161355712Y-101885605D01*
X161329100Y-102019395D01*
X144369733Y-102019395D01*
X144332267Y-101928946D01*
X144267425Y-101831903D01*
X144184897Y-101749375D01*
X144087854Y-101684533D01*
X143980026Y-101639869D01*
X143865556Y-101617100D01*
X143748844Y-101617100D01*
X143634374Y-101639869D01*
X143526546Y-101684533D01*
X143429503Y-101749375D01*
X143346975Y-101831903D01*
X143282133Y-101928946D01*
X143237469Y-102036774D01*
X143214700Y-102151244D01*
X140295271Y-102151244D01*
X140330026Y-102144331D01*
X140437854Y-102099667D01*
X140534897Y-102034825D01*
X140617425Y-101952297D01*
X140682267Y-101855254D01*
X140726931Y-101747426D01*
X140742389Y-101669711D01*
X140795503Y-101722825D01*
X140892546Y-101787667D01*
X141000374Y-101832331D01*
X141114844Y-101855100D01*
X141231556Y-101855100D01*
X141346026Y-101832331D01*
X141453854Y-101787667D01*
X141550897Y-101722825D01*
X141633425Y-101640297D01*
X141698267Y-101543254D01*
X141742931Y-101435426D01*
X141765700Y-101320956D01*
X141765700Y-101204244D01*
X141742931Y-101089774D01*
X141698267Y-100981946D01*
X141633425Y-100884903D01*
X141560766Y-100812244D01*
X150232700Y-100812244D01*
X150232700Y-100928956D01*
X150255469Y-101043426D01*
X150300133Y-101151254D01*
X150364975Y-101248297D01*
X150447503Y-101330825D01*
X150544546Y-101395667D01*
X150652374Y-101440331D01*
X150766844Y-101463100D01*
X150883556Y-101463100D01*
X150998026Y-101440331D01*
X151105854Y-101395667D01*
X151202897Y-101330825D01*
X151285425Y-101248297D01*
X151293077Y-101236844D01*
X152264700Y-101236844D01*
X152264700Y-101353556D01*
X152287469Y-101468026D01*
X152332133Y-101575854D01*
X152396975Y-101672897D01*
X152479503Y-101755425D01*
X152576546Y-101820267D01*
X152684374Y-101864931D01*
X152798844Y-101887700D01*
X152915556Y-101887700D01*
X153030026Y-101864931D01*
X153137854Y-101820267D01*
X153234897Y-101755425D01*
X153317425Y-101672897D01*
X153382267Y-101575854D01*
X153426931Y-101468026D01*
X153449700Y-101353556D01*
X153449700Y-101236844D01*
X153426931Y-101122374D01*
X153382267Y-101014546D01*
X153317425Y-100917503D01*
X153234897Y-100834975D01*
X153137854Y-100770133D01*
X153030026Y-100725469D01*
X152915556Y-100702700D01*
X152798844Y-100702700D01*
X152684374Y-100725469D01*
X152576546Y-100770133D01*
X152479503Y-100834975D01*
X152396975Y-100917503D01*
X152332133Y-101014546D01*
X152287469Y-101122374D01*
X152264700Y-101236844D01*
X151293077Y-101236844D01*
X151350267Y-101151254D01*
X151394931Y-101043426D01*
X151417700Y-100928956D01*
X151417700Y-100812244D01*
X151394931Y-100697774D01*
X151350267Y-100589946D01*
X151285425Y-100492903D01*
X151202897Y-100410375D01*
X151105854Y-100345533D01*
X150998026Y-100300869D01*
X150883556Y-100278100D01*
X150766844Y-100278100D01*
X150652374Y-100300869D01*
X150544546Y-100345533D01*
X150447503Y-100410375D01*
X150364975Y-100492903D01*
X150300133Y-100589946D01*
X150255469Y-100697774D01*
X150232700Y-100812244D01*
X141560766Y-100812244D01*
X141550897Y-100802375D01*
X141453854Y-100737533D01*
X141346026Y-100692869D01*
X141231556Y-100670100D01*
X141114844Y-100670100D01*
X141000374Y-100692869D01*
X140892546Y-100737533D01*
X140795503Y-100802375D01*
X140712975Y-100884903D01*
X140648133Y-100981946D01*
X140603469Y-101089774D01*
X140588011Y-101167489D01*
X140534897Y-101114375D01*
X140437854Y-101049533D01*
X140330026Y-101004869D01*
X140215556Y-100982100D01*
X140098844Y-100982100D01*
X139984374Y-101004869D01*
X139876546Y-101049533D01*
X139779503Y-101114375D01*
X139696975Y-101196903D01*
X139632133Y-101293946D01*
X139587469Y-101401774D01*
X139564700Y-101516244D01*
X139564700Y-101632956D01*
X139581755Y-101718700D01*
X139540044Y-101718700D01*
X139425574Y-101741469D01*
X139317746Y-101786133D01*
X139220703Y-101850975D01*
X139138175Y-101933503D01*
X139073333Y-102030546D01*
X139028669Y-102138374D01*
X139005900Y-102252844D01*
X138346250Y-102252844D01*
X138298026Y-102232869D01*
X138183556Y-102210100D01*
X138066844Y-102210100D01*
X137952374Y-102232869D01*
X137844546Y-102277533D01*
X137747503Y-102342375D01*
X137664975Y-102424903D01*
X137600133Y-102521946D01*
X137555469Y-102629774D01*
X137532700Y-102744244D01*
X137532700Y-102860956D01*
X137539737Y-102896336D01*
X137507267Y-102817946D01*
X137442425Y-102720903D01*
X137359897Y-102638375D01*
X137262854Y-102573533D01*
X137155026Y-102528869D01*
X137040556Y-102506100D01*
X136923844Y-102506100D01*
X136809374Y-102528869D01*
X136701546Y-102573533D01*
X136604503Y-102638375D01*
X136521975Y-102720903D01*
X136457133Y-102817946D01*
X136412469Y-102925774D01*
X136389700Y-103040244D01*
X132954700Y-103040244D01*
X132954700Y-101262244D01*
X136389700Y-101262244D01*
X136389700Y-101378956D01*
X136412469Y-101493426D01*
X136457133Y-101601254D01*
X136521975Y-101698297D01*
X136604503Y-101780825D01*
X136701546Y-101845667D01*
X136809374Y-101890331D01*
X136923844Y-101913100D01*
X137040556Y-101913100D01*
X137155026Y-101890331D01*
X137262854Y-101845667D01*
X137359897Y-101780825D01*
X137442425Y-101698297D01*
X137507267Y-101601254D01*
X137539737Y-101522864D01*
X137532700Y-101558244D01*
X137532700Y-101674956D01*
X137555469Y-101789426D01*
X137600133Y-101897254D01*
X137664975Y-101994297D01*
X137747503Y-102076825D01*
X137844546Y-102141667D01*
X137952374Y-102186331D01*
X138066844Y-102209100D01*
X138183556Y-102209100D01*
X138298026Y-102186331D01*
X138405854Y-102141667D01*
X138502897Y-102076825D01*
X138585425Y-101994297D01*
X138650267Y-101897254D01*
X138694931Y-101789426D01*
X138717700Y-101674956D01*
X138717700Y-101558244D01*
X138694931Y-101443774D01*
X138650267Y-101335946D01*
X138585425Y-101238903D01*
X138502897Y-101156375D01*
X138405854Y-101091533D01*
X138345661Y-101066600D01*
X138405854Y-101041667D01*
X138502897Y-100976825D01*
X138585425Y-100894297D01*
X138603625Y-100867058D01*
X138616133Y-100897254D01*
X138680975Y-100994297D01*
X138763503Y-101076825D01*
X138860546Y-101141667D01*
X138968374Y-101186331D01*
X139082844Y-101209100D01*
X139199556Y-101209100D01*
X139314026Y-101186331D01*
X139421854Y-101141667D01*
X139518897Y-101076825D01*
X139601425Y-100994297D01*
X139666267Y-100897254D01*
X139710931Y-100789426D01*
X139733700Y-100674956D01*
X139733700Y-100558244D01*
X139710931Y-100443774D01*
X139666267Y-100335946D01*
X139601425Y-100238903D01*
X139518897Y-100156375D01*
X139421854Y-100091533D01*
X139323033Y-100050600D01*
X139421854Y-100009667D01*
X139518897Y-99944825D01*
X139601425Y-99862297D01*
X139666267Y-99765254D01*
X139710931Y-99657426D01*
X139720116Y-99611244D01*
X148614700Y-99611244D01*
X148614700Y-99727956D01*
X148637469Y-99842426D01*
X148682133Y-99950254D01*
X148746975Y-100047297D01*
X148829503Y-100129825D01*
X148926546Y-100194667D01*
X149034374Y-100239331D01*
X149148844Y-100262100D01*
X149265556Y-100262100D01*
X149380026Y-100239331D01*
X149487854Y-100194667D01*
X149584897Y-100129825D01*
X149667425Y-100047297D01*
X149732267Y-99950254D01*
X149776931Y-99842426D01*
X149799700Y-99727956D01*
X149799700Y-99611244D01*
X149776931Y-99496774D01*
X149732267Y-99388946D01*
X149667425Y-99291903D01*
X149584897Y-99209375D01*
X149487854Y-99144533D01*
X149380026Y-99099869D01*
X149265556Y-99077100D01*
X149148844Y-99077100D01*
X149034374Y-99099869D01*
X148926546Y-99144533D01*
X148829503Y-99209375D01*
X148746975Y-99291903D01*
X148682133Y-99388946D01*
X148637469Y-99496774D01*
X148614700Y-99611244D01*
X139720116Y-99611244D01*
X139733700Y-99542956D01*
X139733700Y-99426244D01*
X139710931Y-99311774D01*
X139666267Y-99203946D01*
X139601425Y-99106903D01*
X139518897Y-99024375D01*
X139421854Y-98959533D01*
X139314026Y-98914869D01*
X139199556Y-98892100D01*
X139082844Y-98892100D01*
X138968374Y-98914869D01*
X138860546Y-98959533D01*
X138763503Y-99024375D01*
X138680975Y-99106903D01*
X138616133Y-99203946D01*
X138571469Y-99311774D01*
X138548700Y-99426244D01*
X138548700Y-99542956D01*
X138571469Y-99657426D01*
X138616133Y-99765254D01*
X138680975Y-99862297D01*
X138763503Y-99944825D01*
X138860546Y-100009667D01*
X138959367Y-100050600D01*
X138860546Y-100091533D01*
X138763503Y-100156375D01*
X138680975Y-100238903D01*
X138662775Y-100266142D01*
X138650267Y-100235946D01*
X138585425Y-100138903D01*
X138502897Y-100056375D01*
X138405854Y-99991533D01*
X138298026Y-99946869D01*
X138183556Y-99924100D01*
X138066844Y-99924100D01*
X137952374Y-99946869D01*
X137844546Y-99991533D01*
X137747503Y-100056375D01*
X137701700Y-100102178D01*
X137701700Y-99992244D01*
X137678931Y-99877774D01*
X137634267Y-99769946D01*
X137569425Y-99672903D01*
X137486897Y-99590375D01*
X137389854Y-99525533D01*
X137282026Y-99480869D01*
X137167556Y-99458100D01*
X137050844Y-99458100D01*
X136936374Y-99480869D01*
X136828546Y-99525533D01*
X136731503Y-99590375D01*
X136648975Y-99672903D01*
X136584133Y-99769946D01*
X136539469Y-99877774D01*
X136516700Y-99992244D01*
X136516700Y-100108956D01*
X136539469Y-100223426D01*
X136584133Y-100331254D01*
X136648975Y-100428297D01*
X136731503Y-100510825D01*
X136828546Y-100575667D01*
X136936374Y-100620331D01*
X137050844Y-100643100D01*
X137167556Y-100643100D01*
X137282026Y-100620331D01*
X137389854Y-100575667D01*
X137486897Y-100510825D01*
X137532700Y-100465022D01*
X137532700Y-100574956D01*
X137555469Y-100689426D01*
X137600133Y-100797254D01*
X137664975Y-100894297D01*
X137747503Y-100976825D01*
X137844546Y-101041667D01*
X137904739Y-101066600D01*
X137844546Y-101091533D01*
X137747503Y-101156375D01*
X137664975Y-101238903D01*
X137600133Y-101335946D01*
X137567663Y-101414336D01*
X137574700Y-101378956D01*
X137574700Y-101262244D01*
X137551931Y-101147774D01*
X137507267Y-101039946D01*
X137442425Y-100942903D01*
X137359897Y-100860375D01*
X137262854Y-100795533D01*
X137155026Y-100750869D01*
X137040556Y-100728100D01*
X136923844Y-100728100D01*
X136809374Y-100750869D01*
X136701546Y-100795533D01*
X136604503Y-100860375D01*
X136521975Y-100942903D01*
X136457133Y-101039946D01*
X136412469Y-101147774D01*
X136389700Y-101262244D01*
X132954700Y-101262244D01*
X132954700Y-98722244D01*
X134484700Y-98722244D01*
X134484700Y-98838956D01*
X134507469Y-98953426D01*
X134552133Y-99061254D01*
X134616975Y-99158297D01*
X134699503Y-99240825D01*
X134796546Y-99305667D01*
X134904374Y-99350331D01*
X134933712Y-99356166D01*
X134870975Y-99418903D01*
X134806133Y-99515946D01*
X134761469Y-99623774D01*
X134738700Y-99738244D01*
X134738700Y-99854956D01*
X134761469Y-99969426D01*
X134806133Y-100077254D01*
X134870975Y-100174297D01*
X134953503Y-100256825D01*
X135050546Y-100321667D01*
X135158374Y-100366331D01*
X135272844Y-100389100D01*
X135389556Y-100389100D01*
X135504026Y-100366331D01*
X135611854Y-100321667D01*
X135708897Y-100256825D01*
X135791425Y-100174297D01*
X135856267Y-100077254D01*
X135900931Y-99969426D01*
X135923700Y-99854956D01*
X135923700Y-99738244D01*
X135900931Y-99623774D01*
X135856267Y-99515946D01*
X135791425Y-99418903D01*
X135708897Y-99336375D01*
X135611854Y-99271533D01*
X135504026Y-99226869D01*
X135474688Y-99221034D01*
X135537425Y-99158297D01*
X135602267Y-99061254D01*
X135646931Y-98953426D01*
X135669700Y-98838956D01*
X135669700Y-98747644D01*
X135754700Y-98747644D01*
X135754700Y-98864356D01*
X135777469Y-98978826D01*
X135822133Y-99086654D01*
X135886975Y-99183697D01*
X135969503Y-99266225D01*
X136066546Y-99331067D01*
X136174374Y-99375731D01*
X136288844Y-99398500D01*
X136405556Y-99398500D01*
X136520026Y-99375731D01*
X136627854Y-99331067D01*
X136724897Y-99266225D01*
X136807425Y-99183697D01*
X136872267Y-99086654D01*
X136916931Y-98978826D01*
X136917444Y-98976244D01*
X137278700Y-98976244D01*
X137278700Y-99092956D01*
X137301469Y-99207426D01*
X137346133Y-99315254D01*
X137410975Y-99412297D01*
X137493503Y-99494825D01*
X137590546Y-99559667D01*
X137698374Y-99604331D01*
X137812844Y-99627100D01*
X137929556Y-99627100D01*
X138044026Y-99604331D01*
X138151854Y-99559667D01*
X138248897Y-99494825D01*
X138331425Y-99412297D01*
X138396267Y-99315254D01*
X138440931Y-99207426D01*
X138463700Y-99092956D01*
X138463700Y-98976244D01*
X138440931Y-98861774D01*
X138396267Y-98753946D01*
X138331425Y-98656903D01*
X138248897Y-98574375D01*
X138151854Y-98509533D01*
X138044026Y-98464869D01*
X137929556Y-98442100D01*
X137812844Y-98442100D01*
X137698374Y-98464869D01*
X137590546Y-98509533D01*
X137493503Y-98574375D01*
X137410975Y-98656903D01*
X137346133Y-98753946D01*
X137301469Y-98861774D01*
X137278700Y-98976244D01*
X136917444Y-98976244D01*
X136939700Y-98864356D01*
X136939700Y-98747644D01*
X136916931Y-98633174D01*
X136872267Y-98525346D01*
X136807425Y-98428303D01*
X136805366Y-98426244D01*
X139564700Y-98426244D01*
X139564700Y-98542956D01*
X139587469Y-98657426D01*
X139632133Y-98765254D01*
X139696975Y-98862297D01*
X139779503Y-98944825D01*
X139876546Y-99009667D01*
X139984374Y-99054331D01*
X140098844Y-99077100D01*
X140215556Y-99077100D01*
X140330026Y-99054331D01*
X140437854Y-99009667D01*
X140534897Y-98944825D01*
X140617425Y-98862297D01*
X140682267Y-98765254D01*
X140726931Y-98657426D01*
X140749700Y-98542956D01*
X140749700Y-98426244D01*
X140726931Y-98311774D01*
X140682267Y-98203946D01*
X140617425Y-98106903D01*
X140534897Y-98024375D01*
X140437854Y-97959533D01*
X140330026Y-97914869D01*
X140215556Y-97892100D01*
X140098844Y-97892100D01*
X139984374Y-97914869D01*
X139876546Y-97959533D01*
X139779503Y-98024375D01*
X139696975Y-98106903D01*
X139632133Y-98203946D01*
X139587469Y-98311774D01*
X139564700Y-98426244D01*
X136805366Y-98426244D01*
X136724897Y-98345775D01*
X136627854Y-98280933D01*
X136520026Y-98236269D01*
X136405556Y-98213500D01*
X136288844Y-98213500D01*
X136174374Y-98236269D01*
X136066546Y-98280933D01*
X135969503Y-98345775D01*
X135886975Y-98428303D01*
X135822133Y-98525346D01*
X135777469Y-98633174D01*
X135754700Y-98747644D01*
X135669700Y-98747644D01*
X135669700Y-98722244D01*
X135646931Y-98607774D01*
X135602267Y-98499946D01*
X135537425Y-98402903D01*
X135454897Y-98320375D01*
X135357854Y-98255533D01*
X135250026Y-98210869D01*
X135135556Y-98188100D01*
X135018844Y-98188100D01*
X134904374Y-98210869D01*
X134796546Y-98255533D01*
X134699503Y-98320375D01*
X134616975Y-98402903D01*
X134552133Y-98499946D01*
X134507469Y-98607774D01*
X134484700Y-98722244D01*
X132954700Y-98722244D01*
X132954700Y-97648700D01*
X167120900Y-97648700D01*
X167120901Y-106516500D01*
G04 #@! TA.AperFunction,Conductor*
D14*
G36*
X167120901Y-106516500D02*
G01*
X153820905Y-106516500D01*
X153849931Y-106446426D01*
X153872700Y-106331956D01*
X153872700Y-106215244D01*
X153849931Y-106100774D01*
X153805267Y-105992946D01*
X153740425Y-105895903D01*
X153657897Y-105813375D01*
X153560854Y-105748533D01*
X153453026Y-105703869D01*
X153338556Y-105681100D01*
X153221844Y-105681100D01*
X153107374Y-105703869D01*
X152999546Y-105748533D01*
X152902503Y-105813375D01*
X152819975Y-105895903D01*
X152755133Y-105992946D01*
X152710469Y-106100774D01*
X152687700Y-106215244D01*
X152687700Y-106331956D01*
X152710469Y-106446426D01*
X152739495Y-106516500D01*
X149530009Y-106516500D01*
X149584897Y-106479825D01*
X149667425Y-106397297D01*
X149732267Y-106300254D01*
X149776931Y-106192426D01*
X149799700Y-106077956D01*
X149799700Y-105961244D01*
X149776931Y-105846774D01*
X149732267Y-105738946D01*
X149677141Y-105656444D01*
X151502700Y-105656444D01*
X151502700Y-105773156D01*
X151525469Y-105887626D01*
X151570133Y-105995454D01*
X151634975Y-106092497D01*
X151717503Y-106175025D01*
X151814546Y-106239867D01*
X151922374Y-106284531D01*
X152036844Y-106307300D01*
X152153556Y-106307300D01*
X152268026Y-106284531D01*
X152375854Y-106239867D01*
X152472897Y-106175025D01*
X152555425Y-106092497D01*
X152620267Y-105995454D01*
X152664931Y-105887626D01*
X152687700Y-105773156D01*
X152687700Y-105656444D01*
X152664931Y-105541974D01*
X152620267Y-105434146D01*
X152555425Y-105337103D01*
X152472897Y-105254575D01*
X152375854Y-105189733D01*
X152268026Y-105145069D01*
X152153556Y-105122300D01*
X152036844Y-105122300D01*
X151922374Y-105145069D01*
X151814546Y-105189733D01*
X151717503Y-105254575D01*
X151634975Y-105337103D01*
X151570133Y-105434146D01*
X151525469Y-105541974D01*
X151502700Y-105656444D01*
X149677141Y-105656444D01*
X149667425Y-105641903D01*
X149584897Y-105559375D01*
X149487854Y-105494533D01*
X149380026Y-105449869D01*
X149265556Y-105427100D01*
X149148844Y-105427100D01*
X149034374Y-105449869D01*
X148926546Y-105494533D01*
X148829503Y-105559375D01*
X148746975Y-105641903D01*
X148682133Y-105738946D01*
X148637469Y-105846774D01*
X148614700Y-105961244D01*
X148614700Y-106077956D01*
X148637469Y-106192426D01*
X148682133Y-106300254D01*
X148746975Y-106397297D01*
X148829503Y-106479825D01*
X148884391Y-106516500D01*
X145412413Y-106516500D01*
X145467054Y-106493867D01*
X145564097Y-106429025D01*
X145646625Y-106346497D01*
X145711467Y-106249454D01*
X145756131Y-106141626D01*
X145778900Y-106027156D01*
X145778900Y-105910444D01*
X145756131Y-105795974D01*
X145711467Y-105688146D01*
X145646625Y-105591103D01*
X145564097Y-105508575D01*
X145467054Y-105443733D01*
X145359226Y-105399069D01*
X145244756Y-105376300D01*
X145128044Y-105376300D01*
X145013574Y-105399069D01*
X144905746Y-105443733D01*
X144808703Y-105508575D01*
X144726175Y-105591103D01*
X144661333Y-105688146D01*
X144616669Y-105795974D01*
X144593900Y-105910444D01*
X144593900Y-106027156D01*
X144616669Y-106141626D01*
X144661333Y-106249454D01*
X144726175Y-106346497D01*
X144808703Y-106429025D01*
X144905746Y-106493867D01*
X144960387Y-106516500D01*
X140268847Y-106516500D01*
X140330026Y-106504331D01*
X140437854Y-106459667D01*
X140534897Y-106394825D01*
X140617425Y-106312297D01*
X140682267Y-106215254D01*
X140726931Y-106107426D01*
X140749700Y-105992956D01*
X140749700Y-105876244D01*
X140726931Y-105761774D01*
X140682267Y-105653946D01*
X140617425Y-105556903D01*
X140534897Y-105474375D01*
X140437854Y-105409533D01*
X140330026Y-105364869D01*
X140215556Y-105342100D01*
X140098844Y-105342100D01*
X139984374Y-105364869D01*
X139876546Y-105409533D01*
X139779503Y-105474375D01*
X139696975Y-105556903D01*
X139632133Y-105653946D01*
X139587469Y-105761774D01*
X139564700Y-105876244D01*
X139564700Y-105992956D01*
X139587469Y-106107426D01*
X139632133Y-106215254D01*
X139696975Y-106312297D01*
X139779503Y-106394825D01*
X139876546Y-106459667D01*
X139984374Y-106504331D01*
X140045553Y-106516500D01*
X137803300Y-106516500D01*
X137803300Y-106418444D01*
X137780531Y-106303974D01*
X137745811Y-106220154D01*
X137800844Y-106231100D01*
X137917556Y-106231100D01*
X138032026Y-106208331D01*
X138139854Y-106163667D01*
X138236897Y-106098825D01*
X138319425Y-106016297D01*
X138384267Y-105919254D01*
X138428931Y-105811426D01*
X138451700Y-105696956D01*
X138451700Y-105580244D01*
X138428931Y-105465774D01*
X138384267Y-105357946D01*
X138319425Y-105260903D01*
X138236897Y-105178375D01*
X138139854Y-105113533D01*
X138032026Y-105068869D01*
X137917556Y-105046100D01*
X137800844Y-105046100D01*
X137686374Y-105068869D01*
X137578546Y-105113533D01*
X137481503Y-105178375D01*
X137398975Y-105260903D01*
X137334133Y-105357946D01*
X137289469Y-105465774D01*
X137266700Y-105580244D01*
X137266700Y-105696956D01*
X137289469Y-105811426D01*
X137324189Y-105895246D01*
X137269156Y-105884300D01*
X137152444Y-105884300D01*
X137037974Y-105907069D01*
X136995712Y-105924575D01*
X136999267Y-105919254D01*
X137043931Y-105811426D01*
X137066700Y-105696956D01*
X137066700Y-105580244D01*
X137043931Y-105465774D01*
X136999267Y-105357946D01*
X136934425Y-105260903D01*
X136851897Y-105178375D01*
X136754854Y-105113533D01*
X136647026Y-105068869D01*
X136532556Y-105046100D01*
X136415844Y-105046100D01*
X136301374Y-105068869D01*
X136193546Y-105113533D01*
X136096503Y-105178375D01*
X136013975Y-105260903D01*
X135949133Y-105357946D01*
X135904469Y-105465774D01*
X135881700Y-105580244D01*
X135881700Y-105696956D01*
X135904469Y-105811426D01*
X135949133Y-105919254D01*
X136013975Y-106016297D01*
X136096503Y-106098825D01*
X136193546Y-106163667D01*
X136301374Y-106208331D01*
X136415844Y-106231100D01*
X136532556Y-106231100D01*
X136647026Y-106208331D01*
X136689288Y-106190825D01*
X136685733Y-106196146D01*
X136641069Y-106303974D01*
X136618300Y-106418444D01*
X136618300Y-106516500D01*
X132954700Y-106516500D01*
X132954700Y-105580244D01*
X134357700Y-105580244D01*
X134357700Y-105696956D01*
X134380469Y-105811426D01*
X134425133Y-105919254D01*
X134489975Y-106016297D01*
X134572503Y-106098825D01*
X134669546Y-106163667D01*
X134777374Y-106208331D01*
X134891844Y-106231100D01*
X135008556Y-106231100D01*
X135123026Y-106208331D01*
X135230854Y-106163667D01*
X135327897Y-106098825D01*
X135410425Y-106016297D01*
X135475267Y-105919254D01*
X135519931Y-105811426D01*
X135542700Y-105696956D01*
X135542700Y-105580244D01*
X135519931Y-105465774D01*
X135475267Y-105357946D01*
X135410425Y-105260903D01*
X135364622Y-105215100D01*
X135389556Y-105215100D01*
X135504026Y-105192331D01*
X135611854Y-105147667D01*
X135708897Y-105082825D01*
X135791425Y-105000297D01*
X135856267Y-104903254D01*
X135900931Y-104795426D01*
X135923700Y-104680956D01*
X135923700Y-104564244D01*
X135900931Y-104449774D01*
X135856267Y-104341946D01*
X135791425Y-104244903D01*
X135708897Y-104162375D01*
X135611854Y-104097533D01*
X135504026Y-104052869D01*
X135389556Y-104030100D01*
X135272844Y-104030100D01*
X135158374Y-104052869D01*
X135050546Y-104097533D01*
X134953503Y-104162375D01*
X134870975Y-104244903D01*
X134806133Y-104341946D01*
X134761469Y-104449774D01*
X134738700Y-104564244D01*
X134738700Y-104680956D01*
X134761469Y-104795426D01*
X134806133Y-104903254D01*
X134870975Y-105000297D01*
X134916778Y-105046100D01*
X134891844Y-105046100D01*
X134777374Y-105068869D01*
X134669546Y-105113533D01*
X134572503Y-105178375D01*
X134489975Y-105260903D01*
X134425133Y-105357946D01*
X134380469Y-105465774D01*
X134357700Y-105580244D01*
X132954700Y-105580244D01*
X132954700Y-103040244D01*
X136389700Y-103040244D01*
X136389700Y-103156956D01*
X136412469Y-103271426D01*
X136457133Y-103379254D01*
X136521975Y-103476297D01*
X136604503Y-103558825D01*
X136701546Y-103623667D01*
X136809374Y-103668331D01*
X136923844Y-103691100D01*
X137040556Y-103691100D01*
X137155026Y-103668331D01*
X137262854Y-103623667D01*
X137359897Y-103558825D01*
X137442425Y-103476297D01*
X137507267Y-103379254D01*
X137551931Y-103271426D01*
X137574700Y-103156956D01*
X137574700Y-103040244D01*
X137567663Y-103004864D01*
X137600133Y-103083254D01*
X137664975Y-103180297D01*
X137747503Y-103262825D01*
X137844546Y-103327667D01*
X137952374Y-103372331D01*
X138066844Y-103395100D01*
X137952374Y-103417869D01*
X137844546Y-103462533D01*
X137747503Y-103527375D01*
X137664975Y-103609903D01*
X137600133Y-103706946D01*
X137555469Y-103814774D01*
X137532700Y-103929244D01*
X137532700Y-103954178D01*
X137486897Y-103908375D01*
X137389854Y-103843533D01*
X137282026Y-103798869D01*
X137167556Y-103776100D01*
X137050844Y-103776100D01*
X136936374Y-103798869D01*
X136828546Y-103843533D01*
X136731503Y-103908375D01*
X136648975Y-103990903D01*
X136584133Y-104087946D01*
X136539469Y-104195774D01*
X136516700Y-104310244D01*
X136516700Y-104426956D01*
X136539469Y-104541426D01*
X136584133Y-104649254D01*
X136648975Y-104746297D01*
X136731503Y-104828825D01*
X136828546Y-104893667D01*
X136936374Y-104938331D01*
X137050844Y-104961100D01*
X137167556Y-104961100D01*
X137282026Y-104938331D01*
X137389854Y-104893667D01*
X137415929Y-104876244D01*
X138548700Y-104876244D01*
X138548700Y-104992956D01*
X138571469Y-105107426D01*
X138616133Y-105215254D01*
X138680975Y-105312297D01*
X138763503Y-105394825D01*
X138860546Y-105459667D01*
X138968374Y-105504331D01*
X139082844Y-105527100D01*
X139199556Y-105527100D01*
X139314026Y-105504331D01*
X139421854Y-105459667D01*
X139518897Y-105394825D01*
X139601425Y-105312297D01*
X139666267Y-105215254D01*
X139710931Y-105107426D01*
X139733700Y-104992956D01*
X139733700Y-104876244D01*
X139710931Y-104761774D01*
X139681717Y-104691244D01*
X148607100Y-104691244D01*
X148607100Y-104807956D01*
X148629869Y-104922426D01*
X148674533Y-105030254D01*
X148739375Y-105127297D01*
X148821903Y-105209825D01*
X148918946Y-105274667D01*
X149026774Y-105319331D01*
X149141244Y-105342100D01*
X149257956Y-105342100D01*
X149372426Y-105319331D01*
X149480254Y-105274667D01*
X149577297Y-105209825D01*
X149659825Y-105127297D01*
X149724667Y-105030254D01*
X149769331Y-104922426D01*
X149792100Y-104807956D01*
X149792100Y-104691244D01*
X149771891Y-104589644D01*
X150385100Y-104589644D01*
X150385100Y-104706356D01*
X150407869Y-104820826D01*
X150452533Y-104928654D01*
X150517375Y-105025697D01*
X150599903Y-105108225D01*
X150696946Y-105173067D01*
X150804774Y-105217731D01*
X150919244Y-105240500D01*
X151035956Y-105240500D01*
X151150426Y-105217731D01*
X151258254Y-105173067D01*
X151355297Y-105108225D01*
X151437825Y-105025697D01*
X151502667Y-104928654D01*
X151547331Y-104820826D01*
X151570100Y-104706356D01*
X151570100Y-104589644D01*
X151547331Y-104475174D01*
X151502667Y-104367346D01*
X151437825Y-104270303D01*
X151355297Y-104187775D01*
X151258254Y-104122933D01*
X151150426Y-104078269D01*
X151035956Y-104055500D01*
X150919244Y-104055500D01*
X150804774Y-104078269D01*
X150696946Y-104122933D01*
X150599903Y-104187775D01*
X150517375Y-104270303D01*
X150452533Y-104367346D01*
X150407869Y-104475174D01*
X150385100Y-104589644D01*
X149771891Y-104589644D01*
X149769331Y-104576774D01*
X149724667Y-104468946D01*
X149659825Y-104371903D01*
X149577297Y-104289375D01*
X149480254Y-104224533D01*
X149372426Y-104179869D01*
X149257956Y-104157100D01*
X149141244Y-104157100D01*
X149026774Y-104179869D01*
X148918946Y-104224533D01*
X148821903Y-104289375D01*
X148739375Y-104371903D01*
X148674533Y-104468946D01*
X148629869Y-104576774D01*
X148607100Y-104691244D01*
X139681717Y-104691244D01*
X139666267Y-104653946D01*
X139601425Y-104556903D01*
X139518897Y-104474375D01*
X139421854Y-104409533D01*
X139314026Y-104364869D01*
X139199556Y-104342100D01*
X139082844Y-104342100D01*
X138968374Y-104364869D01*
X138860546Y-104409533D01*
X138763503Y-104474375D01*
X138680975Y-104556903D01*
X138616133Y-104653946D01*
X138571469Y-104761774D01*
X138548700Y-104876244D01*
X137415929Y-104876244D01*
X137486897Y-104828825D01*
X137569425Y-104746297D01*
X137634267Y-104649254D01*
X137678931Y-104541426D01*
X137701700Y-104426956D01*
X137701700Y-104402022D01*
X137747503Y-104447825D01*
X137844546Y-104512667D01*
X137952374Y-104557331D01*
X138066844Y-104580100D01*
X138183556Y-104580100D01*
X138298026Y-104557331D01*
X138405854Y-104512667D01*
X138502897Y-104447825D01*
X138585425Y-104365297D01*
X138650267Y-104268254D01*
X138694931Y-104160426D01*
X138717700Y-104045956D01*
X138717700Y-103929244D01*
X138694931Y-103814774D01*
X138665717Y-103744244D01*
X139430500Y-103744244D01*
X139430500Y-103860956D01*
X139453269Y-103975426D01*
X139497933Y-104083254D01*
X139562775Y-104180297D01*
X139645303Y-104262825D01*
X139742346Y-104327667D01*
X139850174Y-104372331D01*
X139964644Y-104395100D01*
X140081356Y-104395100D01*
X140195826Y-104372331D01*
X140303654Y-104327667D01*
X140400697Y-104262825D01*
X140483225Y-104180297D01*
X140548067Y-104083254D01*
X140592731Y-103975426D01*
X140615500Y-103860956D01*
X140615500Y-103744244D01*
X140592731Y-103629774D01*
X140548067Y-103521946D01*
X140483225Y-103424903D01*
X140400697Y-103342375D01*
X140303654Y-103277533D01*
X140195826Y-103232869D01*
X140081356Y-103210100D01*
X139964644Y-103210100D01*
X139850174Y-103232869D01*
X139742346Y-103277533D01*
X139645303Y-103342375D01*
X139562775Y-103424903D01*
X139497933Y-103521946D01*
X139453269Y-103629774D01*
X139430500Y-103744244D01*
X138665717Y-103744244D01*
X138650267Y-103706946D01*
X138585425Y-103609903D01*
X138502897Y-103527375D01*
X138405854Y-103462533D01*
X138298026Y-103417869D01*
X138183556Y-103395100D01*
X138298026Y-103372331D01*
X138405854Y-103327667D01*
X138502897Y-103262825D01*
X138585425Y-103180297D01*
X138628090Y-103116444D01*
X140580700Y-103116444D01*
X140580700Y-103233156D01*
X140603469Y-103347626D01*
X140648133Y-103455454D01*
X140712975Y-103552497D01*
X140795503Y-103635025D01*
X140892546Y-103699867D01*
X141000374Y-103744531D01*
X141114844Y-103767300D01*
X141231556Y-103767300D01*
X141346026Y-103744531D01*
X141446775Y-103702799D01*
X141467069Y-103804826D01*
X141511733Y-103912654D01*
X141576575Y-104009697D01*
X141659103Y-104092225D01*
X141756146Y-104157067D01*
X141863974Y-104201731D01*
X141978444Y-104224500D01*
X142095156Y-104224500D01*
X142209626Y-104201731D01*
X142317454Y-104157067D01*
X142414497Y-104092225D01*
X142497025Y-104009697D01*
X142561867Y-103912654D01*
X142606531Y-103804826D01*
X142629300Y-103690356D01*
X142629300Y-103573644D01*
X142606531Y-103459174D01*
X142590820Y-103421244D01*
X148614700Y-103421244D01*
X148614700Y-103537956D01*
X148637469Y-103652426D01*
X148682133Y-103760254D01*
X148746975Y-103857297D01*
X148829503Y-103939825D01*
X148926546Y-104004667D01*
X149034374Y-104049331D01*
X149148844Y-104072100D01*
X149265556Y-104072100D01*
X149380026Y-104049331D01*
X149487854Y-104004667D01*
X149584897Y-103939825D01*
X149667425Y-103857297D01*
X149732267Y-103760254D01*
X149776931Y-103652426D01*
X149799700Y-103537956D01*
X149799700Y-103421244D01*
X149776931Y-103306774D01*
X149732267Y-103198946D01*
X149667425Y-103101903D01*
X149584897Y-103019375D01*
X149487854Y-102954533D01*
X149380026Y-102909869D01*
X149265556Y-102887100D01*
X149148844Y-102887100D01*
X149034374Y-102909869D01*
X148926546Y-102954533D01*
X148829503Y-103019375D01*
X148746975Y-103101903D01*
X148682133Y-103198946D01*
X148637469Y-103306774D01*
X148614700Y-103421244D01*
X142590820Y-103421244D01*
X142561867Y-103351346D01*
X142497025Y-103254303D01*
X142414497Y-103171775D01*
X142317454Y-103106933D01*
X142209626Y-103062269D01*
X142095156Y-103039500D01*
X141978444Y-103039500D01*
X141863974Y-103062269D01*
X141763225Y-103104001D01*
X141742931Y-103001974D01*
X141698267Y-102894146D01*
X141633425Y-102797103D01*
X141550897Y-102714575D01*
X141453854Y-102649733D01*
X141346026Y-102605069D01*
X141231556Y-102582300D01*
X141114844Y-102582300D01*
X141000374Y-102605069D01*
X140892546Y-102649733D01*
X140795503Y-102714575D01*
X140712975Y-102797103D01*
X140648133Y-102894146D01*
X140603469Y-103001974D01*
X140580700Y-103116444D01*
X138628090Y-103116444D01*
X138650267Y-103083254D01*
X138694931Y-102975426D01*
X138717700Y-102860956D01*
X138717700Y-102744244D01*
X138694931Y-102629774D01*
X138650267Y-102521946D01*
X138585425Y-102424903D01*
X138502897Y-102342375D01*
X138405854Y-102277533D01*
X138346250Y-102252844D01*
X139005900Y-102252844D01*
X139005900Y-102369556D01*
X139028669Y-102484026D01*
X139073333Y-102591854D01*
X139138175Y-102688897D01*
X139220703Y-102771425D01*
X139317746Y-102836267D01*
X139425574Y-102880931D01*
X139540044Y-102903700D01*
X139656756Y-102903700D01*
X139771226Y-102880931D01*
X139879054Y-102836267D01*
X139976097Y-102771425D01*
X140058625Y-102688897D01*
X140123467Y-102591854D01*
X140168131Y-102484026D01*
X140190900Y-102369556D01*
X140190900Y-102252844D01*
X140173845Y-102167100D01*
X140215556Y-102167100D01*
X140295271Y-102151244D01*
X143214700Y-102151244D01*
X143214700Y-102267956D01*
X143237469Y-102382426D01*
X143282133Y-102490254D01*
X143346975Y-102587297D01*
X143429503Y-102669825D01*
X143526546Y-102734667D01*
X143634374Y-102779331D01*
X143748844Y-102802100D01*
X143865556Y-102802100D01*
X143980026Y-102779331D01*
X144087854Y-102734667D01*
X144184897Y-102669825D01*
X144264478Y-102590244D01*
X150232700Y-102590244D01*
X150232700Y-102706956D01*
X150255469Y-102821426D01*
X150300133Y-102929254D01*
X150364975Y-103026297D01*
X150447503Y-103108825D01*
X150544546Y-103173667D01*
X150652374Y-103218331D01*
X150766844Y-103241100D01*
X150883556Y-103241100D01*
X150998026Y-103218331D01*
X151105854Y-103173667D01*
X151202897Y-103108825D01*
X151285425Y-103026297D01*
X151333200Y-102954797D01*
X151380975Y-103026297D01*
X151453278Y-103098600D01*
X151380975Y-103170903D01*
X151316133Y-103267946D01*
X151271469Y-103375774D01*
X151248700Y-103490244D01*
X151248700Y-103606956D01*
X151271469Y-103721426D01*
X151316133Y-103829254D01*
X151380975Y-103926297D01*
X151463503Y-104008825D01*
X151560546Y-104073667D01*
X151668374Y-104118331D01*
X151782844Y-104141100D01*
X151899556Y-104141100D01*
X152014026Y-104118331D01*
X152121854Y-104073667D01*
X152218897Y-104008825D01*
X152298478Y-103929244D01*
X154550700Y-103929244D01*
X154550700Y-104045956D01*
X154573469Y-104160426D01*
X154618133Y-104268254D01*
X154682975Y-104365297D01*
X154765503Y-104447825D01*
X154862546Y-104512667D01*
X154970374Y-104557331D01*
X155084844Y-104580100D01*
X155201556Y-104580100D01*
X155316026Y-104557331D01*
X155423854Y-104512667D01*
X155520897Y-104447825D01*
X155603425Y-104365297D01*
X155668267Y-104268254D01*
X155712931Y-104160426D01*
X155735700Y-104045956D01*
X155735700Y-103929244D01*
X155712931Y-103814774D01*
X155668267Y-103706946D01*
X155603425Y-103609903D01*
X155520897Y-103527375D01*
X155423854Y-103462533D01*
X155316026Y-103417869D01*
X155201556Y-103395100D01*
X155084844Y-103395100D01*
X154970374Y-103417869D01*
X154862546Y-103462533D01*
X154765503Y-103527375D01*
X154682975Y-103609903D01*
X154618133Y-103706946D01*
X154573469Y-103814774D01*
X154550700Y-103929244D01*
X152298478Y-103929244D01*
X152301425Y-103926297D01*
X152366267Y-103829254D01*
X152410931Y-103721426D01*
X152433700Y-103606956D01*
X152433700Y-103490244D01*
X152410931Y-103375774D01*
X152366267Y-103267946D01*
X152301425Y-103170903D01*
X152229122Y-103098600D01*
X152301425Y-103026297D01*
X152366267Y-102929254D01*
X152410931Y-102821426D01*
X152433700Y-102706956D01*
X152433700Y-102590244D01*
X152410931Y-102475774D01*
X152366267Y-102367946D01*
X152301425Y-102270903D01*
X152218897Y-102188375D01*
X152121854Y-102123533D01*
X152014026Y-102078869D01*
X151899556Y-102056100D01*
X151782844Y-102056100D01*
X151668374Y-102078869D01*
X151560546Y-102123533D01*
X151463503Y-102188375D01*
X151380975Y-102270903D01*
X151333200Y-102342403D01*
X151285425Y-102270903D01*
X151202897Y-102188375D01*
X151105854Y-102123533D01*
X150998026Y-102078869D01*
X150883556Y-102056100D01*
X150766844Y-102056100D01*
X150652374Y-102078869D01*
X150544546Y-102123533D01*
X150447503Y-102188375D01*
X150364975Y-102270903D01*
X150300133Y-102367946D01*
X150255469Y-102475774D01*
X150232700Y-102590244D01*
X144264478Y-102590244D01*
X144267425Y-102587297D01*
X144332267Y-102490254D01*
X144376931Y-102382426D01*
X144399700Y-102267956D01*
X144399700Y-102151244D01*
X144376931Y-102036774D01*
X144369733Y-102019395D01*
X161329100Y-102019395D01*
X161329100Y-102155805D01*
X161355712Y-102289595D01*
X161407914Y-102415622D01*
X161483700Y-102529043D01*
X161580157Y-102625500D01*
X161693578Y-102701286D01*
X161819605Y-102753488D01*
X161953395Y-102780100D01*
X162089805Y-102780100D01*
X162223595Y-102753488D01*
X162349622Y-102701286D01*
X162463043Y-102625500D01*
X162559500Y-102529043D01*
X162635286Y-102415622D01*
X162687488Y-102289595D01*
X162714100Y-102155805D01*
X162714100Y-102070195D01*
X164427900Y-102070195D01*
X164427900Y-102206605D01*
X164454512Y-102340395D01*
X164506714Y-102466422D01*
X164582500Y-102579843D01*
X164678957Y-102676300D01*
X164792378Y-102752086D01*
X164918405Y-102804288D01*
X165052195Y-102830900D01*
X165188605Y-102830900D01*
X165322395Y-102804288D01*
X165448422Y-102752086D01*
X165561843Y-102676300D01*
X165658300Y-102579843D01*
X165734086Y-102466422D01*
X165772992Y-102372494D01*
X165786714Y-102405622D01*
X165862500Y-102519043D01*
X165958957Y-102615500D01*
X166072378Y-102691286D01*
X166198405Y-102743488D01*
X166332195Y-102770100D01*
X166468605Y-102770100D01*
X166602395Y-102743488D01*
X166728422Y-102691286D01*
X166841843Y-102615500D01*
X166938300Y-102519043D01*
X167014086Y-102405622D01*
X167066288Y-102279595D01*
X167092900Y-102145805D01*
X167092900Y-102009395D01*
X167066288Y-101875605D01*
X167014086Y-101749578D01*
X166938300Y-101636157D01*
X166841843Y-101539700D01*
X166728422Y-101463914D01*
X166602395Y-101411712D01*
X166468605Y-101385100D01*
X166332195Y-101385100D01*
X166198405Y-101411712D01*
X166072378Y-101463914D01*
X165958957Y-101539700D01*
X165862500Y-101636157D01*
X165786714Y-101749578D01*
X165747808Y-101843506D01*
X165734086Y-101810378D01*
X165658300Y-101696957D01*
X165561843Y-101600500D01*
X165448422Y-101524714D01*
X165322395Y-101472512D01*
X165188605Y-101445900D01*
X165052195Y-101445900D01*
X164918405Y-101472512D01*
X164792378Y-101524714D01*
X164678957Y-101600500D01*
X164582500Y-101696957D01*
X164506714Y-101810378D01*
X164454512Y-101936405D01*
X164427900Y-102070195D01*
X162714100Y-102070195D01*
X162714100Y-102019395D01*
X162687488Y-101885605D01*
X162635286Y-101759578D01*
X162559500Y-101646157D01*
X162463043Y-101549700D01*
X162349622Y-101473914D01*
X162223595Y-101421712D01*
X162089805Y-101395100D01*
X161953395Y-101395100D01*
X161819605Y-101421712D01*
X161693578Y-101473914D01*
X161580157Y-101549700D01*
X161483700Y-101646157D01*
X161407914Y-101759578D01*
X161355712Y-101885605D01*
X161329100Y-102019395D01*
X144369733Y-102019395D01*
X144332267Y-101928946D01*
X144267425Y-101831903D01*
X144184897Y-101749375D01*
X144087854Y-101684533D01*
X143980026Y-101639869D01*
X143865556Y-101617100D01*
X143748844Y-101617100D01*
X143634374Y-101639869D01*
X143526546Y-101684533D01*
X143429503Y-101749375D01*
X143346975Y-101831903D01*
X143282133Y-101928946D01*
X143237469Y-102036774D01*
X143214700Y-102151244D01*
X140295271Y-102151244D01*
X140330026Y-102144331D01*
X140437854Y-102099667D01*
X140534897Y-102034825D01*
X140617425Y-101952297D01*
X140682267Y-101855254D01*
X140726931Y-101747426D01*
X140742389Y-101669711D01*
X140795503Y-101722825D01*
X140892546Y-101787667D01*
X141000374Y-101832331D01*
X141114844Y-101855100D01*
X141231556Y-101855100D01*
X141346026Y-101832331D01*
X141453854Y-101787667D01*
X141550897Y-101722825D01*
X141633425Y-101640297D01*
X141698267Y-101543254D01*
X141742931Y-101435426D01*
X141765700Y-101320956D01*
X141765700Y-101204244D01*
X141742931Y-101089774D01*
X141698267Y-100981946D01*
X141633425Y-100884903D01*
X141560766Y-100812244D01*
X150232700Y-100812244D01*
X150232700Y-100928956D01*
X150255469Y-101043426D01*
X150300133Y-101151254D01*
X150364975Y-101248297D01*
X150447503Y-101330825D01*
X150544546Y-101395667D01*
X150652374Y-101440331D01*
X150766844Y-101463100D01*
X150883556Y-101463100D01*
X150998026Y-101440331D01*
X151105854Y-101395667D01*
X151202897Y-101330825D01*
X151285425Y-101248297D01*
X151293077Y-101236844D01*
X152264700Y-101236844D01*
X152264700Y-101353556D01*
X152287469Y-101468026D01*
X152332133Y-101575854D01*
X152396975Y-101672897D01*
X152479503Y-101755425D01*
X152576546Y-101820267D01*
X152684374Y-101864931D01*
X152798844Y-101887700D01*
X152915556Y-101887700D01*
X153030026Y-101864931D01*
X153137854Y-101820267D01*
X153234897Y-101755425D01*
X153317425Y-101672897D01*
X153382267Y-101575854D01*
X153426931Y-101468026D01*
X153449700Y-101353556D01*
X153449700Y-101236844D01*
X153426931Y-101122374D01*
X153382267Y-101014546D01*
X153317425Y-100917503D01*
X153234897Y-100834975D01*
X153137854Y-100770133D01*
X153030026Y-100725469D01*
X152915556Y-100702700D01*
X152798844Y-100702700D01*
X152684374Y-100725469D01*
X152576546Y-100770133D01*
X152479503Y-100834975D01*
X152396975Y-100917503D01*
X152332133Y-101014546D01*
X152287469Y-101122374D01*
X152264700Y-101236844D01*
X151293077Y-101236844D01*
X151350267Y-101151254D01*
X151394931Y-101043426D01*
X151417700Y-100928956D01*
X151417700Y-100812244D01*
X151394931Y-100697774D01*
X151350267Y-100589946D01*
X151285425Y-100492903D01*
X151202897Y-100410375D01*
X151105854Y-100345533D01*
X150998026Y-100300869D01*
X150883556Y-100278100D01*
X150766844Y-100278100D01*
X150652374Y-100300869D01*
X150544546Y-100345533D01*
X150447503Y-100410375D01*
X150364975Y-100492903D01*
X150300133Y-100589946D01*
X150255469Y-100697774D01*
X150232700Y-100812244D01*
X141560766Y-100812244D01*
X141550897Y-100802375D01*
X141453854Y-100737533D01*
X141346026Y-100692869D01*
X141231556Y-100670100D01*
X141114844Y-100670100D01*
X141000374Y-100692869D01*
X140892546Y-100737533D01*
X140795503Y-100802375D01*
X140712975Y-100884903D01*
X140648133Y-100981946D01*
X140603469Y-101089774D01*
X140588011Y-101167489D01*
X140534897Y-101114375D01*
X140437854Y-101049533D01*
X140330026Y-101004869D01*
X140215556Y-100982100D01*
X140098844Y-100982100D01*
X139984374Y-101004869D01*
X139876546Y-101049533D01*
X139779503Y-101114375D01*
X139696975Y-101196903D01*
X139632133Y-101293946D01*
X139587469Y-101401774D01*
X139564700Y-101516244D01*
X139564700Y-101632956D01*
X139581755Y-101718700D01*
X139540044Y-101718700D01*
X139425574Y-101741469D01*
X139317746Y-101786133D01*
X139220703Y-101850975D01*
X139138175Y-101933503D01*
X139073333Y-102030546D01*
X139028669Y-102138374D01*
X139005900Y-102252844D01*
X138346250Y-102252844D01*
X138298026Y-102232869D01*
X138183556Y-102210100D01*
X138066844Y-102210100D01*
X137952374Y-102232869D01*
X137844546Y-102277533D01*
X137747503Y-102342375D01*
X137664975Y-102424903D01*
X137600133Y-102521946D01*
X137555469Y-102629774D01*
X137532700Y-102744244D01*
X137532700Y-102860956D01*
X137539737Y-102896336D01*
X137507267Y-102817946D01*
X137442425Y-102720903D01*
X137359897Y-102638375D01*
X137262854Y-102573533D01*
X137155026Y-102528869D01*
X137040556Y-102506100D01*
X136923844Y-102506100D01*
X136809374Y-102528869D01*
X136701546Y-102573533D01*
X136604503Y-102638375D01*
X136521975Y-102720903D01*
X136457133Y-102817946D01*
X136412469Y-102925774D01*
X136389700Y-103040244D01*
X132954700Y-103040244D01*
X132954700Y-101262244D01*
X136389700Y-101262244D01*
X136389700Y-101378956D01*
X136412469Y-101493426D01*
X136457133Y-101601254D01*
X136521975Y-101698297D01*
X136604503Y-101780825D01*
X136701546Y-101845667D01*
X136809374Y-101890331D01*
X136923844Y-101913100D01*
X137040556Y-101913100D01*
X137155026Y-101890331D01*
X137262854Y-101845667D01*
X137359897Y-101780825D01*
X137442425Y-101698297D01*
X137507267Y-101601254D01*
X137539737Y-101522864D01*
X137532700Y-101558244D01*
X137532700Y-101674956D01*
X137555469Y-101789426D01*
X137600133Y-101897254D01*
X137664975Y-101994297D01*
X137747503Y-102076825D01*
X137844546Y-102141667D01*
X137952374Y-102186331D01*
X138066844Y-102209100D01*
X138183556Y-102209100D01*
X138298026Y-102186331D01*
X138405854Y-102141667D01*
X138502897Y-102076825D01*
X138585425Y-101994297D01*
X138650267Y-101897254D01*
X138694931Y-101789426D01*
X138717700Y-101674956D01*
X138717700Y-101558244D01*
X138694931Y-101443774D01*
X138650267Y-101335946D01*
X138585425Y-101238903D01*
X138502897Y-101156375D01*
X138405854Y-101091533D01*
X138345661Y-101066600D01*
X138405854Y-101041667D01*
X138502897Y-100976825D01*
X138585425Y-100894297D01*
X138603625Y-100867058D01*
X138616133Y-100897254D01*
X138680975Y-100994297D01*
X138763503Y-101076825D01*
X138860546Y-101141667D01*
X138968374Y-101186331D01*
X139082844Y-101209100D01*
X139199556Y-101209100D01*
X139314026Y-101186331D01*
X139421854Y-101141667D01*
X139518897Y-101076825D01*
X139601425Y-100994297D01*
X139666267Y-100897254D01*
X139710931Y-100789426D01*
X139733700Y-100674956D01*
X139733700Y-100558244D01*
X139710931Y-100443774D01*
X139666267Y-100335946D01*
X139601425Y-100238903D01*
X139518897Y-100156375D01*
X139421854Y-100091533D01*
X139323033Y-100050600D01*
X139421854Y-100009667D01*
X139518897Y-99944825D01*
X139601425Y-99862297D01*
X139666267Y-99765254D01*
X139710931Y-99657426D01*
X139720116Y-99611244D01*
X148614700Y-99611244D01*
X148614700Y-99727956D01*
X148637469Y-99842426D01*
X148682133Y-99950254D01*
X148746975Y-100047297D01*
X148829503Y-100129825D01*
X148926546Y-100194667D01*
X149034374Y-100239331D01*
X149148844Y-100262100D01*
X149265556Y-100262100D01*
X149380026Y-100239331D01*
X149487854Y-100194667D01*
X149584897Y-100129825D01*
X149667425Y-100047297D01*
X149732267Y-99950254D01*
X149776931Y-99842426D01*
X149799700Y-99727956D01*
X149799700Y-99611244D01*
X149776931Y-99496774D01*
X149732267Y-99388946D01*
X149667425Y-99291903D01*
X149584897Y-99209375D01*
X149487854Y-99144533D01*
X149380026Y-99099869D01*
X149265556Y-99077100D01*
X149148844Y-99077100D01*
X149034374Y-99099869D01*
X148926546Y-99144533D01*
X148829503Y-99209375D01*
X148746975Y-99291903D01*
X148682133Y-99388946D01*
X148637469Y-99496774D01*
X148614700Y-99611244D01*
X139720116Y-99611244D01*
X139733700Y-99542956D01*
X139733700Y-99426244D01*
X139710931Y-99311774D01*
X139666267Y-99203946D01*
X139601425Y-99106903D01*
X139518897Y-99024375D01*
X139421854Y-98959533D01*
X139314026Y-98914869D01*
X139199556Y-98892100D01*
X139082844Y-98892100D01*
X138968374Y-98914869D01*
X138860546Y-98959533D01*
X138763503Y-99024375D01*
X138680975Y-99106903D01*
X138616133Y-99203946D01*
X138571469Y-99311774D01*
X138548700Y-99426244D01*
X138548700Y-99542956D01*
X138571469Y-99657426D01*
X138616133Y-99765254D01*
X138680975Y-99862297D01*
X138763503Y-99944825D01*
X138860546Y-100009667D01*
X138959367Y-100050600D01*
X138860546Y-100091533D01*
X138763503Y-100156375D01*
X138680975Y-100238903D01*
X138662775Y-100266142D01*
X138650267Y-100235946D01*
X138585425Y-100138903D01*
X138502897Y-100056375D01*
X138405854Y-99991533D01*
X138298026Y-99946869D01*
X138183556Y-99924100D01*
X138066844Y-99924100D01*
X137952374Y-99946869D01*
X137844546Y-99991533D01*
X137747503Y-100056375D01*
X137701700Y-100102178D01*
X137701700Y-99992244D01*
X137678931Y-99877774D01*
X137634267Y-99769946D01*
X137569425Y-99672903D01*
X137486897Y-99590375D01*
X137389854Y-99525533D01*
X137282026Y-99480869D01*
X137167556Y-99458100D01*
X137050844Y-99458100D01*
X136936374Y-99480869D01*
X136828546Y-99525533D01*
X136731503Y-99590375D01*
X136648975Y-99672903D01*
X136584133Y-99769946D01*
X136539469Y-99877774D01*
X136516700Y-99992244D01*
X136516700Y-100108956D01*
X136539469Y-100223426D01*
X136584133Y-100331254D01*
X136648975Y-100428297D01*
X136731503Y-100510825D01*
X136828546Y-100575667D01*
X136936374Y-100620331D01*
X137050844Y-100643100D01*
X137167556Y-100643100D01*
X137282026Y-100620331D01*
X137389854Y-100575667D01*
X137486897Y-100510825D01*
X137532700Y-100465022D01*
X137532700Y-100574956D01*
X137555469Y-100689426D01*
X137600133Y-100797254D01*
X137664975Y-100894297D01*
X137747503Y-100976825D01*
X137844546Y-101041667D01*
X137904739Y-101066600D01*
X137844546Y-101091533D01*
X137747503Y-101156375D01*
X137664975Y-101238903D01*
X137600133Y-101335946D01*
X137567663Y-101414336D01*
X137574700Y-101378956D01*
X137574700Y-101262244D01*
X137551931Y-101147774D01*
X137507267Y-101039946D01*
X137442425Y-100942903D01*
X137359897Y-100860375D01*
X137262854Y-100795533D01*
X137155026Y-100750869D01*
X137040556Y-100728100D01*
X136923844Y-100728100D01*
X136809374Y-100750869D01*
X136701546Y-100795533D01*
X136604503Y-100860375D01*
X136521975Y-100942903D01*
X136457133Y-101039946D01*
X136412469Y-101147774D01*
X136389700Y-101262244D01*
X132954700Y-101262244D01*
X132954700Y-98722244D01*
X134484700Y-98722244D01*
X134484700Y-98838956D01*
X134507469Y-98953426D01*
X134552133Y-99061254D01*
X134616975Y-99158297D01*
X134699503Y-99240825D01*
X134796546Y-99305667D01*
X134904374Y-99350331D01*
X134933712Y-99356166D01*
X134870975Y-99418903D01*
X134806133Y-99515946D01*
X134761469Y-99623774D01*
X134738700Y-99738244D01*
X134738700Y-99854956D01*
X134761469Y-99969426D01*
X134806133Y-100077254D01*
X134870975Y-100174297D01*
X134953503Y-100256825D01*
X135050546Y-100321667D01*
X135158374Y-100366331D01*
X135272844Y-100389100D01*
X135389556Y-100389100D01*
X135504026Y-100366331D01*
X135611854Y-100321667D01*
X135708897Y-100256825D01*
X135791425Y-100174297D01*
X135856267Y-100077254D01*
X135900931Y-99969426D01*
X135923700Y-99854956D01*
X135923700Y-99738244D01*
X135900931Y-99623774D01*
X135856267Y-99515946D01*
X135791425Y-99418903D01*
X135708897Y-99336375D01*
X135611854Y-99271533D01*
X135504026Y-99226869D01*
X135474688Y-99221034D01*
X135537425Y-99158297D01*
X135602267Y-99061254D01*
X135646931Y-98953426D01*
X135669700Y-98838956D01*
X135669700Y-98747644D01*
X135754700Y-98747644D01*
X135754700Y-98864356D01*
X135777469Y-98978826D01*
X135822133Y-99086654D01*
X135886975Y-99183697D01*
X135969503Y-99266225D01*
X136066546Y-99331067D01*
X136174374Y-99375731D01*
X136288844Y-99398500D01*
X136405556Y-99398500D01*
X136520026Y-99375731D01*
X136627854Y-99331067D01*
X136724897Y-99266225D01*
X136807425Y-99183697D01*
X136872267Y-99086654D01*
X136916931Y-98978826D01*
X136917444Y-98976244D01*
X137278700Y-98976244D01*
X137278700Y-99092956D01*
X137301469Y-99207426D01*
X137346133Y-99315254D01*
X137410975Y-99412297D01*
X137493503Y-99494825D01*
X137590546Y-99559667D01*
X137698374Y-99604331D01*
X137812844Y-99627100D01*
X137929556Y-99627100D01*
X138044026Y-99604331D01*
X138151854Y-99559667D01*
X138248897Y-99494825D01*
X138331425Y-99412297D01*
X138396267Y-99315254D01*
X138440931Y-99207426D01*
X138463700Y-99092956D01*
X138463700Y-98976244D01*
X138440931Y-98861774D01*
X138396267Y-98753946D01*
X138331425Y-98656903D01*
X138248897Y-98574375D01*
X138151854Y-98509533D01*
X138044026Y-98464869D01*
X137929556Y-98442100D01*
X137812844Y-98442100D01*
X137698374Y-98464869D01*
X137590546Y-98509533D01*
X137493503Y-98574375D01*
X137410975Y-98656903D01*
X137346133Y-98753946D01*
X137301469Y-98861774D01*
X137278700Y-98976244D01*
X136917444Y-98976244D01*
X136939700Y-98864356D01*
X136939700Y-98747644D01*
X136916931Y-98633174D01*
X136872267Y-98525346D01*
X136807425Y-98428303D01*
X136805366Y-98426244D01*
X139564700Y-98426244D01*
X139564700Y-98542956D01*
X139587469Y-98657426D01*
X139632133Y-98765254D01*
X139696975Y-98862297D01*
X139779503Y-98944825D01*
X139876546Y-99009667D01*
X139984374Y-99054331D01*
X140098844Y-99077100D01*
X140215556Y-99077100D01*
X140330026Y-99054331D01*
X140437854Y-99009667D01*
X140534897Y-98944825D01*
X140617425Y-98862297D01*
X140682267Y-98765254D01*
X140726931Y-98657426D01*
X140749700Y-98542956D01*
X140749700Y-98426244D01*
X140726931Y-98311774D01*
X140682267Y-98203946D01*
X140617425Y-98106903D01*
X140534897Y-98024375D01*
X140437854Y-97959533D01*
X140330026Y-97914869D01*
X140215556Y-97892100D01*
X140098844Y-97892100D01*
X139984374Y-97914869D01*
X139876546Y-97959533D01*
X139779503Y-98024375D01*
X139696975Y-98106903D01*
X139632133Y-98203946D01*
X139587469Y-98311774D01*
X139564700Y-98426244D01*
X136805366Y-98426244D01*
X136724897Y-98345775D01*
X136627854Y-98280933D01*
X136520026Y-98236269D01*
X136405556Y-98213500D01*
X136288844Y-98213500D01*
X136174374Y-98236269D01*
X136066546Y-98280933D01*
X135969503Y-98345775D01*
X135886975Y-98428303D01*
X135822133Y-98525346D01*
X135777469Y-98633174D01*
X135754700Y-98747644D01*
X135669700Y-98747644D01*
X135669700Y-98722244D01*
X135646931Y-98607774D01*
X135602267Y-98499946D01*
X135537425Y-98402903D01*
X135454897Y-98320375D01*
X135357854Y-98255533D01*
X135250026Y-98210869D01*
X135135556Y-98188100D01*
X135018844Y-98188100D01*
X134904374Y-98210869D01*
X134796546Y-98255533D01*
X134699503Y-98320375D01*
X134616975Y-98402903D01*
X134552133Y-98499946D01*
X134507469Y-98607774D01*
X134484700Y-98722244D01*
X132954700Y-98722244D01*
X132954700Y-97648700D01*
X167120900Y-97648700D01*
X167120901Y-106516500D01*
G37*
G04 #@! TD.AperFunction*
M02*
