G04 #@! TF.GenerationSoftware,KiCad,Pcbnew,(5.1.10)-1*
G04 #@! TF.CreationDate,2021-08-26T22:05:31-05:00*
G04 #@! TF.ProjectId,OGPsim,4f475073-696d-42e6-9b69-6361645f7063,rev?*
G04 #@! TF.SameCoordinates,Original*
G04 #@! TF.FileFunction,Copper,L4,Bot*
G04 #@! TF.FilePolarity,Positive*
%FSLAX46Y46*%
G04 Gerber Fmt 4.6, Leading zero omitted, Abs format (unit mm)*
G04 Created by KiCad (PCBNEW (5.1.10)-1) date 2021-08-26 22:05:31*
%MOMM*%
%LPD*%
G01*
G04 APERTURE LIST*
G04 #@! TA.AperFunction,ViaPad*
%ADD10C,0.800000*%
G04 #@! TD*
G04 #@! TA.AperFunction,ViaPad*
%ADD11C,0.400000*%
G04 #@! TD*
G04 #@! TA.AperFunction,ViaPad*
%ADD12C,0.600000*%
G04 #@! TD*
G04 #@! TA.AperFunction,Conductor*
%ADD13C,0.350000*%
G04 #@! TD*
G04 #@! TA.AperFunction,Conductor*
%ADD14C,0.250000*%
G04 #@! TD*
G04 #@! TA.AperFunction,Conductor*
%ADD15C,0.185000*%
G04 #@! TD*
G04 #@! TA.AperFunction,Conductor*
%ADD16C,0.100000*%
G04 #@! TD*
G04 APERTURE END LIST*
D10*
X147650200Y-102209600D03*
D11*
X141046200Y-102209600D03*
D10*
X163576000Y-100177600D03*
X163576000Y-103936800D03*
D12*
X159816800Y-100177600D03*
D11*
X159867600Y-103682800D03*
X156260800Y-105664000D03*
D12*
X156464000Y-99415600D03*
D11*
X145084800Y-102870000D03*
D12*
X147777200Y-100330000D03*
D11*
X147777200Y-104190800D03*
X147462240Y-105735120D03*
X146202400Y-105765600D03*
X142427960Y-100634800D03*
D12*
X142443200Y-103022400D03*
D11*
X133146800Y-104190800D03*
X133096000Y-106070400D03*
X133146800Y-98145600D03*
X133146800Y-100076000D03*
D12*
X146710400Y-97942400D03*
D11*
X152298400Y-97840800D03*
D12*
X135991600Y-102209600D03*
X153670000Y-100533200D03*
D11*
X153517600Y-103225600D03*
X143807200Y-102209600D03*
D12*
X162021600Y-102087600D03*
D11*
X140157200Y-101574600D03*
X140157200Y-98484600D03*
X140157200Y-105934600D03*
X135077200Y-98780600D03*
X134950200Y-105638600D03*
X151841200Y-103548600D03*
X153280200Y-106273600D03*
X136347200Y-98806000D03*
X138125200Y-100516600D03*
X136474200Y-105638600D03*
X138125200Y-103987600D03*
D12*
X165120400Y-102138400D03*
D11*
X139141200Y-99484600D03*
X141173200Y-101262600D03*
X141173200Y-103174800D03*
X139141200Y-104934600D03*
X136982200Y-101320600D03*
X135331200Y-99796600D03*
X137871200Y-99034600D03*
X136982200Y-103098600D03*
X135331200Y-104622600D03*
X137859200Y-105638600D03*
X137109200Y-100050600D03*
X138125200Y-101616600D03*
X137109200Y-104368600D03*
X138125200Y-102802600D03*
X139598400Y-102311200D03*
X149207200Y-106019600D03*
X150825200Y-102648600D03*
X150977600Y-104648000D03*
X150825200Y-100870600D03*
X152095200Y-105714800D03*
X139141200Y-100616600D03*
X149207200Y-103479600D03*
X149199600Y-104749600D03*
X142036800Y-103632000D03*
X140023000Y-103802600D03*
X155143200Y-103987600D03*
X151841200Y-102648600D03*
X149207200Y-99669600D03*
X145186400Y-105968800D03*
X137210800Y-106476800D03*
D12*
X166400400Y-102077600D03*
D11*
X152857200Y-101295200D03*
D13*
X162021600Y-102087600D02*
X162021600Y-99436000D01*
X162021600Y-99436000D02*
X161036000Y-98450400D01*
X161036000Y-98450400D02*
X147472400Y-98450400D01*
X147472400Y-98450400D02*
X146304000Y-99618800D01*
X146304000Y-99618800D02*
X146304000Y-101600000D01*
X145694400Y-102209600D02*
X143807200Y-102209600D01*
X146304000Y-101600000D02*
X145694400Y-102209600D01*
D14*
X140157200Y-101574600D02*
X140157200Y-102971600D01*
X140157200Y-102971600D02*
X140665200Y-103479600D01*
X140665200Y-103479600D02*
X140665200Y-105054400D01*
X140665200Y-105054400D02*
X140157200Y-105562400D01*
X140157200Y-105562400D02*
X140157200Y-105934600D01*
X149707600Y-106578400D02*
X140801000Y-106578400D01*
X140801000Y-106578400D02*
X140157200Y-105934600D01*
X135585200Y-98272600D02*
X139945200Y-98272600D01*
X140157200Y-101574600D02*
X140157200Y-98484600D01*
X134569200Y-105257600D02*
X134950200Y-105638600D01*
X134569200Y-101701600D02*
X134569200Y-105257600D01*
X139945200Y-98272600D02*
X140157200Y-98484600D01*
X134569200Y-99288600D02*
X135077200Y-98780600D01*
X134569200Y-101701600D02*
X134569200Y-99288600D01*
X151841200Y-103548600D02*
X152824600Y-103548600D01*
X135077200Y-98780600D02*
X135585200Y-98272600D01*
X153280200Y-104004200D02*
X153280200Y-106273600D01*
X150012400Y-106273600D02*
X149707600Y-106578400D01*
X152824600Y-103548600D02*
X153280200Y-104004200D01*
X153280200Y-106273600D02*
X150012400Y-106273600D01*
D13*
X153280200Y-106273600D02*
X164185600Y-106273600D01*
X165120400Y-105338800D02*
X165120400Y-102138400D01*
X164185600Y-106273600D02*
X165120400Y-105338800D01*
X165120400Y-102138400D02*
X165120400Y-102036800D01*
D14*
X135331200Y-99796600D02*
X135775700Y-99352100D01*
X137871200Y-99161600D02*
X137680700Y-99352100D01*
X137680700Y-99352100D02*
X135775700Y-99352100D01*
X137871200Y-99034600D02*
X137871200Y-99161600D01*
X136728200Y-101320600D02*
X135331200Y-99923600D01*
X135331200Y-99923600D02*
X135331200Y-99796600D01*
X136982200Y-101320600D02*
X136728200Y-101320600D01*
X135331200Y-104876600D02*
X135521700Y-105067100D01*
X137859200Y-105626600D02*
X137299700Y-105067100D01*
X137299700Y-105067100D02*
X135521700Y-105067100D01*
X137859200Y-105638600D02*
X137859200Y-105626600D01*
X135331200Y-104622600D02*
X135331200Y-104876600D01*
X136982200Y-103098600D02*
X136855200Y-103098600D01*
X136855200Y-103098600D02*
X135331200Y-104622600D01*
X137109200Y-100050600D02*
X137109200Y-100600600D01*
X137109200Y-100600600D02*
X138125200Y-101616600D01*
X137109200Y-104368600D02*
X137109200Y-103818600D01*
X137109200Y-103818600D02*
X138125200Y-102802600D01*
X149199600Y-104749600D02*
X143154400Y-104749600D01*
X143154400Y-104749600D02*
X142036800Y-103632000D01*
X151079200Y-103479600D02*
X150622000Y-103479600D01*
X150622000Y-103479600D02*
X149207200Y-102064800D01*
X151841200Y-102717600D02*
X151079200Y-103479600D01*
X151841200Y-102648600D02*
X151841200Y-102717600D01*
X149207200Y-102064800D02*
X149207200Y-99669600D01*
X155143200Y-103987600D02*
X153804200Y-102648600D01*
X153804200Y-102648600D02*
X151841200Y-102648600D01*
D13*
X166400400Y-101528800D02*
X166400400Y-102077600D01*
X166166800Y-101295200D02*
X166400400Y-101528800D01*
X164693600Y-101295200D02*
X166166800Y-101295200D01*
X162966400Y-103022400D02*
X164693600Y-101295200D01*
X159766000Y-103022400D02*
X162966400Y-103022400D01*
X158038800Y-101295200D02*
X159766000Y-103022400D01*
X152857200Y-101295200D02*
X158038800Y-101295200D01*
D15*
X167120901Y-106516500D02*
X164745265Y-106516500D01*
X165501976Y-105759790D01*
X165523624Y-105742024D01*
X165566346Y-105689967D01*
X165594541Y-105655612D01*
X165631160Y-105587103D01*
X165647238Y-105557023D01*
X165679688Y-105450049D01*
X165687900Y-105366671D01*
X165687900Y-105366660D01*
X165690644Y-105338800D01*
X165687900Y-105310940D01*
X165687900Y-102535544D01*
X165734086Y-102466422D01*
X165772992Y-102372494D01*
X165786714Y-102405622D01*
X165862500Y-102519043D01*
X165958957Y-102615500D01*
X166072378Y-102691286D01*
X166198405Y-102743488D01*
X166332195Y-102770100D01*
X166468605Y-102770100D01*
X166602395Y-102743488D01*
X166728422Y-102691286D01*
X166841843Y-102615500D01*
X166938300Y-102519043D01*
X167014086Y-102405622D01*
X167066288Y-102279595D01*
X167092900Y-102145805D01*
X167092900Y-102009395D01*
X167066288Y-101875605D01*
X167014086Y-101749578D01*
X166967900Y-101680456D01*
X166967900Y-101556659D01*
X166970644Y-101528799D01*
X166967900Y-101500939D01*
X166967900Y-101500929D01*
X166959688Y-101417551D01*
X166927238Y-101310577D01*
X166874541Y-101211989D01*
X166803624Y-101125576D01*
X166781971Y-101107806D01*
X166587794Y-100913629D01*
X166570024Y-100891976D01*
X166483611Y-100821059D01*
X166385023Y-100768362D01*
X166278049Y-100735912D01*
X166194671Y-100727700D01*
X166194660Y-100727700D01*
X166166800Y-100724956D01*
X166138940Y-100727700D01*
X164721468Y-100727700D01*
X164693600Y-100724955D01*
X164665732Y-100727700D01*
X164665729Y-100727700D01*
X164582351Y-100735912D01*
X164475377Y-100768362D01*
X164429485Y-100792892D01*
X164376788Y-100821059D01*
X164312024Y-100874209D01*
X164312018Y-100874215D01*
X164290376Y-100891976D01*
X164272615Y-100913619D01*
X162731335Y-102454900D01*
X162609041Y-102454900D01*
X162635286Y-102415622D01*
X162687488Y-102289595D01*
X162714100Y-102155805D01*
X162714100Y-102019395D01*
X162687488Y-101885605D01*
X162635286Y-101759578D01*
X162589100Y-101690456D01*
X162589100Y-99463860D01*
X162591844Y-99436000D01*
X162589100Y-99408139D01*
X162589100Y-99408129D01*
X162580888Y-99324751D01*
X162548438Y-99217777D01*
X162519959Y-99164497D01*
X162495741Y-99119188D01*
X162442590Y-99054424D01*
X162424824Y-99032776D01*
X162403176Y-99015010D01*
X161456994Y-98068829D01*
X161439224Y-98047176D01*
X161352811Y-97976259D01*
X161254223Y-97923562D01*
X161147249Y-97891112D01*
X161063871Y-97882900D01*
X161063860Y-97882900D01*
X161036000Y-97880156D01*
X161008140Y-97882900D01*
X147500260Y-97882900D01*
X147472399Y-97880156D01*
X147444539Y-97882900D01*
X147444529Y-97882900D01*
X147361151Y-97891112D01*
X147254177Y-97923562D01*
X147208285Y-97948092D01*
X147155588Y-97976259D01*
X147146518Y-97983703D01*
X147069176Y-98047176D01*
X147051410Y-98068824D01*
X145922429Y-99197806D01*
X145900776Y-99215576D01*
X145829859Y-99301989D01*
X145777162Y-99400578D01*
X145744712Y-99507552D01*
X145736500Y-99590930D01*
X145736500Y-99590940D01*
X145733756Y-99618800D01*
X145736500Y-99646661D01*
X145736501Y-101364933D01*
X145459334Y-101642100D01*
X143985412Y-101642100D01*
X143980026Y-101639869D01*
X143865556Y-101617100D01*
X143748844Y-101617100D01*
X143634374Y-101639869D01*
X143526546Y-101684533D01*
X143429503Y-101749375D01*
X143346975Y-101831903D01*
X143282133Y-101928946D01*
X143237469Y-102036774D01*
X143214700Y-102151244D01*
X143214700Y-102267956D01*
X143237469Y-102382426D01*
X143282133Y-102490254D01*
X143346975Y-102587297D01*
X143429503Y-102669825D01*
X143526546Y-102734667D01*
X143634374Y-102779331D01*
X143748844Y-102802100D01*
X143865556Y-102802100D01*
X143980026Y-102779331D01*
X143985412Y-102777100D01*
X145666540Y-102777100D01*
X145694400Y-102779844D01*
X145722260Y-102777100D01*
X145722271Y-102777100D01*
X145805649Y-102768888D01*
X145912623Y-102736438D01*
X146011211Y-102683741D01*
X146097624Y-102612824D01*
X146115394Y-102591171D01*
X146685581Y-102020986D01*
X146707224Y-102003224D01*
X146724985Y-101981582D01*
X146724991Y-101981576D01*
X146778141Y-101916812D01*
X146816169Y-101845667D01*
X146830838Y-101818223D01*
X146863288Y-101711249D01*
X146871500Y-101627871D01*
X146871500Y-101627868D01*
X146874245Y-101600000D01*
X146871500Y-101572132D01*
X146871500Y-99853865D01*
X147707466Y-99017900D01*
X160800935Y-99017900D01*
X161454101Y-99671067D01*
X161454100Y-101690456D01*
X161407914Y-101759578D01*
X161355712Y-101885605D01*
X161329100Y-102019395D01*
X161329100Y-102155805D01*
X161355712Y-102289595D01*
X161407914Y-102415622D01*
X161434159Y-102454900D01*
X160001067Y-102454900D01*
X158459794Y-100913629D01*
X158442024Y-100891976D01*
X158355611Y-100821059D01*
X158257023Y-100768362D01*
X158150049Y-100735912D01*
X158066671Y-100727700D01*
X158066660Y-100727700D01*
X158038800Y-100724956D01*
X158010940Y-100727700D01*
X153035412Y-100727700D01*
X153030026Y-100725469D01*
X152915556Y-100702700D01*
X152798844Y-100702700D01*
X152684374Y-100725469D01*
X152576546Y-100770133D01*
X152479503Y-100834975D01*
X152396975Y-100917503D01*
X152332133Y-101014546D01*
X152287469Y-101122374D01*
X152264700Y-101236844D01*
X152264700Y-101353556D01*
X152287469Y-101468026D01*
X152332133Y-101575854D01*
X152396975Y-101672897D01*
X152479503Y-101755425D01*
X152576546Y-101820267D01*
X152684374Y-101864931D01*
X152798844Y-101887700D01*
X152915556Y-101887700D01*
X153030026Y-101864931D01*
X153035412Y-101862700D01*
X157803735Y-101862700D01*
X159345015Y-103403981D01*
X159362776Y-103425624D01*
X159384418Y-103443385D01*
X159384424Y-103443391D01*
X159449188Y-103496541D01*
X159496718Y-103521946D01*
X159547777Y-103549238D01*
X159654751Y-103581688D01*
X159738129Y-103589900D01*
X159738132Y-103589900D01*
X159766000Y-103592645D01*
X159793868Y-103589900D01*
X162938540Y-103589900D01*
X162966400Y-103592644D01*
X162994260Y-103589900D01*
X162994271Y-103589900D01*
X163077649Y-103581688D01*
X163184623Y-103549238D01*
X163283211Y-103496541D01*
X163369624Y-103425624D01*
X163387394Y-103403971D01*
X164453925Y-102337442D01*
X164454512Y-102340395D01*
X164506714Y-102466422D01*
X164552901Y-102535545D01*
X164552900Y-105103734D01*
X163950535Y-105706100D01*
X153797700Y-105706100D01*
X153797700Y-104029613D01*
X153800203Y-104004200D01*
X153790211Y-103902752D01*
X153772247Y-103843533D01*
X153760620Y-103805203D01*
X153712567Y-103715302D01*
X153647898Y-103636502D01*
X153628152Y-103620297D01*
X153208503Y-103200648D01*
X153192298Y-103180902D01*
X153174262Y-103166100D01*
X153589845Y-103166100D01*
X154570812Y-104147068D01*
X154573469Y-104160426D01*
X154618133Y-104268254D01*
X154682975Y-104365297D01*
X154765503Y-104447825D01*
X154862546Y-104512667D01*
X154970374Y-104557331D01*
X155084844Y-104580100D01*
X155201556Y-104580100D01*
X155316026Y-104557331D01*
X155423854Y-104512667D01*
X155520897Y-104447825D01*
X155603425Y-104365297D01*
X155668267Y-104268254D01*
X155712931Y-104160426D01*
X155735700Y-104045956D01*
X155735700Y-103929244D01*
X155712931Y-103814774D01*
X155668267Y-103706946D01*
X155603425Y-103609903D01*
X155520897Y-103527375D01*
X155423854Y-103462533D01*
X155316026Y-103417869D01*
X155302668Y-103415212D01*
X154188103Y-102300648D01*
X154171898Y-102280902D01*
X154093098Y-102216233D01*
X154003197Y-102168180D01*
X153905648Y-102138589D01*
X153829613Y-102131100D01*
X153804200Y-102128597D01*
X153778787Y-102131100D01*
X152133179Y-102131100D01*
X152121854Y-102123533D01*
X152014026Y-102078869D01*
X151899556Y-102056100D01*
X151782844Y-102056100D01*
X151668374Y-102078869D01*
X151560546Y-102123533D01*
X151463503Y-102188375D01*
X151380975Y-102270903D01*
X151333200Y-102342403D01*
X151285425Y-102270903D01*
X151202897Y-102188375D01*
X151105854Y-102123533D01*
X150998026Y-102078869D01*
X150883556Y-102056100D01*
X150766844Y-102056100D01*
X150652374Y-102078869D01*
X150544546Y-102123533D01*
X150447503Y-102188375D01*
X150364975Y-102270903D01*
X150300133Y-102367946D01*
X150283165Y-102408910D01*
X149724700Y-101850445D01*
X149724700Y-100812244D01*
X150232700Y-100812244D01*
X150232700Y-100928956D01*
X150255469Y-101043426D01*
X150300133Y-101151254D01*
X150364975Y-101248297D01*
X150447503Y-101330825D01*
X150544546Y-101395667D01*
X150652374Y-101440331D01*
X150766844Y-101463100D01*
X150883556Y-101463100D01*
X150998026Y-101440331D01*
X151105854Y-101395667D01*
X151202897Y-101330825D01*
X151285425Y-101248297D01*
X151350267Y-101151254D01*
X151394931Y-101043426D01*
X151417700Y-100928956D01*
X151417700Y-100812244D01*
X151394931Y-100697774D01*
X151350267Y-100589946D01*
X151285425Y-100492903D01*
X151202897Y-100410375D01*
X151105854Y-100345533D01*
X150998026Y-100300869D01*
X150883556Y-100278100D01*
X150766844Y-100278100D01*
X150652374Y-100300869D01*
X150544546Y-100345533D01*
X150447503Y-100410375D01*
X150364975Y-100492903D01*
X150300133Y-100589946D01*
X150255469Y-100697774D01*
X150232700Y-100812244D01*
X149724700Y-100812244D01*
X149724700Y-99961579D01*
X149732267Y-99950254D01*
X149776931Y-99842426D01*
X149799700Y-99727956D01*
X149799700Y-99611244D01*
X149776931Y-99496774D01*
X149732267Y-99388946D01*
X149667425Y-99291903D01*
X149584897Y-99209375D01*
X149487854Y-99144533D01*
X149380026Y-99099869D01*
X149265556Y-99077100D01*
X149148844Y-99077100D01*
X149034374Y-99099869D01*
X148926546Y-99144533D01*
X148829503Y-99209375D01*
X148746975Y-99291903D01*
X148682133Y-99388946D01*
X148637469Y-99496774D01*
X148614700Y-99611244D01*
X148614700Y-99727956D01*
X148637469Y-99842426D01*
X148682133Y-99950254D01*
X148689701Y-99961580D01*
X148689700Y-102039387D01*
X148687197Y-102064800D01*
X148689700Y-102090212D01*
X148697189Y-102166247D01*
X148726780Y-102263796D01*
X148774833Y-102353698D01*
X148839502Y-102432498D01*
X148859248Y-102448703D01*
X149305612Y-102895067D01*
X149265556Y-102887100D01*
X149148844Y-102887100D01*
X149034374Y-102909869D01*
X148926546Y-102954533D01*
X148829503Y-103019375D01*
X148746975Y-103101903D01*
X148682133Y-103198946D01*
X148637469Y-103306774D01*
X148614700Y-103421244D01*
X148614700Y-103537956D01*
X148637469Y-103652426D01*
X148682133Y-103760254D01*
X148746975Y-103857297D01*
X148829503Y-103939825D01*
X148926546Y-104004667D01*
X149034374Y-104049331D01*
X149148844Y-104072100D01*
X149265556Y-104072100D01*
X149380026Y-104049331D01*
X149487854Y-104004667D01*
X149584897Y-103939825D01*
X149667425Y-103857297D01*
X149732267Y-103760254D01*
X149776931Y-103652426D01*
X149799700Y-103537956D01*
X149799700Y-103421244D01*
X149791733Y-103381188D01*
X150238101Y-103827557D01*
X150254302Y-103847298D01*
X150333102Y-103911967D01*
X150423003Y-103960020D01*
X150520551Y-103989611D01*
X150621999Y-103999603D01*
X150647412Y-103997100D01*
X151053787Y-103997100D01*
X151079200Y-103999603D01*
X151104613Y-103997100D01*
X151180648Y-103989611D01*
X151278197Y-103960020D01*
X151368098Y-103911967D01*
X151370231Y-103910217D01*
X151380975Y-103926297D01*
X151463503Y-104008825D01*
X151560546Y-104073667D01*
X151668374Y-104118331D01*
X151782844Y-104141100D01*
X151899556Y-104141100D01*
X152014026Y-104118331D01*
X152121854Y-104073667D01*
X152133179Y-104066100D01*
X152610245Y-104066100D01*
X152762700Y-104218555D01*
X152762701Y-105756100D01*
X152687700Y-105756100D01*
X152687700Y-105656444D01*
X152664931Y-105541974D01*
X152620267Y-105434146D01*
X152555425Y-105337103D01*
X152472897Y-105254575D01*
X152375854Y-105189733D01*
X152268026Y-105145069D01*
X152153556Y-105122300D01*
X152036844Y-105122300D01*
X151922374Y-105145069D01*
X151814546Y-105189733D01*
X151717503Y-105254575D01*
X151634975Y-105337103D01*
X151570133Y-105434146D01*
X151525469Y-105541974D01*
X151502700Y-105656444D01*
X151502700Y-105756100D01*
X150037812Y-105756100D01*
X150012399Y-105753597D01*
X149910951Y-105763589D01*
X149813403Y-105793180D01*
X149765367Y-105818856D01*
X149732267Y-105738946D01*
X149667425Y-105641903D01*
X149584897Y-105559375D01*
X149487854Y-105494533D01*
X149380026Y-105449869D01*
X149265556Y-105427100D01*
X149148844Y-105427100D01*
X149034374Y-105449869D01*
X148926546Y-105494533D01*
X148829503Y-105559375D01*
X148746975Y-105641903D01*
X148682133Y-105738946D01*
X148637469Y-105846774D01*
X148614700Y-105961244D01*
X148614700Y-106060900D01*
X145772188Y-106060900D01*
X145778900Y-106027156D01*
X145778900Y-105910444D01*
X145756131Y-105795974D01*
X145711467Y-105688146D01*
X145646625Y-105591103D01*
X145564097Y-105508575D01*
X145467054Y-105443733D01*
X145359226Y-105399069D01*
X145244756Y-105376300D01*
X145128044Y-105376300D01*
X145013574Y-105399069D01*
X144905746Y-105443733D01*
X144808703Y-105508575D01*
X144726175Y-105591103D01*
X144661333Y-105688146D01*
X144616669Y-105795974D01*
X144593900Y-105910444D01*
X144593900Y-106027156D01*
X144600612Y-106060900D01*
X141015355Y-106060900D01*
X140729588Y-105775133D01*
X140726931Y-105761774D01*
X140716021Y-105735435D01*
X141013157Y-105438299D01*
X141032898Y-105422098D01*
X141097567Y-105343298D01*
X141145620Y-105253397D01*
X141156439Y-105217731D01*
X141175211Y-105155849D01*
X141185203Y-105054401D01*
X141182700Y-105028988D01*
X141182700Y-103767300D01*
X141231556Y-103767300D01*
X141346026Y-103744531D01*
X141446775Y-103702799D01*
X141467069Y-103804826D01*
X141511733Y-103912654D01*
X141576575Y-104009697D01*
X141659103Y-104092225D01*
X141756146Y-104157067D01*
X141863974Y-104201731D01*
X141877333Y-104204388D01*
X142770501Y-105097557D01*
X142786702Y-105117298D01*
X142865502Y-105181967D01*
X142950784Y-105227551D01*
X142955403Y-105230020D01*
X143052952Y-105259611D01*
X143154399Y-105269603D01*
X143179812Y-105267100D01*
X148907621Y-105267100D01*
X148918946Y-105274667D01*
X149026774Y-105319331D01*
X149141244Y-105342100D01*
X149257956Y-105342100D01*
X149372426Y-105319331D01*
X149480254Y-105274667D01*
X149577297Y-105209825D01*
X149659825Y-105127297D01*
X149724667Y-105030254D01*
X149769331Y-104922426D01*
X149792100Y-104807956D01*
X149792100Y-104691244D01*
X149771891Y-104589644D01*
X150385100Y-104589644D01*
X150385100Y-104706356D01*
X150407869Y-104820826D01*
X150452533Y-104928654D01*
X150517375Y-105025697D01*
X150599903Y-105108225D01*
X150696946Y-105173067D01*
X150804774Y-105217731D01*
X150919244Y-105240500D01*
X151035956Y-105240500D01*
X151150426Y-105217731D01*
X151258254Y-105173067D01*
X151355297Y-105108225D01*
X151437825Y-105025697D01*
X151502667Y-104928654D01*
X151547331Y-104820826D01*
X151570100Y-104706356D01*
X151570100Y-104589644D01*
X151547331Y-104475174D01*
X151502667Y-104367346D01*
X151437825Y-104270303D01*
X151355297Y-104187775D01*
X151258254Y-104122933D01*
X151150426Y-104078269D01*
X151035956Y-104055500D01*
X150919244Y-104055500D01*
X150804774Y-104078269D01*
X150696946Y-104122933D01*
X150599903Y-104187775D01*
X150517375Y-104270303D01*
X150452533Y-104367346D01*
X150407869Y-104475174D01*
X150385100Y-104589644D01*
X149771891Y-104589644D01*
X149769331Y-104576774D01*
X149724667Y-104468946D01*
X149659825Y-104371903D01*
X149577297Y-104289375D01*
X149480254Y-104224533D01*
X149372426Y-104179869D01*
X149257956Y-104157100D01*
X149141244Y-104157100D01*
X149026774Y-104179869D01*
X148918946Y-104224533D01*
X148907621Y-104232100D01*
X143368756Y-104232100D01*
X142609188Y-103472533D01*
X142606531Y-103459174D01*
X142561867Y-103351346D01*
X142497025Y-103254303D01*
X142414497Y-103171775D01*
X142317454Y-103106933D01*
X142209626Y-103062269D01*
X142095156Y-103039500D01*
X141978444Y-103039500D01*
X141863974Y-103062269D01*
X141763225Y-103104001D01*
X141742931Y-103001974D01*
X141698267Y-102894146D01*
X141633425Y-102797103D01*
X141550897Y-102714575D01*
X141453854Y-102649733D01*
X141346026Y-102605069D01*
X141231556Y-102582300D01*
X141114844Y-102582300D01*
X141000374Y-102605069D01*
X140892546Y-102649733D01*
X140795503Y-102714575D01*
X140713767Y-102796311D01*
X140674700Y-102757245D01*
X140674700Y-101866579D01*
X140682267Y-101855254D01*
X140726931Y-101747426D01*
X140742389Y-101669711D01*
X140795503Y-101722825D01*
X140892546Y-101787667D01*
X141000374Y-101832331D01*
X141114844Y-101855100D01*
X141231556Y-101855100D01*
X141346026Y-101832331D01*
X141453854Y-101787667D01*
X141550897Y-101722825D01*
X141633425Y-101640297D01*
X141698267Y-101543254D01*
X141742931Y-101435426D01*
X141765700Y-101320956D01*
X141765700Y-101204244D01*
X141742931Y-101089774D01*
X141698267Y-100981946D01*
X141633425Y-100884903D01*
X141550897Y-100802375D01*
X141453854Y-100737533D01*
X141346026Y-100692869D01*
X141231556Y-100670100D01*
X141114844Y-100670100D01*
X141000374Y-100692869D01*
X140892546Y-100737533D01*
X140795503Y-100802375D01*
X140712975Y-100884903D01*
X140674700Y-100942186D01*
X140674700Y-98776579D01*
X140682267Y-98765254D01*
X140726931Y-98657426D01*
X140749700Y-98542956D01*
X140749700Y-98426244D01*
X140726931Y-98311774D01*
X140682267Y-98203946D01*
X140617425Y-98106903D01*
X140534897Y-98024375D01*
X140437854Y-97959533D01*
X140330026Y-97914869D01*
X140319332Y-97912742D01*
X140312898Y-97904902D01*
X140234098Y-97840233D01*
X140144197Y-97792180D01*
X140046648Y-97762589D01*
X139970613Y-97755100D01*
X139945200Y-97752597D01*
X139919787Y-97755100D01*
X135610612Y-97755100D01*
X135585199Y-97752597D01*
X135483751Y-97762589D01*
X135386203Y-97792180D01*
X135296302Y-97840233D01*
X135217502Y-97904902D01*
X135201301Y-97924643D01*
X134917733Y-98208212D01*
X134904374Y-98210869D01*
X134796546Y-98255533D01*
X134699503Y-98320375D01*
X134616975Y-98402903D01*
X134552133Y-98499946D01*
X134507469Y-98607774D01*
X134504812Y-98621133D01*
X134221243Y-98904702D01*
X134201503Y-98920902D01*
X134136834Y-98999702D01*
X134127107Y-99017900D01*
X134088780Y-99089604D01*
X134059189Y-99187153D01*
X134049197Y-99288600D01*
X134051701Y-99314022D01*
X134051700Y-101676187D01*
X134051700Y-101676188D01*
X134051701Y-105232177D01*
X134049197Y-105257600D01*
X134059189Y-105359047D01*
X134088780Y-105456596D01*
X134104907Y-105486767D01*
X134136834Y-105546498D01*
X134201503Y-105625298D01*
X134221243Y-105641498D01*
X134377812Y-105798067D01*
X134380469Y-105811426D01*
X134425133Y-105919254D01*
X134489975Y-106016297D01*
X134572503Y-106098825D01*
X134669546Y-106163667D01*
X134777374Y-106208331D01*
X134891844Y-106231100D01*
X135008556Y-106231100D01*
X135123026Y-106208331D01*
X135230854Y-106163667D01*
X135327897Y-106098825D01*
X135410425Y-106016297D01*
X135475267Y-105919254D01*
X135519931Y-105811426D01*
X135542700Y-105696956D01*
X135542700Y-105585035D01*
X135547113Y-105584600D01*
X135881700Y-105584600D01*
X135881700Y-105696956D01*
X135904469Y-105811426D01*
X135949133Y-105919254D01*
X136013975Y-106016297D01*
X136096503Y-106098825D01*
X136193546Y-106163667D01*
X136301374Y-106208331D01*
X136415844Y-106231100D01*
X136532556Y-106231100D01*
X136647026Y-106208331D01*
X136689288Y-106190825D01*
X136685733Y-106196146D01*
X136641069Y-106303974D01*
X136618300Y-106418444D01*
X136618300Y-106516500D01*
X132954700Y-106516500D01*
X132954700Y-97648700D01*
X167120900Y-97648700D01*
X167120901Y-106516500D01*
G04 #@! TA.AperFunction,Conductor*
D16*
G36*
X167120901Y-106516500D02*
G01*
X164745265Y-106516500D01*
X165501976Y-105759790D01*
X165523624Y-105742024D01*
X165566346Y-105689967D01*
X165594541Y-105655612D01*
X165631160Y-105587103D01*
X165647238Y-105557023D01*
X165679688Y-105450049D01*
X165687900Y-105366671D01*
X165687900Y-105366660D01*
X165690644Y-105338800D01*
X165687900Y-105310940D01*
X165687900Y-102535544D01*
X165734086Y-102466422D01*
X165772992Y-102372494D01*
X165786714Y-102405622D01*
X165862500Y-102519043D01*
X165958957Y-102615500D01*
X166072378Y-102691286D01*
X166198405Y-102743488D01*
X166332195Y-102770100D01*
X166468605Y-102770100D01*
X166602395Y-102743488D01*
X166728422Y-102691286D01*
X166841843Y-102615500D01*
X166938300Y-102519043D01*
X167014086Y-102405622D01*
X167066288Y-102279595D01*
X167092900Y-102145805D01*
X167092900Y-102009395D01*
X167066288Y-101875605D01*
X167014086Y-101749578D01*
X166967900Y-101680456D01*
X166967900Y-101556659D01*
X166970644Y-101528799D01*
X166967900Y-101500939D01*
X166967900Y-101500929D01*
X166959688Y-101417551D01*
X166927238Y-101310577D01*
X166874541Y-101211989D01*
X166803624Y-101125576D01*
X166781971Y-101107806D01*
X166587794Y-100913629D01*
X166570024Y-100891976D01*
X166483611Y-100821059D01*
X166385023Y-100768362D01*
X166278049Y-100735912D01*
X166194671Y-100727700D01*
X166194660Y-100727700D01*
X166166800Y-100724956D01*
X166138940Y-100727700D01*
X164721468Y-100727700D01*
X164693600Y-100724955D01*
X164665732Y-100727700D01*
X164665729Y-100727700D01*
X164582351Y-100735912D01*
X164475377Y-100768362D01*
X164429485Y-100792892D01*
X164376788Y-100821059D01*
X164312024Y-100874209D01*
X164312018Y-100874215D01*
X164290376Y-100891976D01*
X164272615Y-100913619D01*
X162731335Y-102454900D01*
X162609041Y-102454900D01*
X162635286Y-102415622D01*
X162687488Y-102289595D01*
X162714100Y-102155805D01*
X162714100Y-102019395D01*
X162687488Y-101885605D01*
X162635286Y-101759578D01*
X162589100Y-101690456D01*
X162589100Y-99463860D01*
X162591844Y-99436000D01*
X162589100Y-99408139D01*
X162589100Y-99408129D01*
X162580888Y-99324751D01*
X162548438Y-99217777D01*
X162519959Y-99164497D01*
X162495741Y-99119188D01*
X162442590Y-99054424D01*
X162424824Y-99032776D01*
X162403176Y-99015010D01*
X161456994Y-98068829D01*
X161439224Y-98047176D01*
X161352811Y-97976259D01*
X161254223Y-97923562D01*
X161147249Y-97891112D01*
X161063871Y-97882900D01*
X161063860Y-97882900D01*
X161036000Y-97880156D01*
X161008140Y-97882900D01*
X147500260Y-97882900D01*
X147472399Y-97880156D01*
X147444539Y-97882900D01*
X147444529Y-97882900D01*
X147361151Y-97891112D01*
X147254177Y-97923562D01*
X147208285Y-97948092D01*
X147155588Y-97976259D01*
X147146518Y-97983703D01*
X147069176Y-98047176D01*
X147051410Y-98068824D01*
X145922429Y-99197806D01*
X145900776Y-99215576D01*
X145829859Y-99301989D01*
X145777162Y-99400578D01*
X145744712Y-99507552D01*
X145736500Y-99590930D01*
X145736500Y-99590940D01*
X145733756Y-99618800D01*
X145736500Y-99646661D01*
X145736501Y-101364933D01*
X145459334Y-101642100D01*
X143985412Y-101642100D01*
X143980026Y-101639869D01*
X143865556Y-101617100D01*
X143748844Y-101617100D01*
X143634374Y-101639869D01*
X143526546Y-101684533D01*
X143429503Y-101749375D01*
X143346975Y-101831903D01*
X143282133Y-101928946D01*
X143237469Y-102036774D01*
X143214700Y-102151244D01*
X143214700Y-102267956D01*
X143237469Y-102382426D01*
X143282133Y-102490254D01*
X143346975Y-102587297D01*
X143429503Y-102669825D01*
X143526546Y-102734667D01*
X143634374Y-102779331D01*
X143748844Y-102802100D01*
X143865556Y-102802100D01*
X143980026Y-102779331D01*
X143985412Y-102777100D01*
X145666540Y-102777100D01*
X145694400Y-102779844D01*
X145722260Y-102777100D01*
X145722271Y-102777100D01*
X145805649Y-102768888D01*
X145912623Y-102736438D01*
X146011211Y-102683741D01*
X146097624Y-102612824D01*
X146115394Y-102591171D01*
X146685581Y-102020986D01*
X146707224Y-102003224D01*
X146724985Y-101981582D01*
X146724991Y-101981576D01*
X146778141Y-101916812D01*
X146816169Y-101845667D01*
X146830838Y-101818223D01*
X146863288Y-101711249D01*
X146871500Y-101627871D01*
X146871500Y-101627868D01*
X146874245Y-101600000D01*
X146871500Y-101572132D01*
X146871500Y-99853865D01*
X147707466Y-99017900D01*
X160800935Y-99017900D01*
X161454101Y-99671067D01*
X161454100Y-101690456D01*
X161407914Y-101759578D01*
X161355712Y-101885605D01*
X161329100Y-102019395D01*
X161329100Y-102155805D01*
X161355712Y-102289595D01*
X161407914Y-102415622D01*
X161434159Y-102454900D01*
X160001067Y-102454900D01*
X158459794Y-100913629D01*
X158442024Y-100891976D01*
X158355611Y-100821059D01*
X158257023Y-100768362D01*
X158150049Y-100735912D01*
X158066671Y-100727700D01*
X158066660Y-100727700D01*
X158038800Y-100724956D01*
X158010940Y-100727700D01*
X153035412Y-100727700D01*
X153030026Y-100725469D01*
X152915556Y-100702700D01*
X152798844Y-100702700D01*
X152684374Y-100725469D01*
X152576546Y-100770133D01*
X152479503Y-100834975D01*
X152396975Y-100917503D01*
X152332133Y-101014546D01*
X152287469Y-101122374D01*
X152264700Y-101236844D01*
X152264700Y-101353556D01*
X152287469Y-101468026D01*
X152332133Y-101575854D01*
X152396975Y-101672897D01*
X152479503Y-101755425D01*
X152576546Y-101820267D01*
X152684374Y-101864931D01*
X152798844Y-101887700D01*
X152915556Y-101887700D01*
X153030026Y-101864931D01*
X153035412Y-101862700D01*
X157803735Y-101862700D01*
X159345015Y-103403981D01*
X159362776Y-103425624D01*
X159384418Y-103443385D01*
X159384424Y-103443391D01*
X159449188Y-103496541D01*
X159496718Y-103521946D01*
X159547777Y-103549238D01*
X159654751Y-103581688D01*
X159738129Y-103589900D01*
X159738132Y-103589900D01*
X159766000Y-103592645D01*
X159793868Y-103589900D01*
X162938540Y-103589900D01*
X162966400Y-103592644D01*
X162994260Y-103589900D01*
X162994271Y-103589900D01*
X163077649Y-103581688D01*
X163184623Y-103549238D01*
X163283211Y-103496541D01*
X163369624Y-103425624D01*
X163387394Y-103403971D01*
X164453925Y-102337442D01*
X164454512Y-102340395D01*
X164506714Y-102466422D01*
X164552901Y-102535545D01*
X164552900Y-105103734D01*
X163950535Y-105706100D01*
X153797700Y-105706100D01*
X153797700Y-104029613D01*
X153800203Y-104004200D01*
X153790211Y-103902752D01*
X153772247Y-103843533D01*
X153760620Y-103805203D01*
X153712567Y-103715302D01*
X153647898Y-103636502D01*
X153628152Y-103620297D01*
X153208503Y-103200648D01*
X153192298Y-103180902D01*
X153174262Y-103166100D01*
X153589845Y-103166100D01*
X154570812Y-104147068D01*
X154573469Y-104160426D01*
X154618133Y-104268254D01*
X154682975Y-104365297D01*
X154765503Y-104447825D01*
X154862546Y-104512667D01*
X154970374Y-104557331D01*
X155084844Y-104580100D01*
X155201556Y-104580100D01*
X155316026Y-104557331D01*
X155423854Y-104512667D01*
X155520897Y-104447825D01*
X155603425Y-104365297D01*
X155668267Y-104268254D01*
X155712931Y-104160426D01*
X155735700Y-104045956D01*
X155735700Y-103929244D01*
X155712931Y-103814774D01*
X155668267Y-103706946D01*
X155603425Y-103609903D01*
X155520897Y-103527375D01*
X155423854Y-103462533D01*
X155316026Y-103417869D01*
X155302668Y-103415212D01*
X154188103Y-102300648D01*
X154171898Y-102280902D01*
X154093098Y-102216233D01*
X154003197Y-102168180D01*
X153905648Y-102138589D01*
X153829613Y-102131100D01*
X153804200Y-102128597D01*
X153778787Y-102131100D01*
X152133179Y-102131100D01*
X152121854Y-102123533D01*
X152014026Y-102078869D01*
X151899556Y-102056100D01*
X151782844Y-102056100D01*
X151668374Y-102078869D01*
X151560546Y-102123533D01*
X151463503Y-102188375D01*
X151380975Y-102270903D01*
X151333200Y-102342403D01*
X151285425Y-102270903D01*
X151202897Y-102188375D01*
X151105854Y-102123533D01*
X150998026Y-102078869D01*
X150883556Y-102056100D01*
X150766844Y-102056100D01*
X150652374Y-102078869D01*
X150544546Y-102123533D01*
X150447503Y-102188375D01*
X150364975Y-102270903D01*
X150300133Y-102367946D01*
X150283165Y-102408910D01*
X149724700Y-101850445D01*
X149724700Y-100812244D01*
X150232700Y-100812244D01*
X150232700Y-100928956D01*
X150255469Y-101043426D01*
X150300133Y-101151254D01*
X150364975Y-101248297D01*
X150447503Y-101330825D01*
X150544546Y-101395667D01*
X150652374Y-101440331D01*
X150766844Y-101463100D01*
X150883556Y-101463100D01*
X150998026Y-101440331D01*
X151105854Y-101395667D01*
X151202897Y-101330825D01*
X151285425Y-101248297D01*
X151350267Y-101151254D01*
X151394931Y-101043426D01*
X151417700Y-100928956D01*
X151417700Y-100812244D01*
X151394931Y-100697774D01*
X151350267Y-100589946D01*
X151285425Y-100492903D01*
X151202897Y-100410375D01*
X151105854Y-100345533D01*
X150998026Y-100300869D01*
X150883556Y-100278100D01*
X150766844Y-100278100D01*
X150652374Y-100300869D01*
X150544546Y-100345533D01*
X150447503Y-100410375D01*
X150364975Y-100492903D01*
X150300133Y-100589946D01*
X150255469Y-100697774D01*
X150232700Y-100812244D01*
X149724700Y-100812244D01*
X149724700Y-99961579D01*
X149732267Y-99950254D01*
X149776931Y-99842426D01*
X149799700Y-99727956D01*
X149799700Y-99611244D01*
X149776931Y-99496774D01*
X149732267Y-99388946D01*
X149667425Y-99291903D01*
X149584897Y-99209375D01*
X149487854Y-99144533D01*
X149380026Y-99099869D01*
X149265556Y-99077100D01*
X149148844Y-99077100D01*
X149034374Y-99099869D01*
X148926546Y-99144533D01*
X148829503Y-99209375D01*
X148746975Y-99291903D01*
X148682133Y-99388946D01*
X148637469Y-99496774D01*
X148614700Y-99611244D01*
X148614700Y-99727956D01*
X148637469Y-99842426D01*
X148682133Y-99950254D01*
X148689701Y-99961580D01*
X148689700Y-102039387D01*
X148687197Y-102064800D01*
X148689700Y-102090212D01*
X148697189Y-102166247D01*
X148726780Y-102263796D01*
X148774833Y-102353698D01*
X148839502Y-102432498D01*
X148859248Y-102448703D01*
X149305612Y-102895067D01*
X149265556Y-102887100D01*
X149148844Y-102887100D01*
X149034374Y-102909869D01*
X148926546Y-102954533D01*
X148829503Y-103019375D01*
X148746975Y-103101903D01*
X148682133Y-103198946D01*
X148637469Y-103306774D01*
X148614700Y-103421244D01*
X148614700Y-103537956D01*
X148637469Y-103652426D01*
X148682133Y-103760254D01*
X148746975Y-103857297D01*
X148829503Y-103939825D01*
X148926546Y-104004667D01*
X149034374Y-104049331D01*
X149148844Y-104072100D01*
X149265556Y-104072100D01*
X149380026Y-104049331D01*
X149487854Y-104004667D01*
X149584897Y-103939825D01*
X149667425Y-103857297D01*
X149732267Y-103760254D01*
X149776931Y-103652426D01*
X149799700Y-103537956D01*
X149799700Y-103421244D01*
X149791733Y-103381188D01*
X150238101Y-103827557D01*
X150254302Y-103847298D01*
X150333102Y-103911967D01*
X150423003Y-103960020D01*
X150520551Y-103989611D01*
X150621999Y-103999603D01*
X150647412Y-103997100D01*
X151053787Y-103997100D01*
X151079200Y-103999603D01*
X151104613Y-103997100D01*
X151180648Y-103989611D01*
X151278197Y-103960020D01*
X151368098Y-103911967D01*
X151370231Y-103910217D01*
X151380975Y-103926297D01*
X151463503Y-104008825D01*
X151560546Y-104073667D01*
X151668374Y-104118331D01*
X151782844Y-104141100D01*
X151899556Y-104141100D01*
X152014026Y-104118331D01*
X152121854Y-104073667D01*
X152133179Y-104066100D01*
X152610245Y-104066100D01*
X152762700Y-104218555D01*
X152762701Y-105756100D01*
X152687700Y-105756100D01*
X152687700Y-105656444D01*
X152664931Y-105541974D01*
X152620267Y-105434146D01*
X152555425Y-105337103D01*
X152472897Y-105254575D01*
X152375854Y-105189733D01*
X152268026Y-105145069D01*
X152153556Y-105122300D01*
X152036844Y-105122300D01*
X151922374Y-105145069D01*
X151814546Y-105189733D01*
X151717503Y-105254575D01*
X151634975Y-105337103D01*
X151570133Y-105434146D01*
X151525469Y-105541974D01*
X151502700Y-105656444D01*
X151502700Y-105756100D01*
X150037812Y-105756100D01*
X150012399Y-105753597D01*
X149910951Y-105763589D01*
X149813403Y-105793180D01*
X149765367Y-105818856D01*
X149732267Y-105738946D01*
X149667425Y-105641903D01*
X149584897Y-105559375D01*
X149487854Y-105494533D01*
X149380026Y-105449869D01*
X149265556Y-105427100D01*
X149148844Y-105427100D01*
X149034374Y-105449869D01*
X148926546Y-105494533D01*
X148829503Y-105559375D01*
X148746975Y-105641903D01*
X148682133Y-105738946D01*
X148637469Y-105846774D01*
X148614700Y-105961244D01*
X148614700Y-106060900D01*
X145772188Y-106060900D01*
X145778900Y-106027156D01*
X145778900Y-105910444D01*
X145756131Y-105795974D01*
X145711467Y-105688146D01*
X145646625Y-105591103D01*
X145564097Y-105508575D01*
X145467054Y-105443733D01*
X145359226Y-105399069D01*
X145244756Y-105376300D01*
X145128044Y-105376300D01*
X145013574Y-105399069D01*
X144905746Y-105443733D01*
X144808703Y-105508575D01*
X144726175Y-105591103D01*
X144661333Y-105688146D01*
X144616669Y-105795974D01*
X144593900Y-105910444D01*
X144593900Y-106027156D01*
X144600612Y-106060900D01*
X141015355Y-106060900D01*
X140729588Y-105775133D01*
X140726931Y-105761774D01*
X140716021Y-105735435D01*
X141013157Y-105438299D01*
X141032898Y-105422098D01*
X141097567Y-105343298D01*
X141145620Y-105253397D01*
X141156439Y-105217731D01*
X141175211Y-105155849D01*
X141185203Y-105054401D01*
X141182700Y-105028988D01*
X141182700Y-103767300D01*
X141231556Y-103767300D01*
X141346026Y-103744531D01*
X141446775Y-103702799D01*
X141467069Y-103804826D01*
X141511733Y-103912654D01*
X141576575Y-104009697D01*
X141659103Y-104092225D01*
X141756146Y-104157067D01*
X141863974Y-104201731D01*
X141877333Y-104204388D01*
X142770501Y-105097557D01*
X142786702Y-105117298D01*
X142865502Y-105181967D01*
X142950784Y-105227551D01*
X142955403Y-105230020D01*
X143052952Y-105259611D01*
X143154399Y-105269603D01*
X143179812Y-105267100D01*
X148907621Y-105267100D01*
X148918946Y-105274667D01*
X149026774Y-105319331D01*
X149141244Y-105342100D01*
X149257956Y-105342100D01*
X149372426Y-105319331D01*
X149480254Y-105274667D01*
X149577297Y-105209825D01*
X149659825Y-105127297D01*
X149724667Y-105030254D01*
X149769331Y-104922426D01*
X149792100Y-104807956D01*
X149792100Y-104691244D01*
X149771891Y-104589644D01*
X150385100Y-104589644D01*
X150385100Y-104706356D01*
X150407869Y-104820826D01*
X150452533Y-104928654D01*
X150517375Y-105025697D01*
X150599903Y-105108225D01*
X150696946Y-105173067D01*
X150804774Y-105217731D01*
X150919244Y-105240500D01*
X151035956Y-105240500D01*
X151150426Y-105217731D01*
X151258254Y-105173067D01*
X151355297Y-105108225D01*
X151437825Y-105025697D01*
X151502667Y-104928654D01*
X151547331Y-104820826D01*
X151570100Y-104706356D01*
X151570100Y-104589644D01*
X151547331Y-104475174D01*
X151502667Y-104367346D01*
X151437825Y-104270303D01*
X151355297Y-104187775D01*
X151258254Y-104122933D01*
X151150426Y-104078269D01*
X151035956Y-104055500D01*
X150919244Y-104055500D01*
X150804774Y-104078269D01*
X150696946Y-104122933D01*
X150599903Y-104187775D01*
X150517375Y-104270303D01*
X150452533Y-104367346D01*
X150407869Y-104475174D01*
X150385100Y-104589644D01*
X149771891Y-104589644D01*
X149769331Y-104576774D01*
X149724667Y-104468946D01*
X149659825Y-104371903D01*
X149577297Y-104289375D01*
X149480254Y-104224533D01*
X149372426Y-104179869D01*
X149257956Y-104157100D01*
X149141244Y-104157100D01*
X149026774Y-104179869D01*
X148918946Y-104224533D01*
X148907621Y-104232100D01*
X143368756Y-104232100D01*
X142609188Y-103472533D01*
X142606531Y-103459174D01*
X142561867Y-103351346D01*
X142497025Y-103254303D01*
X142414497Y-103171775D01*
X142317454Y-103106933D01*
X142209626Y-103062269D01*
X142095156Y-103039500D01*
X141978444Y-103039500D01*
X141863974Y-103062269D01*
X141763225Y-103104001D01*
X141742931Y-103001974D01*
X141698267Y-102894146D01*
X141633425Y-102797103D01*
X141550897Y-102714575D01*
X141453854Y-102649733D01*
X141346026Y-102605069D01*
X141231556Y-102582300D01*
X141114844Y-102582300D01*
X141000374Y-102605069D01*
X140892546Y-102649733D01*
X140795503Y-102714575D01*
X140713767Y-102796311D01*
X140674700Y-102757245D01*
X140674700Y-101866579D01*
X140682267Y-101855254D01*
X140726931Y-101747426D01*
X140742389Y-101669711D01*
X140795503Y-101722825D01*
X140892546Y-101787667D01*
X141000374Y-101832331D01*
X141114844Y-101855100D01*
X141231556Y-101855100D01*
X141346026Y-101832331D01*
X141453854Y-101787667D01*
X141550897Y-101722825D01*
X141633425Y-101640297D01*
X141698267Y-101543254D01*
X141742931Y-101435426D01*
X141765700Y-101320956D01*
X141765700Y-101204244D01*
X141742931Y-101089774D01*
X141698267Y-100981946D01*
X141633425Y-100884903D01*
X141550897Y-100802375D01*
X141453854Y-100737533D01*
X141346026Y-100692869D01*
X141231556Y-100670100D01*
X141114844Y-100670100D01*
X141000374Y-100692869D01*
X140892546Y-100737533D01*
X140795503Y-100802375D01*
X140712975Y-100884903D01*
X140674700Y-100942186D01*
X140674700Y-98776579D01*
X140682267Y-98765254D01*
X140726931Y-98657426D01*
X140749700Y-98542956D01*
X140749700Y-98426244D01*
X140726931Y-98311774D01*
X140682267Y-98203946D01*
X140617425Y-98106903D01*
X140534897Y-98024375D01*
X140437854Y-97959533D01*
X140330026Y-97914869D01*
X140319332Y-97912742D01*
X140312898Y-97904902D01*
X140234098Y-97840233D01*
X140144197Y-97792180D01*
X140046648Y-97762589D01*
X139970613Y-97755100D01*
X139945200Y-97752597D01*
X139919787Y-97755100D01*
X135610612Y-97755100D01*
X135585199Y-97752597D01*
X135483751Y-97762589D01*
X135386203Y-97792180D01*
X135296302Y-97840233D01*
X135217502Y-97904902D01*
X135201301Y-97924643D01*
X134917733Y-98208212D01*
X134904374Y-98210869D01*
X134796546Y-98255533D01*
X134699503Y-98320375D01*
X134616975Y-98402903D01*
X134552133Y-98499946D01*
X134507469Y-98607774D01*
X134504812Y-98621133D01*
X134221243Y-98904702D01*
X134201503Y-98920902D01*
X134136834Y-98999702D01*
X134127107Y-99017900D01*
X134088780Y-99089604D01*
X134059189Y-99187153D01*
X134049197Y-99288600D01*
X134051701Y-99314022D01*
X134051700Y-101676187D01*
X134051700Y-101676188D01*
X134051701Y-105232177D01*
X134049197Y-105257600D01*
X134059189Y-105359047D01*
X134088780Y-105456596D01*
X134104907Y-105486767D01*
X134136834Y-105546498D01*
X134201503Y-105625298D01*
X134221243Y-105641498D01*
X134377812Y-105798067D01*
X134380469Y-105811426D01*
X134425133Y-105919254D01*
X134489975Y-106016297D01*
X134572503Y-106098825D01*
X134669546Y-106163667D01*
X134777374Y-106208331D01*
X134891844Y-106231100D01*
X135008556Y-106231100D01*
X135123026Y-106208331D01*
X135230854Y-106163667D01*
X135327897Y-106098825D01*
X135410425Y-106016297D01*
X135475267Y-105919254D01*
X135519931Y-105811426D01*
X135542700Y-105696956D01*
X135542700Y-105585035D01*
X135547113Y-105584600D01*
X135881700Y-105584600D01*
X135881700Y-105696956D01*
X135904469Y-105811426D01*
X135949133Y-105919254D01*
X136013975Y-106016297D01*
X136096503Y-106098825D01*
X136193546Y-106163667D01*
X136301374Y-106208331D01*
X136415844Y-106231100D01*
X136532556Y-106231100D01*
X136647026Y-106208331D01*
X136689288Y-106190825D01*
X136685733Y-106196146D01*
X136641069Y-106303974D01*
X136618300Y-106418444D01*
X136618300Y-106516500D01*
X132954700Y-106516500D01*
X132954700Y-97648700D01*
X167120900Y-97648700D01*
X167120901Y-106516500D01*
G37*
G04 #@! TD.AperFunction*
D15*
X136344301Y-101668557D02*
X136360502Y-101688298D01*
X136439302Y-101752967D01*
X136529203Y-101801020D01*
X136626751Y-101830611D01*
X136688049Y-101836648D01*
X136701546Y-101845667D01*
X136809374Y-101890331D01*
X136923844Y-101913100D01*
X137040556Y-101913100D01*
X137155026Y-101890331D01*
X137262854Y-101845667D01*
X137359897Y-101780825D01*
X137442425Y-101698297D01*
X137455489Y-101678745D01*
X137552812Y-101776068D01*
X137555469Y-101789426D01*
X137600133Y-101897254D01*
X137664975Y-101994297D01*
X137747503Y-102076825D01*
X137844546Y-102141667D01*
X137952374Y-102186331D01*
X138066844Y-102209100D01*
X138183556Y-102209100D01*
X138298026Y-102186331D01*
X138405854Y-102141667D01*
X138502897Y-102076825D01*
X138585425Y-101994297D01*
X138650267Y-101897254D01*
X138694931Y-101789426D01*
X138717700Y-101674956D01*
X138717700Y-101558244D01*
X138694931Y-101443774D01*
X138650267Y-101335946D01*
X138585425Y-101238903D01*
X138502897Y-101156375D01*
X138405854Y-101091533D01*
X138345661Y-101066600D01*
X138405854Y-101041667D01*
X138502897Y-100976825D01*
X138585425Y-100894297D01*
X138603625Y-100867058D01*
X138616133Y-100897254D01*
X138680975Y-100994297D01*
X138763503Y-101076825D01*
X138860546Y-101141667D01*
X138968374Y-101186331D01*
X139082844Y-101209100D01*
X139199556Y-101209100D01*
X139314026Y-101186331D01*
X139421854Y-101141667D01*
X139518897Y-101076825D01*
X139601425Y-100994297D01*
X139639700Y-100937014D01*
X139639700Y-101282621D01*
X139632133Y-101293946D01*
X139587469Y-101401774D01*
X139564700Y-101516244D01*
X139564700Y-101632956D01*
X139581755Y-101718700D01*
X139540044Y-101718700D01*
X139425574Y-101741469D01*
X139317746Y-101786133D01*
X139220703Y-101850975D01*
X139138175Y-101933503D01*
X139073333Y-102030546D01*
X139028669Y-102138374D01*
X139005900Y-102252844D01*
X139005900Y-102369556D01*
X139028669Y-102484026D01*
X139073333Y-102591854D01*
X139138175Y-102688897D01*
X139220703Y-102771425D01*
X139317746Y-102836267D01*
X139425574Y-102880931D01*
X139540044Y-102903700D01*
X139639701Y-102903700D01*
X139639701Y-102946178D01*
X139637197Y-102971600D01*
X139647189Y-103073047D01*
X139676780Y-103170596D01*
X139692523Y-103200048D01*
X139724834Y-103260498D01*
X139740065Y-103279057D01*
X139645303Y-103342375D01*
X139562775Y-103424903D01*
X139497933Y-103521946D01*
X139453269Y-103629774D01*
X139430500Y-103744244D01*
X139430500Y-103860956D01*
X139453269Y-103975426D01*
X139497933Y-104083254D01*
X139562775Y-104180297D01*
X139645303Y-104262825D01*
X139742346Y-104327667D01*
X139850174Y-104372331D01*
X139964644Y-104395100D01*
X140081356Y-104395100D01*
X140147701Y-104381904D01*
X140147701Y-104840043D01*
X139809248Y-105178497D01*
X139789502Y-105194702D01*
X139724833Y-105273502D01*
X139684104Y-105349702D01*
X139676780Y-105363404D01*
X139647189Y-105460953D01*
X139637197Y-105562400D01*
X139639700Y-105587813D01*
X139639700Y-105642621D01*
X139632133Y-105653946D01*
X139587469Y-105761774D01*
X139564700Y-105876244D01*
X139564700Y-105992956D01*
X139587469Y-106107426D01*
X139632133Y-106215254D01*
X139696975Y-106312297D01*
X139779503Y-106394825D01*
X139876546Y-106459667D01*
X139984374Y-106504331D01*
X139997733Y-106506988D01*
X140007245Y-106516500D01*
X137803300Y-106516500D01*
X137803300Y-106418444D01*
X137780531Y-106303974D01*
X137745811Y-106220154D01*
X137800844Y-106231100D01*
X137917556Y-106231100D01*
X138032026Y-106208331D01*
X138139854Y-106163667D01*
X138236897Y-106098825D01*
X138319425Y-106016297D01*
X138384267Y-105919254D01*
X138428931Y-105811426D01*
X138451700Y-105696956D01*
X138451700Y-105580244D01*
X138428931Y-105465774D01*
X138384267Y-105357946D01*
X138319425Y-105260903D01*
X138236897Y-105178375D01*
X138139854Y-105113533D01*
X138034243Y-105069787D01*
X137840700Y-104876244D01*
X138548700Y-104876244D01*
X138548700Y-104992956D01*
X138571469Y-105107426D01*
X138616133Y-105215254D01*
X138680975Y-105312297D01*
X138763503Y-105394825D01*
X138860546Y-105459667D01*
X138968374Y-105504331D01*
X139082844Y-105527100D01*
X139199556Y-105527100D01*
X139314026Y-105504331D01*
X139421854Y-105459667D01*
X139518897Y-105394825D01*
X139601425Y-105312297D01*
X139666267Y-105215254D01*
X139710931Y-105107426D01*
X139733700Y-104992956D01*
X139733700Y-104876244D01*
X139710931Y-104761774D01*
X139666267Y-104653946D01*
X139601425Y-104556903D01*
X139518897Y-104474375D01*
X139421854Y-104409533D01*
X139314026Y-104364869D01*
X139199556Y-104342100D01*
X139082844Y-104342100D01*
X138968374Y-104364869D01*
X138860546Y-104409533D01*
X138763503Y-104474375D01*
X138680975Y-104556903D01*
X138616133Y-104653946D01*
X138571469Y-104761774D01*
X138548700Y-104876244D01*
X137840700Y-104876244D01*
X137683603Y-104719148D01*
X137667398Y-104699402D01*
X137624360Y-104664082D01*
X137634267Y-104649254D01*
X137678931Y-104541426D01*
X137701700Y-104426956D01*
X137701700Y-104402022D01*
X137747503Y-104447825D01*
X137844546Y-104512667D01*
X137952374Y-104557331D01*
X138066844Y-104580100D01*
X138183556Y-104580100D01*
X138298026Y-104557331D01*
X138405854Y-104512667D01*
X138502897Y-104447825D01*
X138585425Y-104365297D01*
X138650267Y-104268254D01*
X138694931Y-104160426D01*
X138717700Y-104045956D01*
X138717700Y-103929244D01*
X138694931Y-103814774D01*
X138650267Y-103706946D01*
X138585425Y-103609903D01*
X138502897Y-103527375D01*
X138405854Y-103462533D01*
X138298026Y-103417869D01*
X138251117Y-103408538D01*
X138284668Y-103374988D01*
X138298026Y-103372331D01*
X138405854Y-103327667D01*
X138502897Y-103262825D01*
X138585425Y-103180297D01*
X138650267Y-103083254D01*
X138694931Y-102975426D01*
X138717700Y-102860956D01*
X138717700Y-102744244D01*
X138694931Y-102629774D01*
X138650267Y-102521946D01*
X138585425Y-102424903D01*
X138502897Y-102342375D01*
X138405854Y-102277533D01*
X138298026Y-102232869D01*
X138183556Y-102210100D01*
X138066844Y-102210100D01*
X137952374Y-102232869D01*
X137844546Y-102277533D01*
X137747503Y-102342375D01*
X137664975Y-102424903D01*
X137600133Y-102521946D01*
X137555469Y-102629774D01*
X137552812Y-102643132D01*
X137455489Y-102740455D01*
X137442425Y-102720903D01*
X137359897Y-102638375D01*
X137262854Y-102573533D01*
X137155026Y-102528869D01*
X137040556Y-102506100D01*
X136923844Y-102506100D01*
X136809374Y-102528869D01*
X136701546Y-102573533D01*
X136604503Y-102638375D01*
X136588522Y-102654356D01*
X136566302Y-102666233D01*
X136487502Y-102730902D01*
X136471301Y-102750643D01*
X135171733Y-104050212D01*
X135158374Y-104052869D01*
X135086700Y-104082557D01*
X135086700Y-100410955D01*
X136344301Y-101668557D01*
G04 #@! TA.AperFunction,Conductor*
D16*
G36*
X136344301Y-101668557D02*
G01*
X136360502Y-101688298D01*
X136439302Y-101752967D01*
X136529203Y-101801020D01*
X136626751Y-101830611D01*
X136688049Y-101836648D01*
X136701546Y-101845667D01*
X136809374Y-101890331D01*
X136923844Y-101913100D01*
X137040556Y-101913100D01*
X137155026Y-101890331D01*
X137262854Y-101845667D01*
X137359897Y-101780825D01*
X137442425Y-101698297D01*
X137455489Y-101678745D01*
X137552812Y-101776068D01*
X137555469Y-101789426D01*
X137600133Y-101897254D01*
X137664975Y-101994297D01*
X137747503Y-102076825D01*
X137844546Y-102141667D01*
X137952374Y-102186331D01*
X138066844Y-102209100D01*
X138183556Y-102209100D01*
X138298026Y-102186331D01*
X138405854Y-102141667D01*
X138502897Y-102076825D01*
X138585425Y-101994297D01*
X138650267Y-101897254D01*
X138694931Y-101789426D01*
X138717700Y-101674956D01*
X138717700Y-101558244D01*
X138694931Y-101443774D01*
X138650267Y-101335946D01*
X138585425Y-101238903D01*
X138502897Y-101156375D01*
X138405854Y-101091533D01*
X138345661Y-101066600D01*
X138405854Y-101041667D01*
X138502897Y-100976825D01*
X138585425Y-100894297D01*
X138603625Y-100867058D01*
X138616133Y-100897254D01*
X138680975Y-100994297D01*
X138763503Y-101076825D01*
X138860546Y-101141667D01*
X138968374Y-101186331D01*
X139082844Y-101209100D01*
X139199556Y-101209100D01*
X139314026Y-101186331D01*
X139421854Y-101141667D01*
X139518897Y-101076825D01*
X139601425Y-100994297D01*
X139639700Y-100937014D01*
X139639700Y-101282621D01*
X139632133Y-101293946D01*
X139587469Y-101401774D01*
X139564700Y-101516244D01*
X139564700Y-101632956D01*
X139581755Y-101718700D01*
X139540044Y-101718700D01*
X139425574Y-101741469D01*
X139317746Y-101786133D01*
X139220703Y-101850975D01*
X139138175Y-101933503D01*
X139073333Y-102030546D01*
X139028669Y-102138374D01*
X139005900Y-102252844D01*
X139005900Y-102369556D01*
X139028669Y-102484026D01*
X139073333Y-102591854D01*
X139138175Y-102688897D01*
X139220703Y-102771425D01*
X139317746Y-102836267D01*
X139425574Y-102880931D01*
X139540044Y-102903700D01*
X139639701Y-102903700D01*
X139639701Y-102946178D01*
X139637197Y-102971600D01*
X139647189Y-103073047D01*
X139676780Y-103170596D01*
X139692523Y-103200048D01*
X139724834Y-103260498D01*
X139740065Y-103279057D01*
X139645303Y-103342375D01*
X139562775Y-103424903D01*
X139497933Y-103521946D01*
X139453269Y-103629774D01*
X139430500Y-103744244D01*
X139430500Y-103860956D01*
X139453269Y-103975426D01*
X139497933Y-104083254D01*
X139562775Y-104180297D01*
X139645303Y-104262825D01*
X139742346Y-104327667D01*
X139850174Y-104372331D01*
X139964644Y-104395100D01*
X140081356Y-104395100D01*
X140147701Y-104381904D01*
X140147701Y-104840043D01*
X139809248Y-105178497D01*
X139789502Y-105194702D01*
X139724833Y-105273502D01*
X139684104Y-105349702D01*
X139676780Y-105363404D01*
X139647189Y-105460953D01*
X139637197Y-105562400D01*
X139639700Y-105587813D01*
X139639700Y-105642621D01*
X139632133Y-105653946D01*
X139587469Y-105761774D01*
X139564700Y-105876244D01*
X139564700Y-105992956D01*
X139587469Y-106107426D01*
X139632133Y-106215254D01*
X139696975Y-106312297D01*
X139779503Y-106394825D01*
X139876546Y-106459667D01*
X139984374Y-106504331D01*
X139997733Y-106506988D01*
X140007245Y-106516500D01*
X137803300Y-106516500D01*
X137803300Y-106418444D01*
X137780531Y-106303974D01*
X137745811Y-106220154D01*
X137800844Y-106231100D01*
X137917556Y-106231100D01*
X138032026Y-106208331D01*
X138139854Y-106163667D01*
X138236897Y-106098825D01*
X138319425Y-106016297D01*
X138384267Y-105919254D01*
X138428931Y-105811426D01*
X138451700Y-105696956D01*
X138451700Y-105580244D01*
X138428931Y-105465774D01*
X138384267Y-105357946D01*
X138319425Y-105260903D01*
X138236897Y-105178375D01*
X138139854Y-105113533D01*
X138034243Y-105069787D01*
X137840700Y-104876244D01*
X138548700Y-104876244D01*
X138548700Y-104992956D01*
X138571469Y-105107426D01*
X138616133Y-105215254D01*
X138680975Y-105312297D01*
X138763503Y-105394825D01*
X138860546Y-105459667D01*
X138968374Y-105504331D01*
X139082844Y-105527100D01*
X139199556Y-105527100D01*
X139314026Y-105504331D01*
X139421854Y-105459667D01*
X139518897Y-105394825D01*
X139601425Y-105312297D01*
X139666267Y-105215254D01*
X139710931Y-105107426D01*
X139733700Y-104992956D01*
X139733700Y-104876244D01*
X139710931Y-104761774D01*
X139666267Y-104653946D01*
X139601425Y-104556903D01*
X139518897Y-104474375D01*
X139421854Y-104409533D01*
X139314026Y-104364869D01*
X139199556Y-104342100D01*
X139082844Y-104342100D01*
X138968374Y-104364869D01*
X138860546Y-104409533D01*
X138763503Y-104474375D01*
X138680975Y-104556903D01*
X138616133Y-104653946D01*
X138571469Y-104761774D01*
X138548700Y-104876244D01*
X137840700Y-104876244D01*
X137683603Y-104719148D01*
X137667398Y-104699402D01*
X137624360Y-104664082D01*
X137634267Y-104649254D01*
X137678931Y-104541426D01*
X137701700Y-104426956D01*
X137701700Y-104402022D01*
X137747503Y-104447825D01*
X137844546Y-104512667D01*
X137952374Y-104557331D01*
X138066844Y-104580100D01*
X138183556Y-104580100D01*
X138298026Y-104557331D01*
X138405854Y-104512667D01*
X138502897Y-104447825D01*
X138585425Y-104365297D01*
X138650267Y-104268254D01*
X138694931Y-104160426D01*
X138717700Y-104045956D01*
X138717700Y-103929244D01*
X138694931Y-103814774D01*
X138650267Y-103706946D01*
X138585425Y-103609903D01*
X138502897Y-103527375D01*
X138405854Y-103462533D01*
X138298026Y-103417869D01*
X138251117Y-103408538D01*
X138284668Y-103374988D01*
X138298026Y-103372331D01*
X138405854Y-103327667D01*
X138502897Y-103262825D01*
X138585425Y-103180297D01*
X138650267Y-103083254D01*
X138694931Y-102975426D01*
X138717700Y-102860956D01*
X138717700Y-102744244D01*
X138694931Y-102629774D01*
X138650267Y-102521946D01*
X138585425Y-102424903D01*
X138502897Y-102342375D01*
X138405854Y-102277533D01*
X138298026Y-102232869D01*
X138183556Y-102210100D01*
X138066844Y-102210100D01*
X137952374Y-102232869D01*
X137844546Y-102277533D01*
X137747503Y-102342375D01*
X137664975Y-102424903D01*
X137600133Y-102521946D01*
X137555469Y-102629774D01*
X137552812Y-102643132D01*
X137455489Y-102740455D01*
X137442425Y-102720903D01*
X137359897Y-102638375D01*
X137262854Y-102573533D01*
X137155026Y-102528869D01*
X137040556Y-102506100D01*
X136923844Y-102506100D01*
X136809374Y-102528869D01*
X136701546Y-102573533D01*
X136604503Y-102638375D01*
X136588522Y-102654356D01*
X136566302Y-102666233D01*
X136487502Y-102730902D01*
X136471301Y-102750643D01*
X135171733Y-104050212D01*
X135158374Y-104052869D01*
X135086700Y-104082557D01*
X135086700Y-100410955D01*
X136344301Y-101668557D01*
G37*
G04 #@! TD.AperFunction*
M02*
